<svg xmlns="http://www.w3.org/2000/svg" width="32.454" height="40.708" viewBox="0 0 32.454 40.708"><defs><style>.a{fill:#84c12d;stroke:#84c12d;}</style></defs><path class="a" d="M42.288,11.76c.144-.048.192-.192.192-.384,0-.624-.624-1.632-1.392-1.632-.72,0-1.344.912-2.736,3.312L36.24,16.7a13.8,13.8,0,0,0-5.52,1.632c-1.488.912-2.448,2.112-2.448,3.552a3.062,3.062,0,0,0,1.152,2.544c.432.432.96.96,1.632,1.728-1.872,3.5-3.5,6.912-4.9,9.744a9.056,9.056,0,0,1-2.976-.576c-1.1-.48-1.392-1.1-1.968-1.1a.852.852,0,0,0-.816.96,2.542,2.542,0,0,0,1.2,1.872A7.9,7.9,0,0,0,25.056,38.4c-.72,1.536-1.2,2.592-1.44,3.312a3.071,3.071,0,0,0-.24,1.008,1.611,1.611,0,0,0,.528,1.1,1.358,1.358,0,0,0,.96.432c.432,0,.72-.192.768-1.1a6,6,0,0,1,.528-1.728c.336-.864.816-1.92,1.3-2.928a12.92,12.92,0,0,0,5.472-1.776,6.816,6.816,0,0,0,3.552-5.808c0-1.92-1.344-3.744-2.736-5.28,1.2-2.448,2.4-4.416,3.744-6.768a11.223,11.223,0,0,1,2.928.288c.72.192.816.432,1.2.432.432,0,.672-.528.672-1.1a1.61,1.61,0,0,0-.576-1.392c-.48-.384-1.44-.432-2.928-.48a48.6,48.6,0,0,1,2.736-4.08C41.9,12.048,42.144,11.808,42.288,11.76ZM33.312,33.936a7.43,7.43,0,0,1-4.656,1.92c1.056-2.4,3.888-7.872,3.888-7.872a7.149,7.149,0,0,1,1.488,3.888A3.375,3.375,0,0,1,33.312,33.936ZM30.48,21.792c0-.576.528-1.152,1.3-1.584a9.269,9.269,0,0,1,3.12-1.1c-.912,1.584-1.824,3.264-2.736,4.944C31.248,23.088,30.48,22.224,30.48,21.792Z" transform="translate(-21.733 3.726) rotate(-17)"/></svg>