<svg xmlns="http://www.w3.org/2000/svg" xmlns:xlink="http://www.w3.org/1999/xlink" width="25.147" height="27" viewBox="0 0 25.147 27"><defs><style>.a{fill:#bbe048;}.b{clip-path:url(#a);}</style><clipPath id="a"><rect class="a" width="25.147" height="27" transform="translate(-2 -3)"/></clipPath></defs><g transform="translate(2 3)"><g class="b" transform="translate(0 0)"><path class="a" d="M18.2,8.728A86.814,86.814,0,0,1,.557,21.661c-1.276.707-.134,2.665,1.143,1.956A89.233,89.233,0,0,0,19.8,10.33c1.06-1.005-.544-2.606-1.6-1.6" transform="translate(0 -4.599)"/><path class="a" d="M21.329,23.861A40.264,40.264,0,0,0,6.91,8.558c-1.067-.651-2.042,1.024-.978,1.673A38.318,38.318,0,0,1,19.657,24.839c.59,1.1,2.263.122,1.673-.978" transform="translate(-2.993 -4.599)"/><path class="a" d="M19.329,24.653A39.608,39.608,0,0,0,1.491,22.542,1.167,1.167,0,0,0,.358,23.674a1.14,1.14,0,0,0,1.133,1.133,38.065,38.065,0,0,1,17.236,2.03,1.143,1.143,0,0,0,1.393-.791,1.156,1.156,0,0,0-.791-1.393" transform="translate(-0.196 -12.193)"/><path class="a" d="M21.852,1.352Q20.79,11,19.727,20.649c-.2,1.809,2.635,1.795,2.832,0Q23.622,11,24.684,1.352c.2-1.809-2.635-1.795-2.832,0" transform="translate(-10.783 0)"/></g></g></svg>