<svg xmlns="http://www.w3.org/2000/svg" xmlns:xlink="http://www.w3.org/1999/xlink" width="499" height="13.957" viewBox="0 0 499 13.957"><defs><style>.a{fill:#bbe048;}.b{clip-path:url(#a);}</style><clipPath id="a"><rect class="a" width="499" height="13.957"/></clipPath></defs><g transform="translate(499 13.957) rotate(180)"><g class="b" transform="translate(0 0)"><path class="a" d="M6.229,11.96a57.2,57.2,0,0,1,19.3-3.3c4.792.113,9.993,1.114,15.214,1.746a79.716,79.716,0,0,0,20.685.163C69.156,9.457,76.25,7.2,83.864,5.87a51.033,51.033,0,0,1,10.9-.856,72.8,72.8,0,0,1,11.714,1.753c7.965,1.652,15.729,3.675,24.272,3.9,8.741.225,17.123-1.475,25.652-2.322,8.262-.821,15.76.221,23.462,2,7.593,1.751,15.346,3.8,23.664,3.606,8.505-.2,16.1-2.481,23.959-4.176a69.7,69.7,0,0,1,12.164-1.7,67.934,67.934,0,0,1,13.211.914c8.467,1.345,16.9,3.5,25.844,3,8.885-.5,16.825-3.252,25.644-3.99A43.077,43.077,0,0,1,316.8,8.7c3.96.826,7.79,1.809,11.662,2.769a74.547,74.547,0,0,0,12.391,2.169,53.752,53.752,0,0,0,12.756-.662C361.456,11.693,368.681,9.48,377,9.655c8.235.172,16.141,1.894,24.367,2.209,8.845.339,17-1.427,25.1-3.326A119.95,119.95,0,0,1,438.8,6.145,79.783,79.783,0,0,1,451.8,5.708c9.347.356,18.651,1.756,27.819,2.847q7.078.841,14.159,1.673c2.195.255,4.469-.371,5.095-1.739.557-1.219-.686-2.807-2.894-3.063C486.264,4.3,476.576,3.1,466.85,2.014,457.538.974,448.312.2,438.869,1.094c-8.731.823-16.529,3.412-24.94,4.889a58.957,58.957,0,0,1-12.217.914c-4.012-.131-7.941-.667-11.869-1.141-8.428-1.017-16.645-1.565-25.062-.179-7.672,1.262-15.336,3.86-23.524,3.1-8.464-.785-15.929-3.762-24.117-5.14-8.87-1.494-17.932-.247-26.447,1.441-4.169.827-8.3,1.875-12.727,2.059a61.1,61.1,0,0,1-12.782-1.071c-8.671-1.462-17.14-3.287-26.306-2.843-8.921.432-16.711,2.721-25.036,4.458a54.765,54.765,0,0,1-11.694,1.392,58.057,58.057,0,0,1-11.3-1.432C182.928,5.9,175.52,3.779,167.1,3.17c-8.817-.637-17.443,1.01-26.013,1.985a71.937,71.937,0,0,1-12.1.459,79.228,79.228,0,0,1-11.9-1.829C109.256,2.137,101.251-.036,92.79,0,84.653.036,77.082,1.953,69.625,3.693A114.256,114.256,0,0,1,58.284,5.9a57,57,0,0,1-9.935.191c-5.219-.261-10.705-1.325-16.1-1.922a64.424,64.424,0,0,0-18.594.467A86.7,86.7,0,0,0,2.049,7.66c-4.681,1.534-.505,5.836,4.181,4.3" transform="translate(0 0)"/></g></g></svg>