<svg xmlns="http://www.w3.org/2000/svg" xmlns:xlink="http://www.w3.org/1999/xlink" width="68.513" height="16.68" viewBox="0 0 68.513 16.68"><defs><style>.a{fill:none;}.b{clip-path:url(#a);}.c{fill:#bbe048;}</style><clipPath id="a"><rect class="a" width="68.513" height="16.68"/></clipPath></defs><g transform="translate(0 0)"><g class="b" transform="translate(0 0)"><path class="c" d="M2.345,1.16C6.373-2,15.9,1.8,16.627,6.872c.731,5.05-7.335,11.344-12.086,9.438C-.229,14.395-1.693,4.3,2.345,1.16" transform="translate(0 0.006)"/><path class="c" d="M12.592,7.125c.613-5.083,10.041-9.132,14.137-6.061,4.088,3.053,2.836,13.21-1.874,15.22C20.13,18.3,11.954,12.2,12.592,7.125" transform="translate(13.381 -0.001)"/><path class="c" d="M39.424,15.505c-4.028,3.16-13.557-.644-14.282-5.711C24.411,4.743,32.477-1.551,37.228.356c4.77,1.915,6.234,12.014,2.2,15.149" transform="translate(26.742 0.007)"/></g></g></svg>