<svg xmlns="http://www.w3.org/2000/svg" xmlns:xlink="http://www.w3.org/1999/xlink" width="25.038" height="27.341" viewBox="0 0 25.038 27.341"><defs><style>.a{fill:#c9f24e;}.b{clip-path:url(#a);}</style><clipPath id="a"><rect class="a" width="25.038" height="27.341"/></clipPath></defs><g transform="translate(0 0)"><g class="b" transform="translate(0 0)"><path class="a" d="M22.614,8.8A107.89,107.89,0,0,1,.693,24.877c-1.585.879-.167,3.312,1.421,2.431A110.9,110.9,0,0,0,24.606,10.8c1.317-1.25-.676-3.239-1.991-1.991" transform="translate(0 -3.674)"/><path class="a" d="M25.179,27.612A50.038,50.038,0,0,0,7.259,8.594c-1.326-.809-2.537,1.272-1.215,2.079A47.62,47.62,0,0,1,23.1,28.827c.733,1.366,2.812.151,2.079-1.215" transform="translate(-2.391 -3.674)"/><path class="a" d="M23.935,25.225A49.223,49.223,0,0,0,1.766,22.6,1.45,1.45,0,0,0,.358,24.009a1.416,1.416,0,0,0,1.408,1.408A47.306,47.306,0,0,1,23.186,27.94a1.42,1.42,0,0,0,1.732-.983,1.437,1.437,0,0,0-.983-1.732" transform="translate(-0.156 -9.741)"/><path class="a" d="M22.37,1.68q-1.32,11.991-2.641,23.982c-.247,2.248,3.274,2.231,3.52,0Q24.57,13.671,25.89,1.68c.248-2.248-3.274-2.231-3.52,0" transform="translate(-8.614 0)"/></g></g></svg>