<svg xmlns="http://www.w3.org/2000/svg" xmlns:xlink="http://www.w3.org/1999/xlink" width="303.3" height="14.062" viewBox="0 0 303.3 14.062"><defs><style>.a{fill:none;}.b{clip-path:url(#a);}.c{fill:#bbe048;}.d{clip-path:url(#b);}</style><clipPath id="a"><rect class="a" width="8.072" height="8.062" transform="translate(0 0)"/></clipPath><clipPath id="b"><rect class="a" width="286.263" height="14.013"/></clipPath></defs><g transform="translate(-927.772 -1523.078)"><g transform="translate(1223 1523.078)"><g class="b"><path class="c" d="M1.135.558C3.085-.972,7.7.87,8.049,3.323S4.5,8.815,2.2,7.892-.82,2.076,1.135.558"/></g></g><g transform="translate(1214.035 1537.14) rotate(180)"><g class="d" transform="translate(0 0)"><path class="c" d="M3.574,12.008c3.486-2,7.144-3.471,11.075-3.31,2.749.113,5.733,1.118,8.728,1.753a26.363,26.363,0,0,0,11.866.164c4.431-1.12,8.5-3.39,12.869-4.721a17.144,17.144,0,0,1,6.253-.859,25.578,25.578,0,0,1,6.72,1.76c4.57,1.659,9.023,3.69,13.924,3.911,5.014.226,9.823-1.481,14.716-2.331,4.74-.824,9.041.222,13.46,2,4.356,1.758,8.8,3.817,13.576,3.62,4.879-.2,9.234-2.491,13.745-4.193a24.3,24.3,0,0,1,6.978-1.7,22.705,22.705,0,0,1,7.579.918c4.857,1.35,9.7,3.511,14.826,3.007,5.1-.5,9.652-3.265,14.711-4.006a14.413,14.413,0,0,1,7.142.708c2.272.829,4.469,1.816,6.69,2.78a26.8,26.8,0,0,0,7.109,2.178,17.894,17.894,0,0,0,7.318-.665c4.5-1.284,8.646-3.506,13.42-3.33,4.724.173,9.26,1.9,13.979,2.218,5.074.34,9.753-1.433,14.4-3.339a43.867,43.867,0,0,1,7.076-2.4,26.333,26.333,0,0,1,7.453-.439c5.362.357,10.7,1.763,15.959,2.858,2.707.563,5.413,1.13,8.122,1.68a2.425,2.425,0,0,0,2.923-1.746,2.542,2.542,0,0,0-1.66-3.075C278.957,4.316,273.4,3.112,267.82,2.022,262.478.978,257.185.2,251.768,1.1c-5.009.826-9.482,3.426-14.307,4.909a19.766,19.766,0,0,1-7.009.918,45.85,45.85,0,0,1-6.809-1.146c-4.835-1.021-9.549-1.571-14.378-.18-4.4,1.267-8.8,3.875-13.495,3.114-4.856-.788-9.138-3.777-13.835-5.161C176.847,2.052,171.648,3.3,166.763,5c-2.392.83-4.764,1.883-7.3,2.067a20.575,20.575,0,0,1-7.333-1.075c-4.974-1.468-9.833-3.3-15.091-2.854-5.118.434-9.587,2.732-14.362,4.476a18.838,18.838,0,0,1-6.708,1.4,20.061,20.061,0,0,1-6.48-1.438c-4.546-1.651-8.8-3.779-13.623-4.39C90.806,2.543,85.857,4.2,80.941,5.176A23.771,23.771,0,0,1,74,5.637,27.919,27.919,0,0,1,67.171,3.8C62.678,2.146,58.085-.036,53.232,0c-4.668.035-9.012,1.96-13.29,3.707a41.8,41.8,0,0,1-6.506,2.215,18.779,18.779,0,0,1-5.7.192c-2.994-.262-6.141-1.33-9.234-1.93a21.387,21.387,0,0,0-10.667.469,34.253,34.253,0,0,0-6.66,3.037c-2.685,1.54-.29,5.859,2.4,4.317" transform="translate(0 0)"/></g></g></g></svg>