<svg xmlns="http://www.w3.org/2000/svg" xmlns:xlink="http://www.w3.org/1999/xlink" width="533.001" height="25.584" viewBox="0 0 533.001 25.584"><defs><style>.a{fill:#0396aa;}.b{clip-path:url(#a);}</style><clipPath id="a"><rect class="a" width="533.001" height="25.584"/></clipPath></defs><g transform="translate(533.001 25.584) rotate(180)"><g class="b" transform="translate(0 0)"><path class="a" d="M6.654,21.923c6.491-3.65,13.3-6.337,20.62-6.043,5.118.206,10.674,2.041,16.25,3.2,7.225,1.5,14.867,2.09,22.094.3,8.25-2.045,15.827-6.189,23.961-8.619a32.508,32.508,0,0,1,11.643-1.568c4.248.3,8.513,1.789,12.512,3.213,8.508,3.029,16.8,6.737,25.926,7.141,9.336.413,18.29-2.7,27.4-4.256,8.825-1.5,16.834.405,25.061,3.661,8.11,3.21,16.392,6.969,25.277,6.609,9.085-.369,17.193-4.548,25.592-7.655A45.975,45.975,0,0,1,255.983,14.8a43.066,43.066,0,0,1,14.111,1.676c9.044,2.465,18.055,6.41,27.605,5.49,9.49-.913,17.972-5.961,27.391-7.314a27.335,27.335,0,0,1,13.3,1.293c4.23,1.514,8.321,3.316,12.457,5.076a50.635,50.635,0,0,0,13.236,3.977A33.947,33.947,0,0,0,377.7,23.778c8.381-2.344,16.1-6.4,24.987-6.08,8.8.316,17.241,3.473,26.027,4.05,9.448.621,18.159-2.616,26.811-6.1A82.793,82.793,0,0,1,468.7,11.264a49.982,49.982,0,0,1,13.878-.8c9.984.652,19.921,3.219,29.714,5.218,5.04,1.028,10.079,2.063,15.123,3.067a4.523,4.523,0,0,0,5.442-3.188c.594-2.235-.732-5.145-3.091-5.614C519.4,7.88,509.05,5.681,498.661,3.691,488.714,1.785,478.86.372,468.773,2c-9.326,1.508-17.655,6.255-26.639,8.963a37.485,37.485,0,0,1-13.05,1.676,86.917,86.917,0,0,1-12.678-2.092c-9-1.864-17.779-2.868-26.77-.329-8.2,2.313-16.381,7.075-25.126,5.685-9.041-1.439-17.015-6.9-25.76-9.423C329.276,3.746,319.6,6.032,310.5,9.127c-4.453,1.515-8.871,3.438-13.595,3.774-4.678.33-9.175-.666-13.653-1.963-9.262-2.68-18.308-6.025-28.1-5.211-9.529.792-17.85,4.988-26.742,8.172a35.673,35.673,0,0,1-12.491,2.552,37.981,37.981,0,0,1-12.066-2.625c-8.464-3.014-16.376-6.9-25.365-8.015-9.418-1.168-18.632,1.851-27.786,3.639a45.117,45.117,0,0,1-12.922.842,52.8,52.8,0,0,1-12.715-3.352C116.7,3.918,108.15-.066,99.113,0,90.421.065,82.334,3.58,74.369,6.769a78.9,78.9,0,0,1-12.114,4.044,35.647,35.647,0,0,1-10.612.351C46.068,10.686,40.209,8.736,34.45,7.64A40.58,40.58,0,0,0,14.589,8.5a64.391,64.391,0,0,0-12.4,5.545c-5,2.812-.54,10.7,4.466,7.882" transform="translate(0 0)"/></g></g></svg>