<svg xmlns="http://www.w3.org/2000/svg" xmlns:xlink="http://www.w3.org/1999/xlink" width="378.613" height="303.48" viewBox="0 0 378.613 303.48"><defs><style>.a{fill:#bbe048;}.b{fill:none;}.c{clip-path:url(#a);}.d{clip-path:url(#c);}.e{fill:#0094a8;}</style><clipPath id="a"><rect class="a" width="28.083" height="30.667"/></clipPath><clipPath id="c"><rect class="b" width="368.683" height="272.813"/></clipPath></defs><g transform="translate(-123.967 -240.026)"><g transform="translate(387.116 240.026)"><g class="c" transform="translate(0 0)"><path class="a" d="M25.365,8.853A121.015,121.015,0,0,1,.777,26.881C-1,27.867.59,30.6,2.371,29.608A124.387,124.387,0,0,0,27.6,11.087c1.477-1.4-.759-3.633-2.233-2.233" transform="translate(0 -3.098)"/><path class="a" d="M27.576,29.948A56.125,56.125,0,0,0,7.476,8.616c-1.488-.908-2.846,1.427-1.363,2.332A53.413,53.413,0,0,1,25.244,31.311c.822,1.532,3.154.17,2.332-1.363" transform="translate(-2.016 -3.098)"/><path class="a" d="M26.8,25.581A55.211,55.211,0,0,0,1.937,22.638,1.627,1.627,0,0,0,.358,24.217,1.589,1.589,0,0,0,1.937,25.8a53.061,53.061,0,0,1,24.026,2.83,1.593,1.593,0,0,0,1.942-1.1,1.612,1.612,0,0,0-1.1-1.942" transform="translate(-0.132 -8.213)"/><path class="a" d="M22.693,1.884q-1.481,13.449-2.962,26.9c-.277,2.522,3.672,2.5,3.948,0q1.482-13.449,2.962-26.9c.278-2.522-3.672-2.5-3.948,0" transform="translate(-7.263 0)"/></g></g><g transform="translate(123.967 482.515)"><g class="c" transform="translate(0 0)"><path class="a" d="M25.365,8.853A121.015,121.015,0,0,1,.777,26.881C-1,27.867.59,30.6,2.371,29.608A124.387,124.387,0,0,0,27.6,11.087c1.477-1.4-.759-3.633-2.233-2.233" transform="translate(0 -3.098)"/><path class="a" d="M27.576,29.948A56.125,56.125,0,0,0,7.476,8.616c-1.488-.908-2.846,1.427-1.363,2.332A53.413,53.413,0,0,1,25.244,31.311c.822,1.532,3.154.17,2.332-1.363" transform="translate(-2.016 -3.098)"/><path class="a" d="M26.8,25.581A55.211,55.211,0,0,0,1.937,22.638,1.627,1.627,0,0,0,.358,24.217,1.589,1.589,0,0,0,1.937,25.8a53.061,53.061,0,0,1,24.026,2.83,1.593,1.593,0,0,0,1.942-1.1,1.612,1.612,0,0,0-1.1-1.942" transform="translate(-0.132 -8.213)"/><path class="a" d="M22.693,1.884q-1.481,13.449-2.962,26.9c-.277,2.522,3.672,2.5,3.948,0q1.482-13.449,2.962-26.9c.278-2.522-3.672-2.5-3.948,0" transform="translate(-7.263 0)"/></g></g><g transform="translate(133.897 270.693)"><g class="d"><path class="e" d="M225.845,140.444c4.817-31.217,5.274-63.992,2.375-95.443-1.025-11.112-3.277-22.768-10.332-31.753C208.587,1.4,194.614.394,180.584.169Q126.6-.7,72.651,2.785C57,3.778,40.342,3.7,25.027,7.387c-10.891,2.625-20.118,8.3-23.87,19.241-2.76,8.043,9.971,11.5,12.714,3.5C17.4,19.853,32.351,19.109,41.385,18.313Q63.074,16.4,84.821,15.251q44.351-2.423,88.8-1.983c12.723.128,28.34-1.812,35.77,10.845,5.5,9.372,5.791,21.033,6.285,31.582,1.262,27.024,1.6,54.438-2.54,81.244-1.282,8.3,11.422,11.879,12.714,3.505" transform="translate(0.582 0)"/><path class="e" d="M182.634,173.332l-40.358-2.343c-11.188-.65-25.326-3.9-36.179-.248-10.314,3.468-18.5,15.057-25.923,22.478L51.937,221.436l11.019,6.415a271.162,271.162,0,0,0,3.256-35.037c.162-7.315,2.162-19.183-4.915-24.13-3.581-2.5-8.586-2.152-12.689-2.314l-18.037-.712c-5.713-.225-14.166,1.542-15.727-5.358-1-4.414-.427-9.817-.582-14.347-1.449-42.315-1.563-84.772.425-127.071.4-8.482-12.788-8.461-13.185,0-1.988,42.3-1.869,84.756-.425,127.071.264,7.735-.955,17.958,3.191,24.893,4.824,8.071,14.841,7.545,23.023,7.869l16.4.645c.946.037,9.256-.258,9.838.389-1.528-1.7-.468,3.876-.457,4.7a245.539,245.539,0,0,1-2.827,39.892c-.935,6.114,5.958,11.473,11.019,6.415q12.352-12.346,24.707-24.693L97.732,194.31c4.418-4.414,8.908-10.692,15.474-11.626,10.11-1.44,22.249,1.093,32.435,1.684l36.993,2.148c8.477.492,8.449-12.694,0-13.185" transform="translate(0 9.497)"/><path class="a" d="M30.213,42.544l124.9,1.2c8.486.083,8.493-13.1,0-13.185l-124.9-1.2c-8.486-.081-8.493,13.1,0,13.185" transform="translate(18.075 22.254)"/><path class="a" d="M27.5,66.918l131.566-1.471c8.479-.095,8.5-13.28,0-13.185L27.5,53.733c-8.479.095-8.5,13.28,0,13.185" transform="translate(16.018 39.613)"/><path class="e" d="M112.765,97.1c-5.7,20.122-7.139,41.313-14.386,61-1.645,4.469,3.562,9.908,8.108,8.11a289.752,289.752,0,0,0,30.723-14.11q8.483-4.565,16.618-9.746c3.607-2.3,8.67-4.643,11.01-8.391,4.963-7.951-5.209-13.136-10.337-17.274-9.31-7.517-18.179-15.534-26.7-23.931-6.049-5.961-15.379,3.356-9.323,9.323,5.928,5.84,12.005,11.515,18.315,16.943q4.728,4.072,9.6,7.969c.772.617,6.833,4.479,6.912,4.729q.849-3.207,1.695-6.415c-5.5,6.645-16.91,11.355-24.445,15.409a260.61,260.61,0,0,1-27.571,12.781l8.11,8.11c7.246-19.684,8.69-40.875,14.386-61,2.315-8.178-10.4-11.668-12.714-3.505" transform="translate(74.334 68.854)"/><path class="e" d="M117.946,170.742c20.7-20.781,37.591-45.237,55.294-68.525l27.966-36.789c8.9-11.7,17.285-24.267,27.418-34.947,8.713-9.182,23.916-19.162,36.7-11.364,10.6,6.469,11.1,21.82,7,32.233C267.468,63.688,257,73.116,247.654,82.085q-15.867,15.231-31.1,31.1a978.916,978.916,0,0,0-66.148,76.989c-5.132,6.628,4.133,16.026,9.323,9.323a977.3,977.3,0,0,1,68.416-79.354C239.831,108,252.123,96.507,264.01,84.579c9.59-9.62,19.034-20.751,22.455-34.221,6.269-24.693-9.839-50.8-37.262-46.464-14.379,2.273-25.612,11.8-34.664,22.657-10.841,13-20.69,26.922-30.932,40.4-24.134,31.747-46.782,66.15-74.983,94.471-5.995,6.019,3.324,15.345,9.323,9.323" transform="translate(80.87 2.592)"/><path class="e" d="M220.8,48.947a113.2,113.2,0,0,1-41-27.556c-5.884-6.137-15.2,3.194-9.323,9.321A128.153,128.153,0,0,0,217.3,61.661c7.92,3.062,11.348-9.681,3.505-12.714" transform="translate(127.807 14.692)"/><path class="a" d="M83.364,162.35a1390.335,1390.335,0,0,1,187.811-.554c8.472.549,8.44-12.64,0-13.185a1390.327,1390.327,0,0,0-187.811.554c-8.417.594-8.482,13.784,0,13.185" transform="translate(58.386 110.444)"/><path class="a" d="M27.5,87.758l75.317-1.13c8.477-.128,8.5-13.313,0-13.185L27.5,74.573c-8.477.127-8.5,13.313,0,13.185" transform="translate(16.016 55.668)"/></g></g></g></svg>