<?xml version="1.0" encoding="UTF-8"?><svg id="Layer_2" xmlns="http://www.w3.org/2000/svg" viewBox="0 0 852.82 904.51"><defs><style>.cls-1{font-family:AppleColorEmoji, 'Apple Color Emoji';font-size:150px;}.cls-2{fill:#2b3937;}.cls-3,.cls-4{fill:#006a7f;}.cls-5{fill:#84c12d;}.cls-6{fill:#fcfaf6;}.cls-7{fill:#f5f5f5;}.cls-4{font-family:RobotoSlab-Bold, 'Roboto Slab';font-size:110px;font-variation-settings:'wght' 700;font-weight:700;}.cls-8{fill:#44493a;}</style></defs><g id="Layer_1-2"><path class="cls-3" d="M820.64,501.73c21.81,5.52,30.78,36.21,31.97,55.96-1.66,3.7-1.69,11.08,0,14.99-1.86,31.45-17.38,60.56-45.96,74.95.61-6.34,4.1-32.53,2.86-36.34-.9-2.74-5.76-1.26-8.27-1.72-2.16-.39-3.71-1.37-5.58-1.92-28.86-8.42-41.69-51.35-9.99-64.46-19.7-15.43.28-39.93,19.99-42.47,4.47-.58,10.62-.11,14.99,1Z"/><path class="cls-3" d="M852.61,572.69c-1.69-3.91-1.66-11.29,0-14.99.27,4.58.27,10.41,0,14.99Z"/><path class="cls-8" d="M561.89,404.8c39.94,1.6,79.94,3.26,119.88,5,41.5,1.8,83.2,3.22,124.38,5.2,4.18.2,14.99.48,17.85,1.93,4.99,2.54,3.86,9.41,3.67,14.4-.64,16.84-3.73,36.76-5.31,53.64-.52,5.58-1.28,11.19-1.72,16.77-4.36-1.1-10.51-1.57-14.99-1l6-69.96-296.72-11.99c-6.11,65.08-11.76,130.23-17.99,195.37-4.25,44.45-9.08,89.17-13.09,133.81-.34,3.81-2.99,8.05-.27,11.67l295.1,12.94,16.98-164.9c1.87.54,3.42,1.53,5.58,1.92,2.51.45,7.37-1.02,8.27,1.72,1.24,3.8-2.25,30-2.86,36.34-4.05,41.96-7.63,84.84-13,126.41-.86,6.63-.38,13.58-8.46,14.52-14.48,1.69-33.1-1.46-47.93-2.06-35.12-1.43-70.28-2.32-105.44-3.96-40.66-1.89-82.07-3.93-122.88-6-.14,0-1.13-.97-2.42-1.04-10.01-.54-21.97.75-31.82-1.19-4.86-.96-7.76-5.44-7.77-10.21,11.64-118.25,22.92-236.43,34.1-354.74,2-9.24,16.73-6.94,24.38-6.57,12.29.6,24.15,1.5,36.47,1.99Z"/><path class="cls-7" d="M805.66,500.73l6-69.96-296.72-11.99c-6.11,65.08-11.76,130.23-17.99,195.37-4.25,44.45-9.08,89.17-13.09,133.81-.34,3.81-2.99,8.05-.27,11.67l295.1,12.94,16.98-164.9c-28.86-8.42-41.69-51.35-9.99-64.46-19.7-15.43.28-39.93,19.99-42.47Z"/><text class="cls-4" transform="translate(544.19 715.12)"><tspan x="0" y="0">404</tspan></text><text class="cls-1" transform="translate(573.95 610.35)"><tspan x="0" y="0">🤔</tspan></text><path class="cls-5" d="M234.21,815.53c36.83,22.31,88.16,37.25,130.87,41.97-9.76,22.03-40.2,51.16-65.99,46.52-10.07-1.81-15.25-10.67-11.94-20.53-1.54-.37-.55,1.32-1.73,1.95-15.82,8.37-45.47,20.86-63.02,14.36-8.62-3.19-9.6-13.17-5.17-20.3-13.75,2.53-44.94,12.39-55.59.63-.73-.81-1.85-2.38-2.08-3.39-4-17.34,20.34-32.91,33.03-40.4,12.98-7.66,27.9-14.73,41.63-20.82Z"/><path class="cls-5" d="M585.87,817.53c19.41,10.92,66.2,28.88,69.71,53.72.52,3.69-.41,7.62-3.25,10.26-11.42,10.61-39.83,2.25-53.47-1.02-.81.82,6.13,9.93-1.96,16.53-15.27,12.46-53.49-2.12-67.97-12.54,1.54,19.96-17.04,22.26-32.42,17.93-14.86-4.18-32.59-20.15-41.33-32.61-2.72-3.88-6.42-8.36-6.18-13.31,47.68-5.07,94.75-15.4,136.87-38.97Z"/><path class="cls-3" d="M681.78,409.79c-39.94-1.73-79.94-3.4-119.88-5-6.81-4.62-12.31-14.75-9.55-23.05.94-2.82,21.76-17.06,26.01-20.95,64.74-59.11,47.1-210.14-25.53-255.23-51.92-32.24-85.68,4.7-131.02,19.68-62.4,20.62-103.6-61.36-172.52-20.68-74.89,44.21-92.42,198.67-25.53,257.23,4.4,3.85,25.88,17.59,26.92,20.03,1.44,3.37.31,6.69-1.08,9.87-3.83,8.79-18.56,24.51-24.79,34.16-63.26,98.13-68.02,251.42,34.49,325.09,69.87,50.22,170.8,59.46,249.65,25.59,40.81,2.07,82.22,4.1,122.88,6-12.94,13.37-29.65,25.85-45.96,34.98-42.12,23.58-89.19,33.9-136.87,38.97-28.77,3.06-55,4.2-83.92,1-42.72-4.73-94.04-19.66-130.87-41.97-20.66-12.52-40.01-30.6-54.92-49.5-60.71-76.94-64.5-183.16-39.2-274.68-54.81-37.86-104.19-87.35-127.69-151-9.57-25.91-23.27-85.24,1.99-104.97,22.73-17.76,49.03,2.7,65.97,18,21.89,19.77,39.81,43.94,62.91,62.47-26.86-86.14,5.8-185.3,70.93-245.35,115.53-106.53,323.32-91.69,413.43,40.17,49.54,72.5,61.66,174.5,13.16,250.67l40.97,48.45Z"/><path class="cls-6" d="M561.89,404.8c-12.33-.49-24.19-1.39-36.47-1.99-7.66-.38-22.38-2.67-24.38,6.57-11.18,118.31-22.46,236.49-34.1,354.74.02,4.77,2.91,9.25,7.77,10.21,9.85,1.94,21.81.65,31.82,1.19,1.29.07,2.28,1.03,2.42,1.04-78.85,33.87-179.77,24.63-249.65-25.59-102.51-73.68-97.75-226.96-34.49-325.09,6.23-9.66,20.96-25.37,24.79-34.16,1.39-3.18,2.51-6.5,1.08-9.87-1.04-2.44-22.52-16.18-26.92-20.03-66.89-58.56-49.36-213.02,25.53-257.23,68.92-40.69,110.12,41.3,172.52,20.68,45.34-14.98,79.1-51.92,131.02-19.68,72.63,45.09,90.27,196.12,25.53,255.23-4.25,3.88-25.07,18.12-26.01,20.95-2.76,8.3,2.75,18.43,9.55,23.05ZM481.33,238.55c10.06,10.21,26.66,9,35.43-2.32,15.36-19.81.8-53.58-25.02-46.01-20.22,5.93-24.46,34.07-10.42,48.32ZM326.78,235.56c11.48-13.86,4.62-43.44-15.14-45.63-43.71-4.83-35.33,66.61,3.48,54.46,3.43-1.07,9.41-6.12,11.65-8.83ZM382.87,246.2c-16.12,1.36-57.3,10.05-58.77,30.2-1.4,19.21,36.33,53.56,52.6,61.32,35.3,16.84,64.88-3.97,87.26-30.39,24.73-29.19,18.39-46.17-17.74-56.15-19.45-5.37-43.25-6.68-63.35-4.98Z"/><path class="cls-5" d="M382.87,246.2c20.1-1.7,43.91-.39,63.35,4.98,36.12,9.98,42.47,26.96,17.74,56.15-22.39,26.42-51.97,47.23-87.26,30.39-16.27-7.76-54-42.11-52.6-61.32,1.47-20.15,42.65-28.84,58.77-30.2ZM349.81,283.06c-9.26,2.77,7.99,18.37,11.26,21.31,29.28,26.31,52.7,25.81,81.95,0,2.79-2.46,14.73-14.27,15.02-17.05,1.05-10.09-21.41,1.38-25.58,2.49-18.96,5.05-37.48,5.12-56.59.76-6.88-1.57-15.78-6.31-21.51-7.49-1.54-.32-3.02-.48-4.55-.02Z"/><path class="cls-2" d="M326.78,235.56c-2.25,2.71-8.23,7.76-11.65,8.83-38.81,12.15-47.2-59.29-3.48-54.46,19.76,2.18,26.62,31.77,15.14,45.63Z"/><path class="cls-2" d="M481.33,238.55c-14.04-14.25-9.81-42.4,10.42-48.32,25.82-7.57,40.38,26.2,25.02,46.01-8.77,11.31-25.38,12.53-35.43,2.32Z"/><path class="cls-3" d="M349.81,283.06c1.53-.46,3.02-.29,4.55.02,5.73,1.18,14.62,5.92,21.51,7.49,19.11,4.36,37.63,4.29,56.59-.76,4.18-1.11,26.63-12.58,25.58-2.49-.29,2.78-12.23,14.59-15.02,17.05-29.25,25.81-52.67,26.31-81.95,0-3.27-2.94-20.52-18.54-11.26-21.31Z"/></g></svg>