<svg xmlns="http://www.w3.org/2000/svg" xmlns:xlink="http://www.w3.org/1999/xlink" width="394.86" height="317.747" viewBox="0 0 394.86 317.747"><defs><style>.a{fill:#bbe048;}.b{fill:none;}.c{clip-path:url(#a);}.d{clip-path:url(#c);}.e{fill:#0094a8;}.f{fill:#fff;}.g{fill:#84c12d;}.h{fill:#44493a;}</style><clipPath id="a"><rect class="a" width="28.083" height="30.667"/></clipPath><clipPath id="c"><rect class="b" width="376.86" height="317.747"/></clipPath></defs><g transform="translate(-132.873 -210.417)"><g transform="translate(132.873 272.695)"><g class="c" transform="translate(0 0)"><path class="a" d="M25.365,8.853A121.015,121.015,0,0,1,.777,26.881C-1,27.867.59,30.6,2.371,29.608A124.387,124.387,0,0,0,27.6,11.087c1.477-1.4-.759-3.633-2.233-2.233" transform="translate(0 -3.098)"/><path class="a" d="M27.576,29.948A56.125,56.125,0,0,0,7.476,8.616c-1.488-.908-2.846,1.427-1.363,2.332A53.413,53.413,0,0,1,25.244,31.311c.822,1.532,3.154.17,2.332-1.363" transform="translate(-2.016 -3.098)"/><path class="a" d="M26.8,25.581A55.211,55.211,0,0,0,1.937,22.638,1.627,1.627,0,0,0,.358,24.217,1.589,1.589,0,0,0,1.937,25.8a53.061,53.061,0,0,1,24.026,2.83,1.593,1.593,0,0,0,1.942-1.1,1.612,1.612,0,0,0-1.1-1.942" transform="translate(-0.132 -8.213)"/><path class="a" d="M22.693,1.884q-1.481,13.449-2.962,26.9c-.277,2.522,3.672,2.5,3.948,0q1.482-13.449,2.962-26.9c.278-2.522-3.672-2.5-3.948,0" transform="translate(-7.263 0)"/></g></g><g transform="translate(485.085 495.01)"><g class="c" transform="translate(0 0)"><path class="a" d="M25.365,8.853A121.015,121.015,0,0,1,.777,26.881C-1,27.867.59,30.6,2.371,29.608A124.387,124.387,0,0,0,27.6,11.087c1.477-1.4-.759-3.633-2.233-2.233" transform="translate(0 -3.098)"/><path class="a" d="M27.576,29.948A56.125,56.125,0,0,0,7.476,8.616c-1.488-.908-2.846,1.427-1.363,2.332A53.413,53.413,0,0,1,25.244,31.311c.822,1.532,3.154.17,2.332-1.363" transform="translate(-2.016 -3.098)"/><path class="a" d="M26.8,25.581A55.211,55.211,0,0,0,1.937,22.638,1.627,1.627,0,0,0,.358,24.217,1.589,1.589,0,0,0,1.937,25.8a53.061,53.061,0,0,1,24.026,2.83,1.593,1.593,0,0,0,1.942-1.1,1.612,1.612,0,0,0-1.1-1.942" transform="translate(-0.132 -8.213)"/><path class="a" d="M22.693,1.884q-1.481,13.449-2.962,26.9c-.277,2.522,3.672,2.5,3.948,0q1.482-13.449,2.962-26.9c.278-2.522-3.672-2.5-3.948,0" transform="translate(-7.263 0)"/></g></g><g transform="translate(150.873 210.417)"><g class="d"><path class="e" d="M132.771,72.416C167.34,64.5,202.79,61.612,237.679,55.5c13.425-2.353,27.038-6.155,40.786-5.143,16.534,1.219,24.7,13.213,29.609,27.9,10.9,32.584,15.485,66.273,18.7,100.341,1.381,14.623,5.228,31.443,1.811,46-4.26,18.142-23.06,21.393-38.631,25.162-35.466,8.584-71.388,15.191-107.47,20.595-35.228,5.277-71.052,10.752-106.626,12.988-9.917.623-21.025.633-29.772-4.773-8.812-5.446-12.925-15.484-15.428-25.105-9-34.587-9.822-70.879-15.057-106.108-1.94-13.056-7.472-29.573-.878-42.224,4.385-8.412,14.219-11.345,22.834-13.273,12.87-2.88,26.092-3.8,39.048-6.2,18.926-3.5,37.416-8.924,56.161-13.236,7.436-1.711,4.289-13.149-3.153-11.437-18.743,4.313-37.234,9.735-56.161,13.235-13.219,2.445-26.731,3.337-39.839,6.376-9.038,2.1-18.449,5.529-24.854,12.556C1.713,100.885-.322,111.484.04,121.668c.293,8.219,2.163,16.27,3.446,24.365,1.724,10.888,3.006,21.839,4.219,32.794,2.209,19.972,4.165,40.005,7.732,59.793,4.327,24.011,11.5,50.207,38.841,55.514,13.98,2.714,28.238.5,42.216-1.018,20.434-2.227,40.843-4.648,61.215-7.38,40.467-5.427,80.795-12.079,120.631-21.09,16.864-3.816,37.167-6.058,50.6-17.978,11.767-10.444,13.357-26.305,12.253-41.109-2.851-38.27-6.36-77.281-16.934-114.284-4.572-15.994-8.767-34.545-22.852-45.1-12.8-9.591-29.723-8.476-44.669-6.191-19.249,2.943-38.323,6.8-57.622,9.53-23.261,3.281-46.571,6.22-69.494,11.467-7.437,1.7-4.289,13.14,3.153,11.437" transform="translate(0 22.331)"/><path class="e" d="M77.556,154.528a16.258,16.258,0,0,1,9.212,5.682c.288.342.079.077.021,0,.168.215.326.441.481.664q.351.505.671,1.03a25.389,25.389,0,0,1,1.284,2.446c.138.329.55,1.558.737,2.242.125.463.236.931.332,1.4.055.27.1.541.15.811.114.68-.051-.509.027.177a22.227,22.227,0,0,1,.133,2.9q-.014.731-.076,1.458c-.017.209-.036.417-.062.625-.092.751.179-.9-.071.4a19.412,19.412,0,0,1-1.632,5.124,19.827,19.827,0,0,1-7.442,8.13,13.4,13.4,0,0,1-4.608,1.831c-.443.1-.889.19-1.338.264-.655.109.557-.052-.1.011-.193.019-.384.038-.577.052a22.106,22.106,0,0,1-2.877,0c-.191-.013-.381-.032-.572-.052.169.017.713.123-.085-.011-.376-.065-.751-.136-1.124-.221a19.123,19.123,0,0,1-2.742-.84c-.425-.164-.017,0,.057.03-.234-.1-.467-.215-.7-.329q-.607-.3-1.191-.644-.5-.294-.99-.62c-.217-.145-.43-.294-.64-.449-.53-.386.373.315-.134-.106a19.537,19.537,0,0,1-5.81-20.815,16.538,16.538,0,0,1,19.668-11.2c4.944,1.2,7.052-6.422,2.1-7.624a24.38,24.38,0,0,0-27.4,12.068,27.657,27.657,0,0,0,3.414,30.77,23.526,23.526,0,0,0,25.779,6.525,27.021,27.021,0,0,0,17.052-24.172A25.151,25.151,0,0,0,79.658,146.9c-4.942-1.207-7.052,6.417-2.1,7.624" transform="translate(28.535 84.996)"/><path class="e" d="M128.5,146.36a16.258,16.258,0,0,1,9.212,5.682c.288.342.079.077.021,0,.168.215.326.441.481.664q.351.505.671,1.029a25.4,25.4,0,0,1,1.284,2.446c.138.329.55,1.558.737,2.242.125.463.236.931.332,1.4.055.27.1.541.15.811.114.68-.051-.509.027.177a22.228,22.228,0,0,1,.133,2.9q-.014.731-.076,1.458c-.017.209-.036.417-.062.625-.092.751.179-.9-.071.4a19.413,19.413,0,0,1-1.632,5.124,19.827,19.827,0,0,1-7.442,8.13,13.4,13.4,0,0,1-4.608,1.831c-.443.1-.889.19-1.338.264-.655.109.557-.052-.1.011-.193.019-.384.038-.577.052a22.106,22.106,0,0,1-2.877,0c-.191-.013-.381-.032-.572-.052.169.017.713.123-.085-.011-.376-.065-.751-.136-1.124-.221a19.123,19.123,0,0,1-2.742-.84c-.425-.164-.017,0,.057.03-.234-.1-.467-.215-.7-.329q-.607-.3-1.191-.644-.5-.294-.99-.62c-.217-.145-.43-.294-.64-.449-.53-.386.373.315-.134-.106a19.537,19.537,0,0,1-5.81-20.815,16.538,16.538,0,0,1,19.668-11.2c4.944,1.2,7.052-6.422,2.1-7.624A24.38,24.38,0,0,0,103.2,150.8a27.657,27.657,0,0,0,3.414,30.77A23.526,23.526,0,0,0,132.4,188.1a27.021,27.021,0,0,0,17.052-24.172,25.151,25.151,0,0,0-18.847-25.19c-4.942-1.207-7.052,6.417-2.1,7.624" transform="translate(58.155 80.247)"/><path class="e" d="M178.2,138.372a16.258,16.258,0,0,1,9.212,5.682c.288.342.079.077.021,0,.168.215.326.441.481.664q.351.505.671,1.029a25.4,25.4,0,0,1,1.284,2.446c.138.329.55,1.558.737,2.242.125.463.236.931.332,1.4.055.27.1.541.15.811.114.68-.051-.509.027.177a22.231,22.231,0,0,1,.133,2.9q-.014.731-.076,1.458c-.017.209-.036.418-.062.625-.092.751.179-.9-.071.4a19.413,19.413,0,0,1-1.632,5.124,19.827,19.827,0,0,1-7.442,8.13,13.4,13.4,0,0,1-4.608,1.831c-.443.1-.889.19-1.338.264-.655.109.557-.052-.1.011-.193.019-.384.038-.577.052a22.1,22.1,0,0,1-2.877,0c-.191-.013-.381-.032-.572-.052.169.017.713.123-.085-.011-.376-.065-.751-.136-1.124-.221a19.117,19.117,0,0,1-2.742-.84c-.425-.164-.017,0,.057.03-.234-.1-.467-.215-.7-.329q-.607-.3-1.191-.644-.5-.294-.99-.62c-.217-.145-.43-.294-.64-.449-.53-.386.373.315-.134-.106a19.537,19.537,0,0,1-5.81-20.815,16.538,16.538,0,0,1,19.668-11.2c4.944,1.2,7.052-6.422,2.1-7.624a24.381,24.381,0,0,0-27.4,12.068,27.657,27.657,0,0,0,3.414,30.77A23.526,23.526,0,0,0,182.1,180.11a27.021,27.021,0,0,0,17.052-24.172,25.151,25.151,0,0,0-18.847-25.19c-4.942-1.207-7.052,6.417-2.1,7.624" transform="translate(87.054 75.602)"/><path class="a" d="M185.818,40.506,189.24,3.954c.2-2.129-1.959-3.954-3.954-3.954a4.038,4.038,0,0,0-3.954,3.954l-3.422,36.553c-.2,2.129,1.959,3.954,3.954,3.954a4.038,4.038,0,0,0,3.954-3.954" transform="translate(103.433)"/><path class="a" d="M202.951,49.327A248.625,248.625,0,0,1,233,14.689c3.678-3.531-1.918-9.117-5.59-5.59a259.341,259.341,0,0,0-31.285,36.237c-1.243,1.738-.305,4.4,1.419,5.41a4.04,4.04,0,0,0,5.408-1.419" transform="translate(113.699 4.637)"/><path class="a" d="M213.056,58.54a117.947,117.947,0,0,1,39.418-11.366,4.068,4.068,0,0,0,3.954-3.954c0-1.964-1.817-4.178-3.954-3.954a128.97,128.97,0,0,0-43.41,12.446,3.991,3.991,0,0,0-1.417,5.408,4.034,4.034,0,0,0,5.408,1.419" transform="translate(120.432 22.821)"/><path class="e" d="M213.168,125.093c-9.827,27.822-66.034,37.42-84.269,14.329-18.216-22.975-8.138-71.056,31.3-77.627,33.948-5.657,62.914,35.572,52.965,63.3" transform="translate(69.851 35.623)"/><path class="f" d="M194.169,76.2c-16.8-19.233-21.96,4.08-33.222,7.153-11.652.745-24.088-19.638-33.747,4-5.567,15.814-3.68,36.5,8.628,48.668,7.491,7.35,17.951,8.174,27.91,7.9a50.56,50.56,0,0,0,14.206-2.367c9.511-2.973,19.137-7.143,23.841-16.524,7.7-15.506,2.775-35.682-7.616-48.837" transform="translate(72.224 39.925)"/><path class="g" d="M155.312,115.236a2.83,2.83,0,0,0,4.732-.789l7.074-13.743a4.965,4.965,0,0,0-1.362-5.994,16.609,16.609,0,0,0-22.246,3.705,4.967,4.967,0,0,0,.655,6.112Z" transform="translate(82.997 53.479)"/><path class="h" d="M145.326,90.531c-.31,3.436-2.835,5.984-5.639,5.692s-4.828-3.315-4.52-6.751,2.835-5.984,5.641-5.692,4.828,3.315,4.518,6.751" transform="translate(78.571 48.698)"/><path class="h" d="M156.5,88.626c1.407,3.15,4.621,4.741,7.18,3.555s3.493-4.7,2.086-7.85-4.621-4.743-7.18-3.557-3.493,4.7-2.086,7.852" transform="translate(90.613 46.735)"/><path class="a" d="M41.079,110.429l88.683-14.721c2.108-.349,3.285-2.959,2.761-4.863-.615-2.236-2.75-3.112-4.863-2.761L38.978,102.8c-2.108.349-3.285,2.957-2.761,4.863.614,2.236,2.749,3.112,4.863,2.761" transform="translate(20.985 51.17)"/><path class="a" d="M42.834,126.7q35.062-7.233,70.356-13.26c2.1-.361,3.286-2.953,2.761-4.864a4.047,4.047,0,0,0-4.864-2.761Q75.8,111.84,40.732,119.072a3.954,3.954,0,0,0,2.1,7.624" transform="translate(22.003 61.475)"/></g></g></g></svg>