<svg xmlns="http://www.w3.org/2000/svg" xmlns:xlink="http://www.w3.org/1999/xlink" width="301.007" height="333.743" viewBox="0 0 301.007 333.743"><defs><style>.a,.f{fill:none;}.b{fill:#0396aa;}.c{clip-path:url(#a);}.d{fill:#0094a8;}.e{fill:#bbe048;}.f{stroke:#bbe048;stroke-miterlimit:10;stroke-width:1.531px;}.g{clip-path:url(#b);}.h{clip-path:url(#c);}</style><clipPath id="a"><rect class="a" width="166.021" height="158.834"/></clipPath><clipPath id="b"><rect class="a" width="301.007" height="302.798"/></clipPath><clipPath id="c"><rect class="b" width="28.083" height="30.667"/></clipPath></defs><g transform="translate(-197 -216.268)"><g transform="translate(197 238.601)"><g transform="translate(64.71 71.905)"><g class="c"><path class="d" d="M210.056,171.614c-.44,7.329.065,14.684-.5,22.007-.538,7.033-3.021,11.707-10.523,12.633-8.96,1.106-18.411.689-27.435.9q-13.74.318-27.482.446c-18.326.194-36.654.223-54.981.362-6.372.05-16.162,1.649-21.734-2.285-4.441-3.136-4.443-9.8-4.41-14.662.122-17.6.678-35.213.9-52.817.114-9.165.264-18.33.55-27.491q.207-6.64.517-13.276c.21-4.392-.152-9.449,1.337-13.634,2.52-7.072,10.251-7.021,16.633-6.778,8.805.332,17.594,1.082,26.405,1.394,18.079.641,36.173.662,54.261.728,10.365.038,20.736.042,31.1.284,3.9.091,8.15.146,10.425,3.728a30.6,30.6,0,0,1,3.618,9.016c3.481,13.765,1.98,28.388,2.117,42.437.055,5.805,9.082,5.82,9.027,0-.139-14.537,1.128-29.385-2.164-43.692-1.342-5.841-3.741-13.008-8.616-16.886-6.86-5.455-18.721-3.724-26.837-3.8-21.045-.206-42.1-.036-63.147-.551q-16.009-.388-31.985-1.438c-7.21-.469-15.234-.96-21.719,2.847-7.3,4.292-8.712,12.4-9.155,20.164-.607,10.614-.939,21.24-1.151,31.869-.426,21.285-.4,42.574-1.027,63.855-.193,6.481-.362,13.372,2.528,19.36,2.975,6.16,8.681,9.182,15.251,10.131,9.722,1.4,19.9.5,29.7.447,10.645-.061,21.287-.1,31.929-.185,11.824-.091,23.647-.225,35.468-.483q8.855-.192,17.71-.484c5.248-.176,10.774.088,15.941-.966,20.311-4.144,15.563-27.837,16.485-43.177.348-5.8-8.681-5.781-9.027,0" transform="translate(-53.985 -58.412)"/><path class="d" d="M193.675,98.25q-66.817-.245-133.639-.514c-4.356-.014-4.362,6.756,0,6.771q66.822.245,133.639.514c4.358.016,4.363-6.754,0-6.771" transform="translate(-53.432 -52.489)"/><path class="d" d="M93.311,63.464a111.726,111.726,0,0,0,1.182,25.48c.676,4.292,7.2,2.47,6.527-1.8a104.038,104.038,0,0,1-.94-23.681c.306-4.349-6.466-4.328-6.771,0" transform="translate(-46.224 -59.944)"/><path class="d" d="M151.356,63.251q.6,12.595,2.173,25.1c.538,4.265,7.315,4.319,6.771,0q-1.58-12.509-2.173-25.1c-.2-4.339-6.975-4.363-6.771,0" transform="translate(-34.642 -59.988)"/><path class="d" d="M80.68,117.391l17.255,1.326a2.792,2.792,0,0,1,1.47.394,2.738,2.738,0,0,1,.838,1.83,66.342,66.342,0,0,1,.9,14.046,3.987,3.987,0,0,1-.657,2.425c-.8.97-2.258.991-3.518.931l-18.282-.865a135.7,135.7,0,0,1-.467-17.646,2.849,2.849,0,0,1,.434-1.7,1,1,0,0,1,1.4-.225,1.124,1.124,0,0,1,.128.111" transform="translate(-49.192 -48.584)"/><path class="d" d="M113.079,118.667l17.256,1.326a2.788,2.788,0,0,1,1.468.394,2.738,2.738,0,0,1,.838,1.83,66.342,66.342,0,0,1,.9,14.046,3.987,3.987,0,0,1-.657,2.425c-.8.97-2.258.991-3.517.931l-18.283-.865a136.119,136.119,0,0,1-.469-17.646,2.849,2.849,0,0,1,.434-1.7,1,1,0,0,1,1.4-.225.962.962,0,0,1,.129.111" transform="translate(-42.755 -48.331)"/><path class="d" d="M80.68,147.231l17.255,1.326a2.792,2.792,0,0,1,1.47.394,2.738,2.738,0,0,1,.838,1.83,66.333,66.333,0,0,1,.9,14.045,3.987,3.987,0,0,1-.657,2.425c-.8.97-2.258.991-3.518.931l-18.282-.865a135.908,135.908,0,0,1-.469-17.646,2.849,2.849,0,0,1,.434-1.7,1,1,0,0,1,1.4-.225,1.054,1.054,0,0,1,.131.111" transform="translate(-49.191 -42.656)"/><path class="d" d="M113.079,147.231l17.256,1.326a2.787,2.787,0,0,1,1.468.394,2.738,2.738,0,0,1,.838,1.83,66.334,66.334,0,0,1,.9,14.045,3.979,3.979,0,0,1-.657,2.425c-.8.97-2.257.991-3.516.931l-18.284-.865a136.331,136.331,0,0,1-.469-17.646,2.842,2.842,0,0,1,.435-1.7,1,1,0,0,1,1.4-.225.962.962,0,0,1,.129.111" transform="translate(-42.754 -42.656)"/><path class="e" d="M196.15,142.306l-11.619-1.484c-2.433-.312-6.739-.254-7.933-2.735a41,41,0,0,1-2.764-9.885,59.249,59.249,0,0,1-1.012-10.829,1.951,1.951,0,0,0-2.779-1.627,1.846,1.846,0,0,0-1.713,1.746,59.166,59.166,0,0,1-1.369,10.3,45.57,45.57,0,0,1-3.193,10.052c-1.236,2.5-5.171,2.348-7.663,2.586l-11.671,1.1a1.949,1.949,0,0,0-1.925,1.594,1.82,1.82,0,0,0,1.4,2.015l11.982,1.912c3.087.494,7.134.76,9.075,3.411,1.724,2.355,1.617,5.567,1.782,8.295q.361,5.914.72,11.825c.137,2.24,3.694,2.354,3.905.315a1.952,1.952,0,0,0,.1-.443q.59-5.766,1.182-11.531c.279-2.723.3-5.918,2.026-8.26,1.876-2.551,5.618-2.818,8.615-3.2l12.325-1.555a1.958,1.958,0,0,0,1.925-1.591,1.815,1.815,0,0,0-1.4-2.016" transform="translate(-36.402 -48.94)"/><path class="f" d="M196.15,142.306l-11.619-1.484c-2.433-.312-6.739-.254-7.933-2.735a41,41,0,0,1-2.764-9.885,59.249,59.249,0,0,1-1.012-10.829,1.951,1.951,0,0,0-2.779-1.627,1.846,1.846,0,0,0-1.713,1.746,59.166,59.166,0,0,1-1.369,10.3,45.57,45.57,0,0,1-3.193,10.052c-1.236,2.5-5.171,2.348-7.663,2.586l-11.671,1.1a1.949,1.949,0,0,0-1.925,1.594,1.82,1.82,0,0,0,1.4,2.015l11.982,1.912c3.087.494,7.134.76,9.075,3.411,1.724,2.355,1.617,5.567,1.782,8.295q.361,5.914.72,11.825c.137,2.24,3.694,2.354,3.905.315a1.952,1.952,0,0,0,.1-.443q.59-5.766,1.182-11.531c.279-2.723.3-5.918,2.026-8.26,1.876-2.551,5.618-2.818,8.615-3.2l12.325-1.555a1.958,1.958,0,0,0,1.925-1.591A1.813,1.813,0,0,0,196.15,142.306Z" transform="translate(-36.402 -48.94)"/></g></g><g class="g"><path class="e" d="M283.754,135.437c3.166,45.1-7.422,92.06-44.183,121.481-16.443,13.16-36.474,21.185-56.954,25.458-24.227,5.055-51.064,5.882-75.151-.152C79.421,275.2,53.3,258.735,37.725,233.99,22,209.012,16.645,178.632,16.716,149.5c.072-28.81,5.8-56.184,23.663-79.447C57.318,48,82.364,31.916,108.708,23.524c30.4-9.684,63.78-9.64,93.6,2.165,33.824,13.388,55.442,41.356,74.189,71.217,5.678,9.046,20.078.707,14.364-8.4-18.34-29.214-39.2-56.825-70.616-72.842-28.457-14.507-60.79-18.536-92.2-13.755C65.593,11.423,9.242,58.743,1.652,123.294c-3.712,31.579-1.489,65.266,9.98,95.134,11.743,30.584,33.735,55.222,63.341,69.552,27.712,13.414,58.328,16.713,88.733,13.878,24.835-2.316,49.47-8.8,71.063-21.575,43.766-25.885,64.851-73.266,66.17-122.856.2-7.337-.037-14.672-.55-21.992-.746-10.619-17.387-10.7-16.635,0" transform="translate(0 0)"/><path class="e" d="M243.981,41.375a319.977,319.977,0,0,0-5.311,43.948l8.25-8.25A117.964,117.964,0,0,1,206.553,71.1c-10.11-3.329-14.443,12.6-4.386,15.911a132.124,132.124,0,0,0,44.753,6.561,8.433,8.433,0,0,0,8.25-8.25,287.347,287.347,0,0,1,4.722-39.561c1.983-10.377-13.918-14.823-15.911-4.387" transform="translate(39.028 7.037)"/></g></g><g transform="translate(463.496 216.267)"><g class="h" transform="translate(0 0)"><path class="b" d="M25.365,8.853A121.015,121.015,0,0,1,.777,26.881C-1,27.867.59,30.6,2.371,29.608A124.387,124.387,0,0,0,27.6,11.087c1.477-1.4-.759-3.633-2.233-2.233" transform="translate(0 -3.098)"/><path class="b" d="M27.576,29.948A56.125,56.125,0,0,0,7.476,8.616c-1.488-.908-2.846,1.427-1.363,2.332A53.413,53.413,0,0,1,25.244,31.311c.822,1.532,3.154.17,2.332-1.363" transform="translate(-2.016 -3.098)"/><path class="b" d="M26.8,25.581A55.211,55.211,0,0,0,1.937,22.638,1.627,1.627,0,0,0,.358,24.217,1.589,1.589,0,0,0,1.937,25.8a53.061,53.061,0,0,1,24.026,2.83,1.593,1.593,0,0,0,1.942-1.1,1.612,1.612,0,0,0-1.1-1.942" transform="translate(-0.132 -8.213)"/><path class="b" d="M22.693,1.884q-1.481,13.449-2.962,26.9c-.277,2.522,3.672,2.5,3.948,0q1.482-13.449,2.962-26.9c.278-2.522-3.672-2.5-3.948,0" transform="translate(-7.263 0)"/></g></g><g transform="translate(197 519.343)"><g class="h" transform="translate(0 0)"><path class="b" d="M25.365,8.853A121.015,121.015,0,0,1,.777,26.881C-1,27.867.59,30.6,2.371,29.608A124.387,124.387,0,0,0,27.6,11.087c1.477-1.4-.759-3.633-2.233-2.233" transform="translate(0 -3.098)"/><path class="b" d="M27.576,29.948A56.125,56.125,0,0,0,7.476,8.616c-1.488-.908-2.846,1.427-1.363,2.332A53.413,53.413,0,0,1,25.244,31.311c.822,1.532,3.154.17,2.332-1.363" transform="translate(-2.016 -3.098)"/><path class="b" d="M26.8,25.581A55.211,55.211,0,0,0,1.937,22.638,1.627,1.627,0,0,0,.358,24.217,1.589,1.589,0,0,0,1.937,25.8a53.061,53.061,0,0,1,24.026,2.83,1.593,1.593,0,0,0,1.942-1.1,1.612,1.612,0,0,0-1.1-1.942" transform="translate(-0.132 -8.213)"/><path class="b" d="M22.693,1.884q-1.481,13.449-2.962,26.9c-.277,2.522,3.672,2.5,3.948,0q1.482-13.449,2.962-26.9c.278-2.522-3.672-2.5-3.948,0" transform="translate(-7.263 0)"/></g></g></g></svg>