<svg xmlns="http://www.w3.org/2000/svg" xmlns:xlink="http://www.w3.org/1999/xlink" width="124.705" height="105.144" viewBox="0 0 124.705 105.144"><defs><style>.a{fill:none;}.b{clip-path:url(#a);}.c{fill:#0094a8;}.d{fill:#bbe048;}.e{fill:#fff;}.f{fill:#84c12d;}.g{fill:#44493a;}</style><clipPath id="a"><rect class="a" width="124.705" height="105.144"/></clipPath></defs><g class="b"><path class="c" d="M43.935,49.662c11.439-2.619,23.17-3.575,34.715-5.6,4.442-.779,8.947-2.037,13.5-1.7,5.471.4,8.172,4.372,9.8,9.231,3.607,10.782,5.124,21.93,6.189,33.2.457,4.839,1.73,10.4.6,15.22-1.41,6-7.631,7.079-12.783,8.326-11.736,2.84-23.623,5.027-35.562,6.815-11.657,1.746-23.511,3.558-35.283,4.3-3.282.206-6.957.209-9.852-1.579-2.916-1.8-4.277-5.124-5.105-8.307C7.17,98.124,6.9,86.115,5.164,74.457c-.642-4.32-2.473-9.786-.29-13.972,1.451-2.783,4.7-3.754,7.556-4.392,4.259-.953,8.634-1.259,12.921-2.051,6.263-1.159,12.381-2.953,18.584-4.38,2.461-.566,1.419-4.351-1.043-3.785-6.2,1.427-12.321,3.221-18.584,4.38-4.374.809-8.845,1.1-13.183,2.11-2.991.693-6.1,1.829-8.224,4.155C.567,59.082-.107,62.589.013,65.959a67.021,67.021,0,0,0,1.14,8.062c.57,3.6.995,7.227,1.4,10.852.731,6.609,1.378,13.238,2.558,19.786,1.432,7.945,3.806,16.614,12.853,18.37,4.626.9,9.344.167,13.97-.337,6.762-.737,13.515-1.538,20.256-2.442,13.391-1.8,26.735-4,39.917-6.979,5.58-1.263,12.3-2,16.742-5.949,3.894-3.456,4.42-8.7,4.055-13.6-.944-12.664-2.1-25.573-5.6-37.817-1.513-5.293-2.9-11.431-7.562-14.924C95.5,37.8,89.9,38.173,84.955,38.929c-6.37.974-12.681,2.252-19.067,3.153-7.7,1.086-15.411,2.058-23,3.794-2.461.564-1.419,4.348,1.043,3.785" transform="translate(0 -18.309)"/><path class="c" d="M58.5,148.947a5.38,5.38,0,0,1,3.048,1.88c.1.113.026.026.007,0,.055.071.108.146.159.22q.116.167.222.341a8.4,8.4,0,0,1,.425.81c.046.109.182.515.244.742.041.153.078.308.11.464.018.09.035.179.05.268.038.225-.017-.169.009.059a7.355,7.355,0,0,1,.044.96q0,.242-.025.482c-.006.069-.012.138-.02.207-.03.249.059-.3-.024.134a6.423,6.423,0,0,1-.54,1.7,6.561,6.561,0,0,1-2.463,2.69,4.435,4.435,0,0,1-1.525.606c-.147.034-.294.063-.443.087-.217.036.184-.017-.033,0-.064.006-.127.013-.191.017a7.317,7.317,0,0,1-.952,0c-.063,0-.126-.01-.189-.017.056.006.236.041-.028,0-.125-.021-.249-.045-.372-.073a6.328,6.328,0,0,1-.907-.278c-.141-.054-.006,0,.019.01-.077-.034-.154-.071-.231-.109q-.2-.1-.394-.213-.166-.1-.328-.205c-.072-.048-.142-.1-.212-.149-.175-.128.124.1-.044-.035a6.465,6.465,0,0,1-1.923-6.888,5.473,5.473,0,0,1,6.508-3.706c1.636.4,2.333-2.125.7-2.523a8.068,8.068,0,0,0-9.066,3.993,9.152,9.152,0,0,0,1.13,10.182,7.785,7.785,0,0,0,8.53,2.159,8.941,8.941,0,0,0,5.643-8,8.323,8.323,0,0,0-6.237-8.336c-1.635-.4-2.333,2.124-.7,2.523" transform="translate(-23.396 -69.687)"/><path class="c" d="M109.446,140.779a5.38,5.38,0,0,1,3.048,1.88c.1.113.026.026.007,0,.055.071.108.146.159.22q.116.167.222.341a8.4,8.4,0,0,1,.425.81c.046.109.182.515.244.742.041.153.078.308.11.464.018.089.035.179.05.268.038.225-.017-.169.009.059a7.358,7.358,0,0,1,.044.96q0,.242-.025.482c-.006.069-.012.138-.02.207-.03.249.059-.3-.024.134a6.424,6.424,0,0,1-.54,1.7,6.561,6.561,0,0,1-2.463,2.69,4.435,4.435,0,0,1-1.525.606c-.147.034-.294.063-.443.087-.217.036.184-.017-.033,0-.064.006-.127.013-.191.017a7.317,7.317,0,0,1-.952,0c-.063,0-.126-.01-.189-.017.056.006.236.041-.028,0-.125-.021-.249-.045-.372-.073a6.33,6.33,0,0,1-.907-.278c-.141-.054-.006,0,.019.01-.077-.034-.154-.071-.231-.109q-.2-.1-.394-.213-.166-.1-.328-.205c-.072-.048-.142-.1-.212-.149-.175-.128.124.1-.044-.035a6.465,6.465,0,0,1-1.923-6.888,5.473,5.473,0,0,1,6.508-3.705c1.636.4,2.333-2.125.7-2.523a8.068,8.068,0,0,0-9.066,3.993,9.152,9.152,0,0,0,1.13,10.182,7.785,7.785,0,0,0,8.53,2.159,8.941,8.941,0,0,0,5.643-8,8.323,8.323,0,0,0-6.237-8.336c-1.635-.4-2.333,2.124-.7,2.523" transform="translate(-47.681 -65.794)"/><path class="c" d="M159.151,132.791a5.38,5.38,0,0,1,3.048,1.88c.1.113.026.026.007,0,.055.071.108.146.159.22q.116.167.222.341a8.4,8.4,0,0,1,.425.81c.046.109.182.515.244.742.041.153.078.308.11.464.018.089.035.179.05.268.038.225-.017-.169.009.059a7.358,7.358,0,0,1,.044.96q0,.242-.025.482c-.006.069-.012.138-.02.207-.03.249.059-.3-.024.134a6.423,6.423,0,0,1-.54,1.7,6.561,6.561,0,0,1-2.463,2.69,4.435,4.435,0,0,1-1.525.606c-.147.034-.294.063-.443.087-.217.036.184-.017-.033,0-.064.006-.127.013-.191.017a7.317,7.317,0,0,1-.952,0c-.063,0-.126-.01-.189-.017.056.006.236.041-.028,0-.125-.021-.249-.045-.372-.073a6.326,6.326,0,0,1-.907-.278c-.141-.054-.006,0,.019.01-.077-.034-.154-.071-.231-.109q-.2-.1-.394-.213-.166-.1-.328-.205c-.072-.048-.142-.1-.212-.149-.175-.128.124.1-.044-.035a6.465,6.465,0,0,1-1.923-6.888,5.473,5.473,0,0,1,6.508-3.706c1.636.4,2.333-2.125.7-2.523a8.068,8.068,0,0,0-9.066,3.993,9.152,9.152,0,0,0,1.13,10.182,7.785,7.785,0,0,0,8.53,2.159,8.941,8.941,0,0,0,5.643-8,8.323,8.323,0,0,0-6.237-8.336c-1.635-.4-2.333,2.124-.7,2.523" transform="translate(-71.375 -61.986)"/><path class="d" d="M180.519,13.4l1.132-12.1A1.318,1.318,0,0,0,180.343,0a1.336,1.336,0,0,0-1.308,1.308L177.9,13.4a1.318,1.318,0,0,0,1.308,1.308,1.336,1.336,0,0,0,1.308-1.308" transform="translate(-84.804)"/><path class="d" d="M198,21.659A82.269,82.269,0,0,1,207.946,10.2c1.217-1.169-.635-3.017-1.85-1.85a85.816,85.816,0,0,0-10.352,11.991,1.319,1.319,0,0,0,.469,1.79,1.337,1.337,0,0,0,1.79-.469" transform="translate(-93.221 -3.802)"/><path class="d" d="M209.094,45.634a39.029,39.029,0,0,1,13.044-3.761,1.346,1.346,0,0,0,1.308-1.308,1.317,1.317,0,0,0-1.308-1.308,42.677,42.677,0,0,0-14.365,4.118,1.321,1.321,0,0,0-.469,1.79,1.335,1.335,0,0,0,1.79.469" transform="translate(-98.741 -18.711)"/><path class="c" d="M150.922,82.389c-3.252,9.206-21.851,12.382-27.885,4.742-6.028-7.6-2.693-23.513,10.359-25.687,11.234-1.872,20.818,11.771,17.526,20.946" transform="translate(-57.27 -29.207)"/><path class="e" d="M147.367,71.161c-5.56-6.364-7.267,1.35-10.993,2.367-3.856.246-7.971-6.5-11.167,1.325-1.842,5.233-1.218,12.077,2.855,16.1,2.479,2.432,5.94,2.7,9.236,2.615a16.729,16.729,0,0,0,4.7-.783c3.147-.984,6.332-2.364,7.889-5.468,2.547-5.131.918-11.807-2.52-16.161" transform="translate(-59.216 -32.735)"/><path class="f" d="M146.906,99.676a.936.936,0,0,0,1.566-.261l2.341-4.547a1.643,1.643,0,0,0-.451-1.983A5.5,5.5,0,0,0,143,94.11a1.644,1.644,0,0,0,.217,2.023Z" transform="translate(-68.048 -43.847)"/><path class="g" d="M138.508,86a1.875,1.875,0,0,1-1.866,1.883,1.94,1.94,0,0,1-1.5-2.234,1.876,1.876,0,0,1,1.867-1.883,1.939,1.939,0,0,1,1.5,2.234" transform="translate(-64.419 -39.927)"/><path class="g" d="M156.064,83.11a1.875,1.875,0,0,0,2.376,1.176,1.939,1.939,0,0,0,.69-2.6,1.875,1.875,0,0,0-2.376-1.177,1.939,1.939,0,0,0-.69,2.6" transform="translate(-74.293 -38.318)"/><path class="d" d="M37.743,95.428l29.346-4.871A1.318,1.318,0,0,0,68,88.947a1.339,1.339,0,0,0-1.609-.914L37.047,92.9a1.318,1.318,0,0,0-.914,1.609,1.339,1.339,0,0,0,1.609.914" transform="translate(-17.205 -41.954)"/><path class="d" d="M39.495,112.67q11.6-2.393,23.281-4.388a1.32,1.32,0,0,0,.914-1.61,1.339,1.339,0,0,0-1.61-.914q-11.677,2-23.281,4.388a1.308,1.308,0,1,0,.7,2.523" transform="translate(-18.04 -50.403)"/></g></svg>