<svg xmlns="http://www.w3.org/2000/svg" xmlns:xlink="http://www.w3.org/1999/xlink" width="72.5" height="90.989" viewBox="0 0 72.5 90.989"><defs><style>.a{fill:#84c12d;}.b{clip-path:url(#a);}</style><clipPath id="a"><rect class="a" width="72.5" height="90.989"/></clipPath></defs><g class="b"><path class="a" d="M77.5,2.131a129.4,129.4,0,0,0,1.559,18.251c.909,5.782,2,11.9,4.111,17.384,1.763,4.567,5.926,6.182,10.455,6.9,6.08.96,12.187,1.771,18.279,2.655V43.063c-6.394,1.1-12.832,2.054-19.2,3.314-4.932.976-9.451,3.118-11.817,7.788-2.313,4.563-2.485,9.821-2.844,14.822L76.63,88.654c-.2,2.834,4.21,2.821,4.413,0q.615-8.551,1.229-17.1c.343-4.774.215-10.079,2.145-14.556,2.035-4.721,6.524-5.862,11.176-6.676,5.824-1.019,11.655-2,17.482-3,2.081-.357,2.132-3.946,0-4.255l-15.987-2.32a29.18,29.18,0,0,1-6.539-1.332c-2.345-.926-3.147-2.65-3.826-4.959a120.748,120.748,0,0,1-4.813-32.32c-.041-2.837-4.454-2.845-4.413,0" transform="translate(-42.81 0)"/><path class="a" d="M34.748,2.6A121.067,121.067,0,0,1,29.64,34.452c-.653,2.155-1.271,4.041-3.437,5.052a21.044,21.044,0,0,1-6.142,1.357q-8.218,1.09-16.437,2.172c-2.207.291-3.288,3.835-.586,4.334q8.55,1.58,17.1,3.16c4.74.886,9.4,2.014,11.414,6.9,1.807,4.389,1.648,9.5,1.923,14.157q.518,8.772,1.037,17.544c.166,2.823,4.581,2.842,4.413,0L37.763,69.445c-.3-5.01-.413-10.257-2.669-14.853-2.307-4.7-6.818-6.878-11.731-7.921-6.345-1.348-12.774-2.379-19.153-3.558l-.586,4.334c6.1-.806,12.2-1.585,18.288-2.418,4.555-.624,9.046-1.943,10.994-6.528,2.333-5.49,3.472-11.813,4.471-17.668A129.134,129.134,0,0,0,39.161,2.6c.077-2.841-4.336-2.839-4.413,0" transform="translate(-0.804 -0.264)"/><path class="a" d="M32.341,49.17c-2.151-2.707-6.1-3.884-7.554-7.119-1.161-2.586-4.965-.345-3.81,2.228,1.674,3.729,5.818,4.957,8.244,8.011a2.222,2.222,0,0,0,3.12,0,2.258,2.258,0,0,0,0-3.12" transform="translate(-11.599 -22.853)"/><path class="a" d="M124.873,50.179a29.17,29.17,0,0,1,6.718-7.386,2.221,2.221,0,0,0,0-3.12,2.258,2.258,0,0,0-3.12,0,32.579,32.579,0,0,0-7.408,8.279c-1.52,2.409,2.3,4.625,3.811,2.227" transform="translate(-67.442 -21.815)"/><path class="a" d="M113.328,137.95a32.872,32.872,0,0,1,8.442,6.028c2.023,2,5.146-1.121,3.12-3.12a36.7,36.7,0,0,0-9.336-6.718c-2.532-1.27-4.769,2.536-2.227,3.811" transform="translate(-62.691 -74.801)"/><path class="a" d="M30.766,134.626a68.143,68.143,0,0,0-9.2,8.476c-1.89,2.11,1.221,5.241,3.12,3.12a62.239,62.239,0,0,1,8.3-7.786,2.285,2.285,0,0,0,.792-3.019,2.219,2.219,0,0,0-3.019-.792" transform="translate(-11.724 -75.034)"/></g></svg>