<svg xmlns="http://www.w3.org/2000/svg" xmlns:xlink="http://www.w3.org/1999/xlink" width="83.132" height="69.941" viewBox="0 0 83.132 69.941"><defs><style>.a{fill:none;}.b{clip-path:url(#a);}.c{fill:#0094a8;}.d{fill:#84c12d;}</style><clipPath id="a"><rect class="a" width="83.132" height="69.941"/></clipPath></defs><g class="b"><path class="c" d="M59.992,41.144a9.175,9.175,0,0,1,5.2,1.7c1.484,1.159,2.713,2.6,4.246,3.7,3.04,2.192,6.766,3.087,10.428,3.532,2.107.256,4.229.345,6.349.416a1.365,1.365,0,0,0,.361-2.669,6.183,6.183,0,0,1-4.164-7.274l-.95.949c4-.859,8.123-1.9,11.377-4.508,3.681-2.951,4.6-7.536,4.721-12.02.211-7.917.007-18.129-8.013-22.358C85.464.46,80.681.272,76.166.108q-8.114-.3-16.23.212A77.651,77.651,0,0,0,45.174,2.207C40.993,3.3,36.685,5.28,34.294,9.045c-2.1,3.31-2.66,7.449-2.581,11.3A38.913,38.913,0,0,0,33.668,32.11,21.3,21.3,0,0,0,34.953,35.1c.819,1.546,3.166.174,2.347-1.372a28.96,28.96,0,0,1-2.723-10.865,23.541,23.541,0,0,1,.946-10.188A10.5,10.5,0,0,1,38.2,8.552,15.343,15.343,0,0,1,43.31,5.636c4.113-1.52,8.539-1.95,12.877-2.321q7.621-.651,15.282-.593c2.488.02,4.978.086,7.462.229a31.692,31.692,0,0,1,5.992.81,12.8,12.8,0,0,1,5.089,2.394,11.464,11.464,0,0,1,3.157,4.3c1.482,3.418,1.658,7.307,1.694,10.978.038,3.907.269,8.4-2.105,11.749-2.108,2.968-5.9,4.217-9.274,5.067-.91.23-1.826.433-2.744.631a1.345,1.345,0,0,0-.949.949,8.944,8.944,0,0,0,6.063,10.616q.18-1.335.361-2.669a41.856,41.856,0,0,1-10.768-1.329,15.416,15.416,0,0,1-4.724-2.311c-1.478-1.092-2.673-2.521-4.143-3.629a12.023,12.023,0,0,0-6.588-2.08,1.37,1.37,0,0,0-1.359,1.359,1.386,1.386,0,0,0,1.359,1.359" transform="translate(-14.473 0)"/><path class="d" d="M57.942,31.651q14.288-.828,28.6-1.094,4.05-.074,8.1-.1a1.36,1.36,0,0,0,0-2.718q-14.312.106-28.612.773-4.046.19-8.09.425c-1.739.1-1.75,2.819,0,2.718" transform="translate(-25.851 -12.66)"/><path class="d" d="M59.842,47.7q10.635-.641,21.3-.445a1.36,1.36,0,0,0,0-2.718q-10.652-.2-21.3.445c-1.738.1-1.75,2.823,0,2.718" transform="translate(-26.719 -20.308)"/><path class="c" d="M41.723,63.674a34.2,34.2,0,0,0-12.7-2.75,85.7,85.7,0,0,0-12.911.317q-2.549.236-5.084.593c-2.338.326-4.8.772-6.738,2.217C2.03,65.735.981,68.437.427,71.117a18.73,18.73,0,0,0,.081,8.318C1.9,84.989,6.665,89.588,12.534,89.815l-1.359-1.359a8.32,8.32,0,0,1-3.129,6.352,1.382,1.382,0,0,0,.324,2.483,7.529,7.529,0,0,0,6.285-.736c1.915-1.026,3.407-2.631,5.107-3.951a9.806,9.806,0,0,1,5.562-2.083c2.37-.153,4.748.1,7.117.17,4.251.126,8.824-.417,12.074-3.444a10.368,10.368,0,0,0,2.928-5.452,39.742,39.742,0,0,0,.811-6.836,12.154,12.154,0,0,0-1.556-7.1,12.1,12.1,0,0,0-4.975-4.185,1.394,1.394,0,0,0-1.859.488,1.371,1.371,0,0,0,.487,1.859,9.787,9.787,0,0,1,3.842,2.973,8.7,8.7,0,0,1,1.359,5.094A36.589,36.589,0,0,1,45,80.154a8.782,8.782,0,0,1-2.188,4.962c-2.689,2.69-6.789,2.963-10.369,2.857-4.215-.124-8.816-.866-12.656,1.344-1.882,1.083-3.356,2.7-5.083,3.989-1.6,1.2-3.63,2.158-5.609,1.365l.324,2.483a11.2,11.2,0,0,0,4.475-8.7A1.382,1.382,0,0,0,12.534,87.1c-4.3-.167-7.879-3.526-9.153-7.5a15.1,15.1,0,0,1-.462-7.072c.369-2.188,1.016-4.818,2.879-6.232,1.656-1.257,3.894-1.551,5.892-1.831.084-.012.513-.07.224-.032l.5-.065q.532-.068,1.066-.131,1.194-.141,2.391-.254a89.331,89.331,0,0,1,11.889-.4c4.217.163,8.813.648,12.593,2.44a1.4,1.4,0,0,0,1.859-.488,1.371,1.371,0,0,0-.488-1.859" transform="translate(0 -27.756)"/><path class="d" d="M36.315,81.206c2.008-4.543,9.086-4.336,6.73,1.66a19.165,19.165,0,0,1-4.01,6.727c-1.094,1.195-1.846,2.412-3.544,1.521a10.759,10.759,0,0,1-2.563-1.965,13.69,13.69,0,0,1-3.014-3.957c-.6-1.4-1.36-2.961-1.141-4.532.388-2.29,3.359-3.191,5.242-2.118a5.9,5.9,0,0,1,2.342,2.717" transform="translate(-13.116 -35.628)"/><path class="d" d="M36.322,80.952c.741-1.62,2.485-3.1,4.384-2.786,2.435.4,1.363,3.349.741,4.8a18.657,18.657,0,0,1-2.706,4.72c-.489.583-1.021,1.143-1.543,1.7-.486.515-.966.923-1.7.659a7.354,7.354,0,0,1-2.343-1.66,19.613,19.613,0,0,1-1.874-1.975,11.422,11.422,0,0,1-2.4-5.116,2.566,2.566,0,0,1,2.442-3.1c1.886-.177,3.081,1.285,3.866,2.818.4.778,1.571.092,1.173-.686-.881-1.721-2.224-3.264-4.253-3.478a4.346,4.346,0,0,0-4.152,1.918c-1.136,1.9-.074,4.265.742,6.073a15.042,15.042,0,0,0,4.28,5.2,5.533,5.533,0,0,0,2.793,1.451,2.781,2.781,0,0,0,2.2-.95A19.824,19.824,0,0,0,41.863,85.3c1.09-2.175,3.241-6.425.189-8.088-2.6-1.42-5.807.659-6.9,3.058-.361.79.81,1.481,1.174.686" transform="translate(-12.536 -35.031)"/></g></svg>