<svg xmlns="http://www.w3.org/2000/svg" xmlns:xlink="http://www.w3.org/1999/xlink" width="78.612" height="65" viewBox="0 0 78.612 65"><defs><style>.a{fill:none;}.b{clip-path:url(#a);}.c{fill:#0094a8;}.d{fill:#84c12d;}</style><clipPath id="a"><rect class="a" width="78.612" height="65"/></clipPath></defs><g class="b"><path class="c" d="M3.267,6.331C3.526,4.188,4.607,3.3,6.656,2.97a38.1,38.1,0,0,1,6.212-.116l13.6.08L54.037,3.1l13.233.078c2.117.013,4.809-.45,6.165,1.544,1.282,1.885,1.457,4.625,1.593,6.821.552,8.962.58,17.994.64,26.97q.022,3.3.017,6.6c0,1.071.038,2.153-.015,3.222-.088,1.777-.987,2.136-2.49,2.66-3.914,1.366-8.1,1.585-12.2,1.737q-13.694.509-27.4.286c-8.932-.138-18.02-.194-26.912-1.106-3.9-.4-3.886-4.366-3.879-7.471q.007-3.32.015-6.641.036-9.523.145-19.046c.052-4.115-.073-8.313.327-12.415C3.44,4.557.668,4.569.5,6.331c-.4,4.1-.275,8.3-.327,12.415Q.049,28.268.024,37.792C.014,40.307-.009,42.824,0,45.34c.017,3,.445,6.7,3.279,8.414,1.618.977,3.6.942,5.422,1.057q4.018.252,8.039.442,7.677.364,15.362.5c10.161.185,20.353.153,30.505-.328,4.327-.2,8.845-.6,12.853-2.37,4.166-1.841,3-7.138,2.989-10.886-.023-10.194-.022-20.458-.656-30.635-.225-3.606-.738-8.818-4.515-10.529C71.457.181,69.217.413,67.27.4L59.183.354,25,.154C19.424.121,13.806-.117,8.234.072A10.067,10.067,0,0,0,2.993,1.383C1.241,2.538.735,4.35.5,6.331c-.213,1.767,2.56,1.751,2.771,0" transform="translate(0 0)"/><path class="d" d="M107.617,40.315a21.866,21.866,0,0,0-10.555,8.346c-1.412,2.145-.859,3.138.95,4.8l6.754,6.2c1.312,1.2,3.277-.75,1.96-1.959l-4.676-4.294-2.338-2.146a3.652,3.652,0,0,1-.672-.718,10.7,10.7,0,0,0,.739-.959,18.773,18.773,0,0,1,8.576-6.6c1.648-.632.933-3.313-.737-2.672" transform="translate(-60.695 -25.357)"/><path class="d" d="M140.459,39.262a23.091,23.091,0,0,0-5.529,8.68c-1.021,2.887-.81,6.879-3.282,9-1.355,1.165.613,3.117,1.959,1.96,2.355-2.025,2.666-5.057,3.323-7.906a20.1,20.1,0,0,1,5.487-9.777,1.386,1.386,0,0,0-1.959-1.959" transform="translate(-82.717 -24.498)"/><path class="d" d="M168.2,42.644c2.244,2.529,4.651,4.905,6.894,7.434l-.357-1.348c-.192,1.18-1.913,2.486-2.655,3.5a27.873,27.873,0,0,0-3,5.318c-.7,1.619,1.682,3.032,2.393,1.4a27.494,27.494,0,0,1,3-5.319c.9-1.23,2.6-2.418,2.9-3.971s-1.4-2.748-2.363-3.774c-1.625-1.73-3.281-3.428-4.857-5.2-1.186-1.337-3.14.629-1.959,1.959" transform="translate(-105.822 -25.37)"/><path class="c" d="M1.942,122.517q37.218,1.145,74.438-.779c1.775-.092,1.785-2.864,0-2.771q-37.186,1.923-74.438.779c-1.784-.055-1.782,2.717,0,2.771" transform="translate(-0.381 -75.008)"/><path class="d" d="M28.012,34.409l19.925.106a1.386,1.386,0,0,0,0-2.771l-19.925-.106a1.386,1.386,0,0,0,0,2.771" transform="translate(-16.818 -19.948)"/><path class="d" d="M28.013,56.177q9.633.223,19.264-.107c1.779-.061,1.787-2.833,0-2.771q-9.63.329-19.264.107c-1.784-.041-1.783,2.73,0,2.771" transform="translate(-16.819 -33.605)"/><path class="d" d="M26.827,78.9H46.752a1.386,1.386,0,0,0,0-2.771H26.827a1.386,1.386,0,0,0,0,2.771" transform="translate(-16.071 -48.001)"/><path class="d" d="M27.427,97.792a128.181,128.181,0,0,0,15.544-.038c1.771-.112,1.784-2.884,0-2.771a128.178,128.178,0,0,1-15.544.038c-1.782-.1-1.775,2.668,0,2.771" transform="translate(-16.452 -59.884)"/><path class="c" d="M72.612,146.587c-1.347,2.475-2.907,4.843-4.493,7.17-1.007,1.478,1.393,2.865,2.393,1.4,1.586-2.327,3.147-4.695,4.493-7.17.852-1.567-1.539-2.967-2.393-1.4" transform="translate(-42.797 -91.99)"/><path class="c" d="M124.275,146.559a20.325,20.325,0,0,0,4,7.645c1.169,1.351,3.122-.616,1.959-1.959a17.194,17.194,0,0,1-3.287-6.423,1.387,1.387,0,0,0-2.672.737" transform="translate(-78.319 -91.325)"/><path class="c" d="M44.029,169.654c7.456.364,14.9.665,22.368.417s14.925-.773,22.395-.349c1.782.1,1.776-2.67,0-2.771-7.469-.424-14.929.1-22.395.349s-14.911-.053-22.368-.417c-1.783-.087-1.778,2.684,0,2.771" transform="translate(-26.919 -105.162)"/></g></svg>