<svg xmlns="http://www.w3.org/2000/svg" xmlns:xlink="http://www.w3.org/1999/xlink" width="92" height="100.021" viewBox="0 0 92 100.021"><defs><style>.a{fill:none;}.b{clip-path:url(#a);}.c{fill:#0094a8;}.d{fill:#84c12d;}</style><clipPath id="a"><rect class="a" width="92" height="100.021"/></clipPath></defs><g class="b"><path class="c" d="M3.756,95.507C4.976,79.313,8.233,63.394,11.8,47.579c1.789-7.925,3.653-15.834,5.374-23.774.842-3.886,1.65-7.779,2.4-11.684.608-3.174.555-7.128,4.3-8.035s8.2-.291,12.033-.3c4.136-.008,8.273-.026,12.409-.023,4.3,0,8.6.022,12.9.093q2.973.049,5.946.132c1.925.055,4.449-.263,6.274.388,2.462.878,1.811,4.206,1.54,6.225-.532,3.964-1.283,7.906-2.052,11.83-1.538,7.853-3.037,15.724-4.744,23.542-1.941,8.893-4.659,17.389-7.42,26.041-2.658,8.331-2.789,17.208-4.879,25.672-.578,2.342,3.037,3.342,3.616,1,2.019-8.178,2.208-16.726,4.616-24.815,1.255-4.216,2.881-8.311,4.1-12.543,1.235-4.281,2.3-8.608,3.272-12.955,1.917-8.589,3.565-17.251,5.237-25.892.771-3.982,1.509-7.983,2.023-12.008.307-2.4.474-5.073-.885-7.21C76.143.561,73.01.438,70.129.335,65.506.169,60.88.085,56.254.045,46.992-.036,37.728.013,28.466.038c-3.017.007-6.445-.018-8.906,2-2.622,2.149-2.918,5.5-3.512,8.619-1.665,8.757-3.639,17.451-5.628,26.14C5.982,56.182,1.5,75.625.007,95.507c-.181,2.407,3.569,2.4,3.75,0" transform="translate(0 0)"/><path class="c" d="M148.432,5.787a162.53,162.53,0,0,0,3.332,21.432A175.223,175.223,0,0,1,154.972,49.1a252.3,252.3,0,0,0,7.556,42.268c.62,2.33,4.239,1.341,3.616-1a253.046,253.046,0,0,1-7.511-42.236,170.508,170.508,0,0,0-2.948-20.526,170.182,170.182,0,0,1-3.5-21.827c-.2-2.387-3.954-2.408-3.75,0" transform="translate(-74.216 -1.994)"/><path class="c" d="M128.665,129.654l18.929.5c2.414.063,2.412-3.687,0-3.75l-18.929-.5c-2.414-.063-2.412,3.687,0,3.75" transform="translate(-63.431 -62.955)"/><path class="c" d="M9.784,138.219q28.586.733,57.182.751a1.876,1.876,0,0,0,0-3.75q-28.6-.018-57.182-.751c-2.414-.062-2.412,3.688,0,3.75" transform="translate(-3.987 -67.238)"/><path class="c" d="M59.674,137.588c.236,5.605,1.838,10.936,3.208,16.34.593,2.338,4.21,1.347,3.616-1-1.285-5.07-2.852-10.082-3.074-15.343-.1-2.4-3.852-2.417-3.75,0" transform="translate(-29.837 -67.893)"/><path class="c" d="M50.705,33.335q9.63-.164,19.258.289" transform="translate(-25.354 -16.647)"/><path class="d" d="M48.894,33.341q9.633-.148,19.258.289c2.412.11,2.407-3.64,0-3.75q-9.625-.438-19.258-.289c-2.411.037-2.418,3.787,0,3.75" transform="translate(-23.543 -14.778)"/><line class="c" x2="18.962" transform="translate(22.981 26.588)"/><path class="d" d="M44.153,53.178H63.115a1.876,1.876,0,0,0,0-3.75H44.153a1.876,1.876,0,0,0,0,3.75" transform="translate(-21.172 -24.715)"/><path class="c" d="M41.82,72.568a250.074,250.074,0,0,1,27.554.5" transform="translate(-20.911 -36.201)"/><path class="d" d="M40.011,72.58a259.275,259.275,0,0,1,27.554.5c2.408.172,2.4-3.578,0-3.75a259.273,259.273,0,0,0-27.554-.5c-2.406.084-2.417,3.834,0,3.75" transform="translate(-19.102 -34.338)"/><path class="c" d="M38.257,92.965l36.149.31" transform="translate(-19.129 -46.485)"/><path class="d" d="M36.446,92.965l36.149.31c2.413.021,2.416-3.729,0-3.75l-36.149-.31c-2.413-.021-2.416,3.729,0,3.75" transform="translate(-17.318 -44.61)"/><path class="d" d="M105.464,35.722c1.658,1,4.332-.054,5.675-1.7a10.78,10.78,0,0,0,2.046-6.231c-.377,2.177-.711,4.632.34,6.4,1.091,1.832,3.225,2.182,5.13,2.384-1.651.426-3.254-.21-4.625,1a7.379,7.379,0,0,0-1.719,2.491,37.491,37.491,0,0,0-.979,4.082c0-2.178-.079-4.578-1.325-6.113a6.607,6.607,0,0,0-3.989-2.067Z" transform="translate(-52.735 -13.896)"/><path class="d" d="M102.595,35.5c6.351,2.9,10.162-4.317,10.542-9.551.151-2.081-3.335-2.593-3.683-.5-.45,2.706-.893,5.7.73,8.123,1.5,2.229,4.054,2.744,6.548,3.034l-.5-3.683c-2.521.451-4.453.165-6.23,2.354-1.545,1.9-1.9,4.2-2.4,6.532l3.683.5c-.018-2.306-.091-4.795-1.394-6.788-1.369-2.093-3.329-2.33-5.4-3.259-2.184-.978-4.093,2.252-1.892,3.238,1.286.576,2.816.672,3.813,1.737,1.237,1.321,1.114,3.369,1.127,5.072.016,2.057,3.23,2.619,3.683.5.318-1.488.466-3.412,1.339-4.7,1.131-1.672,2.89-1.246,4.674-1.565,2.257-.4,1.418-3.46-.5-3.683-1.451-.168-3-.4-3.672-1.866-.61-1.341-.22-3.165.01-4.544l-3.683-.5a9.618,9.618,0,0,1-1.186,4.4c-.667,1.074-2.31,2.551-3.714,1.909-2.179-1-4.087,2.235-1.892,3.238" transform="translate(-50.812 -12.058)"/></g></svg>