<?xml version="1.0" encoding="UTF-8"?><svg id="Layer_1" xmlns="http://www.w3.org/2000/svg" xmlns:xlink="http://www.w3.org/1999/xlink" viewBox="0 0 200 165.48"><defs><style>.cls-1{fill:none;}.cls-2{fill:#bbe048;}.cls-3{fill:#0094a8;}.cls-4{clip-path:url(#clippath);}</style><clipPath id="clippath"><rect class="cls-1" x="7.54" y="12.17" width="187.08" height="138.43"/></clipPath></defs><g class="cls-4"><g id="Group_69"><path id="Path_101" class="cls-3" d="M122.43,83.44c2.36-16.04,2.76-32.3,1.2-48.43-.52-5.64-1.66-11.55-5.24-16.11-4.72-6.01-11.81-6.52-18.93-6.64-18.26-.29-36.52.15-54.77,1.33-7.94.5-16.39.46-24.17,2.34-5.53,1.33-10.21,4.21-12.12,9.76-1.4,4.08,5.06,5.83,6.45,1.78,1.79-5.22,9.38-5.59,13.96-6,7.34-.65,14.68-1.16,22.04-1.55,15-.82,30.02-1.15,45.06-1,6.46.07,14.38-.92,18.15,5.5,2.79,4.76,2.94,10.67,3.19,16.03.64,13.71.81,27.62-1.29,41.23-.65,4.21,5.8,6.03,6.45,1.78"/><path id="Path_102" class="cls-3" d="M100.21,104.94l-20.48-1.19c-5.68-.33-12.85-1.98-18.36-.13-5.23,1.76-9.39,7.64-13.15,11.41l-14.33,14.32,5.59,3.26c.94-5.88,1.49-11.82,1.65-17.78.08-3.71,1.1-9.73-2.49-12.24-1.82-1.27-4.36-1.09-6.44-1.17l-9.15-.36c-2.9-.11-7.19.78-7.98-2.72-.51-2.24-.22-4.98-.3-7.28-.74-21.47-.79-43.02.22-64.48.2-4.3-6.49-4.29-6.69,0-1.01,21.46-.95,43-.22,64.48.13,3.93-.48,9.11,1.62,12.63,2.45,4.1,7.53,3.83,11.68,3.99l8.32.33c.48.02,4.7-.13,4.99.2-.78-.86-.24,1.97-.23,2.39.07,6.78-.41,13.55-1.43,20.24-.47,3.1,3.02,5.82,5.59,3.26l12.54-12.53,5.97-5.97c2.24-2.24,4.52-5.43,7.85-5.9,5.13-.73,11.29.56,16.46.85l18.77,1.09c4.3.25,4.29-6.44,0-6.69"/><path id="Path_103" class="cls-2" d="M32.04,45.05l63.38.61c4.31.04,4.31-6.65,0-6.69l-63.38-.61c-4.31-.04-4.31,6.65,0,6.69"/><path id="Path_104" class="cls-2" d="M29.62,66.23l66.76-.75c4.3-.05,4.31-6.74,0-6.69l-66.76.75c-4.3.05-4.31,6.74,0,6.69"/><path id="Path_105" class="cls-3" d="M102.48,96.38c-2.89,10.21-3.62,20.96-7.3,30.95-.84,2.27,1.81,5.03,4.11,4.12,5.33-2.08,10.54-4.47,15.59-7.16,2.87-1.54,5.68-3.19,8.43-4.95,1.83-1.16,4.4-2.36,5.59-4.26,2.52-4.03-2.64-6.67-5.25-8.77-4.72-3.81-9.23-7.88-13.55-12.14-3.07-3.02-7.8,1.7-4.73,4.73,3.01,2.96,6.09,5.84,9.29,8.6,1.6,1.38,3.22,2.73,4.87,4.04.39.31,3.47,2.27,3.51,2.4.29-1.08.57-2.17.86-3.26-2.79,3.37-8.58,5.76-12.4,7.82-4.53,2.43-9.2,4.6-13.99,6.49l4.11,4.12c3.68-9.99,4.41-20.74,7.3-30.95,1.17-4.15-5.28-5.92-6.45-1.78"/><path id="Path_106" class="cls-3" d="M108.42,100.13c10.5-10.55,19.07-22.95,28.06-34.77l14.19-18.67c4.52-5.94,8.77-12.31,13.91-17.73,4.42-4.66,12.14-9.72,18.62-5.77,5.38,3.28,5.63,11.07,3.55,16.36-2.47,6.26-7.78,11.04-12.52,15.6-5.37,5.16-10.63,10.42-15.78,15.78-11.86,12.43-23.06,25.47-33.57,39.07-2.6,3.36,2.1,8.13,4.73,4.73,10.84-14.03,22.43-27.48,34.72-40.27,5.93-6.16,12.17-11.99,18.2-18.04,4.87-4.88,9.66-10.53,11.39-17.36,3.18-12.53-4.99-25.78-18.91-23.58-7.3,1.15-13,5.99-17.59,11.5-5.5,6.6-10.5,13.66-15.7,20.5-12.25,16.11-23.74,33.57-38.05,47.94-3.04,3.05,1.69,7.79,4.73,4.73"/><path id="Path_107" class="cls-3" d="M184.43,44.46c-7.88-3.07-14.98-7.85-20.8-13.98-2.99-3.11-7.71,1.62-4.73,4.73,6.66,6.93,14.77,12.29,23.76,15.7,4.02,1.55,5.76-4.91,1.78-6.45"/><path id="Path_108" class="cls-2" d="M79.47,150.59c31.72-2.24,63.56-2.34,95.3-.28,4.3.28,4.28-6.41,0-6.69-31.74-2.05-63.58-1.96-95.3.28-4.27.3-4.3,6.99,0,6.69"/><path id="Path_109" class="cls-2" d="M29.62,84.95l38.21-.57c4.3-.07,4.31-6.76,0-6.69l-38.21.57c-4.3.06-4.31,6.76,0,6.69"/></g></g></svg>