<?xml version="1.0" encoding="UTF-8"?><svg id="Layer_1" xmlns="http://www.w3.org/2000/svg" viewBox="0 0 200 183.87"><defs><style>.cls-1{fill:#bbe048;}</style></defs><polygon class="cls-1" points="47.17 57.49 47.17 57.49 47.17 57.49 47.17 57.49"/><path class="cls-1" d="M195.8,56.53c.01-4.16-.19-8.32-.6-12.47-.91-8.34-3.02-16.62-8.3-23.32-5.59-7.09-14.16-10.57-22.86-11.96-9.95-1.59-20.22-1.6-30.27-1.6-10.92,0-21.82.49-32.71,1.46-9.52.85-19.24,1.81-28.33,4.93-8.31,2.86-16.27,7.44-20.69,15.31-3.9,6.94-5.12,15.14-5.1,23.01,0,1.87.09,3.74.23,5.61h0s0,0,0,0h0s0,0,0,0c.63,7.86,1.83,15.88,4.58,23.3,1.33,3.93,3.37,7.57,6.02,10.77.05.06.11.11.16.17-5.75.06-11.49.37-17.22.95-3.84.36-7.67.8-11.49,1.34-5.28.74-10.85,1.74-15.23,5.01-5.1,3.81-7.47,9.91-8.72,15.97-1.35,6.2-1.29,12.62.18,18.79,2.88,11.48,12.14,21.15,23.85,23.11-.75,4.55-3.16,8.71-6.81,11.63-1.45.93-1.88,2.86-.96,4.31.39.62.99,1.08,1.69,1.3,4.69,1.88,9.9.64,14.2-1.66,4.33-2.32,7.7-5.94,11.54-8.93,3.6-2.83,7.99-4.48,12.57-4.71,5.35-.35,10.73.23,16.08.38,9.61.28,19.94-.94,27.28-7.78,3.41-3.34,5.72-7.64,6.62-12.32,1.06-5.09,1.67-10.25,1.83-15.45.22-5.5-.47-11.32-3.51-16.04-2.26-3.31-5.22-6.06-8.65-8.08l7.06.44c5.46.34,10.59.84,14.93,4.48,4.08,3.42,7.56,7.33,12.27,9.96,10.49,5.85,22.93,6.46,34.66,6.86,3.5.12,4.11-5.09.82-6.03-6.37-2.01-10.33-8.21-9.68-14.7,7.39-1.63,14.96-3.63,21.28-7.88,3.54-2.31,6.51-5.39,8.69-9,2.3-4.22,3.7-8.88,4.11-13.68.43-4.47.58-8.97.47-13.46ZM104.18,110.19c2.38,3.39,3.06,7.44,3.07,11.51-.04,4.6-.45,9.18-1.25,13.71-.69,4.13-1.91,8.18-4.94,11.21-6.08,6.08-15.34,6.7-23.43,6.45-9.52-.28-19.92-1.96-28.6,3.04-4.25,2.45-7.58,6.1-11.49,9.01-2.01,1.5-4.31,2.84-6.73,3.42,3.03-4.13,4.78-9.14,4.91-14.38-.03-1.68-1.39-3.04-3.07-3.07-9.71-.38-17.8-7.97-20.68-16.95-1.61-5.17-1.97-10.64-1.05-15.97.83-4.95,2.3-10.89,6.51-14.08,3.74-2.84,8.8-3.5,13.32-4.14.13-.02.61-.08.7-.1.31-.04.62-.08.92-.12.8-.1,1.61-.2,2.41-.3,1.8-.21,3.6-.4,5.4-.57,8.92-.9,17.9-1.2,26.86-.91,9.53.37,19.91,1.46,28.45,5.51,0,0,0,0,0,0,3.29,1.61,6.54,3.67,8.68,6.72ZM189.64,61.82c-.11,7.95-.78,16.59-6.65,22.58-5.21,5.31-12.68,7.65-19.72,9.38-1.84.45-3.68.86-5.53,1.26-1.05.28-1.86,1.1-2.14,2.14-1.6,6.14.13,12.65,4,17.44-6.29-.5-12.55-1.54-18.26-4.11-4.62-2.07-8.11-5.15-11.76-8.56-4.08-3.81-8.42-6.55-14.01-7.42-5.93-.92-12.02-.99-18-1.36l-18.65-1.16c-4.81-.3-10.51.1-14.66-2.76-1.11-.87-2.1-1.9-2.94-3.04-1.05-1.5-1.95-3.09-2.7-4.76-3.42-7.42-4.67-16.07-5.3-23.97,0,0,0,0,0,0,0,0,0,0,0,0-.53-7.06-.28-14.31,2.04-21.07,1.02-3.09,2.64-5.95,4.78-8.41,2.72-2.82,5.96-5.08,9.55-6.64,7.69-3.66,16.36-5.03,24.75-5.95,10.14-1.11,20.33-1.75,30.53-1.99,9.96-.24,19.96-.16,29.91.49,7.93.52,16.3,1.71,22.91,6.47,6,4.31,8.98,11.36,10.43,18.37,1.56,7.55,1.52,15.38,1.42,23.05Z"/><path class="cls-1" d="M163.45,50.74c-21.56.16-43.11.74-64.65,1.75-6.1.29-12.19.6-18.28.96-3.93.23-3.95,6.37,0,6.14h0c21.52-1.25,43.06-2.07,64.62-2.47,6.1-.11,12.21-.19,18.31-.23,3.95-.03,3.96-6.17,0-6.14Z"/><path class="cls-1" d="M130.97,71.41c-16.05-.29-32.09.04-48.12,1.01-3.93.24-3.95,6.38,0,6.14,16.02-.97,32.06-1.3,48.12-1.01,3.95.07,3.95-6.07,0-6.14Z"/><path class="cls-1" d="M80.52,37.71c25.96.45,51.91.6,77.87.44,3.95-.02,3.96-6.16,0-6.14-25.96.16-51.92.02-77.87-.44-3.95-.07-3.95,6.07,0,6.14Z"/></svg>