<svg xmlns="http://www.w3.org/2000/svg" xmlns:xlink="http://www.w3.org/1999/xlink" width="212.752" height="175.914" viewBox="0 0 212.752 175.914"><defs><style>.a{fill:none;}.b{clip-path:url(#a);}.c{fill:#0094a8;}.d{fill:#bbe048;}</style><clipPath id="a"><rect class="a" width="212.752" height="175.914"/></clipPath></defs><g class="b"><path class="c" d="M8.842,17.134c.7-5.8,3.626-8.2,9.171-9.1,5.473-.883,11.3-.346,16.812-.314l36.808.216,74.612.437,35.813.21c5.729.034,13.015-1.218,16.684,4.178,3.469,5.1,3.944,12.517,4.31,18.46,1.495,24.255,1.571,48.7,1.732,72.992q.06,8.926.046,17.853c0,2.9.1,5.827-.04,8.72-.237,4.81-2.671,5.78-6.74,7.2-10.594,3.7-21.912,4.289-33.027,4.7q-37.062,1.379-74.168.773c-24.173-.374-48.768-.525-72.834-2.994C7.455,139.386,7.5,128.653,7.523,120.25q.02-8.986.041-17.972.1-25.773.393-51.545c.141-11.138-.2-22.5.885-33.6.468-4.8-7.035-4.768-7.5,0C.26,28.235.6,39.6.457,50.733Q.131,76.5.064,102.278c-.026,6.808-.09,13.62-.052,20.428.046,8.113,1.205,18.142,8.874,22.771,4.379,2.643,9.735,2.55,14.675,2.86q10.873.683,21.757,1.2,20.776.984,41.576,1.364c27.5.5,55.082.414,82.559-.887,11.71-.554,23.938-1.621,34.786-6.415,11.274-4.982,8.111-19.318,8.089-29.461-.061-27.588-.059-55.367-1.776-82.91-.608-9.759-2-23.866-12.22-28.5C193.388.49,187.326,1.118,182.058,1.087L160.172.959,67.654.417C52.567.328,37.363-.316,22.285.195,17.428.359,12.249,1.011,8.1,3.744c-4.742,3.125-6.112,8.028-6.759,13.39-.577,4.781,6.928,4.74,7.5,0"/><path class="d" d="M126.988,40.482A59.177,59.177,0,0,0,98.423,63.07c-3.821,5.806-2.326,8.493,2.57,12.988l18.278,16.784c3.55,3.26,8.868-2.03,5.3-5.3l-12.654-11.62-6.327-5.809a9.882,9.882,0,0,1-1.82-1.942,28.958,28.958,0,0,0,2-2.6,50.807,50.807,0,0,1,23.209-17.859c4.46-1.711,2.524-8.965-1.994-7.232"/><path class="d" d="M156.27,39.955a62.494,62.494,0,0,0-14.963,23.49c-2.762,7.813-2.193,18.616-8.881,24.367-3.666,3.152,1.659,8.437,5.3,5.3,6.373-5.48,7.215-13.686,8.994-21.4a54.4,54.4,0,0,1,14.85-26.461c3.425-3.41-1.877-8.714-5.3-5.3"/><path class="d" d="M168.828,46.749c6.072,6.844,12.587,13.276,18.659,20.12q-.483-1.824-.965-3.649c-.52,3.193-5.177,6.728-7.185,9.485A75.434,75.434,0,0,0,171.211,87.1c-1.906,4.382,4.553,8.205,6.476,3.786a74.4,74.4,0,0,1,8.126-14.394c2.442-3.33,7.03-6.545,7.856-10.748.83-4.229-3.786-7.436-6.394-10.213-4.4-4.681-8.88-9.278-13.144-14.083-3.209-3.618-8.5,1.7-5.3,5.3"/><path class="c" d="M4.224,128.578q100.725,3.1,201.456-2.107c4.8-.248,4.832-7.75,0-7.5q-100.638,5.205-201.456,2.107c-4.828-.149-4.823,7.352,0,7.5"/><path class="d" d="M30.3,39.138l53.924.287c4.827.026,4.833-7.474,0-7.5L30.3,31.638c-4.827-.026-4.833,7.474,0,7.5"/><path class="d" d="M30.3,61.09q26.07.6,52.136-.289c4.814-.165,4.836-7.666,0-7.5q-26.061.891-52.136.289c-4.828-.112-4.826,7.388,0,7.5"/><path class="d" d="M29.111,83.631H83.036c4.827,0,4.834-7.5,0-7.5H29.111c-4.826,0-4.834,7.5,0,7.5"/><path class="d" d="M29.7,102.591a346.9,346.9,0,0,0,42.067-.1c4.793-.3,4.828-7.805,0-7.5a346.9,346.9,0,0,1-42.067.1c-4.822-.281-4.8,7.22,0,7.5"/><path class="c" d="M80.692,147.758c-3.645,6.7-7.868,13.107-12.16,19.4-2.725,4,3.77,7.755,6.476,3.786,4.292-6.3,8.516-12.706,12.16-19.406,2.307-4.241-4.166-8.031-6.476-3.785"/><path class="c" d="M124.374,149.485A55.006,55.006,0,0,0,135.2,170.176c3.164,3.656,8.449-1.668,5.3-5.3a46.534,46.534,0,0,1-8.9-17.382c-1.3-4.641-8.538-2.669-7.232,1.994"/><path class="c" d="M46.308,174.54c20.179.984,40.332,1.8,60.535,1.128s40.393-2.091,60.608-.944c4.823.274,4.807-7.227,0-7.5-20.215-1.147-40.4.271-60.608.944s-40.356-.144-60.535-1.128c-4.825-.235-4.812,7.265,0,7.5"/></g></svg>