<svg xmlns="http://www.w3.org/2000/svg" xmlns:xlink="http://www.w3.org/1999/xlink" width="93.567" height="119.794" viewBox="0 0 93.567 119.794"><defs><style>.a{fill:none;}.b{clip-path:url(#a);}.c{fill:#fff;}.d{fill:#bbe048;}.e{fill:#c9f24e;}</style><clipPath id="a"><rect class="a" width="93.567" height="119.794"/></clipPath></defs><g class="b"><path class="c" d="M35,38.38c4.1-4.505,7.256-10.086,6.8-16.372A19.67,19.67,0,0,0,35.047,8.49C31.456,5.364,26.7,3.1,21.845,3.415c-5.516.358-9.82,3.98-12.013,8.94a21.382,21.382,0,0,0-1.787,9.8,18.2,18.2,0,0,0,3.948,9.871c1.733,2.377,5.74.076,3.986-2.33-1.947-2.671-3.334-5.218-3.346-8.593a16.069,16.069,0,0,1,2.314-8.6C17.681,8.151,22.523,7.077,27.16,8.92A16.094,16.094,0,0,1,36.5,18.6c1.894,6.279-.538,11.862-4.772,16.518-2,2.194,1.26,5.468,3.264,3.264" transform="translate(-4.313 -1.823)"/><path class="c" d="M61.539,70.074c1.239-3.553-.613-7.443-3.623-9.455a7.758,7.758,0,0,0-9.339.466A8.041,8.041,0,0,0,46.413,69.3a8.335,8.335,0,0,0,7.027,5.792,7.6,7.6,0,0,0,8.1-5.02,1.154,1.154,0,1,0-2.225-.613,5.173,5.173,0,0,1-4.921,3.374,5.953,5.953,0,0,1-5.458-3.395,5.763,5.763,0,0,1-.526-3.258c.015-.137,0-.03,0,0,.012-.082.026-.164.041-.245.023-.122.049-.243.078-.363a6.825,6.825,0,0,1,.276-.88c.009-.024.036-.092.1-.229s.128-.254.2-.378.144-.245.222-.364c.034-.052.25-.353.176-.258a4.622,4.622,0,0,1,2.6-1.726,5.764,5.764,0,0,1,3.661.318c2.778,1.246,4.567,4.491,3.551,7.406a1.154,1.154,0,1,0,2.225.613" transform="translate(-24.8 -31.916)"/><path class="c" d="M8.364,92.092c1.826,4.737,3.68,9.471,5.243,14.3,1.3,4.031,2.521,8.089,4.21,11.981,3.481,8.024,9.491,14.408,18.639,15.076,5.457.4,11.081-1.036,16.3-2.462,4.182-1.141,8.383-2.261,12.526-3.536,7.942-2.444,16.761-5.832,21.467-13.136,6.181-9.59.115-20.135-4.68-28.766A315.1,315.1,0,0,1,66.367,52.4c-1.937-4.7-3.834-9.488-7.026-13.5a32.963,32.963,0,0,0-10.714-8.669c-8.914-4.594-20.32-7.292-29.162-1.172-4.232,2.929-7.393,7-10.407,11.1C5.753,44.663,2.3,49.212.78,54.688c-1.7,6.12-.332,12.358,1.3,18.331A199.374,199.374,0,0,0,8.364,92.092c1.054,2.745,5.519,1.553,4.451-1.227-1.881-4.9-3.6-9.842-5.093-14.871-1.461-4.93-3.172-10.109-3.144-15.3.028-5.05,2.3-9.48,5.1-13.551a96.712,96.712,0,0,1,7.535-9.9c2.623-2.919,5.711-5.543,9.558-6.627,5.243-1.478,10.741.039,15.679,1.9a32.12,32.12,0,0,1,10.5,6.251A31.4,31.4,0,0,1,60.1,49.391c4.46,9.847,8.359,19.886,13.245,29.549,2.389,4.725,5.044,9.29,7.557,13.947C83,96.761,84.9,101.107,84.771,105.6c-.242,8.727-9.18,13.352-16.341,15.95a163.219,163.219,0,0,1-23.887,6.643c-5.113,1-10.605,1.27-15.108-1.756-3.322-2.232-5.5-5.726-7.145-9.294a105.928,105.928,0,0,1-4.232-11.975c-1.563-4.832-3.417-9.566-5.243-14.3-1.058-2.743-5.523-1.551-4.451,1.227" transform="translate(0 -13.725)"/><path class="d" d="M69.417,127.7a31.481,31.481,0,0,1,2.046-4.581c3.417-6.1,12.494-9.838,15.6-2.614a16.653,16.653,0,0,1,.665,7.3,52.812,52.812,0,0,1-5.284,18.042c-.4.876-.784,1.761-1.172,2.642-1.384,2.974-2.31,5.825-5.5,5.205-2.124-.446-4.158-1.624-6.252-2.4-6.793-2.69-13.117-6.992-17.182-13.207a12.142,12.142,0,0,1-2.343-6.76c.076-5.648,6.518-9.227,11.688-8.1,3.071.572,5.55,2.52,7.877,4.571" transform="translate(-26.915 -62.747)"/><path class="d" d="M68.977,126.133c1.228-3.185,2.649-6.19,5.556-8.155,1.875-1.267,4.641-2.413,6.8-1.151,3.431,2,2.667,7.65,2.176,10.918a51.2,51.2,0,0,1-3.133,11.438c-1.249,3.111-2.549,6.868-4.446,9.655-1.127,1.655-2.585.98-4.216.334-1.947-.771-3.917-1.6-5.819-2.477-6.325-2.917-14.227-8.305-16.057-15.5-.955-3.756,1.539-6.864,5.02-7.988,4.347-1.4,8.09,1.064,11.256,3.822,1.737,1.512,4.288-1.018,2.541-2.54-3.569-3.108-7.622-5.8-12.572-5.2a11.67,11.67,0,0,0-9.209,6.281c-4.264,9.219,7.282,18.848,14.264,22.736A68.385,68.385,0,0,0,68,151.445c2.172.914,4.552,2.32,7,2.044,4.107-.462,5.384-5.644,6.823-8.775A59.931,59.931,0,0,0,86.977,128.7c.689-4.509,1.219-10.278-2.327-13.81-2.8-2.792-6.945-2.566-10.29-.956-4.706,2.265-7.045,6.568-8.848,11.244-.832,2.159,2.64,3.093,3.464.955" transform="translate(-24.742 -60.703)"/><path class="e" d="M169.8,11.572l-5.92.4c-1.24.083-3.368.55-4.228-.64a23.2,23.2,0,0,1-2.441-4.946A34.021,34.021,0,0,1,155.541.76a.988.988,0,0,0-1.554-.577.968.968,0,0,0-.659,1.1,33.873,33.873,0,0,1,.437,5.584,25.767,25.767,0,0,1-.493,5.639c-.342,1.447-2.309,1.767-3.518,2.144l-5.666,1.769a1,1,0,0,0-.781,1.038.979.979,0,0,0,.914.923l6.146-.206c1.582-.053,3.619-.323,4.867.882,1.109,1.07,1.4,2.778,1.782,4.2l1.638,6.179c.31,1.17,2.086.87,1.97-.23a1.108,1.108,0,0,0,0-.245q-.332-3.108-.663-6.217c-.156-1.467-.491-3.159.109-4.572.654-1.539,2.48-2.06,3.924-2.565l5.941-2.074a1.011,1.011,0,0,0,.781-1.038.977.977,0,0,0-.914-.923" transform="translate(-77.154 0)"/></g></svg>