<svg xmlns="http://www.w3.org/2000/svg" xmlns:xlink="http://www.w3.org/1999/xlink" width="243.981" height="197.878" viewBox="0 0 243.981 197.878"><defs><style>.a{fill:none;}.b{clip-path:url(#a);}.c{fill:#0094a8;}.d{fill:#bbe048;}</style><clipPath id="a"><rect class="a" width="243.981" height="197.878"/></clipPath></defs><g class="b"><path class="c" d="M117.647,73.574c15.014-1.683,30.621-.989,45.716-.965q23.287.036,46.56.954,5.585.221,11.167.5c3.733.183,8.461-.282,11.96,1.149,6.12,2.5,6.5,14.069,6.952,19.586,1.218,14.881,2.111,29.859,2.759,44.775a216.282,216.282,0,0,1-.049,23.13c-.207,3.244-.077,7.205-3.009,9.269-2.353,1.656-5.627,1.888-8.4,2.134-15.5,1.371-31.134,1.865-46.69,1.984q-22.912.174-45.8-1.217-11.435-.694-22.842-1.78c-3.638-.346-7.325-.6-10.94-1.132-5.153-.765-5.179-4.171-5.273-8.658-.362-17.275.384-34.552,1.487-51.788.545-8.524.987-17.092,1.819-25.594.307-3.137.818-6.432,3.4-8.529,3.217-2.615,8.13-3.358,12.117-3.938,4.441-.647,2.553-7.394-1.861-6.751-6.417.934-14.168,2.835-17.831,8.752-3.45,5.572-3.032,13.157-3.49,19.431-1.325,18.154-2.519,36.332-2.705,54.539q-.067,6.476.049,12.951c.067,3.624-.225,7.878,1.623,11.162,3.3,5.857,11.26,5.513,17.049,6.1q26.9,2.747,53.956,3.318,27.489.58,54.964-1.094c6.681-.408,14.545-.029,20.812-2.76,5.882-2.565,7.817-7.57,8.371-13.634,1.668-18.222-.34-36.744-1.489-54.943-.508-8.055-.69-16.226-2.036-24.2-1.059-6.275-3.006-13.929-9.114-17.126-3.381-1.77-7.422-1.71-11.134-1.907q-7.907-.42-15.818-.734-15.357-.609-30.726-.828t-30.739-.062c-10.215.105-20.653-.238-30.812.9-4.427.5-4.478,7.5,0,7" transform="translate(-6.169 -4.367)"/><path class="c" d="M99.31,166.994a643,643,0,0,0,145.445,1.468c4.437-.459,4.484-7.465,0-7A643,643,0,0,1,99.31,159.994c-4.46-.554-4.42,6.452,0,7" transform="translate(-6.39 -10.649)"/><path class="c" d="M151.653,204.622a58.133,58.133,0,0,1,10.083-10.784c3.457-2.9-1.517-7.825-4.95-4.95a64.915,64.915,0,0,0-11.178,12.2c-2.62,3.675,3.449,7.175,6.045,3.533" transform="translate(-9.651 -12.517)"/><path class="c" d="M208.434,201.469a51.305,51.305,0,0,1-10.813-14.5c-2.026-4.025-8.068-.484-6.045,3.533a56.912,56.912,0,0,0,11.909,15.912c3.281,3.082,8.242-1.858,4.949-4.95" transform="translate(-12.726 -12.329)"/><path class="c" d="M133.031,210.148q40.664-1.224,81.305,1.22c4.5.271,4.484-6.731,0-7q-40.61-2.443-81.305-1.22c-4.494.135-4.514,7.137,0,7" transform="translate(-8.631 -13.497)"/><path class="d" d="M117.445,151.459c3.241-2.126,5.4-4.938,7.909-7.831a71.02,71.02,0,0,1,8.614-8.138c7.012-5.791,14.164-11.419,21.247-17.122q1.432-1.151,2.864-2.3,1.1-1.792,2.384.094a25.923,25.923,0,0,1,4.082,2.941q5.714,4.212,11.124,8.817a230.4,230.4,0,0,1,18.23,17.312,3.545,3.545,0,0,0,4.95,0,69.94,69.94,0,0,1,7.723-6.809c1.07-.8,2.171-1.55,3.288-2.279q1-.664,2.03-1.281a1.92,1.92,0,0,0,.993,1.462c5.255,3.527,9.912,9.1,14.335,13.59,3.167,3.214,8.117-1.737,4.951-4.951-3.418-3.467-6.907-6.861-10.5-10.146-2.409-2.2-5.572-6.27-8.966-6.928-3.1-.6-6.017,1.9-8.366,3.552a78.378,78.378,0,0,0-10.439,8.84h4.95a230.215,230.215,0,0,0-20.8-19.462q-5.2-4.279-10.643-8.258c-2.764-2.023-5.985-5.342-9.722-4.354-3.76,1-7.35,5.16-10.278,7.518l-12.168,9.8c-3.829,3.083-7.77,6.079-11.326,9.481-3.442,3.292-5.988,7.783-10,10.412-3.752,2.461-.249,8.526,3.533,6.045" transform="translate(-7.476 -7.191)"/><path class="d" d="M208.516,89.171c-7.428-.377-15.183,1.638-16.34,10.139-.921,6.78,3.5,13.972,10.567,14.857,7.62.953,12.3-4.6,13.355-11.562,1.169-7.734-2.79-14.279-11.145-13.644-4.464.339-4.5,7.342,0,7,1.6-.121,2.938-.341,3.9,1.084,1,1.486.512,3.908.184,5.542-.617,3.072-2.767,5.558-6.207,4.483-2.906-.906-4.3-4.56-3.648-7.354.977-4.192,6-3.714,9.337-3.544,4.5.229,4.491-6.773,0-7" transform="translate(-12.785 -5.919)"/><path class="d" d="M53.639,40.448,118.076,38.4c4.494-.142,4.514-7.144,0-7L53.639,33.447c-4.494.143-4.514,7.144,0,7" transform="translate(-3.346 -2.09)"/><path class="d" d="M29.934,64.215q40.919-1.232,81.861-.712c4.507.058,4.508-6.943,0-7q-40.935-.521-81.861.712c-4.494.135-4.514,7.137,0,7" transform="translate(-1.768 -3.751)"/><path class="d" d="M28.154,89.081l50.06.176c4.5.016,4.51-6.984,0-7l-50.06-.176c-4.506-.016-4.511,6.985,0,7" transform="translate(-1.649 -5.464)"/><path class="d" d="M27.82,111.083q.848,17.159-.012,34.317a3.533,3.533,0,0,0,3.5,3.5l40.748-.957a3.542,3.542,0,0,0,3.5-3.5q-.738-16.389-.136-32.782a3.552,3.552,0,0,0-3.5-3.5q-20.4-.543-40.8-.585c-4.506-.009-4.512,6.991,0,7q20.4.042,40.8.585l-3.5-3.5q-.6,16.394.136,32.782l3.5-3.5-40.748.957,3.5,3.5q.86-17.159.012-34.317c-.221-4.484-7.224-4.51-7,0" transform="translate(-1.846 -7.161)"/><path class="c" d="M35.12,6.807C47.164,8.817,58.3,12.067,70.634,11.963c13.642-.115,27.262-.955,40.88-1.688,6.658-.358,13.317-.693,19.982-.9,1.493-.047,3.063.061,4.546-.124q2.786.511,1.429-.338-1.137-1.113-.331,1.564c-.292,3.322.215,6.912.319,10.254q.652,20.974,1.306,41.947c.14,4.494,7.142,4.513,7,0q-.7-22.371-1.394-44.744c-.127-4.093,1.347-12.257-2.925-14.9-2.095-1.294-4.918-.8-7.223-.745-3.939.1-7.877.257-11.813.435-14.532.659-29.047,1.692-43.591,2.087-7.226.2-14.6.6-21.762-.577C50.307,3.128,43.729,1.183,36.982.056c-4.408-.736-6.3,6.009-1.861,6.751" transform="translate(-2.169 0)"/><path class="c" d="M88.734,161.916q-42.165-1.661-84.35.188l3.5,3.5c-3.631-41.063,5.433-82.144.286-123.152-.554-4.41-7.562-4.466-7,0C6.317,83.461-2.747,124.541.884,165.6a3.561,3.561,0,0,0,3.5,3.5q42.157-1.848,84.35-.188c4.506.177,4.5-6.823,0-7" transform="translate(0 -2.605)"/><path class="c" d="M30.467,5.063A193.9,193.9,0,0,1,31.71,32.236c-.088,3.253-1.006,3.847-4.4,4.117a68.78,68.78,0,0,1-6.909.084A106.083,106.083,0,0,1,5.687,35.07c-4.408-.714-6.3,6.031-1.861,6.751a118.1,118.1,0,0,0,18.324,1.641c4.488.022,11.634.484,14.834-3.455,3.063-3.769,1.843-11.185,1.774-15.674-.1-6.444-.558-12.867-1.289-19.27-.5-4.424-7.511-4.476-7,0" transform="translate(-0.086 -0.115)"/><path class="c" d="M31.523,1A83.311,83.311,0,0,0,15.039,18.686c-3.834,5.576-6.09,12.881-12.046,16.633-3.8,2.4-.294,8.456,3.533,6.045,6.037-3.8,8.954-9.849,12.443-15.813a72.966,72.966,0,0,1,17.5-19.6C39.983,3.125,35-1.8,31.523,1" transform="translate(-0.09 -0.011)"/></g></svg>