<svg xmlns="http://www.w3.org/2000/svg" xmlns:xlink="http://www.w3.org/1999/xlink" width="58.422" height="91" viewBox="0 0 58.422 91"><defs><style>.a{fill:none;}.b{clip-path:url(#a);}.c{fill:#0094a8;}.d{fill:#84c12d;}</style><clipPath id="a"><rect class="a" width="58.422" height="91"/></clipPath></defs><g class="b"><path class="c" d="M1.168,18A265.8,265.8,0,0,0,.041,49.348C.11,54.524.25,59.7.379,64.873s.067,10.436.675,15.589c.367,3.112,1.1,6.146,3.868,7.982C8,90.487,12.231,90.221,15.755,90.393c10.258.5,20.626.675,30.9.584,3.735-.033,7.411-.716,9.485-4.125,1.971-3.241,1.882-7.371,2.057-11.022.5-10.517.088-21.049-.371-31.56-.454-10.4-.961-20.813-.671-31.225.11-3.958.024-8.2-3.546-10.724C50.305-.013,45.828.222,41.989.136c-5.814-.13-11.632-.2-17.446-.048-3.03.08-6.06.221-9.083.449a31.347,31.347,0,0,0-6.768.858C1.36,3.64,1.68,11.751,1.168,18c-.153,1.869,2.762,1.859,2.914,0C4.468,13.284,3.8,5.972,9.467,4.2a25.621,25.621,0,0,1,5.615-.724q3.589-.279,7.187-.407c4.55-.169,9.1-.185,13.655-.131,4.236.05,8.881-.339,13.039.575,5.045,1.109,5.4,5.068,5.273,9.528-.258,9.268.115,18.538.52,27.8s.848,18.513.734,27.779a95.342,95.342,0,0,1-.61,12.954,9.53,9.53,0,0,1-1.517,4.2c-1.209,1.65-3.069,2.076-5.017,2.226-4.5.346-9.137-.061-13.647-.1-4.55-.044-9.1-.083-13.65-.217-3.967-.117-8.415.149-12.293-.77C5.232,86.08,4.3,83.41,3.928,80.1c-.565-5.035-.508-10.164-.635-15.224-.13-5.174-.27-10.349-.338-15.525A265.8,265.8,0,0,1,4.082,18c.2-1.863-2.719-1.849-2.914,0" transform="translate(0 0)"/><path class="c" d="M57.7,21.15l11.74-.389c1.247-.041,1.253-1.984,0-1.943l-11.74.389c-1.247.041-1.253,1.984,0,1.943" transform="translate(-34.706 -11.506)"/><path class="d" d="M34.33,127.1c1.68-1.279,2.762-3.17,4.317-4.609,1.869-1.73,3.806-3.392,5.71-5.084.215-.191,1.22-1.27,1.41-1.253-.324-.03.607.886.743,1q1.488,1.206,2.9,2.5a66.073,66.073,0,0,1,5.358,5.567,1.176,1.176,0,0,0,1.653,0c.825-.906,2.516-3.193,3.721-2.436,1.365.858,2.579,2.639,3.65,3.836,1.006,1.124,2.654-.534,1.653-1.653-.943-1.053-1.9-2.088-2.9-3.092-.645-.65-1.614-1.956-2.624-2.065-1.788-.193-4.108,2.61-5.153,3.757h1.653a65.8,65.8,0,0,0-6.135-6.268c-1.161-1.032-3.57-3.949-5.383-3.309A9,9,0,0,0,42.422,116l-3.384,3.008c-.988.879-2.009,1.737-2.938,2.68-1.02,1.036-1.8,2.515-2.95,3.39-1.182.9-.018,2.931,1.18,2.019" transform="translate(-19.969 -69.646)"/><path class="d" d="M95.336,104.318c-1.686-.085-3.686.041-4.633,1.683a3.916,3.916,0,0,0,.492,4.4,3.714,3.714,0,0,0,3.915,1.109,3.432,3.432,0,0,0,1.673-1.084,4.934,4.934,0,0,0,.886-2.609,3.465,3.465,0,0,0-.753-2.688,3.054,3.054,0,0,0-2.712-.874.971.971,0,1,0,0,1.943c.166-.013.333-.027.5-.03.081,0,.169.012.249,0,.147-.014-.171-.054.085.009.064.016.127.035.19.052-.188-.05-.046-.023.016.011s.108.067.162.1c-.179-.112-.006.005.034.045,0,0,.163.192.072.074s.051.084.054.089c.026.043.048.089.074.133.122.2-.041-.18.02.047.013.048.031.1.044.144,0,0,.056.259.037.146s.014.2.013.177c0,.1,0,.206,0,.308,0,.069-.009.137-.015.206-.024.32.039-.164-.021.153-.029.152-.057.3-.09.455s-.065.283-.108.422c0,.005-.112.3-.038.131a1.712,1.712,0,0,1-.109.206.574.574,0,0,1-.075.113l.07-.089c-.021.026-.043.052-.066.077-.045.045-.153.206-.22.213l.089-.067c-.037.028-.074.054-.113.079s-.078.05-.118.073-.1.054-.153.083c-.215.121.124-.029-.059.027-.1.031-.2.067-.306.092-.058.014-.117.024-.174.037-.186.041.031,0,.045,0a1.04,1.04,0,0,1-.358.017c-.047,0-.1,0-.143-.005s-.1-.007-.143-.012q.192.028.082.009c-.1-.037-.211-.044-.312-.075a.946.946,0,0,1-.2-.071c.026.016.195.1.032.007-.112-.064-.22-.127-.328-.2-.049-.032-.111-.115.016.013-.053-.053-.114-.1-.167-.152s-.1-.111-.154-.165c-.034-.035-.1-.144.012.021-.071-.1-.141-.2-.2-.315-.024-.043-.045-.089-.07-.132-.122-.211.057.189-.021-.042-.04-.118-.081-.235-.11-.356-.015-.061-.023-.122-.038-.183-.037-.146.016.24,0,0a3.579,3.579,0,0,1-.01-.371c0-.049.006-.1.01-.148.016-.238-.041.143,0,0s.073-.3.125-.454c-.06.173,0,0,.026-.046a1.858,1.858,0,0,1,.16-.26c-.028.037-.106.112.014,0,.061-.059.12-.117.185-.172-.143.12,0,.005.044-.021.085-.054.173-.1.262-.145.036-.019.168-.059.006,0,.083-.028.164-.059.248-.084a3.267,3.267,0,0,1,.524-.114c-.15.019.019,0,.042,0,.1-.005.2-.015.3-.019.4-.015.809.005,1.212.026a.978.978,0,0,0,.971-.971.993.993,0,0,0-.971-.971" transform="translate(-55.177 -63.737)"/><path class="d" d="M24.863,89.939c9.68.179,19.361.326,29.041.52,1.554.031,3.792-.179,4.993,1.033a5.449,5.449,0,0,1,1.068,2.553,34.577,34.577,0,0,1,.692,8,68.018,68.018,0,0,1-.371,7.4c-.3,2.788-1.058,5.227-4.154,5.86a42.821,42.821,0,0,1-6.717.462q-3.636.148-7.276.163c-4.836.021-9.724-.024-14.547-.42-2.645-.217-3.241-1.865-3.336-4.262-.1-2.5-.165-5.012-.25-7.518-.093-2.757-.185-5.514-.257-8.271-.06-2.283-.342-4.5,2.005-5.677,1.346-.672.164-2.69-1.18-2.018-4.3,2.15-3.178,7.483-3.054,11.455.086,2.757.183,5.514.276,8.271.074,2.212-.165,4.7.558,6.821,1.489,4.378,6.885,3.661,10.59,3.8,5.87.222,11.751.219,17.619-.056,3.71-.173,8.556.121,10.763-3.546,1.332-2.213,1.366-5.251,1.523-7.759a59.214,59.214,0,0,0-.12-10.179c-.249-2.248-.549-5.246-2.332-6.885-1.526-1.4-3.776-1.5-5.728-1.558-3.311-.09-6.623-.129-9.935-.187q-9.935-.176-19.87-.348a1.17,1.17,0,0,0,0,2.338" transform="translate(-13.023 -53.566)"/><path class="d" d="M24.143,50.367q15.28.251,30.563.06,4.317-.054,8.634-.144a.972.972,0,0,0,0-1.943q-15.279.316-30.563.191-4.318-.036-8.635-.107a.972.972,0,0,0,0,1.943" transform="translate(-14.189 -29.559)"/><path class="d" d="M22.811,68.918q11.822-.5,23.656-.634a.972.972,0,0,0,0-1.943q-11.832.136-23.656.634c-1.246.052-1.252,2,0,1.943" transform="translate(-13.375 -40.566)"/><path class="d" d="M23.7,188.11q11.047.354,22.1.11a.972.972,0,0,0,0-1.943q-11.051.244-22.1-.11c-1.25-.04-1.249,1.9,0,1.943" transform="translate(-13.918 -113.836)"/><path class="d" d="M101.4,180.111a10.449,10.449,0,0,1,1.109-1.247c1.7-1.591,4.951-1.865,5.21.738a5.543,5.543,0,0,1-.523,2.383,17.566,17.566,0,0,1-3.488,5.191c-.213.238-.425.48-.637.72-.738.8-1.318,1.615-2.267,1.1a15.59,15.59,0,0,1-1.742-1.389,11.966,11.966,0,0,1-4.122-5.915,4.038,4.038,0,0,1-.064-2.379c.591-1.783,2.994-2.271,4.521-1.4a5.673,5.673,0,0,1,2.039,2.241" transform="translate(-57.924 -108.532)"/></g></svg>