<svg xmlns="http://www.w3.org/2000/svg" xmlns:xlink="http://www.w3.org/1999/xlink" width="111.529" height="127.849" viewBox="0 0 111.529 127.849"><defs><style>.a{fill:none;}.b{clip-path:url(#a);}.c{fill:#0094a8;}.d{fill:#84c12d;}.e{fill:#bbe048;}</style><clipPath id="a"><rect class="a" width="111.529" height="127.849"/></clipPath></defs><g class="b"><path class="c" d="M42.44,45.415a120.625,120.625,0,0,1,21.029,2.051A41.525,41.525,0,0,1,73.321,50.2a10.679,10.679,0,0,1,5.547,4.736,5.454,5.454,0,0,1-.523,5.545c-1.528,2.335-4.293,3.9-6.778,5.014-5.716,2.558-12.21,2.941-18.378,3.131-7.441.23-14.947.247-22.382-.15a71.94,71.94,0,0,1-10.774-1.286A34.265,34.265,0,0,1,12.1,64.769a13.921,13.921,0,0,1-5.34-4.053,4.876,4.876,0,0,1-.525-5.2c.181-.348.39-.675.6-1,.061-.093.129-.184.2-.274-.2.273-.029.036.014-.016.146-.176.294-.349.449-.517a12.686,12.686,0,0,1,.94-.916c.157-.138.318-.272.48-.4.291-.235.111-.085.046-.037q.185-.138.374-.271a22.446,22.446,0,0,1,5.155-2.633c8.26-3.037,17.076-3.5,25.792-3.932.718-.035,1.441-.1,2.161-.1,2.453-.013,2.458-3.826,0-3.813-4.129.021-8.324.4-12.428.824a73.915,73.915,0,0,0-15,2.817C10.77,46.6,6.426,48.626,3.736,52.316a9.058,9.058,0,0,0-1.647,7.212c.574,2.73,2.575,4.886,4.735,6.512,5.165,3.89,12.145,5.083,18.4,5.8a189.948,189.948,0,0,0,23.875.691c7.146-.089,14.573-.233,21.41-2.556,5.579-1.9,12.688-5.959,12.7-12.694.014-6.756-6.733-10.33-12.338-12.023a72.156,72.156,0,0,0-11.2-2.209c-3.912-.529-7.834-1.006-11.775-1.263-1.816-.118-3.635-.185-5.455-.182-2.453,0-2.458,3.816,0,3.813" transform="translate(-0.452 -9.874)"/><path class="c" d="M1.995,64.622c-.326,2.6-.615,5.2-.735,7.821-.1,2.127-.321,4.536.4,6.582,1.356,3.868,5.073,5.925,8.553,7.607a45.943,45.943,0,0,0,12.364,4.25c3.209.526,6.459.892,9.692,1.247a127.275,127.275,0,0,0,20.935.819c6.929-.386,13.989-1.547,20.254-4.666a27.672,27.672,0,0,0,4.464-2.771c1.692-1.292,3.317-2.618,4.132-4.638.96-2.382.862-5,.8-7.515-.069-2.9-.172-5.792-.249-8.689-.066-2.449-3.879-2.459-3.813,0s.149,4.912.215,7.369a25.816,25.816,0,0,1-.169,6.369,4.539,4.539,0,0,1-.863,2.02,14.183,14.183,0,0,1-1.66,1.526,23.522,23.522,0,0,1-3.354,2.278c-5.306,3.017-11.584,4.263-17.669,4.762a114.389,114.389,0,0,1-20.067-.373c-6.746-.637-13.166-1.2-19.541-3.716a53.468,53.468,0,0,1-5.819-2.724,10.486,10.486,0,0,1-4.048-3.258c-1.141-1.791-.837-4.073-.757-6.1.109-2.743.41-5.473.751-8.195A1.917,1.917,0,0,0,3.9,62.715a1.954,1.954,0,0,0-1.907,1.907" transform="translate(-0.273 -14.885)"/><path class="c" d="M18.991,91.883c6.75,3.668,14.243,5.593,21.808,6.674,3.937.562,7.9.938,11.862,1.223a87.28,87.28,0,0,0,11.713.238,57.918,57.918,0,0,0,21.186-5.15c4.15-1.974,8.877-4.97,10.657-9.426A6.578,6.578,0,0,0,95.4,79c-2.061-2.752-5.528-4.108-8.706-5.082-2.351-.721-3.356,2.958-1.014,3.677a21.8,21.8,0,0,1,4.118,1.644,8.292,8.292,0,0,1,2.389,1.81c.246.261.075.076.022.007.065.085.128.175.186.265.112.175.209.355.312.536.158.28-.038-.251.061.157.05.207.112.41.156.62-.105-.5-.005.05,0,.189a5.294,5.294,0,0,1-.028.561c.038-.4.007-.056-.044.127-.058.214-.124.423-.192.635-.081.249.117-.2-.113.249-.1.19-.2.378-.308.561-.1.166-.2.329-.313.489-.064.094-.131.185-.2.278-.119.164.144-.168-.077.1a17.131,17.131,0,0,1-2.15,2.142,28.867,28.867,0,0,1-5.653,3.516,53,53,0,0,1-18.767,4.68c-7.217.527-14.6-.182-21.77-1.079-7.723-.968-15.5-2.749-22.385-6.489-2.157-1.172-4.083,2.119-1.925,3.292" transform="translate(-4.283 -17.522)"/><path class="c" d="M15.161,91.925c-.115,3.291-.258,6.769.79,9.939a11.961,11.961,0,0,0,6.9,7.293,81.253,81.253,0,0,0,23.579,6.35,84.328,84.328,0,0,0,24.185-.749,79.478,79.478,0,0,0,11.627-2.942c1.972-.662,3.911-1.411,5.827-2.223a21.484,21.484,0,0,0,5.027-2.647c2.781-2.183,3.562-5.422,3.633-8.809.039-1.864.022-3.737.024-5.6,0-2.489-.815-4.9-.731-7.392.084-2.454-3.729-2.451-3.813,0a49.1,49.1,0,0,0,.672,6.189c.151,1.647.025,3.34.038,4.995a30.479,30.479,0,0,1-.12,3.744,9.453,9.453,0,0,1-.418,1.707,7.615,7.615,0,0,1-.659,1.216,8.884,8.884,0,0,1-3.536,2.41q-2.458,1.125-5,2.049a78.739,78.739,0,0,1-10.752,3.083,79.609,79.609,0,0,1-44.278-3.293c-3.2-1.208-6.82-2.377-8.291-5.741-1.258-2.878-1-6.431-.894-9.575.086-2.454-3.728-2.451-3.813,0" transform="translate(-3.58 -19.771)"/><path class="c" d="M12.121,97.376c-2.868.307-5.96.716-8.422,2.346A8.027,8.027,0,0,0,.115,107.9c1.19,7.432,9.41,9.609,15.528,11.407a134.314,134.314,0,0,0,22.843,4.923,66.848,66.848,0,0,0,19.687-.735A58.525,58.525,0,0,0,78.1,116.34c2.09-1.28.176-4.579-1.925-3.293A52.785,52.785,0,0,1,60.594,119.1a62.03,62.03,0,0,1-16.685,1.741,99.44,99.44,0,0,1-20.766-3.408q-5.119-1.327-10.172-2.912c-2.684-.84-5.585-1.839-7.5-4.006-1.631-1.84-2.494-4.912-.591-6.868,1.8-1.846,4.812-2.2,7.246-2.458a1.962,1.962,0,0,0,1.907-1.907,1.92,1.92,0,0,0-1.907-1.907" transform="translate(0 -23.11)"/><path class="c" d="M.969,114.748a61.848,61.848,0,0,0-.606,6.724,21.316,21.316,0,0,0,.364,6.12c.524,1.9,1.933,3.035,3.427,4.195a32,32,0,0,0,4.6,2.992c6.323,3.364,13.416,4.789,20.454,5.709a105.681,105.681,0,0,0,21.958.95,59.035,59.035,0,0,0,27.107-8.767c1.788-1.107,3.449-2.232,4.151-4.312,1.074-3.18-1.113-6.383-.534-9.419a1.958,1.958,0,0,0-1.332-2.345,1.924,1.924,0,0,0-2.346,1.332,12.37,12.37,0,0,0,.117,4.679,22.01,22.01,0,0,1,.589,3.519,3.033,3.033,0,0,1-.143,1.173,2.927,2.927,0,0,1-1.248,1.335c-1.538.977-3.094,1.918-4.7,2.773a54.458,54.458,0,0,1-19.1,5.968,92.264,92.264,0,0,1-20.7-.246c-6.408-.69-12.877-1.679-18.906-4.05a29.358,29.358,0,0,1-8.974-5.408c-1.317-1.192-1-3.462-.985-5.1a51.784,51.784,0,0,1,.488-6.811,1.972,1.972,0,0,0-1.332-2.345,1.92,1.92,0,0,0-2.345,1.332" transform="translate(-0.074 -26.905)"/><path class="c" d="M.537,133.073c-.67,6.454-.535,13.915,5.73,17.647a29.624,29.624,0,0,0,5.852,2.29q3.076,1.026,6.2,1.912a113.826,113.826,0,0,0,12.546,2.826,79.425,79.425,0,0,0,25.793.327,56.252,56.252,0,0,0,11.926-3.321,35.234,35.234,0,0,0,7.762-3.975,14.325,14.325,0,0,0,5.232-6.725c1.2-3.329.941-6.994.406-10.422a1.921,1.921,0,0,0-2.346-1.332,1.955,1.955,0,0,0-1.332,2.346,17.8,17.8,0,0,1-.2,7.759c-.082.275-.175.544-.273.813-.017.047-.137.34-.019.063-.048.112-.1.226-.153.335a11.858,11.858,0,0,1-.812,1.414,5.479,5.479,0,0,1-.773.955,13.458,13.458,0,0,1-1.284,1.21,28.1,28.1,0,0,1-6.3,3.5A55.35,55.35,0,0,1,58.281,153.9c-15.651,3.307-32.048-.007-46.915-5.171a11.908,11.908,0,0,1-4.62-2.393A8.03,8.03,0,0,1,4.631,142.8c-.931-3.1-.615-6.5-.281-9.726a1.919,1.919,0,0,0-1.907-1.907,1.949,1.949,0,0,0-1.907,1.907" transform="translate(-0.063 -31.131)"/><path class="c" d="M19.234,76.447c.043.237.08.475.114.714l-.069-.507a15.868,15.868,0,0,1,.005,4.082c.023-.169.045-.338.068-.506q-.105.776-.283,1.538a1.907,1.907,0,1,0,3.677,1.014,18.049,18.049,0,0,0,.165-7.349,1.913,1.913,0,0,0-.876-1.139,1.945,1.945,0,0,0-1.47-.192,1.925,1.925,0,0,0-1.139.876,2.15,2.15,0,0,0-.192,1.469" transform="translate(-4.514 -17.571)"/><path class="c" d="M35.712,79.571a14.409,14.409,0,0,0-.16,7.115A1.923,1.923,0,0,0,37.9,88.017a1.949,1.949,0,0,0,1.332-2.345c-.083-.365-.15-.732-.2-1.1l.069.507a12.644,12.644,0,0,1,0-3.243c-.022.169-.045.338-.068.506a12.873,12.873,0,0,1,.366-1.755,1.907,1.907,0,1,0-3.677-1.014" transform="translate(-8.35 -18.557)"/><path class="c" d="M66.564,131.051l.3,5.646a1.907,1.907,0,0,0,3.813,0l-.3-5.646a1.907,1.907,0,0,0-3.813,0" transform="translate(-15.798 -30.651)"/><path class="c" d="M79.734,128.669l-.249,5.207a1.921,1.921,0,0,0,1.907,1.907,1.949,1.949,0,0,0,1.907-1.907l.249-5.207a1.92,1.92,0,0,0-1.907-1.907,1.948,1.948,0,0,0-1.907,1.907" transform="translate(-18.865 -30.086)"/><path class="d" d="M102.465,20.044c3.779,1.486,9.288-.849,11.813-4s3.292-7.386,3.035-11.4c-.335,3.923-.518,8.331,2.126,11.279,2.741,3.057,7.4,3.306,11.532,3.333-3.453,1.041-7.031.193-9.711,2.582a12.635,12.635,0,0,0-3.147,4.712,55.735,55.735,0,0,0-1.212,7.4c-.483-3.858-1.167-8.1-4.176-10.6-2.46-2.046-5.811-2.689-9.014-2.97Z" transform="translate(-24.319 -1.103)"/><path class="e" d="M100.376,22.484c4.85,1.489,10.3-.243,14.028-3.559,4.334-3.86,5.682-9.786,5.471-15.38-.18-4.773-6.978-4.682-7.35,0-.378,4.778-.3,10.156,3.2,13.877,3.646,3.869,9.123,4.345,14.13,4.41q-.489-3.609-.976-7.219c-5.043,1.242-9.3.8-12.843,5.241-3.05,3.829-3.3,8.325-3.925,13h7.35c-.606-4.64-1.374-9.411-4.871-12.837s-7.874-3.408-12.262-4.621c-4.566-1.261-6.514,5.827-1.954,7.087,2.614.722,5.493.541,7.9,1.947,2.923,1.707,3.433,5.338,3.836,8.424.616,4.721,6.717,4.714,7.35,0,.387-2.884.413-6.161,2.35-8.5,2.064-2.488,6.1-1.936,9.021-2.656,4.073-1,3.13-7.165-.977-7.219-2.823-.037-6.935.188-8.933-2.257-1.848-2.26-1.261-6.007-1.049-8.68h-7.35c.211,5.6-2.909,14.089-10.2,11.851-4.532-1.391-6.47,5.7-1.954,7.087" transform="translate(-23.207 0)"/></g></svg>