<svg xmlns="http://www.w3.org/2000/svg" xmlns:xlink="http://www.w3.org/1999/xlink" width="75.302" height="91.508" viewBox="0 0 75.302 91.508"><defs><style>.a{fill:none;}.b{clip-path:url(#a);}.c{fill:#0094a8;}.d{fill:#84c12d;}</style><clipPath id="a"><rect class="a" width="75.302" height="91.508"/></clipPath></defs><g class="b"><path class="c" d="M28.009,3.524c8.568-1.015,17.38-.154,25.985-.032,4.2.059,8.4-.052,12.6-.014a12.671,12.671,0,0,1,4.7.545,13.538,13.538,0,0,1,3.738,2.69,81.056,81.056,0,0,1,5.947,6.4,16.515,16.515,0,0,1,2.706,3.583c.985,2.044.949,4.212,1.038,6.425q.539,13.383.822,26.775.287,13.594.3,27.192c0,1.5.169,1.323-1.327,1.228q-1.43-.091-2.861-.174-3.679-.214-7.36-.377-6.544-.29-13.094-.422-13.508-.271-27.018.123-1.637.047-3.274.1c-.422.015-2.991.384-3.273.124-.355-.327-.2-2.188-.217-2.668q-.076-1.858-.145-3.715-.256-6.812-.426-13.626-.376-15.28-.221-30.567.087-7.356.326-14.709c.059-1.8.172-3.589.106-5.385-.044-1.183-.514-3.3.949-3.5,1.959-.262,1.985-3.383,0-3.117-1.266.17-2.414.275-3.217,1.386a6.655,6.655,0,0,0-.888,3.9c-.008,3.976-.118,7.943-.218,11.922-.26,10.324-.286,20.654-.133,30.98q.113,7.641.352,15.281.114,3.716.254,7.431c.085,2.267-.171,4.912.358,7.125a2.988,2.988,0,0,0,2.592,2.329c2.485.389,5.378-.136,7.895-.206q7.572-.209,15.146-.21,15.353,0,30.69.862c3.418.193,8,1.432,8.123-3.3.132-5.071-.034-10.17-.094-15.242q-.182-15.454-.711-30.9-.127-3.707-.273-7.412a33.453,33.453,0,0,0-.5-6.486c-.83-3.466-3.246-5.876-5.515-8.467-2.426-2.769-4.988-5.784-8.213-7.652C69.955-.395,65.136.422,61.057.462,55.678.515,50.265.395,44.889.227,39.257.052,33.621-.258,28.009.407c-1.968.233-1.991,3.353,0,3.117" transform="translate(-13.71 0)"/><path class="c" d="M147.557,18.757l-6.478-.053c-2.021-.016-4.55.373-6.515-.108l1.088,1.088c-.766-2.12-.561-5-.763-7.249l-.644-7.179c-.178-1.982-3.3-2-3.117,0q.376,4.188.751,8.376.179,1.994.357,3.988c.087.967-.025,2.409.567,3.265,1.072,1.553,4.271.9,5.846.916l8.907.073a1.559,1.559,0,0,0,0-3.117" transform="translate(-76.629 -2.199)"/><path class="d" d="M51.018,37.715a220.265,220.265,0,0,0,26.719.1c1.994-.114,2.007-3.231,0-3.117a220.266,220.266,0,0,1-26.719-.1c-2-.129-2,2.988,0,3.117" transform="translate(-28.939 -20.218)"/><path class="d" d="M51,59.9q20.931-.473,41.867-.508a1.559,1.559,0,0,0,0-3.117Q71.93,56.315,51,56.788c-2,.045-2.01,3.162,0,3.117" transform="translate(-28.925 -32.891)"/><path class="d" d="M51.3,81.543q21.172-.7,42.356-.1c2.006.057,2-3.06,0-3.117q-21.175-.6-42.356.1c-2,.066-2.01,3.183,0,3.117" transform="translate(-29.102 -45.615)"/><path class="d" d="M51.605,168.2q20.987.7,41.986.181c2-.049,2.01-3.167,0-3.117q-20.992.517-41.986-.181c-2.006-.067-2,3.05,0,3.117" transform="translate(-29.28 -96.478)"/><path class="d" d="M61.6,151.592q-.015-1.964-.009-3.927c0-.808-.307-2.61.1-3.255l-.931.716c1.01-.376,2.9-.021,3.974,0l-1.558-1.558c-.2,2.979,1.172,6.019.322,8.938-.562,1.93,2.445,2.754,3.006.829.958-3.289-.438-6.453-.211-9.767A1.577,1.577,0,0,0,64.728,142c-1.719-.027-5.035-.8-5.964,1.2a8.355,8.355,0,0,0-.287,3.39q-.021,2.5,0,5a1.559,1.559,0,0,0,3.117,0" transform="translate(-34.156 -82.891)"/><path class="d" d="M86.182,147.084c-.237-2.188-.447-4.379-.615-6.574-.151-1.974-.786-4.674-.354-6.613l-1.089,1.088a10.915,10.915,0,0,1,4.2.386l-1.089-1.088c.526,1.917.242,4.376.242,6.353,0,2.116-.068,4.229-.182,6.342-.108,2,3.01,2,3.117,0,.221-4.111.591-8.593,0-12.684a2.151,2.151,0,0,0-2.025-2.11,14.193,14.193,0,0,0-5.093-.2,1.532,1.532,0,0,0-1.088,1.088c-.456,2.047.03,4.534.181,6.618.179,2.47.409,4.935.676,7.4.214,1.973,3.333,1.995,3.117,0" transform="translate(-47.932 -77.039)"/><path class="d" d="M109.476,139.133q-.2-9.9-.4-19.791l-1.558,1.558,5.1.231-1.558-1.558q.193,9.967-.079,19.934c-.054,2.006,3.062,2.005,3.117,0q.272-9.965.079-19.934a1.591,1.591,0,0,0-1.558-1.558l-5.1-.231a1.574,1.574,0,0,0-1.558,1.558q.2,9.895.4,19.791c.04,2,3.157,2.01,3.117,0" transform="translate(-61.927 -68.834)"/><path class="d" d="M132.58,130.185q-.107-13.037-.213-26.075l-1.144,1.5a27.814,27.814,0,0,1,5.282-.2l-1.558-1.558q.476,12.916.065,25.838c-.064,2.006,3.053,2,3.117,0q.411-12.918-.065-25.838A1.594,1.594,0,0,0,136.5,102.3a32.1,32.1,0,0,0-6.11.313,1.561,1.561,0,0,0-1.145,1.5l.213,26.075a1.559,1.559,0,0,0,3.117,0" transform="translate(-75.536 -59.763)"/><path class="c" d="M11.73,25.062c-2.655,0-5.7-.394-8.318.091C1.318,25.541.379,26.974.167,29c-.572,5.479.492,11.109.682,16.59C1.248,57.1.555,68.634.94,80.152,1.131,85.846.28,91.526.588,97.223c.11,2.029.139,4.46.983,6.333.818,1.813,2.361,2.245,4.226,2.314,11.773.433,23.642.016,35.424.024,6.59,0,13.181.038,19.771.013,2.178-.008,4.326-.214,4.785-2.735.5-2.766-.148-6.158-.271-8.955-.087-2-3.2-2.009-3.117,0,.1,2.323.218,4.646.305,6.969.039,1.058.168,1.375-.879,1.6a21.214,21.214,0,0,1-4.119,0l-15.24-.01-29.657-.02c-2.21,0-4.83.389-7,0-1.486-.27-1.53-.719-1.747-2.075a34.969,34.969,0,0,1-.38-4.229C3.5,91.8,4.052,87.17,4.1,82.523c.1-9.62-.269-19.252-.136-28.882.074-5.366-.069-10.672-.5-16.022-.107-1.342-.229-2.68-.265-4.027-.033-1.231-.321-3.186.077-4.363.657-1.94,6.633-1.05,8.45-1.05a1.559,1.559,0,0,0,0-3.117" transform="translate(0 -14.559)"/></g></svg>