<svg xmlns="http://www.w3.org/2000/svg" xmlns:xlink="http://www.w3.org/1999/xlink" width="117.534" height="113.76" viewBox="0 0 117.534 113.76"><defs><style>.a{fill:#bbe048;}.b{clip-path:url(#a);}</style><clipPath id="a"><rect class="a" width="117.534" height="113.76"/></clipPath></defs><g class="b"><path class="a" d="M32.244,21.662c.37-3.107.833-6.285,2.5-8.995a15.269,15.269,0,0,1,5.983-5.36A27.108,27.108,0,0,1,55.716,4.643a20.68,20.68,0,0,1,13.934,7.395c1.593,1.922,3.031,4.255,5.5,5.143,2.754.989,5.4-.242,7.938-1.283,4.744-1.947,9.579-2.745,14.476-.78a13.6,13.6,0,0,1,8.316,9.1,12.778,12.778,0,0,1-.577,7.628c-.9,2.531-2.191,4.986-1.472,7.746a13.618,13.618,0,0,0,3.573,5.52,22.318,22.318,0,0,1,4.863,7.514c1.977,5.563-.159,10.739-5.7,12.931-4.587,1.814-9.425,1.378-14.222,1.113a10.845,10.845,0,0,0-6.64,1.344c-2.323,1.515-3.476,4.3-5.216,6.369-3.71,4.4-9.968,4.984-15.349,5.327-5.031.321-10.507.209-15.1-2.109a15.646,15.646,0,0,1-5.412-4.454c-1.525-1.983-2.7-4.285-4.985-5.531-2.359-1.29-5.1-.745-7.6-.282a46.922,46.922,0,0,1-8.98.928c-5.338-.04-13.011-1.071-12.392-8.161.277-3.173,2.153-5.446,3.491-8.189.923-1.894,1.053-3.9-.518-5.515-1.956-2-4.665-2.865-6.434-5.16a14.047,14.047,0,0,1-2.665-7.838c-.306-5.289,1.866-10.113,6.718-12.6,6.192-3.178,12.2-.562,17.432,3.155,2.346,1.668,4.579-2.2,2.253-3.855-5.264-3.743-10.895-6.172-17.436-4.788A17.076,17.076,0,0,0,1.8,24.25,19.938,19.938,0,0,0,1.664,40.5,16.419,16.419,0,0,0,6.34,46.659a27,27,0,0,0,3.6,2.444c.909.522.266.808-.359,1.842C6.646,55.8,4.5,61.963,8.06,67.132c3.694,5.358,10.934,5.721,16.829,5.58,3.446-.083,6.728-1.005,10.128-1.377,3.449-.377,4.431,2.392,6.28,4.754,3.536,4.518,8.775,6.962,14.37,7.773a50.768,50.768,0,0,0,17.309-.621,20.455,20.455,0,0,0,8.98-4.029c2.346-1.954,3.476-4.793,5.57-6.923,1.94-1.973,5.331-1.079,7.783-.93a36.752,36.752,0,0,0,8.368-.422c5.369-.909,10.775-3.77,12.913-9.043,2.335-5.761.03-12.234-3.506-16.971-1.48-1.982-4.919-4.4-5.014-7.047-.047-1.314.733-2.721,1.192-3.919a21.336,21.336,0,0,0,1.308-4.663c1.556-11.1-8.452-19.652-18.917-19.828A22.058,22.058,0,0,0,83.645,10.9c-1.5.558-2.951,1.272-4.471,1.785-2.1.708-3.095.175-4.5-1.46a38.543,38.543,0,0,0-6.055-6.262,24.443,24.443,0,0,0-7.85-3.874c-10.391-2.982-25.243.059-30.5,10.437-1.6,3.166-2.074,6.656-2.489,10.136-.339,2.847,4.129,2.823,4.465,0" transform="translate(0 0)"/><path class="a" d="M42.924,178.265c-5.3-1.781-12.562.771-14.553,6.3-1.924,5.341,2.252,10.145,7.172,11.59,4.969,1.46,11.144-.219,13.173-5.37a9.634,9.634,0,0,0-5.792-12.515c-2.7-.987-3.869,3.326-1.187,4.305a5.129,5.129,0,0,1,2.7,6.911c-1.367,2.761-5.064,3.145-7.708,2.365-2.539-.751-5.322-3.12-4.058-6.039,1.4-3.229,6.028-4.257,9.065-3.236,2.73.918,3.9-3.393,1.187-4.305" transform="translate(-15.439 -98.362)"/><path class="a" d="M15.745,229.307c1.479.045,4.328,1.042,3.537,3.073-.614,1.578-2.7,1.564-3.966.966-1.037-.491-2.676-1.7-2.455-2.917.144-.795,1.86-1.129,2.883-1.121,2.874.021,2.877-4.443,0-4.465-3.387-.025-7.224,1.756-7.348,5.586-.118,3.627,3.153,6.5,6.373,7.485,3.733,1.146,8.324-1.08,8.976-5.1.777-4.793-3.714-7.838-8-7.967-2.874-.087-2.871,4.378,0,4.465" transform="translate(-4.646 -124.454)"/><path class="a" d="M82.658,83.769c6.484,1.21,5.314,11.393-1.019,11.863-9,.592-7.5-13.006.847-11.893Z" transform="translate(-41.805 -46.315)"/><path class="a" d="M126.834,83.9c6.484,1.21,5.314,11.393-1.019,11.863-9,.592-7.5-13.006.847-11.893Z" transform="translate(-66.258 -46.386)"/><path class="a" d="M171.278,83.9c6.484,1.21,5.314,11.393-1.019,11.863-9,.592-7.5-13.006.847-11.893Z" transform="translate(-90.858 -46.386)"/></g></svg>