<?xml version="1.0" encoding="UTF-8"?><svg id="Layer_1" xmlns="http://www.w3.org/2000/svg" viewBox="0 0 40 40"><defs><style>.cls-1{fill:#b8e650;}</style></defs><path id="Path_120" class="cls-1" d="M27.23,18.7c.15.06.28.12.42.18,1.83.78,3.29,2.17,4.12,3.92,1.36,3.15.56,6.78-2.02,9.13-2.41,2.31-5.35,3.35-9.51,3.38h-.02c-4.68-.03-8.27-1.54-10.69-4.48-2.15-2.61-3.26-6.26-3.3-10.82v-.03c.03-4.56,1.14-8.2,3.29-10.82,2.42-2.94,6.02-4.44,10.7-4.48h.02c4.69.03,8.33,1.53,10.82,4.46,1.27,1.54,2.2,3.31,2.71,5.21l-2.69.69c-.4-1.52-1.13-2.94-2.15-4.17-1.95-2.28-4.87-3.46-8.7-3.48-3.8.03-6.67,1.2-8.55,3.47-1.75,2.12-2.65,5.2-2.69,9.13.03,3.93.94,7.01,2.69,9.14,1.87,2.27,4.75,3.44,8.55,3.47,3.43-.03,5.69-.8,7.58-2.61,1.75-1.56,2.31-3.99,1.43-6.12-.44-.94-1.19-1.72-2.13-2.23-.15,1.49-.72,2.92-1.65,4.13-1.18,1.41-2.96,2.23-4.85,2.25-1.5.1-2.99-.26-4.26-1.02-1.36-.83-2.21-2.24-2.29-3.78-.16-3.08,2.38-5.29,6.35-5.51,1.32-.08,2.64-.02,3.95.18-.1-.82-.44-1.6-.97-2.25-.67-.75-1.71-1.13-3.08-1.14h-.05c-1.41-.07-2.75.57-3.55,1.68l-2.3-1.51c1.3-1.87,3.51-2.95,5.85-2.88h.05c4.17.03,6.66,2.52,6.91,6.87h-.01s0,.02,0,.02ZM16.83,23.09c.09,1.6,1.89,2.35,3.64,2.25,1.71-.09,3.64-.73,3.97-4.67-.95-.19-1.92-.29-2.89-.28-.32,0-.64,0-.96.03-2.86.15-3.81,1.48-3.75,2.67h0s0,0,0,0Z"/></svg>