<?xml version="1.0" encoding="UTF-8"?><svg id="Layer_2" xmlns="http://www.w3.org/2000/svg" viewBox="0 0 97.1 149.69"><defs><style>.cls-1{fill:#0094a8;}.cls-2{fill:#84c12d;}</style></defs><g id="Layer_1-2"><path class="cls-2" d="M7.41,34.04c28.41-.17,56.82-.34,85.23-.51,4.82-.03,4.83-7.53,0-7.5-28.41.17-56.82.34-85.23.51-4.82.03-4.83,7.53,0,7.5h0Z"/><path class="cls-2" d="M3.75,124.15c28.35,1.83,56.74,2.55,85.14,2.14,4.82-.07,4.84-7.57,0-7.5-28.4.41-56.8-.31-85.14-2.14-4.82-.31-4.8,7.19,0,7.5h0Z"/><path class="cls-2" d="M38.86,136.78c5.12.35,10.24.44,15.37.25,4.81-.17,4.84-7.67,0-7.5-5.13.18-10.25.1-15.37-.25-4.82-.33-4.8,7.17,0,7.5h0Z"/><path class="cls-2" d="M40.69,20.79c5.57,1.09,11.02,1.12,16.6.11,4.74-.86,2.73-8.09-1.99-7.23-4.19.76-8.44.71-12.61-.11-4.71-.93-6.73,6.3-1.99,7.23h0Z"/><path class="cls-2" d="M2.8,67.74C2.08,85.17.45,102.58.02,120.02c-.31,12.75,2.47,26.02,16.89,28.83,6.96,1.36,14.31.71,21.35.55,8.93-.2,17.86-.4,26.79-.63,6.69-.17,14.63.35,20.49-3.49,4.6-3.02,6.63-8.36,7.37-13.6,1.16-8.27.88-16.89,1.22-25.22.36-8.9.71-17.8,1.06-26.7.7-17.88,2.09-35.93,1.9-53.82-.12-11.07-3.27-21.45-15.07-24.47C76.28,0,70.21.29,64.36.23,55.73.13,47.1-.02,38.48,0,25.12.05,8.31.61,4,16c-1.87,6.69-.98,13.82-.83,20.65.24,10.37.03,20.74-.37,31.1-.19,4.83,7.31,4.82,7.5,0,.55-14.25-.22-28.45.04-42.68.07-4.08.58-8.64,3.26-11.92,3.98-4.87,11.53-5.21,17.25-5.5,13.54-.68,27.31-.15,40.86.14,4.04.09,8.6.27,12.17,2.4,4.7,2.81,5.41,8.36,5.64,13.37.66,14.67-.82,29.66-1.38,44.33-.56,14.51-1.14,29.01-1.71,43.52-.26,6.59.13,13.57-1.03,20.08-1.31,7.33-6.02,9.16-12.88,9.57-14.78.88-29.77.97-44.58,1.05-5.99.03-13.48.22-17.44-5.12-3.91-5.26-3.08-12.97-2.92-19.14.43-16.71,2.03-33.4,2.72-50.11.2-4.83-7.3-4.82-7.5,0Z"/><path class="cls-1" d="M17.49,89.11c3.56-2.56,6.09-6.26,9.48-9.07,4.31-3.58,9.06-8.64,14.13-11.01h-3.79c7.23,3.21,14.04,10.77,19.43,16.41,1.41,1.47,3.88,1.4,5.3,0,1.83-1.8,4.2-4.4,6.7-5.27l-2.89-.38c3.31,1.79,6.35,5.55,8.97,8.19,3.4,3.43,8.71-1.87,5.3-5.3-2.85-2.87-7.59-9.32-11.88-9.81s-8.85,4.65-11.51,7.27h5.3c-3.99-4.17-8.19-8.11-12.71-11.71-2.78-2.22-7.21-7.06-11.13-6.26-4.25.87-8.89,6.39-12.14,9.02-2.32,1.87-4.74,3.67-6.91,5.71-1.9,1.78-3.34,4.22-5.45,5.74-3.89,2.79-.14,9.3,3.79,6.48h0Z"/><path class="cls-1" d="M63.11,52.54c-4.88-.25-9.78,1.46-10.65,6.86-.76,4.76,2.33,9.74,7.27,10.37s8.55-2.9,9.28-7.6c.82-5.27-1.99-10.19-7.83-9.75-2.02.15-3.75,1.61-3.75,3.75,0,1.91,1.72,3.9,3.75,3.75l.55-.04c.61.05.74.02.37-.08-.17.07-.51-.42-.5-.43.18-.14.02,1.74,0,1.8-.14.72-.27,1.4-.87,1.23-.63-.17-1.15-1.17-.91-1.81.4-1.06,2.36-.61,3.28-.57,4.82.25,4.81-7.26,0-7.5h0Z"/></g></svg>