<svg xmlns="http://www.w3.org/2000/svg" xmlns:xlink="http://www.w3.org/1999/xlink" width="76.675" height="72.196" viewBox="0 0 76.675 72.196"><defs><style>.a{fill:none;}.b{clip-path:url(#a);}.c{fill:#bbe048;}</style><clipPath id="a"><rect class="a" width="76.675" height="72.196"/></clipPath></defs><g class="b"><path class="c" d="M.014,48.352c.752,7.61,1.007,15.252,1.038,22.9.015,3.671-.019,7.342-.065,11.012-.036,2.88-.329,6.276,1.744,8.6C4.639,93,7.526,93.335,10.217,93.574c3.642.323,7.3.44,10.959.5,7.691.133,15.385.134,23.077.168,5.3.024,12.264.508,13.061-6.405.834-7.236.6-14.735.76-22.01.079-3.674.153-7.347.253-11.021.082-3.02.726-6.708-.9-9.463-1.4-2.38-4.116-2.972-6.674-3.117-3.965-.224-7.982-.09-11.952-.13q-13.16-.131-26.32-.251c-5.037-.043-12.529-.512-12.468,6.5.026,3.039,4.752,3.046,4.725,0-.015-1.728,1.477-1.743,2.935-1.8,3-.116,6.034.031,9.038.058q9.4.085,18.8.181l8.929.089c1.566.015,3.132.026,4.7.046,1.171.015,3.381-.238,4.211.8,1.143,1.436.3,5.439.252,7.079-.092,3.367-.162,6.735-.233,10.1-.13,6.12-.265,12.24-.542,18.355-.1,2.192.566,5.529-2.148,6.148-2.568.585-5.654.111-8.276.1q-9.262-.043-18.523-.126c-2.881-.029-5.762-.08-8.639-.214-2.391-.111-5.8.205-8.006-.837-2.6-1.227-1.512-6.479-1.488-8.823.034-3.368.051-6.736.021-10.1C5.7,62.377,5.43,55.351,4.738,48.352c-.3-3-5.024-3.028-4.725,0" transform="translate(0 -22.065)"/><path class="c" d="M24.217,40.019A108.178,108.178,0,0,1,36.67,61.628c1.029,2.384,5.047,2.254,6.119,0,2.825-5.938,4.823-12.246,7.982-18.026A72.891,72.891,0,0,1,60.855,29.635c7.9-8.7,17.253-15.913,26.582-22.993a3.665,3.665,0,0,0,1.271-4.848C87.848.282,85.381-.633,83.86.521c-9.806,7.444-19.707,14.957-28.016,24.1A81.482,81.482,0,0,0,45.021,39.36C41.665,45.333,39.6,51.883,36.67,58.051H42.79a108.177,108.177,0,0,0-12.453-21.61,3.658,3.658,0,0,0-4.848-1.271c-1.526.868-2.409,3.315-1.271,4.848" transform="translate(-12.503 0)"/></g></svg>