<?xml version="1.0" encoding="UTF-8"?>
<svg id="Layer_1" xmlns="http://www.w3.org/2000/svg" version="1.1" viewBox="0 0 200 165.5">
  <!-- Generator: Adobe Illustrator 29.4.0, SVG Export Plug-In . SVG Version: 2.1.0 Build 152)  -->
  <defs>
    <style>
      .st0 {
        fill: #bbe048;
      }

      .st1 {
        fill: #0094a8;
      }
    </style>
  </defs>
  <g id="Group_67">
    <path id="Path_89" class="st1" d="M20.5,25.3c.6-4.8,3-6.8,7.6-7.5,4.5-.7,9.3-.3,13.9-.3l30.4.2,61.5.4,29.5.2c4.7,0,10.7-1,13.8,3.4,2.9,4.2,3.3,10.3,3.6,15.2,1.2,20,1.3,40.2,1.4,60.2,0,4.9,0,9.8,0,14.7,0,2.4,0,4.8,0,7.2-.2,4-2.2,4.8-5.6,5.9-8.7,3.1-18.1,3.5-27.2,3.9-20.4.8-40.8,1-61.2.6-19.9-.3-40.2-.4-60.1-2.5-8.7-.9-8.7-9.7-8.7-16.7,0-4.9,0-9.9,0-14.8,0-14.2.2-28.3.3-42.5.1-9.2-.2-18.6.7-27.7.4-4-5.8-3.9-6.2,0-.9,9.2-.6,18.5-.7,27.7-.2,14.2-.3,28.3-.3,42.5,0,5.6,0,11.2,0,16.8,0,6.7,1,15,7.3,18.8,3.6,2.2,8,2.1,12.1,2.4,6,.4,12,.7,18,1,11.4.5,22.9.9,34.3,1.1,22.7.4,45.4.3,68.1-.7,9.7-.5,19.7-1.3,28.7-5.3,9.3-4.1,6.7-15.9,6.7-24.3,0-22.8,0-45.7-1.5-68.4-.5-8.1-1.6-19.7-10.1-23.5-4.1-1.8-9.1-1.3-13.4-1.4h-18.1c0-.1-76.3-.6-76.3-.6-12.4,0-25-.6-37.4-.2-4,.1-8.3.7-11.7,2.9-3.9,2.6-5,6.6-5.6,11-.5,3.9,5.7,3.9,6.2,0"/>
    <path id="Path_90" class="st0" d="M117.9,44.6c-9.6,3.6-17.9,10.1-23.6,18.6-3.2,4.8-1.9,7,2.1,10.7l15.1,13.8c2.9,2.7,7.3-1.7,4.4-4.4l-10.4-9.6-5.2-4.8c-.6-.5-1.1-1-1.5-1.6.6-.7,1.1-1.4,1.6-2.1,4.8-6.7,11.5-11.8,19.1-14.7,3.7-1.4,2.1-7.4-1.6-6"/>
    <path id="Path_91" class="st0" d="M142.1,44.2c-5.5,5.4-9.7,12.1-12.3,19.4-2.3,6.4-1.8,15.4-7.3,20.1-3,2.6,1.4,7,4.4,4.4,5.3-4.5,5.9-11.3,7.4-17.6,1.9-8.3,6.2-15.9,12.2-21.8,2.8-2.8-1.5-7.2-4.4-4.4"/>
    <path id="Path_92" class="st0" d="M152.4,49.8c5,5.6,10.4,10.9,15.4,16.6-.3-1-.5-2-.8-3-.4,2.6-4.3,5.5-5.9,7.8-2.7,3.7-4.9,7.7-6.7,11.9-1.6,3.6,3.8,6.8,5.3,3.1,1.8-4.2,4-8.2,6.7-11.9,2-2.8,5.8-5.4,6.5-8.9.7-3.5-3.1-6.1-5.3-8.4-3.6-3.9-7.3-7.7-10.8-11.6-2.7-3-7,1.4-4.4,4.4"/>
    <path id="Path_93" class="st1" d="M16.7,117.3c55.4,1.7,110.8,1.1,166.2-1.7,4-.2,4-6.4,0-6.2-55.3,2.9-110.7,3.4-166.2,1.7-4-.1-4,6.1,0,6.2"/>
    <path id="Path_94" class="st0" d="M38.2,43.5l44.5.2c4,0,4-6.2,0-6.2l-44.5-.2c-4,0-4,6.2,0,6.2"/>
    <path id="Path_95" class="st0" d="M38.2,61.6c14.3.3,28.7.3,43-.2,4-.1,4-6.3,0-6.2-14.3.5-28.7.6-43,.2-4,0-4,6.1,0,6.2"/>
    <path id="Path_96" class="st0" d="M37.2,80.2h44.5c4,0,4-6.2,0-6.2h-44.5c-4,0-4,6.2,0,6.2"/>
    <path id="Path_97" class="st0" d="M37.7,95.8c11.6.7,23.1.6,34.7,0,4-.2,4-6.4,0-6.2-11.6.7-23.1.8-34.7,0-4-.2-4,6,0,6.2"/>
    <path id="Path_98" class="st1" d="M79.7,133.1c-3,5.5-6.5,10.8-10,16-2.2,3.3,3.1,6.4,5.3,3.1,3.5-5.2,7-10.5,10-16,1.9-3.5-3.4-6.6-5.3-3.1"/>
    <path id="Path_99" class="st1" d="M115.8,134.5c1.7,6.3,4.8,12.1,8.9,17.1,2.6,3,7-1.4,4.4-4.4-3.4-4.2-5.9-9.1-7.3-14.3-1.1-3.8-7-2.2-6,1.6"/>
    <path id="Path_100" class="st1" d="M51.4,155.2c16.6.8,33.3,1.5,49.9.9s33.3-1.7,50-.8c4,.2,4-6,0-6.2-16.7-.9-33.3.2-50,.8-16.7.6-33.3-.1-49.9-.9-4-.2-4,6,0,6.2"/>
  </g>
</svg>