<?xml version="1.0" encoding="UTF-8"?><svg id="Layer_2" xmlns="http://www.w3.org/2000/svg" viewBox="0 0 117.99 113.08"><defs><style>.cls-1{fill:#bbe048;}.cls-2{fill:#0094a8;}</style></defs><g id="Layer_1-2"><path class="cls-2" d="M35.75,44.11c-15.66,9.86-43.59,33.38-27.79,54.13,17.82,23.4,47.31-6.18,61.91-18,5-4.05-2.11-11.09-7.07-7.07-8.04,6.51-15.9,13.79-24.75,19.2-6.55,4-16.55,7.23-22.17-.11-5.1-6.66-.39-15.76,3.83-21.55,5.48-7.52,13.3-13.07,21.08-17.97,5.43-3.42.42-12.08-5.05-8.63h0Z"/><path class="cls-1" d="M20.22,39.2c-5.17-.95-10.35-1.9-15.52-2.86-4.72-.87-6.74,6.36-1.99,7.23,5.17.95,10.35,1.9,15.52,2.86,4.72.87,6.74-6.36,1.99-7.23h0Z"/><path class="cls-1" d="M25.84,19.74c-3.55-3.41-7.11-6.82-10.66-10.23s-8.79,1.95-5.3,5.3,7.11,6.82,10.66,10.23,8.79-1.95,5.3-5.3h0Z"/><path class="cls-1" d="M46.51,17.9c.33-5.14-.17-10.23-1.4-15.23-1.15-4.69-8.38-2.7-7.23,1.99,1.07,4.38,1.41,8.74,1.13,13.23-.31,4.82,7.2,4.8,7.5,0h0Z"/><path class="cls-1" d="M95.28,73.26c5.52-.17,10.92.28,16.33,1.45,4.71,1.02,6.72-6.21,1.99-7.23-6.04-1.3-12.14-1.9-18.32-1.72-4.82.15-4.84,7.65,0,7.5h0Z"/><path class="cls-1" d="M83.73,89.06c2.36,7.18,8.95,10.48,15.47,13.19,1.88.78,4.1-.85,4.61-2.62.62-2.15-.76-3.84-2.62-4.61-3.82-1.59-8.83-3.68-10.24-7.95-1.5-4.56-8.74-2.61-7.23,1.99h0Z"/><path class="cls-1" d="M66.17,93.32c-1.49,5.71-1.37,11.55.48,17.17,1.5,4.56,8.75,2.61,7.23-1.99s-1.64-8.7-.48-13.18-6.01-6.67-7.23-1.99h0Z"/><path class="cls-2" d="M84.83,66.1c15.82-9.56,44.18-32.66,28.65-53.64-17.47-23.61-47.42,5.44-62.25,17.01-5.07,3.95,2.05,10.98,7.07,7.07,8.17-6.37,16.16-13.48,25.11-18.72,6.65-3.9,16.68-6.84,22.13.64,4.96,6.81-.05,15.96-4.46,21.65-5.65,7.31-13.48,12.64-21.3,17.36-5.5,3.32-.48,11.97,5.05,8.63h0Z"/></g></svg>