<?xml version="1.0" encoding="UTF-8"?>
<svg id="Layer_1" xmlns="http://www.w3.org/2000/svg" version="1.1" viewBox="0 0 94.9 66.9">
  <!-- Generator: Adobe Illustrator 29.4.0, SVG Export Plug-In . SVG Version: 2.1.0 Build 152)  -->
  <defs>
    <style>
      .st0, .st1 {
        fill: #0094a8;
      }

      .st2 {
        fill: #84c12d;
      }

      .st1 {
        stroke: #0094a8;
        stroke-miterlimit: 10;
        stroke-width: 1.3px;
      }
    </style>
  </defs>
  <path class="st1" d="M86.4,27.7c.5-5.1.5-10.2,0-15.3-.2-2.4-.8-4.6-1.8-6.7-1.5-2.4-3.9-3.8-6.6-3.8-16.4-.7-32.9,0-49.3.2-4.1,0-8.3,0-12.4,0-2.6-.1-5.3,0-7.9.3-2.2.3-4.1,1.5-5.3,3.5-.6,1.2-.9,2.5-1,3.8-.2,2.3-.3,4.7-.4,7-.5,8.9-.6,17.8-.4,26.7,0,4.2.2,8.4.7,12.6.3,3,2.1,5.5,4.7,6.6,2.8,1.3,6,1.5,9,1.7,4.2.2,8.4,0,12.6,0,9.3-.1,18.7-.4,28-.4.7,0,1.2-.7,1.2-1.4,0-.7-.5-1.3-1.2-1.3-7.5,0-15,.2-22.5.4-6.8.1-13.6.5-20.4-.1-2.4-.2-5.4-.5-7.4-2.2-2.5-2.2-2-7.2-2.1-10.3-.4-8.1-.4-16.1-.2-24.2.1-4,.3-7.9.6-11.9.2-2.9,0-6.2,3-7.4,2-.8,4.2-.7,6.3-.7,3.6,0,7.2,0,10.8,0,14.9-.1,29.8-.4,44.7-.3,2.1,0,4.1,0,6.2,0,2.1,0,4.6-.2,6.3,1.4,1.5,1.4,1.9,4,2.2,6,.6,5.2.6,10.5,0,15.8-.1,1.7,2.3,1.7,2.5,0"/>
  <path class="st0" d="M5.2,8l20.8,16.1c6.3,4.8,12.6,9.7,17.5,16.3.5.5,1.3.5,1.7,0,11.4-12.7,24.4-23.6,38.5-32.3,1.4-.9.1-3.2-1.2-2.4-14.3,8.8-27.5,19.8-39,32.7h1.7c-4.9-6.6-11.2-11.4-17.5-16.3L6.4,5.6c-1.3-1-2.5,1.4-1.2,2.4"/>
  <path class="st0" d="M32.7,29.3c-2.6,2-5,4.1-7.3,6.5-2.3,2.4-4.3,5.1-6.5,7.6-4.6,5.3-9.7,10.2-15,14.7-1.2,1,.6,2.8,1.7,1.7,5.4-4.5,10.4-9.4,15-14.7,2.1-2.5,4.1-5,6.3-7.4,2.3-2.4,4.8-4.7,7.5-6.7,1.2-1-.5-2.7-1.7-1.7"/>
  <path class="st0" d="M54.9,30.8c4.4,4.8,9.4,9.1,13,14.5.9,1.3,3,0,2.1-1.2-3.7-5.6-8.8-10.1-13.4-15-1.1-1.2-2.8.6-1.7,1.7"/>
  <path class="st2" d="M56.2,51.7c4.6,3.6,8.6,8,11.6,13,.7,1.2,2.3,1.5,3.4.8.5-.3.9-.8,1.1-1.4,1.1-2.6,2.6-5,4.5-7.1,1.8-2.2,3.6-4.5,5.4-6.6,3.8-4.5,7.8-8.9,11.9-13.1,2.2-2.3-1.3-5.8-3.5-3.5-4.4,4.5-8.6,9.2-12.7,14-3.8,4.6-8.3,9.3-10.4,15l4.5-.6c-3.5-5.7-8-10.8-13.3-14.8-1.2-.7-2.7-.3-3.4.9-.7,1.2-.3,2.7.9,3.4"/>
</svg>