<?xml version="1.0" encoding="UTF-8"?><svg id="Layer_2" xmlns="http://www.w3.org/2000/svg" viewBox="0 0 204.6 198.06"><defs><style>.cls-1{fill:#0094a8;}.cls-2{fill:#fff;}.cls-3{fill:none;stroke:#bbe048;stroke-linecap:square;stroke-miterlimit:10;stroke-width:12px;}</style></defs><g id="Layer_1-2"><path class="cls-2" d="M177.27,97.49c2.41,26.47,4.57,53.05,5,79.61-.1,4.76-1.08,10-4.73,12.86-2.19,1.78-5.25,2.68-8.88,2.98-39.76-.42-79.84-5.45-119.33-1.91-5.61.44-12.57,1.17-17.28-1.62-5.41-3.12-6.58-10.34-7.19-16.31-2.33-24.52-3.48-49.19-3.89-73.83"/><path class="cls-1" d="M172.27,97.49c1.96,21.64,3.77,43.31,4.6,65.03.26,6.77,3.54,22.18-5.21,24.86-4.52,1.38-10.08.46-14.74.32-5.88-.18-11.76-.43-17.64-.7-21.53-1.02-43.07-2.44-64.64-2.18-10.2.12-20.31,1.14-30.48,1.58-3.7.16-8.35.42-11.07-2.57-2.46-2.71-2.86-7.25-3.24-10.72-2.68-24.46-3.46-49.24-3.89-73.83-.11-6.43-10.11-6.45-10,0,.43,24.6,1.28,49.35,3.89,73.83.88,8.25,2.71,17.25,10.89,21.25,8.93,4.36,20.8,1.34,30.25.87,24.79-1.25,49.61.36,74.37,1.58,5.88.29,11.76.56,17.64.77,6.05.21,12.51.98,18.51.03,9.5-1.51,14.62-8.32,15.58-17.61.69-6.67-.06-13.69-.34-20.38s-.63-12.96-1.05-19.43c-.92-14.25-2.14-28.47-3.43-42.68-.58-6.36-10.58-6.42-10,0h0Z"/><path class="cls-2" d="M9.4,63.07c-6.6,5.78-4.72,18.33-.69,25.27,4.43,7.59,15.27,9.48,25.04,9.63,13.2.37,26.45-.08,39.65-.62,35.01-1.6,70.02-3.07,105.05-3.2,3.31-.1,6.4-.35,9.09-.93,5.64-1.13,9.34-3.94,10.82-8.17,1.88-5.22,1.32-12.35-.94-17.4-3.75-9.14-16.21-9.55-26.55-9.2-50.2,1.47-100.59.41-150.75.89-4.48.47-8.14,1.59-10.62,3.64l-.1.08Z"/><path class="cls-1" d="M5.86,59.54c-8.14,7.96-6.99,22.15-1.47,31.33,7.17,11.91,23.06,12.09,35.31,12.22,35.66.38,71.38-2.64,107.04-3.48,8.92-.21,17.84-.36,26.76-.42,6.86-.05,14.4.11,20.74-2.93,11.67-5.6,12.68-21.86,6.98-32.21s-19.77-10.86-30.35-10.58c-17.85.48-35.7.73-53.56.79-19.85.07-39.69-.02-59.54-.04-10.24,0-20.48,0-30.73.08-7.53.05-15.11.2-21.19,5.24-4.96,4.12,2.15,11.16,7.07,7.07,4.21-3.49,12.06-2.31,17.09-2.33,7.93-.05,15.86-.06,23.79-.06,14.55,0,29.1.06,43.65.07s29.11-.03,43.66-.21c13.09-.16,26.68-1.69,39.73-.47,3.82.36,8.69,1.14,11.14,4.47,2.91,3.96,3.76,12.43,1.03,16.62s-9.36,4.27-13.74,4.43c-7.53.26-15.09.14-22.63.27-29.75.54-59.45,2.08-89.19,3.19-7.93.3-15.86.53-23.8.52-6.94,0-14.26.31-21.04-1.4-5.8-1.47-9.65-4.39-11.43-10.15-1.5-4.82-2.18-11.11,1.74-14.95,4.61-4.51-2.46-11.58-7.07-7.07Z"/><path class="cls-3" d="M97.5,190.08c1.2-50.85.36-95.37,3.11-146.15.69-4.44,1.99-8.77,4.17-12.82,4.84-8.71,12.8-16.78,22.99-21.38,12.2-5.19,32.53-5.56,42.85,2.7,5.9,4.99,7.49,12.31,7.87,19.04.66,9.93-2.78,20.06-14.68,23.61-5.1,1.66-10.93,2.22-16.46,2.64-32.2,1.89-64.62,2.69-96.81.72-16.87-1.1-26.53-10.47-28.89-23.86-3.83-18.43,8.98-28.6,31.93-26.27,6,.57,11.91,2.15,16.83,5.04,15.37,9.73,23.02,28.57,29.23,43.24"/></g></svg>