<?xml version="1.0" encoding="UTF-8"?><svg id="Layer_2" xmlns="http://www.w3.org/2000/svg" viewBox="0 0 341.53 416.32"><defs><style>.cls-1{fill:#bbe048;}.cls-2{fill:#0094a8;}.cls-3{fill:#84c12d;}</style></defs><g id="Layer_1-2"><path class="cls-1" d="M170.2,220.91c24.5-49.55,107.27-46.61,78.38,18.83-12.02,26.55-25.87,53.16-48.4,73.28-13.07,12.98-22.13,26.23-41.8,16.31-10.95-5.17-21.05-13.85-29.55-21.76-13.82-12.78-26.36-26.91-34.4-43.62-6.75-15.35-15.26-32.55-12.35-49.73,5.05-25.04,40.01-34.62,61.8-22.69,12.33,6.09,20.72,18.11,26.81,29.98"/><path class="cls-1" d="M174.25,223.28c9.88-19.56,32.45-34.83,55.05-31.38,8.39,1.28,16.21,5.84,19.18,14.14,4.65,12.98-1.98,27.28-7.41,38.85-9,19.19-19.25,38.15-33.45,54.04-6.57,7.35-13.86,14.39-21.04,21.15-6.47,6.1-13.33,9.83-22.25,6.74-10.72-3.71-20.14-11.67-28.45-19.14-8.01-7.2-15.73-14.78-22.57-23.11s-12.52-17.76-16.97-27.81c-4.7-10.61-9.7-21.88-10.13-33.66-.7-19.33,15.81-30.97,33.87-31.91,22.19-1.15,36.95,14.24,46.55,32.69,2.79,5.36,10.89.62,8.1-4.74-9.91-19.06-25.11-35.16-47.52-37.2-16.71-1.52-35.43,5.06-44.89,19.47-13.2,20.11-.6,47.4,8.8,66.41,10.75,21.76,29.44,40.48,48.49,55.15,8.99,6.93,20.48,14.93,32.39,14.47,9.93-.38,17.56-6.98,24.22-13.69,8.39-8.45,17.12-16.52,24.48-25.92,7.45-9.52,13.87-19.74,19.58-30.38,11.79-21.98,35.02-65.46,1.74-81.37-28.16-13.46-62.97,6.94-75.86,32.46-2.72,5.38,5.38,10.13,8.1,4.74h0Z"/><path class="cls-3" d="M227.5,38.06c3.42-10.73,3.23-21.94.29-32.76-2.53-9.3-17-5.36-14.46,3.99,2.28,8.38,2.35,16.48-.29,24.78-2.94,9.22,11.54,13.17,14.46,3.99h0Z"/><path class="cls-3" d="M271.78,48.75c7.7-10.64,14.52-21.83,20.45-33.55,4.35-8.59-8.59-16.2-12.95-7.57-5.93,11.72-12.75,22.91-20.45,33.55-2.39,3.31-.54,8.32,2.69,10.26,3.76,2.25,7.9.57,10.26-2.69h0Z"/><path class="cls-3" d="M300.03,77.05c9.3-3.44,18.36-7.45,27.09-12.15s.94-17.53-7.57-12.95c-7.61,4.09-15.41,7.64-23.51,10.64-8.97,3.32-5.09,17.83,3.99,14.46h0Z"/><path class="cls-2" d="M316.53,249.24c-.13,7.45-.49,14.89-1.19,22.31-.17,1.76-.35,3.52-.55,5.27-.1.86-.2,1.73-.31,2.59.07-.56.31-2.06-.07.51-.49,3.3-1.02,6.6-1.65,9.88-1.22,6.37-2.75,12.68-4.65,18.89-.82,2.67-1.7,5.32-2.66,7.94-.5,1.36-1.04,2.71-1.56,4.07-.17.46-.92,2.23.03,0-.34.82-.7,1.63-1.07,2.43-2.25,5.01-4.81,9.88-7.69,14.55-1.31,2.12-2.68,4.2-4.12,6.23-.76,1.07-1.54,2.12-2.33,3.17,1.83-2.41-.97,1.15-1.39,1.65-3.3,3.93-6.88,7.62-10.71,11.05-.95.85-1.92,1.69-2.9,2.51-.36.3-3.33,2.67-2.1,1.72,1.16-.9-1.31.96-1.82,1.32-1.31.94-2.63,1.85-3.98,2.73-4.37,2.87-8.93,5.44-13.62,7.73-1.05.51-2.1,1.01-3.16,1.49-.61.28-1.22.54-1.83.82-1.68.76,1.92-.77.19-.08-2.7,1.09-5.41,2.13-8.16,3.08-11.05,3.8-22.45,6.25-33.99,7.99-.45.07-2.45.32-.12.02-.77.1-1.55.19-2.32.29-1.56.19-3.13.36-4.7.51-3.2.32-6.41.58-9.63.78-6.71.42-13.43.61-20.16.6-15.44-.01-29.65-.68-44.33-4.33-30.79-7.66-59.46-25.75-76.31-52.84-16.92-27.21-22.63-59.82-22.59-91.58.04-31.79,5.73-60.27,25.33-86.32,17.91-23.79,45.95-41.88,74.56-51.02,30.15-9.63,61.92-10.59,92.09-1.31,31.43,9.67,56.97,31.44,76.09,58.55,5.27,7.47,10.22,15.17,15.08,22.92,8.53,13.6,30.17,1.06,21.59-12.62-20.89-33.29-44.8-64.74-80.74-82.74-32.76-16.41-69.75-20.74-105.73-14.9-34.95,5.67-68.77,22.19-94.78,46.23C21.93,145.95,5.63,178.79,1.65,214.75c-3.88,34.97-1.25,72.33,11.51,105.36,13.6,35.2,38.99,63.62,73.31,79.79,31.37,14.77,65.3,17.8,99.55,15.93,26.82-1.46,53.54-6.37,77.9-18.03,21.46-10.27,39.65-26.52,52.3-46.66,14.73-23.46,21.3-50.97,24-78.26.78-7.86,1.17-15.75,1.32-23.64.29-16.09-24.71-16.1-25,0h0Z"/><path class="cls-2" d="M317.5,129.51c-3.28,17.54-3.16,35.39-3.94,53.14l10-10c-16.12.32-31.66-5.5-46.72-10.62-12.21-4.15-17.46,15.16-5.32,19.29,16.78,5.7,34.07,11.69,52.04,11.33,5.58-.11,9.76-4.5,10-10,.7-15.91.29-32.12,3.23-47.82.99-5.3-1.47-10.79-6.98-12.3-4.87-1.34-11.3,1.65-12.3,6.98h0Z"/></g></svg>