<?xml version="1.0" encoding="UTF-8"?><svg id="Layer_1" xmlns="http://www.w3.org/2000/svg" viewBox="0 0 40 40"><defs><style>.cls-1{fill:#bbe048;}</style></defs><path class="cls-1" d="M36.01,10.88c0-2.23-1.62-4.04-3.62-4.04H7.6c-1.99,0-3.62,1.81-3.62,4.04v18.23c0,2.23,1.62,4.04,3.62,4.04h24.79c1.99,0,3.62-1.81,3.62-4.04V10.88ZM33.94,29.12c0,.91-.69,1.65-1.55,1.65H7.6c-.85,0-1.55-.74-1.55-1.65v-13.4l10.03,9.08c1.1,1,2.49,1.55,3.91,1.55s2.81-.55,3.92-1.55l10.03-9.08v13.4ZM33.94,12.69l-11.3,10.24c-.74.67-1.68,1.04-2.64,1.04s-1.9-.37-2.64-1.04L6.06,12.69v-1.8c0-.91.69-1.65,1.55-1.65h24.79c.85,0,1.55.74,1.55,1.65v1.8Z"/></svg>