<?xml version="1.0" encoding="UTF-8"?><svg id="Layer_1" xmlns="http://www.w3.org/2000/svg" xmlns:xlink="http://www.w3.org/1999/xlink" viewBox="0 0 200 165.48"><defs><style>.cls-1{fill:none;}.cls-2{fill:#bbe048;}.cls-3{fill:#0094a8;}.cls-4{clip-path:url(#clippath);}</style><clipPath id="clippath"><rect class="cls-1" x="1.45" y="2.89" width="195.91" height="158.89"/></clipPath></defs><g class="cls-4"><g id="Group_65"><path id="Path_74" class="cls-3" d="M90.97,58.46c12.06-1.35,24.59-.79,36.71-.77,12.47.02,24.93.28,37.39.77,2.99.12,5.98.25,8.97.4,3,.15,6.79-.23,9.6.92,4.91,2.01,5.22,11.3,5.58,15.73.98,11.95,1.7,23.98,2.22,35.95.32,6.19.31,12.39-.04,18.57-.17,2.6-.06,5.79-2.42,7.44-1.89,1.33-4.52,1.52-6.75,1.71-12.45,1.1-25,1.5-37.49,1.59-12.26.09-24.52-.23-36.78-.98-6.12-.37-12.23-.85-18.34-1.43-2.92-.28-5.88-.48-8.78-.91-4.14-.61-4.16-3.35-4.23-6.95-.29-13.87.31-27.74,1.19-41.58.43-6.85.79-13.72,1.46-20.55.25-2.52.66-5.16,2.73-6.85,2.58-2.1,6.53-2.7,9.73-3.16,3.57-.52,2.05-5.94-1.49-5.42-5.15.75-11.38,2.28-14.32,7.03-2.77,4.47-2.43,10.56-2.8,15.6-1.06,14.58-2.02,29.17-2.17,43.79-.04,3.47-.02,6.93.04,10.4.05,2.91-.18,6.33,1.3,8.96,2.65,4.7,9.04,4.43,13.69,4.9,14.4,1.47,28.84,2.36,43.32,2.66,14.72.31,29.43.02,44.13-.88,5.36-.33,11.68-.02,16.71-2.22,4.72-2.06,6.28-6.08,6.72-10.95,1.34-14.63-.27-29.5-1.2-44.12-.41-6.47-.55-13.03-1.63-19.43-.85-5.04-2.41-11.18-7.32-13.75-2.71-1.42-5.96-1.37-8.94-1.53-4.23-.22-8.47-.42-12.7-.59-8.22-.33-16.44-.55-24.67-.66-8.23-.12-16.45-.13-24.68-.05-8.2.09-16.58-.19-24.74.72-3.55.4-3.6,6.02,0,5.62"/><path id="Path_75" class="cls-3" d="M76.07,128.43c38.76,4.81,77.94,5.2,116.79,1.18,3.56-.37,3.6-5.99,0-5.62-38.85,4.03-78.03,3.63-116.79-1.18-3.58-.44-3.55,5.18,0,5.62"/><path id="Path_76" class="cls-3" d="M115.48,157.14c2.32-3.22,5.04-6.13,8.1-8.66,2.77-2.32-1.22-6.28-3.97-3.97-3.4,2.87-6.41,6.16-8.98,9.8-2.1,2.95,2.77,5.76,4.85,2.84"/><path id="Path_77" class="cls-3" d="M158.6,154.76c-3.56-3.34-6.5-7.28-8.68-11.64-1.63-3.23-6.48-.39-4.85,2.84,2.41,4.79,5.65,9.11,9.56,12.78,2.63,2.47,6.62-1.49,3.97-3.97"/><path id="Path_78" class="cls-3" d="M101.34,160.79c21.77-.66,43.53-.33,65.29.98,3.61.22,3.6-5.4,0-5.62-21.74-1.31-43.5-1.63-65.29-.98-3.61.11-3.62,5.73,0,5.62"/><path id="Path_79" class="cls-2" d="M89.76,118.73c2.6-1.71,4.33-3.96,6.35-6.29,2.12-2.37,4.43-4.55,6.92-6.53,5.63-4.65,11.37-9.17,17.06-13.75.77-.62,1.53-1.23,2.3-1.85.59-.96,1.23-.93,1.91.08,1.17.68,2.26,1.47,3.28,2.36,3.06,2.25,6.04,4.61,8.93,7.08,5.13,4.36,10.02,9,14.64,13.9,1.11,1.08,2.87,1.08,3.97,0,1.93-1.97,4-3.8,6.2-5.47.86-.64,1.74-1.24,2.64-1.83.54-.36,1.08-.7,1.63-1.03.06.5.36.94.8,1.17,4.22,2.83,7.96,7.31,11.51,10.91,2.54,2.58,6.52-1.39,3.98-3.98-2.74-2.78-5.55-5.51-8.43-8.15-1.93-1.77-4.47-5.03-7.2-5.56-2.49-.48-4.83,1.53-6.72,2.85-3,2.12-5.8,4.49-8.38,7.1h3.97c-5.24-5.55-10.82-10.77-16.7-15.63-2.78-2.29-5.63-4.5-8.55-6.63-2.22-1.62-4.81-4.29-7.81-3.5-3.02.8-5.9,4.14-8.25,6.04l-9.77,7.87c-3.07,2.48-6.24,4.88-9.09,7.61-2.76,2.64-4.81,6.25-8.03,8.36-3.01,1.98-.2,6.85,2.84,4.85"/><path id="Path_80" class="cls-2" d="M158.62,69.74c-5.96-.3-12.19,1.32-13.12,8.14-.74,5.44,2.81,11.22,8.49,11.93,6.12.77,9.88-3.7,10.72-9.28.94-6.21-2.24-11.46-8.95-10.96-3.58.27-3.61,5.89,0,5.62,1.29-.1,2.36-.27,3.13.87.8,1.19.41,3.14.15,4.45-.5,2.47-2.22,4.46-4.98,3.6-2.33-.73-3.45-3.66-2.93-5.9.78-3.37,4.82-2.98,7.5-2.85,3.62.18,3.61-5.44,0-5.62"/><path id="Path_81" class="cls-2" d="M41.84,33.69l51.74-1.64c3.61-.11,3.62-5.74,0-5.62l-51.74,1.64c-3.61.11-3.62,5.74,0,5.62"/><path id="Path_82" class="cls-2" d="M24.07,51.44c21.9-.66,43.81-.85,65.73-.57,3.62.05,3.62-5.57,0-5.62-21.91-.28-43.82-.09-65.73.57-3.61.11-3.62,5.73,0,5.62"/><path id="Path_83" class="cls-2" d="M22.73,70.03l40.2.14c3.62.01,3.62-5.61,0-5.62l-40.2-.14c-3.62-.01-3.62,5.61,0,5.62"/><path id="Path_84" class="cls-2" d="M22.31,86.33c.45,9.19.45,18.37,0,27.56.01,1.55,1.26,2.8,2.81,2.81l32.72-.77c1.54-.02,2.79-1.27,2.81-2.81-.39-8.77-.43-17.55-.11-26.32-.02-1.54-1.27-2.79-2.81-2.81-10.92-.29-21.84-.45-32.76-.47-3.62,0-3.62,5.61,0,5.62,10.92.02,21.84.18,32.76.47l-2.81-2.81c-.32,8.78-.29,17.55.11,26.32l2.81-2.81-32.72.77,2.81,2.81c.46-9.19.47-18.37,0-27.56-.17-3.6-5.8-3.62-5.62,0"/><path id="Path_85" class="cls-3" d="M27.91,8.35c9.67,1.61,18.62,4.22,28.52,4.14,10.95-.09,21.89-.77,32.83-1.35,5.35-.29,10.69-.56,16.04-.73,1.2-.04,2.46.05,3.65-.1,1.49.27,1.87.18,1.15-.27-.61-.6-.7-.18-.27,1.26-.23,2.67.17,5.55.26,8.24.35,11.23.7,22.45,1.05,33.68.11,3.61,5.73,3.62,5.62,0-.37-11.98-.75-23.95-1.12-35.93-.1-3.29,1.08-9.84-2.35-11.96-1.68-1.04-3.95-.65-5.8-.6-3.16.09-6.33.21-9.49.35-11.67.53-23.32,1.36-35,1.68-5.8.16-11.72.48-17.47-.46-5.43-.88-10.71-2.44-16.13-3.35-3.54-.59-5.06,4.82-1.49,5.42"/><path id="Path_86" class="cls-3" d="M72.71,130.81c-22.57-.89-45.15-.84-67.73.15l2.81,2.81c-2.92-32.97,4.36-65.96.23-98.89-.44-3.54-6.07-3.59-5.62,0,4.14,32.93-3.14,65.91-.23,98.89.03,1.54,1.27,2.78,2.81,2.81,22.57-.99,45.14-1.04,67.73-.15,3.62.14,3.61-5.48,0-5.62"/><path id="Path_87" class="cls-3" d="M25.85,6.86c.84,7.24,1.18,14.53,1,21.82-.07,2.61-.81,3.09-3.53,3.31-1.85.12-3.7.14-5.55.07-3.96-.09-7.91-.46-11.82-1.1-3.54-.57-5.06,4.84-1.49,5.42,4.86.82,9.78,1.26,14.71,1.32,3.6.02,9.34.39,11.91-2.77,2.46-3.03,1.48-8.98,1.43-12.58-.09-5.17-.45-10.33-1.04-15.47-.41-3.55-6.03-3.59-5.62,0"/><path id="Path_88" class="cls-3" d="M26.69,3.68c-5.08,4.06-9.54,8.85-13.24,14.2-3.08,4.48-4.89,10.34-9.67,13.36-3.05,1.92-.24,6.79,2.84,4.85,4.85-3.05,7.19-7.91,9.99-12.7,3.69-6.05,8.46-11.39,14.06-15.74,2.82-2.27-1.18-6.22-3.97-3.97"/></g></g></svg>