<?xml version="1.0" encoding="UTF-8"?><svg id="Layer_1" xmlns="http://www.w3.org/2000/svg" xmlns:xlink="http://www.w3.org/1999/xlink" viewBox="0 0 64 64"><defs><style>.cls-1{fill:none;}.cls-2{fill:#0094a8;}.cls-3{fill:#fff;}.cls-4{fill:#84c12d;}.cls-5{clip-path:url(#clippath);}.cls-6{fill:#44493a;}</style><clipPath id="clippath"><rect class="cls-1" x="2.61" y="3.9" width="58.79" height="56.21"/></clipPath></defs><g class="cls-5"><g id="Group_20"><path id="Path_25" class="cls-2" d="M58.61,48.01c-8.85,16.02-44.21,16.16-53.01.18C-3.2,32.28,7.86,3.89,32.66,3.89c21.34,0,34.86,28.17,25.95,44.12"/><path id="Path_26" class="cls-3" d="M52.99,19.04c-8.32-13.48-13.85.26-21.05.99-7.2-.73-12.73-14.47-21.05-.99-5.02,9.11-5.97,21.95.32,30.65,3.83,5.26,10.15,6.83,16.27,7.68,1.48.23,2.97.34,4.47.32,1.49.02,2.99-.09,4.46-.32,6.12-.85,12.44-2.42,16.27-7.68,6.29-8.7,5.33-21.54.32-30.65"/><path id="Path_27" class="cls-4" d="M30.44,48.35c.52.82,1.6,1.07,2.42.55.22-.14.41-.33.55-.55l5.73-7.69c.81-1.17.72-2.74-.22-3.81-3.95-3.65-10.04-3.65-13.99,0-.94,1.06-1.04,2.64-.22,3.81l5.73,7.69Z"/><path id="Path_28" class="cls-6" d="M24.63,28.85c-.54,2.07-2.34,3.37-4.03,2.91s-2.62-2.52-2.08-4.59,2.34-3.37,4.03-2.91,2.62,2.52,2.08,4.59"/><path id="Path_29" class="cls-6" d="M39.23,28.85c.54,2.07,2.34,3.37,4.03,2.91s2.62-2.52,2.08-4.59-2.34-3.37-4.03-2.91-2.62,2.52-2.08,4.59"/></g></g></svg>