<svg xmlns="http://www.w3.org/2000/svg" xmlns:xlink="http://www.w3.org/1999/xlink" width="101.413" height="97.023" viewBox="0 0 101.413 97.023"><defs><style>.a,.e{fill:none;}.b{clip-path:url(#a);}.c{fill:#0094a8;}.d{fill:#bbe048;}.e{stroke:#bbe048;stroke-miterlimit:10;stroke-width:3px;}</style><clipPath id="a"><rect class="a" width="101.413" height="97.023"/></clipPath></defs><g class="b"><path class="c" d="M95.336,73.875c-.269,4.477.04,8.97-.3,13.443-.329,4.3-1.845,7.151-6.427,7.716-5.473.676-11.247.421-16.758.55q-8.392.2-16.787.273c-11.195.119-22.39.136-33.585.221-3.893.03-9.873,1.007-13.277-1.4C5.487,92.767,5.486,88.7,5.507,85.726c.076-10.751.414-21.51.548-32.262.07-5.6.161-11.2.335-16.793q.126-4.056.315-8.108c.128-2.683-.093-5.773.817-8.328,1.539-4.321,6.261-4.289,10.159-4.141,5.379.2,10.748.661,16.13.851,11.044.392,22.1.4,33.145.444,6.332.024,12.667.026,19,.174,2.383.056,4.978.089,6.368,2.277a18.667,18.667,0,0,1,2.21,5.508c2.126,8.41,1.21,17.341,1.293,25.922.034,3.546,5.549,3.555,5.514,0-.086-8.881.687-17.952-1.322-26.691-.82-3.568-2.286-7.946-5.263-10.314-4.191-3.332-11.434-2.275-16.393-2.323-12.858-.126-25.718-.022-38.573-.335Q30,11.37,20.246,10.73c-4.4-.287-9.307-.587-13.266,1.739-4.461,2.62-5.323,7.575-5.594,12.315-.37,6.484-.573,12.975-.7,19.468-.26,13-.243,26.006-.628,39C-.061,87.215-.165,91.424,1.6,95.082c1.817,3.763,5.3,5.609,9.316,6.188,5.939.858,12.157.307,18.14.273,6.5-.037,13-.063,19.5-.113,7.222-.056,14.445-.138,21.665-.3q5.41-.117,10.818-.3c3.206-.108,6.582.053,9.737-.59,12.408-2.531,9.507-17,10.07-26.375.213-3.545-5.3-3.531-5.514,0" transform="translate(0 -4.726)"/><path class="c" d="M87.324,50.436q-40.816-.148-81.632-.314c-2.661-.009-2.665,4.126,0,4.136q40.817.148,81.632.314c2.662.01,2.665-4.126,0-4.136" transform="translate(-1.657 -22.482)"/><path class="c" d="M52.024,2.284a68.217,68.217,0,0,0,.722,15.565c.415,2.622,4.4,1.509,3.988-1.1A63.589,63.589,0,0,1,56.16,2.284c.187-2.656-3.949-2.644-4.136,0" transform="translate(-23.263 -0.133)"/><path class="c" d="M129.284,1.993q.363,7.694,1.327,15.331c.329,2.606,4.469,2.638,4.136,0q-.964-7.641-1.327-15.331c-.125-2.65-4.262-2.665-4.136,0" transform="translate(-57.989 0)"/><path class="c" d="M33.605,76.219l10.541.81a1.706,1.706,0,0,1,.9.242,1.673,1.673,0,0,1,.512,1.118,40.54,40.54,0,0,1,.548,8.58,2.434,2.434,0,0,1-.4,1.481,2.548,2.548,0,0,1-2.148.569l-11.169-.529A83.225,83.225,0,0,1,32.1,77.711a1.739,1.739,0,0,1,.266-1.036.612.612,0,0,1,.935-.069" transform="translate(-14.371 -34.188)"/><path class="c" d="M76.625,77.914l10.541.81a1.706,1.706,0,0,1,.9.242,1.673,1.673,0,0,1,.512,1.118,40.54,40.54,0,0,1,.548,8.58,2.435,2.435,0,0,1-.4,1.481,2.548,2.548,0,0,1-2.148.569l-11.169-.529a83.232,83.232,0,0,1-.286-10.779,1.739,1.739,0,0,1,.266-1.036.612.612,0,0,1,.935-.069" transform="translate(-33.668 -34.949)"/><path class="c" d="M33.605,115.84l10.541.81a1.706,1.706,0,0,1,.9.242,1.673,1.673,0,0,1,.512,1.118,40.54,40.54,0,0,1,.548,8.58,2.434,2.434,0,0,1-.4,1.481,2.548,2.548,0,0,1-2.148.569l-11.169-.529a83.225,83.225,0,0,1-.286-10.779,1.739,1.739,0,0,1,.266-1.036.612.612,0,0,1,.935-.069" transform="translate(-14.371 -51.96)"/><path class="c" d="M76.625,115.84l10.541.81a1.706,1.706,0,0,1,.9.242,1.673,1.673,0,0,1,.512,1.118,40.54,40.54,0,0,1,.548,8.58,2.435,2.435,0,0,1-.4,1.481,2.548,2.548,0,0,1-2.148.569l-11.169-.529a83.232,83.232,0,0,1-.286-10.779,1.739,1.739,0,0,1,.266-1.036.612.612,0,0,1,.935-.069" transform="translate(-33.668 -51.96)"/><path class="d" d="M150.3,90.157l-7.1-.907c-1.487-.19-4.117-.155-4.846-1.67a24.97,24.97,0,0,1-1.689-6.039,36.188,36.188,0,0,1-.618-6.613,1.192,1.192,0,0,0-1.7-.993A1.128,1.128,0,0,0,133.3,75a36.068,36.068,0,0,1-.836,6.291,27.843,27.843,0,0,1-1.95,6.14c-.754,1.527-3.159,1.434-4.681,1.579l-7.13.674a1.19,1.19,0,0,0-1.176.974,1.111,1.111,0,0,0,.857,1.231l7.319,1.168c1.885.3,4.358.464,5.543,2.083,1.053,1.439.988,3.4,1.089,5.067l.44,7.223c.083,1.368,2.256,1.438,2.386.192a1.192,1.192,0,0,0,.062-.271q.361-3.522.722-7.044c.17-1.663.185-3.615,1.237-5.045,1.146-1.558,3.432-1.722,5.262-1.953l7.529-.95a1.2,1.2,0,0,0,1.176-.973,1.108,1.108,0,0,0-.858-1.231" transform="translate(-52.715 -33.124)"/><path class="e" d="M150.3,90.157l-7.1-.907c-1.487-.19-4.117-.155-4.846-1.67a24.97,24.97,0,0,1-1.689-6.039,36.188,36.188,0,0,1-.618-6.613,1.192,1.192,0,0,0-1.7-.993A1.128,1.128,0,0,0,133.3,75a36.068,36.068,0,0,1-.836,6.291,27.843,27.843,0,0,1-1.95,6.14c-.754,1.527-3.159,1.434-4.681,1.579l-7.13.674a1.19,1.19,0,0,0-1.176.974,1.111,1.111,0,0,0,.857,1.231l7.319,1.168c1.885.3,4.358.464,5.543,2.083,1.053,1.439.988,3.4,1.089,5.067l.44,7.223c.083,1.368,2.256,1.438,2.386.192a1.192,1.192,0,0,0,.062-.271q.361-3.522.722-7.044c.17-1.663.185-3.615,1.237-5.045,1.146-1.558,3.432-1.722,5.262-1.953l7.529-.95a1.2,1.2,0,0,0,1.176-.973A1.108,1.108,0,0,0,150.3,90.157Z" transform="translate(-52.715 -33.124)"/></g></svg>