<?xml version="1.0" encoding="UTF-8"?><svg id="Layer_1" xmlns="http://www.w3.org/2000/svg" viewBox="0 0 200 165.48"><defs><style>.cls-1{fill:#bbe048;}.cls-2{fill:#0094a8;}</style></defs><g id="Group_67"><path id="Path_89" class="cls-2" d="M11.48,18.08c.63-5.25,3.28-7.43,8.31-8.24,4.96-.8,10.23-.31,15.23-.28l33.34.2,67.58.4,32.44.19c5.19.03,11.79-1.1,15.11,3.78,3.14,4.62,3.57,11.34,3.9,16.72,1.35,21.97,1.42,44.11,1.57,66.11.04,5.39.05,10.78.04,16.17,0,2.63.09,5.28-.04,7.9-.21,4.36-2.42,5.24-6.1,6.52-9.6,3.35-19.85,3.88-29.91,4.26-22.38.83-44.77,1.07-67.18.7-21.89-.34-44.17-.48-65.97-2.71-9.57-.98-9.53-10.7-9.51-18.31.01-5.43.02-10.85.04-16.28.06-15.56.18-31.12.36-46.69.13-10.09-.18-20.38.8-30.43.42-4.35-6.37-4.32-6.79,0-.98,10.06-.67,20.35-.8,30.43-.2,15.56-.32,31.12-.36,46.69-.02,6.17-.08,12.34-.05,18.5.04,7.35,1.09,16.43,8.04,20.62,3.97,2.39,8.82,2.31,13.29,2.59,6.57.41,13.13.77,19.71,1.09,12.54.59,25.1,1.01,37.66,1.24,24.91.45,49.89.37,74.78-.8,10.61-.5,21.68-1.47,31.51-5.81,10.21-4.51,7.35-17.5,7.33-26.68-.06-24.99-.05-50.15-1.61-75.09-.55-8.84-1.81-21.62-11.07-25.81-4.48-2.03-9.97-1.46-14.74-1.49l-19.82-.12-83.8-.49c-13.66-.08-27.44-.66-41.09-.2-4.4.15-9.09.74-12.85,3.21-4.29,2.83-5.54,7.27-6.12,12.13-.52,4.33,6.27,4.29,6.79,0"/><path id="Path_90" class="cls-1" d="M118.49,39.23c-10.56,3.93-19.61,11.09-25.87,20.46-3.46,5.26-2.11,7.69,2.33,11.76l16.55,15.2c3.22,2.95,8.03-1.84,4.8-4.8l-11.46-10.52-5.73-5.26c-.63-.51-1.18-1.1-1.65-1.76.65-.75,1.25-1.54,1.81-2.35,5.27-7.34,12.58-12.96,21.02-16.18,4.04-1.55,2.29-8.12-1.81-6.55"/><path id="Path_91" class="cls-1" d="M145.01,38.75c-6.06,5.98-10.69,13.25-13.55,21.28-2.5,7.08-1.99,16.86-8.04,22.07-3.32,2.85,1.5,7.64,4.8,4.8,5.77-4.96,6.53-12.4,8.15-19.38,2.12-9.1,6.78-17.41,13.45-23.97,3.1-3.09-1.7-7.89-4.8-4.8"/><path id="Path_92" class="cls-1" d="M156.39,44.9c5.5,6.2,11.4,12.02,16.9,18.22-.29-1.1-.58-2.2-.87-3.3-.47,2.89-4.69,6.09-6.51,8.59-2.92,4.06-5.39,8.44-7.36,13.04-1.73,3.97,4.12,7.43,5.87,3.43,1.96-4.61,4.43-8.98,7.36-13.04,2.21-3.02,6.37-5.93,7.12-9.73.75-3.83-3.43-6.73-5.79-9.25-3.99-4.24-8.04-8.4-11.9-12.76-2.91-3.28-7.7,1.54-4.8,4.8"/><path id="Path_93" class="cls-2" d="M7.3,119.02c60.82,1.87,121.64,1.24,182.46-1.91,4.35-.22,4.38-7.02,0-6.79-60.77,3.14-121.59,3.78-182.46,1.91-4.37-.13-4.37,6.66,0,6.79"/><path id="Path_94" class="cls-1" d="M30.92,38.01l48.84.26c4.37.02,4.38-6.77,0-6.79l-48.84-.26c-4.37-.02-4.38,6.77,0,6.79"/><path id="Path_95" class="cls-1" d="M30.92,57.89c15.74.36,31.48.28,47.22-.26,4.36-.15,4.38-6.94,0-6.79-15.74.54-31.48.63-47.22.26-4.37-.1-4.37,6.69,0,6.79"/><path id="Path_96" class="cls-1" d="M29.84,78.31h48.84c4.37,0,4.38-6.79,0-6.79H29.84c-4.37,0-4.38,6.79,0,6.79"/><path id="Path_97" class="cls-1" d="M30.37,95.48c12.69.74,25.41.71,38.1-.09,4.34-.27,4.37-7.07,0-6.79-12.69.8-25.41.83-38.1.09-4.37-.25-4.35,6.54,0,6.79"/><path id="Path_98" class="cls-2" d="M76.56,136.39c-3.3,6.07-7.13,11.87-11.01,17.57-2.47,3.62,3.41,7.02,5.87,3.43,3.89-5.71,7.71-11.51,11.01-17.58,2.09-3.84-3.77-7.27-5.87-3.43"/><path id="Path_99" class="cls-2" d="M116.12,137.95c1.89,6.88,5.23,13.27,9.81,18.74,2.87,3.31,7.65-1.51,4.8-4.8-3.77-4.62-6.52-9.98-8.06-15.74-1.18-4.2-7.73-2.42-6.55,1.81"/><path id="Path_100" class="cls-2" d="M45.42,160.65c18.28.89,36.53,1.63,54.83,1.02s36.58-1.89,54.89-.86c4.37.25,4.35-6.55,0-6.79-18.31-1.04-36.59.25-54.89.86-18.3.61-36.55-.13-54.83-1.02-4.37-.21-4.36,6.58,0,6.79"/></g></svg>