<?xml version="1.0" encoding="UTF-8"?><svg id="Layer_2" xmlns="http://www.w3.org/2000/svg" xmlns:xlink="http://www.w3.org/1999/xlink" viewBox="0 0 175.99 125.28"><defs><style>.cls-1{fill:none;}.cls-2{fill:#bbe048;}.cls-3{fill:#0094a8;}.cls-4{clip-path:url(#clippath-1);}.cls-5{clip-path:url(#clippath);}</style><clipPath id="clippath"><rect class="cls-1" x="154.93" y="92.62" width="17.22" height="18.81" transform="translate(-6.59 192.64) rotate(-60)"/></clipPath><clipPath id="clippath-1"><rect class="cls-1" width="17.22" height="18.81"/></clipPath></defs><g id="Layer_1-2"><path class="cls-3" d="M38.44,19.22c6.6-.81,13.37-.57,20.01-.67s13.14-.14,19.71-.12c13.43.05,26.85.36,40.26.94,3.31.14,6.62.31,9.93.48,2.39.13,5.35-.05,7.14,1.83s2.45,4.72,3.01,7.15c.7,3.02,1.02,6.1,1.25,9.19.48,6.45.83,12.92,1.23,19.38.42,6.65.88,13.29,1.1,19.95.11,3.37.15,6.75.07,10.12-.07,3.08-.1,6.25-.55,9.3-.34,2.33-1.34,4.04-3.57,4.95-2.02.83-4.26,1.01-6.41,1.18-13.3,1.02-26.64,1.56-39.98,1.61-13.34.05-26.68-.38-39.99-1.29-6.57-.45-13.14-1.02-19.69-1.7-1.45-.15-2.91-.27-4.35-.47-1.02-.14-2.32-.3-3.14-.99-.66-.56-.88-1.48-1-2.3-.22-1.51-.15-3.11-.18-4.63-.26-13.34.27-26.67,1.09-39.98.42-6.78.91-13.56,1.41-20.34.31-4.19.26-8.97,4.39-11.16,2.51-1.33,5.45-2.04,8.25-2.42,1.34-.18,2.5-1.02,2.5-2.5,0-1.21-1.15-2.68-2.5-2.5-5.63.76-12.67,2.3-15.53,7.82-1.19,2.3-1.61,4.84-1.85,7.4-.32,3.43-.52,6.87-.76,10.3-1.01,14.05-1.89,28.11-2.04,42.2-.04,3.64-.03,7.29.04,10.93.06,2.95-.18,6.33,1.32,9s4.22,3.65,7.04,4.04c3.56.5,7.15.8,10.73,1.14,13.94,1.32,27.92,2.11,41.92,2.36,14.16.26,28.33-.02,42.47-.85,3.45-.2,6.9-.43,10.35-.7,2.54-.2,5.15-.48,7.53-1.44,2.83-1.13,5.03-3.04,6.14-5.93s1.09-6.46,1.23-9.57c.66-14.1-.72-28.26-1.6-42.32-.42-6.64-.53-13.42-1.86-19.97-.61-3-1.47-6.26-3.22-8.82s-4.26-4.12-7.36-4.58c-3.4-.5-6.91-.51-10.35-.67s-7.12-.32-10.68-.45c-7.04-.26-14.08-.45-21.13-.56-14.08-.23-28.14,0-42.22.17-3.4.04-6.8.08-10.18.5-1.34.16-2.5,1.03-2.5,2.5,0,1.22,1.15,2.67,2.5,2.5Z"/><path class="cls-3" d="M23.14,91.05c30.95,3.87,62.24,4.99,93.38,3.32,8.85-.48,17.69-1.18,26.51-2.1,1.34-.14,2.5-1.05,2.5-2.5,0-1.24-1.15-2.64-2.5-2.5-31.02,3.25-62.32,3.73-93.43,1.43-8.84-.66-17.66-1.54-26.46-2.64-1.34-.17-2.5,1.27-2.5,2.5,0,1.49,1.15,2.33,2.5,2.5h0Z"/><path class="cls-3" d="M63.27,120.71c.31-.43.62-.87.94-1.29.08-.11.18-.22.25-.33-.08.12-.28.36-.08.11.17-.22.35-.44.52-.66.67-.83,1.37-1.63,2.09-2.41,1.45-1.56,3-3.02,4.64-4.38,1.01-.84.93-2.68,0-3.54-1.07-.99-2.46-.89-3.54,0-3.49,2.9-6.54,6.27-9.15,9.98-.76,1.07-.23,2.83.9,3.42,1.28.68,2.61.25,3.42-.9h0Z"/><path class="cls-3" d="M107.6,118.74c-.95-.88-1.86-1.8-2.73-2.75-.43-.48-.86-.97-1.27-1.47-.21-.25-.4-.5-.61-.76-.24-.29.22.3,0,0-.11-.14-.22-.29-.32-.43-1.54-2.08-2.89-4.29-4.04-6.61-.58-1.17-2.34-1.59-3.42-.9-1.2.78-1.52,2.16-.9,3.42,2.42,4.88,5.76,9.34,9.76,13.04.96.89,2.6,1.02,3.54,0,.89-.97,1.03-2.59,0-3.54h0Z"/><path class="cls-3" d="M49.09,124.27c17.38-.54,34.77-.46,52.14.25,4.96.2,9.92.46,14.88.76,3.21.2,3.2-4.81,0-5-17.35-1.06-34.74-1.5-52.12-1.32-4.97.05-9.93.16-14.9.31-3.21.1-3.22,5.1,0,5h0Z"/><path class="cls-2" d="M37,81.14c2.25-1.35,3.9-3.29,5.53-5.3,1.72-2.12,3.62-4.04,5.68-5.84,4.38-3.83,9.03-7.37,13.56-11.02,2.38-1.91,4.75-3.83,7.13-5.74.51-.41,1.03-.83,1.54-1.24.26-.21.51-.42.77-.62.19-.14.78-.41.31-.41-.43,0-.04.12.19.28.24.17.49.34.74.51.61.43,1.23.86,1.84,1.3,4.4,3.16,8.64,6.52,12.73,10.07,4.7,4.08,9.19,8.4,13.46,12.93.92.98,2.61.94,3.54,0,1.85-1.89,3.81-3.67,5.92-5.28,1.05-.8,2.13-1.56,3.24-2.28.5-.33,1.24-.63,1.68-1.05.68-.65-.31.05-.38-.18.04.13.71.61.78.66,4.39,3.82,8.63,7.82,12.7,11.98,2.26,2.3,5.79-1.24,3.54-3.54-2.37-2.41-4.79-4.78-7.27-7.08-1.21-1.13-2.43-2.24-3.67-3.34s-2.49-2.49-3.97-3.22c-1.71-.84-3.32-.19-4.82.74-1.31.81-2.58,1.67-3.82,2.59-2.65,1.96-5.15,4.1-7.46,6.46h3.54c-7.97-8.46-16.73-16.14-26.12-22.99-2.26-1.64-5.03-4.47-8.03-3.19-1.39.59-2.57,1.8-3.74,2.74-1.28,1.03-2.57,2.07-3.85,3.1-4.83,3.89-9.68,7.77-14.5,11.68-2.55,2.08-5.08,4.21-7.28,6.66-1.92,2.14-3.51,4.78-6.02,6.29-2.76,1.65-.25,5.98,2.52,4.32h0Z"/><path class="cls-2" d="M107.89,31.56c-2.31-.12-4.73-.21-6.94.55s-4.18,2.18-5.22,4.32c-1.85,3.81-1.15,8.38,1.47,11.64,2.38,2.96,6.48,4.15,10.1,2.96,1.92-.63,3.56-1.79,4.72-3.45,1.28-1.83,1.65-4.28,1.89-6.46.3-2.65-.22-5.3-1.94-7.39s-4.38-2.58-7.02-2.36c-1.3.11-2.56,1.07-2.5,2.5.06,1.26,1.1,2.62,2.5,2.5.43-.04.86-.07,1.3-.08.22,0,.43,0,.65.01.44.02-.51-.17.22.03.17.05.33.09.49.14-.55-.18.03.05.13.1s.35.28-.02-.04c.15.13.29.28.44.42.45.41-.19-.39.11.14.07.12.15.23.22.35,0,0,.32.6.15.26s.09.27.1.28c.26.8.27,1.11.24,2.06,0,.22-.02.45-.04.67,0,.09-.08.65-.02.28-.06.45-.15.89-.24,1.33-.08.39-.16.78-.27,1.17-.06.21-.12.42-.19.63-.21.62.12-.11-.13.3-.09.14-.64.9-.22.41-.2.23-.42.44-.63.66-.09.09-.37.28.08-.04-.12.09-.25.18-.38.26-.29.18-.58.34-.89.48.6-.29-.29.08-.45.12-.12.03-.24.06-.36.09-.17.04-.67.25-.07.03-.24.09-.59.05-.84.05-.16,0-.31,0-.46-.01-.09,0-.19-.01-.28-.02-.19-.02-.12-.01.21.03-.17.06-.73-.17-.9-.22-.12-.04-.23-.08-.35-.13.55.2.14.05,0-.02-.26-.15-.51-.3-.76-.46-.53-.34.33.35-.11-.1-.14-.14-.29-.27-.43-.41-.09-.09-.18-.2-.27-.29-.44-.46.25.42-.1-.12-.16-.25-.33-.5-.47-.76-.09-.16-.42-.93-.22-.4-.14-.38-.27-.76-.37-1.15-.04-.18-.16-1.17-.12-.52-.02-.3-.05-.6-.04-.9s.02-.6.05-.9c-.07.67.03-.06.05-.16.05-.23.11-.46.18-.69.05-.15.1-.3.16-.45-.18.43.16-.28.21-.36.05-.09.34-.51.08-.18.14-.18.3-.34.46-.49.11-.1.22-.2.34-.3-.4.31.24-.13.33-.18.16-.09.33-.18.5-.26.62-.3-.42.11.24-.09.44-.13.87-.25,1.32-.34.03,0,.48-.07.15-.03.27-.03.55-.05.82-.06,1.11-.06,2.21,0,3.32.06,1.31.07,2.56-1.2,2.5-2.5-.06-1.41-1.1-2.42-2.5-2.5h0Z"/><g id="Group_19"><g class="cls-5"><g id="Group_18"><path id="Path_21" class="cls-2" d="M161.92,93.07c1.46,6.09,2.15,12.33,2.04,18.59-.02,1.25,1.92,1.24,1.94-.01.11-6.42-.6-12.83-2.1-19.08-.29-1.21-2.16-.71-1.87.5"/><path id="Path_22" class="cls-2" d="M173.19,99.44c-6.09-.2-12.13,1.23-17.49,4.13-.94.51-.11,1.95.82,1.44,5.11-2.76,10.87-4.11,16.68-3.92,1.07.03,1.06-1.62,0-1.66"/><path id="Path_23" class="cls-2" d="M168.49,95.94c-3.96,3.34-7.11,7.55-9.19,12.3-.25.47-.1,1.05.36,1.32.46.26,1.05.11,1.32-.35,2-4.59,5.04-8.66,8.87-11.89.38-.38.38-.99.01-1.37-.38-.37-.98-.38-1.37-.01"/><path id="Path_24" class="cls-2" d="M156.82,97.16c4.46,3.27,8.92,6.55,13.38,9.82,1.25.92,2.46-1.18,1.21-2.1-4.46-3.27-8.92-6.55-13.38-9.82-1.25-.92-2.46,1.18-1.21,2.1"/></g></g></g><g id="Group_19-2"><g class="cls-4"><g id="Group_18-2"><path id="Path_21-2" class="cls-2" d="M15.56,3.53C11.02,7.83,5.95,11.55.48,14.59c-1.09.6-.11,2.28.98,1.67,5.61-3.12,10.81-6.93,15.47-11.36.91-.86-.47-2.23-1.37-1.37"/><path id="Path_22-2" class="cls-2" d="M15.68,16.47C12.8,11.09,8.54,6.58,3.35,3.38c-.91-.56-1.75.88-.84,1.43,4.95,3.05,9,7.36,11.73,12.49.5.94,1.93.1,1.43-.84"/><path id="Path_23-2" class="cls-2" d="M16.36,10.65c-4.88-1.76-10.1-2.38-15.25-1.81-.53.02-.95.44-.97.97,0,.53.43.97.97.97,4.98-.56,10.02.03,14.73,1.74.52.14,1.05-.16,1.19-.68.13-.51-.17-1.04-.68-1.19"/><path id="Path_24-2" class="cls-2" d="M9.46,1.16c-.61,5.5-1.21,11-1.82,16.5-.17,1.55,2.25,1.53,2.42,0,.61-5.5,1.21-11,1.82-16.5.17-1.55-2.25-1.53-2.42,0"/></g></g></g></g></svg>