<?xml version="1.0" encoding="UTF-8"?><svg id="Layer_2" xmlns="http://www.w3.org/2000/svg" viewBox="0 0 203.86 155.06"><defs><style>.cls-1{fill:#bbe048;}.cls-2{fill:#0094a8;}.cls-3{fill:#fff;}</style></defs><g id="Layer_1-2"><path class="cls-1" d="M151.83,36.58c0-10.33-1.99-21.29-10.41-28.17S121.14.4,110.58.1c-8.85-.25-17.78-.04-26.6.67-7.41.6-15.58,1.5-21.9,5.77-10.56,7.13-9.84,19.54-9.82,30.82.02,8.62,13.42,8.64,13.4,0-.01-6.33-1.99-16.51,4.72-20.2,5.58-3.06,13.04-3.03,19.23-3.33,6.98-.35,13.98-.52,20.97-.33s16.09.38,22.02,4.92c5.39,4.13,5.82,11.86,5.82,18.15,0,8.62,13.4,8.64,13.4,0h0Z"/><path class="cls-3" d="M42.98,38c33.69,2.03,67.41,2.77,101.15,1.51,6.69-.27,13.42-.72,20.16-.7,29.22-.43,32.9,14.24,34.68,37.43,1.03,18.12,1.37,37.64-2.27,55.32-1.35,5.74-4.2,11.65-9.59,14.96-3.51,2.23-7.92,3.27-12.52,3.63-3.21.26-6.5.23-9.76.16-43.69-1.88-88.01,2.67-132.1-.7-9.47-.72-22.51-3.16-25.98-13.49-1.21-3.6-1.29-7.46-1.37-11.25-.31-15.9-.75-31.81-.96-47.71-.02-5.89-.33-11.79.34-17.66,2.91-22.16,16.88-23.29,38.12-21.48h.1Z"/><path class="cls-2" d="M42.98,42.18c21.13,1.26,42.28,2.04,63.45,2.12,10.92.04,21.83-.1,32.74-.44,9.61-.3,19.26-1.17,28.88-.84,11.64.4,20.88,4.46,24.21,16.22,1.73,6.09,2.27,12.52,2.62,18.81.56,9.9.81,19.84.38,29.74-.39,9.09-.51,19.81-4.46,28.18-4.5,9.52-14.62,10.29-24.02,10.17-21-.27-41.91-.41-62.92.06s-42.18.91-63.24-.28c-7.69-.43-16.29-.5-23.3-4.15-8.56-4.45-7.69-13.49-7.87-21.91-.25-11.93-.55-23.86-.76-35.79-.17-10.21-1.69-21.76,1.92-31.54,4.93-13.38,20.87-11.16,32.35-10.38,5.37.37,5.35-8,0-8.36-12.03-.82-27.03-2.26-35.73,8.02C2.45,47.52.82,55.17.34,62.41c-.8,12.1.05,24.47.31,36.59.24,11.01-.49,22.55,1.06,33.47,1.21,8.51,6.22,14.5,14.1,17.77,7.82,3.25,16.49,3.59,24.83,4.06,12.17.68,24.37.83,36.57.74,24.31-.18,48.62-1.31,72.94-.97,10.98.16,23.17,2.12,33.79-1.49,8.14-2.77,13.48-9.22,16.07-17.26,3.33-10.34,3.61-22.36,3.81-33.13.18-10.24-.06-20.59-1.07-30.79-1.18-11.84-3.56-24.9-14.49-31.68-6.84-4.25-15.31-5.08-23.18-5.09-12.93-.02-25.86.97-38.79,1.19-27.78.47-55.56-.35-83.29-2-5.38-.32-5.36,8.04,0,8.36Z"/><path class="cls-2" d="M7.86,85.01c31.28,2.15,62.65,2.06,93.98,1.71,31.3-.35,62.5-1.38,93.75-3.1,5.35-.29,5.39-8.66,0-8.36-31.26,1.72-62.45,2.75-93.75,3.1-31.34.35-62.7.45-93.98-1.71-5.37-.37-5.35,7.99,0,8.36h0Z"/><path class="cls-1" d="M142.74,65.68v36c0,8.62,13.4,8.64,13.4,0v-36c0-8.62-13.4-8.64-13.4,0h0Z"/><path class="cls-1" d="M46.86,65.68v36c0,8.62,13.4,8.64,13.4,0v-36c0-8.62-13.4-8.64-13.4,0h0Z"/></g></svg>