<svg xmlns="http://www.w3.org/2000/svg" xmlns:xlink="http://www.w3.org/1999/xlink" width="78.612" height="65" viewBox="0 0 78.612 65"><defs><style>.a{fill:none;}.b{clip-path:url(#a);}.c{fill:#0094a8;}.d{fill:#84c12d;}</style><clipPath id="a"><rect class="a" width="78.612" height="65"/></clipPath></defs><g class="b"><path class="c" d="M3.267,6.331C3.526,4.188,4.607,3.3,6.656,2.97a38.1,38.1,0,0,1,6.212-.116l13.6.08L54.037,3.1l13.233.078c2.117.013,4.809-.45,6.165,1.544,1.282,1.885,1.457,4.625,1.593,6.821.552,8.962.58,17.994.64,26.97q.022,3.3.017,6.6c0,1.071.038,2.153-.015,3.222-.088,1.777-.987,2.136-2.49,2.66-3.914,1.366-8.1,1.585-12.2,1.737q-13.694.509-27.4.286c-8.932-.138-18.02-.194-26.912-1.106-3.9-.4-3.886-4.366-3.879-7.471q.007-3.32.015-6.641.036-9.523.145-19.046c.052-4.115-.073-8.313.327-12.415C3.44,4.557.668,4.569.5,6.331c-.4,4.1-.275,8.3-.327,12.415Q.049,28.268.024,37.792C.014,40.307-.009,42.824,0,45.34c.017,3,.445,6.7,3.279,8.414,1.618.977,3.6.942,5.422,1.057q4.018.252,8.039.442,7.677.364,15.362.5c10.161.185,20.353.153,30.505-.328,4.327-.2,8.845-.6,12.853-2.37,4.166-1.841,3-7.138,2.989-10.886-.023-10.194-.022-20.458-.656-30.635-.225-3.606-.738-8.818-4.515-10.529C71.457.181,69.217.413,67.27.4L59.184.354,25,.154C19.424.121,13.806-.117,8.234.072A10.067,10.067,0,0,0,2.993,1.383C1.241,2.538.735,4.35.5,6.331c-.213,1.767,2.56,1.751,2.771,0" transform="translate(0 0)"/><path class="c" d="M1.942,122.517q37.218,1.145,74.438-.779c1.775-.092,1.785-2.864,0-2.771q-37.186,1.923-74.438.779c-1.784-.055-1.782,2.717,0,2.771" transform="translate(-0.381 -75.007)"/><path class="c" d="M72.612,146.587c-1.347,2.475-2.907,4.843-4.493,7.17-1.007,1.478,1.393,2.865,2.393,1.4,1.586-2.327,3.147-4.695,4.493-7.171.852-1.567-1.539-2.967-2.393-1.4" transform="translate(-42.797 -91.99)"/><path class="c" d="M124.275,146.559a20.325,20.325,0,0,0,4,7.645c1.169,1.351,3.122-.616,1.959-1.959a17.194,17.194,0,0,1-3.287-6.423,1.387,1.387,0,0,0-2.672.737" transform="translate(-78.319 -91.325)"/><path class="c" d="M44.029,169.654c7.456.364,14.9.665,22.368.417s14.925-.773,22.395-.349c1.782.1,1.776-2.67,0-2.771-7.469-.424-14.929.1-22.395.349s-14.911-.053-22.368-.417c-1.783-.087-1.778,2.684,0,2.771" transform="translate(-26.919 -105.162)"/><path class="d" d="M27.592,60.4a145.382,145.382,0,0,1,13.62-11.27,59.737,59.737,0,0,1,7.108-4.307c1.08-.549,2.8-1.784,4.06-1.441,1.28.351,2.815,1.995,3.9,2.787L60.144,49c1,.733,2.127,1.942,3.416,2.139,2.193.335,4.345-2.439,5.814-3.716q7.14-6.2,13.946-12.775c1.287-1.24-.674-3.2-1.959-1.959q-6.81,6.563-13.946,12.775c-.847.736-2.453,2.714-3.49,2.7-.684-.006-1.549-.95-2.086-1.344l-1.785-1.31-4.166-3.056a8.714,8.714,0,0,0-3.2-1.874c-2.277-.457-4.99,1.4-6.9,2.432a63.592,63.592,0,0,0-7.021,4.457,162.849,162.849,0,0,0-13.136,10.96c-1.33,1.193.635,3.148,1.959,1.959" transform="translate(-15.882 -20.362)"/><path class="d" d="M47.09,79.424a3.613,3.613,0,1,1-3.613-3.613,3.613,3.613,0,0,1,3.613,3.613" transform="translate(-25.134 -47.799)"/><path class="d" d="M45.232,78.245a2.919,2.919,0,1,1-2.412-2.878,2.946,2.946,0,0,1,2.412,2.878.693.693,0,0,0,1.386,0A4.37,4.37,0,0,0,43.792,74.2a4.3,4.3,0,1,0,2.826,4.042.693.693,0,0,0-1.386,0" transform="translate(-23.969 -46.62)"/><path class="d" d="M92.121,51.863a3.613,3.613,0,1,1-3.613-3.613,3.613,3.613,0,0,1,3.613,3.613" transform="translate(-53.526 -30.422)"/><path class="d" d="M90.263,50.684a2.919,2.919,0,1,1-2.412-2.878,2.946,2.946,0,0,1,2.412,2.878.693.693,0,0,0,1.386,0,4.37,4.37,0,0,0-2.826-4.042,4.3,4.3,0,1,0,2.826,4.042.693.693,0,0,0-1.386,0" transform="translate(-52.362 -29.242)"/><path class="d" d="M126.866,73.312a3.613,3.613,0,1,1-3.613-3.613,3.613,3.613,0,0,1,3.613,3.613" transform="translate(-75.433 -43.945)"/><path class="d" d="M125.008,72.133a2.919,2.919,0,1,1-2.412-2.878,2.946,2.946,0,0,1,2.412,2.878.693.693,0,0,0,1.386,0,4.37,4.37,0,0,0-2.826-4.042,4.3,4.3,0,1,0,2.826,4.042.693.693,0,0,0-1.386,0" transform="translate(-74.268 -42.766)"/><path class="d" d="M170.975,33.958a3.613,3.613,0,1,1-3.613-3.613,3.613,3.613,0,0,1,3.613,3.613" transform="translate(-103.244 -19.133)"/><path class="d" d="M169.117,32.779A2.919,2.919,0,1,1,166.7,29.9a2.946,2.946,0,0,1,2.412,2.878.693.693,0,0,0,1.386,0,4.37,4.37,0,0,0-2.826-4.042,4.3,4.3,0,1,0,2.826,4.042.693.693,0,0,0-1.386,0" transform="translate(-102.079 -17.953)"/></g></svg>