<?xml version="1.0" encoding="UTF-8"?><svg id="Layer_2" xmlns="http://www.w3.org/2000/svg" viewBox="0 0 371.46 361.9"><defs><style>.cls-1{fill:#bbe048;}.cls-2{fill:#0094a8;}</style></defs><g id="Layer_1-2"><path class="cls-1" d="M121.28,45.96c7.89,22.21,17.41,41.29,28.43,61.77,19.57-8.27,41.31-7.42,61.94-3.52,2.11.4,4.47.78,6.24-.57,1.21-.92,1.88-2.48,2.5-3.96,8.54-20.51,16.47-41.33,23.77-62.42-25.58-7.05-52.04-10.16-78.38-9.21-15.87.57-32.41,2.89-45.57,12.8l1.06,5.12Z"/><path class="cls-1" d="M115.76,47.48c7.84,21.88,18.02,42.69,29.01,63.13,1.08,2,4.21,3.54,6.45,2.63,11.6-4.73,23.76-6.5,36.24-6.12,6.11.19,12.19.81,18.22,1.81,4.96.82,10.48,2.62,15.08-.37s6.1-9.69,8.03-14.42c2.4-5.88,4.75-11.79,7.05-17.71,4.84-12.47,9.43-25.03,13.82-37.66,1.01-2.91-1.16-6.26-3.99-7.03-22.34-6.07-45.45-9.39-68.61-9.57-20.52-.16-42.58,1.26-59.75,13.74-2.2,1.6-3.19,3.76-2.63,6.45l1.06,5.12c1.49,7.2,12.51,4.15,11.02-3.04l-1.06-5.12-2.63,6.45c16.12-11.71,36.64-12.45,55.86-12.16,21.56.33,42.89,3.49,63.68,9.14l-3.99-7.03c-3.87,11.13-7.89,22.21-12.1,33.21-2.05,5.34-4.13,10.67-6.26,15.98-1.06,2.65-2.14,5.3-3.22,7.95-.49,1.19-1.03,3.4-1.86,4.46-1.24,1.59-.03,1.06-2.04,1.36-2.18.33-5.84-1.02-8.01-1.34-2.59-.37-5.19-.72-7.79-.99-5.38-.56-10.79-.83-16.19-.7-11.3.27-22.51,2.28-32.99,6.55l6.45,2.63c-10.52-19.58-20.35-39.45-27.86-60.4-2.46-6.87-13.51-3.91-11.02,3.04Z"/><path class="cls-1" d="M331.31,123.9c-23.98,6.62-44.72,15.06-67.03,24.92,7.73,20,5.69,41.67.46,62.05-.54,2.09-1.06,4.42.28,6.27.92,1.26,2.53,2.02,4.07,2.72,21.3,9.68,42.97,18.77,64.96,27.25,8.83-25.15,13.53-51.39,13.92-77.75.23-15.88-1.35-32.53-11.16-46.23l-5.49.77Z"/><path class="cls-1" d="M329.74,118.22c-23.53,6.57-46.12,15.67-68.44,25.51-2.19.96-3.53,4.43-2.71,6.65,4.49,12.07,5.62,24.62,4.42,37.4-.63,6.68-1.94,13.26-3.52,19.78-1.2,4.94-2.21,10.14,1.76,14.18s10.32,5.69,15.25,7.87c6.09,2.7,12.19,5.34,18.32,7.93,12.47,5.28,25.02,10.36,37.65,15.25,3.1,1.2,6.29-1.35,7.25-4.11,7.61-21.94,12.28-44.84,13.7-68.03,1.27-20.7.66-42.82-11.54-60.49-1.67-2.41-3.85-3.1-6.65-2.71-1.83.26-3.66.52-5.49.77-7.48,1.05-4.3,12.41,3.13,11.36,1.83-.26,3.66-.52,5.49-.77l-6.65-2.71c11.41,16.52,11.14,37.16,9.81,56.42-1.49,21.51-6.09,42.66-13.16,63.02l7.25-4.11c-11.27-4.36-22.48-8.86-33.61-13.54-5.96-2.51-11.89-5.07-17.81-7.68-2.61-1.15-5.21-2.31-7.81-3.48-1.12-.5-6.09-2.2-6.43-3.06-.32-.79,1.47-5.29,1.74-6.5.66-2.94,1.25-5.9,1.74-8.87.91-5.56,1.58-11.17,1.78-16.8.42-11.64-1.18-23.32-5.25-34.25l-2.71,6.65c21.39-9.43,43.08-18.03,65.63-24.32,7.29-2.04,4.19-13.4-3.13-11.36Z"/><path class="cls-1" d="M243.11,321.57c-7.87-22.99-17.38-42.73-28.39-63.92-19.57,8.54-41.32,7.65-61.94,3.6-2.11-.41-4.47-.8-6.24.59-1.21.95-1.89,2.56-2.5,4.09-8.55,21.21-16.49,42.75-23.81,64.56,25.58,7.31,52.03,10.54,78.37,9.58,15.87-.58,32.41-2.97,45.58-13.21l-1.06-5.3Z"/><path class="cls-1" d="M248.71,320.03c-7.8-22.58-17.99-44.13-28.98-65.31-1.05-2.03-4.32-3.62-6.56-2.67-11.49,4.85-23.59,6.7-36.02,6.32-6.51-.2-12.98-.94-19.39-2.07-5.01-.89-10.32-2.44-14.76.99-4.15,3.2-5.58,9.55-7.41,14.2-2.46,6.21-4.86,12.45-7.21,18.7-4.82,12.84-9.4,25.78-13.78,38.78-1.01,2.99,1.17,6.34,4.06,7.15,22.61,6.37,46.06,9.83,69.57,9.95,20.32.1,42.06-1.53,58.87-14.17,2.23-1.67,3.23-3.78,2.67-6.56l-1.06-5.3c-1.47-7.33-12.67-4.23-11.21,3.09l1.06,5.3,2.67-6.56c-15.78,11.86-35.86,12.8-54.88,12.56-21.89-.28-43.53-3.58-64.59-9.52l4.06,7.15c3.87-11.49,7.89-22.93,12.11-34.3,2.21-5.97,4.48-11.92,6.79-17.85,1.09-2.79,3.49-12.53,5.99-13.12,1.89-.45,5.54,1.01,7.44,1.31,2.83.44,5.67.83,8.51,1.15,5.51.61,11.07.91,16.61.78,11.33-.28,22.54-2.34,32.99-6.75l-6.56-2.67c10.53,20.3,20.33,40.89,27.8,62.53,2.43,7.03,13.66,4.01,11.21-3.09Z"/><path class="cls-1" d="M46.95,245.96c24.64-8.21,45.77-18.02,68.44-29.34-9.47-19.44-8.82-41.2-4.75-61.88.42-2.12.8-4.48-.72-6.23-1.04-1.2-2.78-1.85-4.44-2.44-22.96-8.23-46.26-15.85-69.86-22.84-7.51,25.69-10.63,52.19-9.22,78.51.85,15.86,3.65,32.36,14.86,45.38l5.69-1.14Z"/><path class="cls-1" d="M48.55,251.78c24.09-8.09,47.17-18.62,69.88-29.95,3.09-1.54,3.48-5.47,2.16-8.25-5.47-11.6-7.18-24.32-6.64-37.05.26-6.21,1.05-12.35,2.17-18.46.98-5.35,1.71-10.65-2.85-14.63-4.19-3.66-11.07-4.94-16.2-6.73-6.38-2.23-12.78-4.41-19.19-6.54-13.49-4.48-27.05-8.72-40.68-12.77-3.15-.94-6.53,1.13-7.42,4.21-6.61,22.94-10.05,46.82-9.74,70.7.27,21.1,3.01,42.32,16.94,59.05,1.41,1.69,3.87,1.95,5.87,1.55s3.79-.76,5.69-1.14c7.61-1.52,4.39-13.15-3.21-11.63-1.9.38-3.79.76-5.69,1.14l5.87,1.55c-12.46-14.96-13.49-35.67-13.43-54.28.08-21.62,3.35-42.97,9.33-63.73l-7.42,4.21c12.39,3.68,24.73,7.52,37.01,11.56,6.12,2.01,12.22,4.07,18.31,6.17,3.04,1.05,6.07,2.11,9.1,3.18,1.22.43,5.98,1.36,6.55,2.19.73,1.07-1.16,6.55-1.37,7.93-.44,2.85-.83,5.72-1.13,8.59-.58,5.52-.83,11.08-.6,16.62.48,12.01,3.19,23.52,8.31,34.39l2.16-8.25c-21.8,10.87-43.88,20.97-67,28.74-7.32,2.46-4.18,14.12,3.21,11.63Z"/><path class="cls-2" d="M200.41,119.16c26.17,5.5,44.23,27,49.76,52.79,2.61,12.18,1.76,24.78-2.75,37.14-5.05,13.84-15.08,25.57-27.87,32.83-24.47,13.89-56.09,8.9-76.26-9.5-20.4-18.6-25.7-47.55-14.42-71.81,6.45-13.86,16.48-25.55,29.38-33.35s27.61-11.12,42.16-8.12c5.72,1.18,11.69-1.66,13.31-7.56,1.47-5.36-1.81-12.12-7.56-13.31-36.05-7.44-71.3,11.3-90.61,41.63-19.63,30.84-18.75,70.57,4.41,99.25,22.35,27.69,62.11,39.28,95.82,27.94,35.76-12.03,59.58-48.08,57.33-85.66-2.29-38.27-28.28-75.03-66.96-83.16-5.71-1.2-11.7,1.68-13.31,7.56-1.48,5.37,1.81,12.1,7.56,13.31Z"/><path class="cls-2" d="M219.31,27.45c32.17,6.27,59.3,21.39,81.56,44.83,10.88,11.45,19,22.88,26.81,37.84,1.72,3.29,3.34,6.64,4.86,10.03-.12-.28,1.49,3.44.85,1.91s.9,2.22.78,1.94c.76,1.91,1.49,3.84,2.19,5.77,2.72,7.53,4.93,15.24,6.62,23.06.82,3.8,1.48,7.62,2.09,11.46.06.38.32,2.46.05.32.1.81.2,1.62.29,2.43.27,2.43.49,4.86.66,7.3.53,7.7.53,15.43-.02,23.12-.13,1.82-.29,3.64-.49,5.45-.11,1.01-.22,2.01-.35,3.02.28-2.17.01-.1-.05.29-.65,4-1.36,7.99-2.28,11.94-1.83,7.86-4.4,15.43-7.29,22.95-12.42,32.38-38.34,60.39-69.61,77.18-15.87,8.52-33.34,14.01-51.64,16.95-3.06.49-6.18.87-10.48,1.22-4.59.38-9.19.58-13.79.6s-9.15-.12-13.72-.43c-1.82-.12-3.64-.28-5.45-.45-2.75-.27-4.94-.55-6.15-.73-16.13-2.43-34.15-7.63-47.37-13.63-7.89-3.58-15.53-7.7-22.84-12.35-7.71-4.9-12.72-8.6-19.12-14.19s-12.08-11.32-17.45-17.62c-4.83-5.67-8.77-11.15-13.2-18.53-8.76-14.63-13.65-28.17-17.29-45.52-1.68-8.03-2.23-12.79-2.45-21.84-.09-3.78-.03-7.57.18-11.35.11-2.1.28-4.2.48-6.29.08-.84.18-1.67.27-2.51.29-2.93-.2.98.21-1.69,1.26-8.16,3.07-16.21,5.52-24.1,2.67-8.61,4.93-14.25,8.42-21.44,14.42-29.72,36.49-54.75,63.29-72.32,28.43-18.65,60.09-28.45,93.77-27.18,8.6.32,14.23,1,22.13,2.56,6.62,1.3,13.49-1.88,15.38-8.73,1.69-6.14-2.07-14.07-8.73-15.38-38.16-7.52-76.89-2.2-112.05,14.23-33.78,15.78-62.68,41.79-83.17,72.81C10.98,120.29-.96,156.36.06,192.39c1.06,37.42,15.45,73.37,39.4,101.95,49.68,59.28,136.39,82.08,209.39,58.25,39.86-13.01,74.54-40.01,96.62-75.71,18.82-30.42,28.06-66.84,25.61-102.54-4.94-72.07-51.37-138.62-119.68-163.92-8.27-3.06-16.78-5.39-25.44-7.07-6.62-1.29-13.49,1.87-15.38,8.73-1.68,6.13,2.07,14.08,8.73,15.38Z"/></g></svg>