<?xml version="1.0" encoding="UTF-8"?><svg id="Layer_2" xmlns="http://www.w3.org/2000/svg" viewBox="0 0 115.51 110.85"><defs><style>.cls-1{fill:#bbe048;}.cls-2{fill:#0094a8;}</style></defs><g id="Layer_1-2"><path class="cls-2" d="M35.15,44.03c-14.99,9.44-42.76,32.4-27.34,52.42,17.19,22.31,46.08-7.02,59.95-18.26,3.75-3.04-1.58-8.32-5.3-5.3-8.13,6.58-16.06,13.93-25,19.4-7.16,4.37-17.9,7.46-23.88-.55-5.31-7.13-.69-16.57,3.83-22.81,5.58-7.71,13.57-13.4,21.53-18.42,4.07-2.56.32-9.06-3.79-6.48h0Z"/><path class="cls-1" d="M18.66,39.25c-5.17-.95-10.35-1.9-15.52-2.86-1.28-.24-2.76.35-3.08,1.75-.28,1.23.37,2.82,1.75,3.08,5.17.95,10.35,1.9,15.52,2.86,1.28.24,2.76-.35,3.08-1.75.28-1.23-.37-2.82-1.75-3.08h0Z"/><path class="cls-1" d="M23.72,19.47c-3.55-3.41-7.11-6.82-10.66-10.23-.94-.91-2.61-1.01-3.54,0s-1.01,2.57,0,3.54c3.55,3.41,7.11,6.82,10.66,10.23.94.91,2.61,1.01,3.54,0s1.01-2.57,0-3.54h0Z"/><path class="cls-1" d="M44.03,16.74c.36-4.99-.12-10.05-1.35-14.9-.32-1.27-1.81-2.16-3.08-1.75s-2.09,1.72-1.75,3.08c.29,1.14.54,2.28.74,3.44.05.27.09.53.13.8.03.18.05.36.08.54-.02-.17-.02-.17,0,0,.07.58.14,1.17.19,1.75.2,2.34.21,4.69.04,7.03-.09,1.31,1.22,2.56,2.5,2.5,1.44-.06,2.4-1.1,2.5-2.5h0Z"/><path class="cls-1" d="M94.05,70.85c5.61-.21,11.19.27,16.66,1.49,1.32.29,2.71-.4,3.08-1.75.34-1.26-.42-2.78-1.75-3.08-5.9-1.32-11.95-1.9-17.99-1.67-1.35.05-2.5,1.11-2.5,2.5,0,1.31,1.14,2.55,2.5,2.5h0Z"/><path class="cls-1" d="M83.71,87.57c2,6.69,8.64,9.85,14.6,12.32,1.21.5,2.8-.54,3.08-1.75.33-1.46-.45-2.54-1.75-3.08-.17-.07-.34-.14-.51-.21-.58-.24.5.22-.08-.03-.31-.13-.63-.27-.94-.41-.66-.29-1.31-.6-1.95-.92-1.25-.62-2.46-1.31-3.6-2.11-.12-.09-.25-.18-.37-.27-.07-.05-.15-.11-.22-.16-.15-.11-.1-.07.15.11,0-.11-.65-.55-.75-.64-.51-.45-.97-.94-1.41-1.46-.33-.38.27.4-.04-.04-.08-.12-.17-.24-.25-.36-.18-.26-.35-.54-.5-.82-.09-.15-.17-.31-.24-.46-.06-.13-.37-.6-.04-.05-.17-.29-.26-.69-.35-1.02-.37-1.25-1.77-2.17-3.08-1.75s-2.15,1.73-1.75,3.08h0Z"/><path class="cls-1" d="M66.14,92.49c-1.5,5.38-1.36,11.22.48,16.5.43,1.23,1.73,2.18,3.08,1.75,1.22-.39,2.21-1.75,1.75-3.08-.42-1.22-.76-2.46-1-3.72-.05-.27-.1-.54-.14-.81-.08-.52,0,.05-.05-.43-.06-.64-.11-1.28-.13-1.92-.04-1.2.02-2.39.14-3.57.04-.31.04-.36.02-.15.02-.14.04-.27.06-.41.05-.32.11-.63.17-.95.13-.63.28-1.25.45-1.87.35-1.26-.43-2.78-1.75-3.08s-2.7.4-3.08,1.75h0Z"/><path class="cls-2" d="M82.97,63.86c15.14-9.15,43.35-31.69,28.2-51.93-16.86-22.53-46.19,6.26-60.29,17.26-3.8,2.96,1.54,8.24,5.3,5.3,8.25-6.43,16.32-13.62,25.37-18.92,7.27-4.26,18.04-7.06,23.84,1.09,5.24,7.36.16,17.02-4.65,23.17-5.77,7.36-13.63,12.77-21.55,17.56-4.13,2.49-.36,8.98,3.79,6.48h0Z"/></g></svg>