<?xml version="1.0" encoding="UTF-8"?><svg id="Layer_2" xmlns="http://www.w3.org/2000/svg" viewBox="0 0 209.55 202.53"><defs><style>.cls-1{fill:#0094a8;}.cls-2{fill:#fff;}.cls-3{fill:none;stroke:#84c12d;stroke-linecap:square;stroke-miterlimit:10;stroke-width:16px;}</style></defs><g id="Layer_1-2"><path class="cls-2" d="M179.76,99.49c2.41,26.47,4.57,53.05,5,79.61-.1,4.76-1.08,10-4.73,12.86-2.19,1.78-5.25,2.68-8.88,2.98-39.76-.42-79.84-5.45-119.33-1.91-5.61.44-12.57,1.17-17.28-1.62-5.41-3.12-6.58-10.34-7.19-16.31-2.33-24.52-3.48-49.19-3.89-73.83"/><path class="cls-1" d="M172.26,99.49c1.96,21.64,3.77,43.31,4.6,65.03.19,5.06.62,10.24.37,15.3-.16,3.14-.53,6.03-3.74,7.15-4.14,1.44-9.77.36-14.08.23-5.88-.18-11.76-.43-17.64-.7-21.53-1.02-43.07-2.44-64.64-2.18-10.2.12-20.31,1.14-30.48,1.58-2.77.12-6.93.6-9.1-1.59s-2.37-6.36-2.7-9.2c-2.83-24.42-3.46-49.27-3.89-73.83-.17-9.64-15.17-9.67-15,0,.43,24.6,1.28,49.35,3.89,73.83.98,9.17,3.11,18.9,12.13,23.41,9.4,4.7,21.53,1.71,31.51,1.21,24.79-1.25,49.61.36,74.37,1.58,5.88.29,11.76.56,17.64.77,6.3.22,12.93.95,19.17-.06,10.66-1.73,16.35-9.69,17.41-20.02.69-6.67-.06-13.7-.34-20.38s-.63-12.96-1.05-19.43c-.92-14.25-2.14-28.47-3.43-42.68-.86-9.54-15.87-9.63-15,0h0Z"/><path class="cls-2" d="M11.88,65.07c-6.6,5.78-4.72,18.33-.69,25.27,4.43,7.59,15.27,9.48,25.04,9.63,13.2.37,26.45-.08,39.65-.62,35.01-1.6,70.02-3.07,105.05-3.2,3.31-.1,6.4-.35,9.09-.93,5.64-1.13,9.34-3.94,10.82-8.17,1.88-5.22,1.32-12.35-.94-17.4-3.75-9.14-16.21-9.55-26.55-9.2-50.2,1.47-100.59.41-150.75.89-4.48.47-8.14,1.59-10.62,3.64l-.1.08Z"/><path class="cls-1" d="M6.58,59.77c-8.94,8.74-7.98,24.23-1.86,34.36,7.72,12.79,24.2,13.32,37.46,13.46,35.66.38,71.38-2.64,107.04-3.48,8.92-.21,17.84-.36,26.76-.42,7.35-.05,15.23,0,22-3.27,12.94-6.24,14.17-24.12,7.87-35.63-6.28-11.49-21-12.13-32.51-11.82-17.85.48-35.7.73-53.56.79-19.85.07-39.69-.02-59.54-.04-10.24,0-20.48,0-30.73.08-8.29.06-16.3.45-22.95,5.98-7.43,6.17,3.23,16.73,10.61,10.61-1.32,1.09,1-.42,1.35-.57,1.23-.5,2.75-.82,4.07-.96,3.22-.35,6.67-.06,9.9-.07,7.93-.05,15.86-.06,23.79-.06,14.55,0,29.1.06,43.65.07s29.11-.03,43.66-.21c13.07-.16,26.71-1.75,39.73-.47,2.95.29,6.93.8,8.98,3.24,2.43,2.89,3.38,11,1.03,14.1s-8.04,3.06-11.58,3.19c-7.53.26-15.09.14-22.63.27-29.75.54-59.45,2.08-89.19,3.19-7.93.3-15.86.53-23.8.52-6.71,0-13.82.35-20.38-1.31-5-1.26-8.11-3.48-9.69-8.41-1.25-3.9-2.12-9.37,1.1-12.52,6.91-6.76-3.7-17.36-10.61-10.61Z"/><path class="cls-3" d="M99.99,192.08c1.2-50.85.36-95.37,3.11-146.15.69-4.44,1.99-8.77,4.17-12.82,4.84-8.71,12.8-16.78,22.99-21.38,12.2-5.19,32.53-5.56,42.85,2.7,5.9,4.99,7.49,12.31,7.87,19.04.66,9.93-2.78,20.06-14.68,23.61-5.1,1.66-10.93,2.22-16.46,2.64-32.2,1.89-64.62,2.69-96.81.72-16.87-1.1-26.53-10.47-28.89-23.86-3.83-18.43,8.98-28.6,31.93-26.27,6,.57,11.91,2.15,16.83,5.04,15.37,9.73,23.02,28.57,29.23,43.24"/></g></svg>