<svg xmlns="http://www.w3.org/2000/svg" xmlns:xlink="http://www.w3.org/1999/xlink" width="62.902" height="65" viewBox="0 0 62.902 65"><defs><style>.a{fill:none;}.b{clip-path:url(#a);}.c{fill:#0094a8;}.d{fill:#84c12d;}</style><clipPath id="a"><rect class="a" width="62.902" height="65"/></clipPath></defs><g class="b"><path class="c" d="M48.859,29.588c1.767-9.595-1.333-19.254-9.4-25.044A24.9,24.9,0,0,0,14.47,2.386,25.954,25.954,0,0,0,.352,29.986C2.246,41.372,12.139,50.529,23.851,50.5c12.073-.033,22.579-9.241,25.008-20.909.372-1.787-2.37-2.55-2.743-.756A23.647,23.647,0,0,1,27.4,47.343C17.217,49.18,7.269,42.706,4.035,33.018A23.14,23.14,0,0,1,13.53,6.153a21.962,21.962,0,0,1,22.148-.627c8.444,4.641,12.152,14,10.438,23.306-.33,1.79,2.411,2.557,2.743.756" transform="translate(-0.001 0)"/><path class="c" d="M132.245,146.355c3.23,3.531,5.94,7.467,8.821,11.276,2.32,3.067,4.705,6.648,8.682,7.608a5.692,5.692,0,0,0,7.048-3.8,7.073,7.073,0,0,0-.276-5.655c-1.066-1.9-3.151-3.18-4.816-4.5-4.469-3.548-8.98-7.043-13.454-10.585-1.42-1.125-3.447.875-2.012,2.012,4.185,3.313,8.4,6.586,12.588,9.9q1.515,1.2,3.024,2.407c.965.773,2.156,1.593,2.475,2.864.37,1.477-.2,3.883-1.743,4.545-1.443.619-3.248-.178-4.434-1-1.944-1.352-3.378-3.571-4.782-5.433-2.968-3.938-5.776-8-9.11-11.646-1.238-1.354-3.246.662-2.012,2.012" transform="translate(-94.348 -100.436)"/><path class="c" d="M143.124,157.133a9.345,9.345,0,0,0,5.623-5.516,1.431,1.431,0,0,0-1.371-1.8c-1.914.036-3.432,1.719-4.853,2.826-.684.534-1.379,1.028-1.439,1.975a1.8,1.8,0,0,0,1.349,1.838c1.731.608,2.475-2.14.756-2.743l-.188-.066.85.653-.111-.182.194.718-.005-.218-.194.718c.245-.5,1.266-1.045,1.717-1.4.51-.4,1.268-1.266,1.924-1.278l-1.372-1.8a6.24,6.24,0,0,1-3.636,3.529c-1.707.622-.97,3.372.756,2.743" transform="translate(-100.945 -107.197)"/><path class="d" d="M34.946,69.874A25.46,25.46,0,0,1,38.1,66.906c.475-.393.955-.781,1.45-1.148.18-.133.369-.257.548-.393s.592-.22.131-.123l-1.1-.143a12.311,12.311,0,0,1,1.231,1.319c.6.673,1.177,1.356,1.758,2.042a1.438,1.438,0,0,0,2.234-.288A152.732,152.732,0,0,1,60.767,48.158c1.277-1.313-.733-3.327-2.012-2.012A157.073,157.073,0,0,0,41.9,66.735l2.234-.288c-1.107-1.308-3.139-4.831-5.207-3.71a18.851,18.851,0,0,0-2.837,2.157,25.44,25.44,0,0,0-3.152,2.968c-1.185,1.383.818,3.4,2.012,2.012" transform="translate(-23.307 -32.712)"/><path class="d" d="M85.1,49.075a31.716,31.716,0,0,0,5.71-.281c.906-.111,1.811-.235,2.718-.339.453-.052.907-.1,1.361-.14.32-.027,1.5.18.773-.174l-.653-.85a25.609,25.609,0,0,1,.562,5.209l.513,5.281c.176,1.806,3.022,1.824,2.845,0q-.324-3.336-.648-6.671c-.108-1.112-.21-2.224-.324-3.335-.081-.789-.132-1.613-.859-2.09a3.4,3.4,0,0,0-2.209-.214c-1.092.093-2.178.239-3.265.377a35.537,35.537,0,0,1-6.525.383c-1.829-.106-1.823,2.739,0,2.845" transform="translate(-59.914 -32.479)"/></g></svg>