<?xml version="1.0" encoding="UTF-8"?><svg id="Layer_1" xmlns="http://www.w3.org/2000/svg" viewBox="0 0 40 40"><defs><style>.cls-1{fill:#b8e650;}</style></defs><path id="Icon_awesome-github" class="cls-1" d="M14.69,29.55c0,.13-.15.23-.34.23-.21.02-.36-.08-.36-.23,0-.13.15-.23.34-.23.19-.02.36.08.36.23ZM12.68,29.26c-.05.13.08.28.28.32.15.07.32.01.4-.13.04-.13-.08-.28-.28-.34-.15-.05-.32,0-.4.15ZM15.54,29.15c-.19.05-.32.17-.3.32.02.13.19.21.38.17s.32-.17.3-.3-.19-.21-.38-.19h0ZM19.79,4.36c-8.57-.18-15.66,6.62-15.84,15.18,0,.2,0,.4,0,.6-.06,6.98,4.36,13.21,10.97,15.48.83.15,1.12-.36,1.12-.78s-.02-2.61-.02-3.97c0,0-4.53.97-5.48-1.93,0,0-.74-1.88-1.8-2.37,0,0-1.48-1.02.1-1,1.05.14,1.97.76,2.5,1.67,1.42,2.5,3.79,1.78,4.72,1.35.08-.82.45-1.59,1.04-2.18-3.62-.4-7.26-.93-7.26-7.15-.07-1.43.48-2.82,1.52-3.81-.49-1.43-.43-3,.17-4.39,1.35-.42,4.46,1.75,4.46,1.75,2.66-.73,5.47-.73,8.13,0,0,0,3.11-2.17,4.46-1.75.6,1.39.66,2.96.17,4.39,1.04,1.15,1.67,2.04,1.67,3.81,0,6.24-3.81,6.74-7.43,7.15.79.79,1.19,1.89,1.1,3,0,2.18-.02,4.88-.02,5.41,0,.42.3.93,1.12.78,6.59-2.26,10.97-8.5,10.85-15.47,0-8.97-7.28-15.78-16.25-15.78ZM10.24,26.67c-.08.06-.06.21.05.34.1.1.25.15.34.06.08-.06.06-.21-.05-.34-.1-.1-.25-.15-.34-.06ZM9.54,26.14c-.05.08.02.19.15.25.08.07.2.05.27-.03,0,0,0,0,0-.01.05-.08-.02-.19-.15-.25-.13-.04-.23-.02-.28.05h0ZM11.64,28.45c-.1.08-.06.28.08.4.15.15.34.17.42.06.08-.08.05-.28-.08-.4-.14-.15-.33-.17-.42-.06h0ZM10.9,27.5c-.1.06-.1.23,0,.38s.28.21.36.15c.1-.11.1-.29,0-.4-.09-.15-.26-.21-.36-.13Z"/></svg>