<svg xmlns="http://www.w3.org/2000/svg" xmlns:xlink="http://www.w3.org/1999/xlink" width="259.529" height="233.852" viewBox="0 0 259.529 233.852"><defs><style>.a{fill:#c9f24e;}.b{clip-path:url(#a);}</style><clipPath id="a"><rect class="a" width="241.834" height="213.587" transform="translate(-3 -5.213)"/></clipPath></defs><g transform="matrix(0.996, -0.087, 0.087, 0.996, 3.443, 26.009)"><g class="b"><path class="a" d="M102.874,62.547c9.209-16.047,29.194-29.241,48.314-23.608,24.491,7.215,11.593,35.888,3.556,50.828-8.383,15.581-17.817,30.81-30.327,43.446-5.521,5.576-11.529,11.015-17.489,16.13-8.267,7.094-15.055,7.759-24.227,1.544-14.357-9.725-26.653-25.4-35.719-39.994S30.2,76.807,29.831,59.408c-.372-17.431,12.41-28.847,29.547-28.7,18.867.165,30,15.417,36.495,31.442,1.922,4.745,9.723,2.671,7.773-2.143C97.167,44.024,87.1,28.242,69.281,23.881c-13.489-3.3-29.257.056-38.929,10.4-13.536,14.478-8.251,35.968-2.8,52.783C34.529,108.6,46.654,126.6,62.01,143.129c11.625,12.512,28.52,27.814,45.6,15.911,8.014-5.583,15.639-13.2,22.5-20.126a158.875,158.875,0,0,0,20.206-25.627c12.223-18.886,38.961-58.918,12.161-77.8-22.915-16.146-54.5,1.964-66.567,22.994-2.587,4.507,4.375,8.571,6.959,4.068" transform="translate(12.377 12.863)"/><path class="a" d="M109.8,26.579A48.264,48.264,0,0,0,120.974,5.032c1.141-5.051-6.628-7.208-7.771-2.143a39.844,39.844,0,0,1-9.1,17.989c-3.43,3.871,2.25,9.591,5.7,5.7" transform="translate(58.497 0)"/><path class="a" d="M125.719,36.583a254.483,254.483,0,0,0,25.734-19.651c3.922-3.408-1.8-9.09-5.7-5.7a238.643,238.643,0,0,1-24.1,18.391c-4.294,2.864-.263,9.848,4.068,6.959" transform="translate(68.022 5.786)"/><path class="a" d="M131.215,48.316q13.261.259,26.468-.8c5.134-.414,5.18-8.478,0-8.061q-13.22,1.065-26.468.806c-5.189-.1-5.189,7.958,0,8.06" transform="translate(72.283 22.388)"/><path class="a" d="M32.466,80.2,3.887,79.108c-5.188-.2-5.178,7.864,0,8.061l28.579,1.086c5.188.2,5.18-7.862,0-8.06" transform="translate(0 44.909)"/><path class="a" d="M36.66,95.578a67.817,67.817,0,0,0-23.3,7.252c-4.593,2.414-.524,9.375,4.068,6.961a56.681,56.681,0,0,1,19.231-6.153c5.076-.646,5.141-8.715,0-8.06" transform="translate(6.44 54.239)"/><path class="a" d="M40.732,109.966a198.864,198.864,0,0,0-9.9,26.146c-1.488,4.982,6.288,7.11,7.773,2.143a183.98,183.98,0,0,1,9.085-24.221c2.151-4.681-4.794-8.781-6.959-4.068" transform="translate(17.397 61.244)"/></g></g></svg>