<?xml version="1.0" encoding="UTF-8"?><svg id="Layer_2" xmlns="http://www.w3.org/2000/svg" viewBox="0 0 162.29 152.81"><defs><style>.cls-1{fill:#bbe048;}.cls-2{fill:#0094a8;}</style></defs><g id="Layer_1-2"><path class="cls-1" d="M.03,55.64c1.59,16.11,2.13,32.28,2.2,48.46.03,7.77-.04,15.54-.14,23.31-.08,6.1-.7,13.28,3.69,18.2,4.04,4.52,10.15,5.24,15.84,5.74,7.71.68,15.46.93,23.19,1.07,16.28.28,32.56.28,48.84.36,11.23.05,25.96,1.07,27.64-13.56,1.76-15.32,1.28-31.19,1.61-46.59.17-7.78.32-15.55.54-23.33.17-6.39,1.54-14.2-1.9-20.03-2.97-5.04-8.71-6.29-14.13-6.6-8.39-.48-16.89-.19-25.3-.27-18.57-.19-37.14-.37-55.71-.53C15.76,41.78-.1,40.79.03,55.64c.06,6.43,10.06,6.45,10,0-.03-3.66,3.13-3.69,6.21-3.81,6.35-.25,12.77.06,19.13.12,13.26.12,26.53.25,39.79.38,6.3.06,12.6.13,18.9.19,3.31.03,6.63.06,9.94.1,2.48.03,7.16-.5,8.91,1.7,2.42,3.04.63,11.51.53,14.98-.19,7.13-.34,14.25-.49,21.38-.28,12.95-.56,25.91-1.15,38.85-.21,4.64,1.2,11.7-4.55,13.01-5.43,1.24-11.97.24-17.52.21-13.07-.06-26.14-.14-39.2-.27-6.1-.06-12.19-.17-18.29-.45-5.06-.24-12.28.43-16.94-1.77-5.49-2.6-3.2-13.71-3.15-18.67.07-7.13.11-14.26.05-21.39-.13-14.88-.71-29.75-2.17-44.57-.63-6.35-10.63-6.41-10,0Z"/><path class="cls-2" d="M24.79,84.7c10.53,14.2,19.35,29.5,26.36,45.74,2.18,5.04,10.68,4.77,12.95,0,5.98-12.57,10.21-25.92,16.9-38.15,5.86-10.72,13.14-20.52,21.34-29.56,16.71-18.42,36.52-33.68,56.26-48.67,3.25-2.47,4.87-6.44,2.69-10.26-1.82-3.2-7.04-5.13-10.26-2.69-20.76,15.75-41.71,31.66-59.3,51.01-8.67,9.54-16.58,19.94-22.91,31.19-7.1,12.64-11.46,26.5-17.67,39.56h12.95c-7.01-16.24-15.82-31.53-26.36-45.74-2.43-3.28-6.47-4.85-10.26-2.69-3.23,1.84-5.1,7.02-2.69,10.26h0Z"/></g></svg>