<?xml version="1.0" encoding="UTF-8"?><svg id="Layer_2" xmlns="http://www.w3.org/2000/svg" viewBox="0 0 243.81 244.38"><defs><style>.cls-1{fill:#bbe048;}.cls-2{fill:#0094a8;}</style></defs><g id="Layer_1-2"><path class="cls-1" d="M112.03,202.1c-.61,14.04-4.12,32.54-20.5,35.94-7.8,1.62-16.12-1.59-23.2-4.59-7.43-3.15-14.84-6.52-21.76-10.68-12.39-7.45-22.29-18.3-28.41-31.42-5.56-11.9-8.99-26.96-4.3-39.68,3.08-8.37,9.31-13.39,17.64-16.04,7.29-2.31,13.87-4.19,19.81-9.28,2.91-2.5-1.31-6.69-4.21-4.21-6.93,5.94-15.88,6.46-23.83,10.32-6.61,3.21-11.47,8.87-14.34,15.58-6,14.04-2.75,30.69,3.14,44.21,6.49,14.9,17.58,27.29,31.49,35.65,8,4.81,16.66,8.71,25.32,12.17,7.56,3.02,16.06,5.47,24.22,3.7,19.14-4.15,24.13-24.87,24.87-41.68.17-3.83-5.78-3.82-5.95,0h0Z"/><path class="cls-1" d="M202.11,133.09c13.93.9,31.7,4.65,35.32,20.62,1.78,7.85-1.68,16.38-4.83,23.43s-6.67,14.38-10.81,21.09c-7.65,12.41-18.63,22.18-31.91,28.23-12.38,5.63-28.42,8.97-41.33,3.27-7.81-3.45-12.29-9.52-14.67-17.6-2.16-7.34-3.92-13.94-8.88-19.98-2.43-2.96-6.62,1.27-4.21,4.21,5.79,7.05,6.08,16.04,9.8,24.05,3.09,6.66,8.64,11.66,15.3,14.64,14.11,6.32,31.09,3.31,44.85-2.52,15.11-6.39,27.58-17.37,36.19-31.29,4.89-7.91,9.02-16.51,12.55-25.11,3.07-7.48,5.54-15.89,3.69-23.99-4.28-18.77-24.44-23.91-41.06-24.99-3.82-.25-3.81,5.7,0,5.95h0Z"/><path class="cls-1" d="M137.97,41.89c.8-13.84,4.4-31.86,20.36-35.47,7.87-1.78,16.35,1.52,23.46,4.65s14.42,6.57,21.17,10.67c12.45,7.56,22.34,18.46,28.45,31.71,5.7,12.36,9.17,28.33,3.57,41.31-3.38,7.84-9.42,12.37-17.49,14.8-7.32,2.21-13.92,4.01-19.93,9.01-2.95,2.45,1.28,6.64,4.21,4.21,7.01-5.84,15.99-6.2,23.98-9.97,6.64-3.13,11.6-8.72,14.54-15.39,6.13-13.89,3.21-30.57-2.49-44.11-6.48-15.37-17.62-28.05-31.84-36.71-7.95-4.84-16.57-8.89-25.2-12.38-7.48-3.03-15.94-5.43-24.02-3.53-18.74,4.39-23.77,24.59-24.73,41.21-.22,3.83,5.73,3.81,5.95,0h0Z"/><path class="cls-1" d="M41.8,113.52c-13.93-.85-31.72-4.52-35.4-20.48-1.81-7.83,1.6-16.39,4.73-23.45s6.62-14.4,10.74-21.13c7.6-12.42,18.54-22.28,31.81-28.35,12.38-5.66,28.36-9.08,41.32-3.43,7.82,3.41,12.33,9.47,14.74,17.54,2.19,7.33,3.97,13.93,8.95,19.96,2.44,2.95,6.63-1.28,4.21-4.21-5.82-7.03-6.15-16.01-9.89-24.02-3.11-6.65-8.68-11.62-15.35-14.58-13.88-6.17-30.56-3.31-44.11,2.36-15.4,6.44-28.1,17.53-36.81,31.73-4.87,7.94-8.94,16.54-12.46,25.16-3.05,7.48-5.48,15.92-3.61,24.01,4.34,18.75,24.52,23.84,41.14,24.85,3.82.23,3.81-5.72,0-5.95h0Z"/><path class="cls-1" d="M84.54,41.45c4.69,13.22,10.36,24.57,16.92,36.75,11.64-4.92,24.58-4.42,36.86-2.1,1.26.24,2.66.46,3.71-.34.72-.55,1.12-1.47,1.49-2.36,5.08-12.2,9.8-24.59,14.14-37.14-15.22-4.19-30.96-6.04-46.64-5.48-9.44.34-19.28,1.72-27.12,7.61l.63,3.05Z"/><path class="cls-1" d="M81.26,42.36c4.69,13.01,10.73,25.39,17.26,37.56.64,1.2,2.5,2.1,3.84,1.56,7.56-3.01,15.42-4.02,23.53-3.56,3.88.22,7.69.85,11.52,1.46,2.35.37,4.65.58,6.68-.95,2.27-1.71,3.14-5.14,4.15-7.61,1.43-3.5,2.84-7.01,4.21-10.53,2.98-7.65,5.8-15.36,8.5-23.11.6-1.73-.69-3.73-2.37-4.18-13.66-3.67-27.74-5.68-41.9-5.7-11.97-.02-24.44,1.04-34.48,8.18-1.31.93-1.89,2.25-1.56,3.84l.63,3.05c.89,4.28,7.45,2.47,6.56-1.81l-.63-3.05-1.56,3.84c9.62-6.84,21.5-7.39,32.93-7.24,12.94.17,25.72,2.08,38.21,5.44l-2.37-4.18c-2.28,6.56-4.65,13.09-7.13,19.58-1.24,3.24-2.5,6.47-3.79,9.69-.58,1.45-1.08,2.98-1.77,4.38-.24,1.1-.77,2.03-1.59,2.78-.52,1.22-1.4,1.46-2.63.72-2.49.14-5.5-.86-8-1.1-3.55-.35-7.13-.5-10.7-.33-6.27.3-12.37,1.52-18.21,3.85l3.84,1.56c-6.26-11.66-12.08-23.48-16.57-35.94-1.47-4.09-8.05-2.32-6.56,1.81Z"/><path class="cls-1" d="M209.51,87.83c-14.27,3.94-26.61,8.96-39.89,14.83,4.6,11.9,3.38,24.8.27,36.92-.32,1.24-.63,2.63.17,3.73.54.75,1.5,1.2,2.42,1.62,12.68,5.76,25.57,11.17,38.65,16.21,5.26-14.97,8.05-30.58,8.28-46.26.14-9.45-.8-19.35-6.64-27.51l-3.27.46Z"/><path class="cls-1" d="M208.58,84.45c-14,3.93-27.43,9.33-40.72,15.18-1.31.58-2.09,2.63-1.61,3.96,2.78,7.67,3.42,15.59,2.48,23.67-.47,4.1-1.63,7.98-2.35,12.02-.42,2.36-.38,4.57,1.21,6.5,1.96,2.38,5.63,3.3,8.33,4.5,4.06,1.8,8.13,3.57,12.22,5.3,7.31,3.09,14.67,6.07,22.07,8.93,1.84.71,3.75-.81,4.31-2.45,4.62-13.42,7.44-27.37,8.21-41.55.66-12.08.05-24.59-6.93-34.92-.97-1.44-2.31-1.84-3.96-1.61l-3.27.46c-4.45.63-2.56,7.38,1.86,6.76l3.27-.46-3.96-1.61c6.65,9.85,6.62,21.81,5.86,33.26-.87,12.92-3.64,25.58-7.85,37.81l4.31-2.45c-6.53-2.53-13.03-5.13-19.48-7.84-3.82-1.6-7.61-3.24-11.4-4.91-2.67-1.18-7.57-2.26-7.7-5.36-.12-2.94,1.47-6.7,1.9-9.67s.71-5.94.76-8.94c.12-6.6-.9-13.1-3.15-19.31l-1.61,3.96c12.74-5.61,25.63-10.7,39.05-14.47,4.34-1.22,2.49-7.98-1.86-6.76Z"/><path class="cls-1" d="M157.03,205.45c-4.68-13.68-10.34-25.42-16.89-38.04-11.65,5.08-24.59,4.55-36.86,2.14-1.26-.25-2.66-.48-3.71.35-.72.57-1.12,1.52-1.49,2.44-5.09,12.62-9.81,25.44-14.17,38.42,15.22,4.35,30.96,6.27,46.63,5.7,9.44-.35,19.28-1.77,27.12-7.86l-.63-3.15Z"/><path class="cls-1" d="M160.36,204.53c-4.67-13.43-10.71-26.25-17.24-38.86-.63-1.22-2.56-2.14-3.91-1.59-7.54,3.1-15.39,4.15-23.52,3.66-3.88-.23-7.67-.89-11.5-1.52-2.37-.39-4.69-.59-6.73.97-2.3,1.76-3.17,5.31-4.17,7.84-1.44,3.62-2.84,7.25-4.21,10.9-2.98,7.92-5.81,15.89-8.51,23.91-.6,1.78.69,3.77,2.42,4.25,13.64,3.81,27.73,5.89,41.91,5.92,12.02.02,24.53-1.1,34.51-8.43,1.33-.98,1.92-2.26,1.59-3.91l-.63-3.15c-.87-4.36-7.54-2.52-6.67,1.84l.63,3.15,1.59-3.91c-9.56,7.03-21.43,7.64-32.9,7.47-12.95-.18-25.72-2.18-38.19-5.66l2.42,4.25c2.29-6.79,4.66-13.54,7.15-20.26,1.24-3.35,2.51-6.69,3.8-10.02.58-1.5,1.09-3.07,1.78-4.53.25-1.12.77-2.08,1.56-2.9.47-1.28,1.34-1.54,2.59-.76,2.5-.15,5.48.88,8.01,1.14,3.55.37,7.13.52,10.7.35,6.29-.3,12.4-1.57,18.22-3.97l-3.91-1.59c6.26,12.09,12.07,24.34,16.54,37.21,1.45,4.18,8.14,2.38,6.67-1.84Z"/><path class="cls-1" d="M40.31,160.46c14.66-4.89,27.23-10.72,40.72-17.46-5.63-11.57-5.25-24.51-2.83-36.82.25-1.26.48-2.67-.43-3.71-.62-.71-1.66-1.1-2.64-1.45-13.66-4.9-27.53-9.43-41.57-13.59-4.47,15.28-6.32,31.05-5.48,46.71.51,9.44,2.17,19.26,8.84,27l3.39-.68Z"/><path class="cls-1" d="M41.27,163.92c14.33-4.84,28.06-11.08,41.58-17.82,1.85-.92,2.05-3.25,1.29-4.91-3.36-7.29-4.35-15.17-3.9-23.13.29-5.16,4.09-14.18-.28-18.4-2.27-2.19-6.34-2.98-9.22-3.99-3.88-1.36-7.77-2.69-11.68-3.98-8.14-2.7-16.32-5.26-24.54-7.71-1.87-.56-3.89.67-4.42,2.51-3.98,13.96-6.06,28.44-5.78,42.97.24,12.37,2.04,24.39,10.06,34.24.83,1.01,2.32,1.16,3.49.92l3.39-.68c4.53-.91,2.61-7.83-1.91-6.92l-3.39.68,3.49.92c-7.48-9.18-8.07-21.58-7.98-32.93.1-12.66,2.07-25.13,5.54-37.29l-4.42,2.51c7.31,2.17,14.59,4.44,21.83,6.82,3.61,1.18,7.21,2.4,10.8,3.63,2.7.93,8.93,1.95,9.35,4.73.38,2.52-1.1,6.83-1.34,9.43-.31,3.4-.41,6.81-.19,10.22.43,6.7,2.06,13,4.87,19.1l1.29-4.91c-12.98,6.47-26.12,12.45-39.86,17.1-4.35,1.47-2.49,8.41,1.91,6.92Z"/><path class="cls-2" d="M132.15,83.1c34.84,7.55,43.5,58.09,12.43,76.33-15.45,9.07-35.91,6.05-48.83-6.09-12.5-11.75-15.43-29.97-8.07-45.32,7.85-16.37,25.86-28.76,44.48-24.92,5.61,1.16,8-7.44,2.37-8.61-42.51-8.78-76.83,44.8-50.22,79.42,12.74,16.58,35.75,23.92,55.68,17.31,20.61-6.84,34.22-27.56,32.93-49.16s-16.27-42.78-38.39-47.57c-5.6-1.21-7.99,7.39-2.37,8.61Z"/><path class="cls-2" d="M143.27,29.01c37.83,7.49,66.43,38.12,74.58,75.41,8.72,39.9-10.52,81.11-46.53,100.4-36.57,19.59-84.39,13.02-115.37-14.19-29.76-26.13-38.26-67.86-20.87-103.48,19.34-39.61,63.71-66.91,108.19-58.14,7.48,1.47,10.68-9.99,3.16-11.48-44.91-8.85-89.87,13.71-114.59,51.28-11.69,17.77-18.72,39.19-17.91,60.58.81,21.45,9.06,42.05,22.73,58.5,29.2,35.13,80.32,48.63,123.43,34.56,44.13-14.41,74.76-57.97,71.6-104.55S194,26.95,146.43,17.53c-7.48-1.48-10.68,9.99-3.16,11.48Z"/></g></svg>