<?xml version="1.0" encoding="UTF-8"?>
<svg id="Layer_1" xmlns="http://www.w3.org/2000/svg" version="1.1" viewBox="0 0 40 40">
  <!-- Generator: Adobe Illustrator 29.5.1, SVG Export Plug-In . SVG Version: 2.1.0 Build 141)  -->
  <defs>
    <style>
      .st0 {
        fill: #bbe048;
      }
    </style>
  </defs>
  <path class="st0" d="M20,11.7c-4.6,0-8.3,3.7-8.3,8.3s3.7,8.3,8.3,8.3,8.3-3.7,8.3-8.3-3.7-8.3-8.3-8.3ZM20,25.4c-3,0-5.4-2.4-5.4-5.4s2.4-5.4,5.4-5.4,5.4,2.4,5.4,5.4-2.4,5.4-5.4,5.4h0ZM30.6,11.3c0,1.1-.9,1.9-1.9,1.9s-1.9-.9-1.9-1.9.9-1.9,1.9-1.9,1.9.9,1.9,1.9ZM36.1,13.3c-.1-2.6-.7-4.9-2.6-6.8-1.9-1.9-4.2-2.5-6.8-2.6-2.7-.2-10.7-.2-13.4,0-2.6.1-4.9.7-6.8,2.6s-2.5,4.2-2.6,6.8c-.2,2.7-.2,10.7,0,13.4.1,2.6.7,4.9,2.6,6.8,1.9,1.9,4.2,2.5,6.8,2.6,2.7.2,10.7.2,13.4,0,2.6-.1,4.9-.7,6.8-2.6,1.9-1.9,2.5-4.2,2.6-6.8.2-2.7.2-10.7,0-13.4h0ZM32.6,29.6c-.6,1.4-1.7,2.5-3.1,3.1-2.1.8-7.2.7-9.6.7s-7.4.2-9.6-.7c-1.4-.6-2.5-1.7-3.1-3.1-.8-2.1-.7-7.2-.7-9.6s-.2-7.4.7-9.6c.6-1.4,1.7-2.5,3.1-3.1,2.1-.8,7.2-.7,9.6-.7s7.4-.2,9.6.7c1.4.6,2.5,1.7,3.1,3.1.8,2.1.7,7.2.7,9.6s.2,7.4-.7,9.6Z"/>
</svg>