<svg xmlns="http://www.w3.org/2000/svg" xmlns:xlink="http://www.w3.org/1999/xlink" width="69.109" height="90.433" viewBox="0 0 69.109 90.433"><defs><style>.a,.e{fill:none;}.b{clip-path:url(#a);}.c{fill:#0094a8;}.d{fill:#84c12d;}.e{stroke:#84c12d;stroke-miterlimit:10;stroke-width:2px;}</style><clipPath id="a"><rect class="a" width="69.109" height="90.433"/></clipPath></defs><g class="b"><path class="c" d="M65.9,71.639c.169,3.378.562,7.456-1.022,10.587-1.484,2.932-4.895,3.52-7.887,3.6-7.778.217-15.541.913-23.321,1.248-7.9.34-16.177.8-24.01-.576-2.351-.412-5.739-.826-6.3-3.594-.443-2.181-.086-4.658-.116-6.877-.047-3.566-.02-7.134-.036-10.7C3.15,51.888,3.055,38.446,3.119,25q.022-4.526.069-9.051c.029-2.656-.221-5.518.427-8.121.586-2.356,1.9-3.745,4.366-3.978,3.2-.3,6.43-.41,9.642-.526,12.929-.463,25.9-.251,38.838-.21,1.837.006,4.123-.016,5.667,1.148,1.088.82,1.28,1.98,1.5,3.248.331,1.887.561,3.789.723,5.7A165.582,165.582,0,0,1,64.514,31.9c-.38,13.3.6,26.465,1.386,39.734.117,1.981,3.215,1.994,3.1,0-.737-12.46-1.789-24.9-1.452-37.387a189.032,189.032,0,0,0-.1-21.041c-.415-4.9-.425-10.965-6-12.632A22.828,22.828,0,0,0,54.715.034c-3.626.029-7.252.02-10.878,0C36.575.008,29.313-.055,22.053.1c-3.489.076-6.977.2-10.46.409C8.926.672,5.9.491,3.635,2.143-.339,5.043.15,10.808.1,15.129-.067,29.8.012,44.482.083,59.158.116,65.931.322,72.734.155,79.5c-.1,4.028.55,7.337,4.568,8.905a34.082,34.082,0,0,0,9.9,1.756c4.449.319,8.921.307,13.378.2,8.68-.2,17.315-1.025,25.982-1.422,3.88-.178,7.988.156,11.248-2.385,2.608-2.033,3.465-5.235,3.753-8.393A46.347,46.347,0,0,0,69,71.639c-.1-1.983-3.2-2-3.1,0" transform="translate(0 0)"/><path class="d" d="M41.679,25.721q6.948.126,13.9.237,3.449.058,6.9.119c2.3.041,4.615.014,6.912.138a5.159,5.159,0,0,1,2.375.567,1.945,1.945,0,0,0,.329.206c.118.039-.154-.167.009.009.051.056.109.113.164.166.183.173-.059-.12.05.059.1.155.2.3.28.467.045.088.086.177.128.266.062.131-.068-.172-.013-.034.024.062.049.123.073.186a10.757,10.757,0,0,1,.417,1.445,20.881,20.881,0,0,1,.455,3.438c.09,1.319.115,2.641.1,3.962q-.021,1.879-.152,3.755-.057.818-.139,1.634-.034.338-.074.675c-.012.1-.026.208-.038.311-.024.191,0-.025.007-.053-.01.07-.019.14-.03.21a6.126,6.126,0,0,1-.953,2.842,4.636,4.636,0,0,1-3.283,1.559c-2.24.237-4.521.281-6.772.353q-3.4.109-6.806.093t-6.806-.144q-1.724-.065-3.446-.158a7.685,7.685,0,0,1-2.647-.34,2.088,2.088,0,0,1-1.1-1.12,5.2,5.2,0,0,1-.369-1.715c-.132-2.156-.146-4.327-.221-6.487-.081-2.306-.161-4.613-.227-6.919-.028-.994-.093-2-.05-2.991a3.918,3.918,0,0,1,.388-1.716A2.923,2.923,0,0,1,42.47,25.59a1.04,1.04,0,0,0,.37-1.413,1.058,1.058,0,0,0-1.412-.37,4.691,4.691,0,0,0-2.792,3.941,19.357,19.357,0,0,0-.031,2.887q.05,1.832.111,3.663c.079,2.408.166,4.816.249,7.224.038,1.11.044,2.225.111,3.333a7.425,7.425,0,0,0,.453,2.3,4.506,4.506,0,0,0,3.911,2.833c2.412.246,4.876.262,7.3.33,4.874.136,9.753.1,14.623-.139,1.969-.1,4.152-.007,6.021-.725A5.747,5.747,0,0,0,74.7,46.391a11.9,11.9,0,0,0,.752-3.375c.138-1.157.224-2.32.284-3.483a48.3,48.3,0,0,0-.182-8.28,16.764,16.764,0,0,0-.728-3.541,4.768,4.768,0,0,0-1.65-2.476c-1.7-1.155-3.789-1.094-5.763-1.132q-3.705-.072-7.411-.135-7.309-.127-14.617-.247l-3.706-.065a1.033,1.033,0,0,0,0,2.065" transform="translate(-22.64 -13.888)"/><path class="d" d="M45.5,106.506a10.324,10.324,0,0,0-2.613.165,3.69,3.69,0,0,0-2.213,1.4,4.018,4.018,0,0,0-.636,1.751,4.894,4.894,0,0,0,2.337,4.957,3.469,3.469,0,0,0,4.656-1.763,6.487,6.487,0,0,0,.351-1.464,7.689,7.689,0,0,0,.01-2.906,2.915,2.915,0,0,0-1.684-2.139,3.826,3.826,0,0,0-1.759-.045" transform="translate(-23.475 -62.453)"/><path class="d" d="M45.5,137.923a10.324,10.324,0,0,0-2.613.165,3.69,3.69,0,0,0-2.213,1.4,4.019,4.019,0,0,0-.636,1.751,4.894,4.894,0,0,0,2.337,4.957,3.469,3.469,0,0,0,4.656-1.763,6.487,6.487,0,0,0,.351-1.464,7.689,7.689,0,0,0,.01-2.906,2.916,2.916,0,0,0-1.684-2.139,3.826,3.826,0,0,0-1.759-.045" transform="translate(-23.475 -80.896)"/><path class="d" d="M73.518,115.964l22.4-.777c1.325-.046,1.331-2.111,0-2.065l-22.4.777c-1.325.046-1.331,2.111,0,2.065" transform="translate(-42.574 -66.408)"/><path class="d" d="M74.426,147.344H94.615a1.033,1.033,0,0,0,0-2.065H74.426a1.033,1.033,0,0,0,0,2.065" transform="translate(-43.106 -85.286)"/><path class="d" d="M80.047,42.761l.456-.634a.191.191,0,0,1,.178-.1.83.83,0,0,1,.634.733,1.253,1.253,0,0,1-.3.6,25.811,25.811,0,0,0-1.943,3.509,13.835,13.835,0,0,0-1.229,4.222c0,.337.08.515.278.515a1.947,1.947,0,0,0,.991-.634,27.759,27.759,0,0,0,2.834-3.449c.3-.4.456-.793.634-.793.159,0,.278.218.278.476a1.416,1.416,0,0,1-.179.515,17.17,17.17,0,0,1-3.271,4.1,1.838,1.838,0,0,1-1.031.535c-.753,0-1.427-.674-1.427-1.784a10.53,10.53,0,0,1,.991-3.628,39.944,39.944,0,0,1-3.053,3.727c-1.091,1.15-3.291,3.151-4.222,3.151A1.87,1.87,0,0,1,69.045,51.9,14.18,14.18,0,0,1,71.4,45.656c2.7-4.242,5-5.63,6.007-5.63a2.5,2.5,0,0,1,2.042,1.467,9.015,9.015,0,0,1,.595,1.269M71.78,52.317c2.2-1.725,5.769-6.264,7.593-8.663a6.078,6.078,0,0,0-.476-1.645,1.743,1.743,0,0,0-1.248-1.051c-.872,0-3.093,1.646-5.412,5.293-1.348,2.121-2.339,4.7-2.339,5.967,0,.416.139.793.515.793a2.66,2.66,0,0,0,1.368-.694" transform="translate(-40.533 -23.497)"/><path class="e" d="M80.047,42.761l.456-.634a.191.191,0,0,1,.178-.1.83.83,0,0,1,.634.733,1.253,1.253,0,0,1-.3.6,25.811,25.811,0,0,0-1.943,3.509,13.835,13.835,0,0,0-1.229,4.222c0,.337.08.515.278.515a1.947,1.947,0,0,0,.991-.634,27.759,27.759,0,0,0,2.834-3.449c.3-.4.456-.793.634-.793.159,0,.278.218.278.476a1.416,1.416,0,0,1-.179.515,17.17,17.17,0,0,1-3.271,4.1,1.838,1.838,0,0,1-1.031.535c-.753,0-1.427-.674-1.427-1.784a10.53,10.53,0,0,1,.991-3.628,39.944,39.944,0,0,1-3.053,3.727c-1.091,1.15-3.291,3.151-4.222,3.151A1.87,1.87,0,0,1,69.045,51.9,14.18,14.18,0,0,1,71.4,45.656c2.7-4.242,5-5.63,6.007-5.63a2.5,2.5,0,0,1,2.042,1.467A9.015,9.015,0,0,1,80.047,42.761ZM71.78,52.317c2.2-1.725,5.769-6.264,7.593-8.663a6.078,6.078,0,0,0-.476-1.645,1.743,1.743,0,0,0-1.248-1.051c-.872,0-3.093,1.646-5.412,5.293-1.348,2.121-2.339,4.7-2.339,5.967,0,.416.139.793.515.793A2.66,2.66,0,0,0,71.78,52.317Z" transform="translate(-40.533 -23.497)"/><path class="d" d="M73.987,177.233H94.176a1.033,1.033,0,0,0,0-2.065H73.987a1.033,1.033,0,0,0,0,2.065" transform="translate(-42.849 -102.832)"/><path class="d" d="M45.5,168.59a10.324,10.324,0,0,0-2.613.165,3.69,3.69,0,0,0-2.213,1.4,4.019,4.019,0,0,0-.636,1.751,4.894,4.894,0,0,0,2.337,4.957,3.469,3.469,0,0,0,4.656-1.763,6.487,6.487,0,0,0,.351-1.464,7.689,7.689,0,0,0,.01-2.906,2.916,2.916,0,0,0-1.684-2.139,3.826,3.826,0,0,0-1.759-.045" transform="translate(-23.475 -98.899)"/></g></svg>