<svg xmlns="http://www.w3.org/2000/svg" xmlns:xlink="http://www.w3.org/1999/xlink" width="100.574" height="94.698" viewBox="0 0 100.574 94.698"><defs><style>.a{fill:none;}.b{clip-path:url(#a);}.c{fill:#bbe048;}</style><clipPath id="a"><rect class="a" width="100.574" height="94.699"/></clipPath></defs><g class="b"><path class="c" d="M.018,50.385C1,60.367,1.339,70.391,1.38,80.418c.019,4.815-.025,9.63-.085,14.445-.047,3.778-.431,8.232,2.288,11.28,2.5,2.8,6.288,3.247,9.818,3.56,4.777.424,9.581.578,14.375.66,10.088.175,20.181.175,30.269.221,6.958.031,16.087.666,17.132-8.4,1.094-9.492.791-19.327,1-28.871.1-4.819.2-9.637.332-14.456.108-3.962.952-8.8-1.177-12.413-1.839-3.122-5.4-3.9-8.755-4.088-5.2-.294-10.47-.118-15.678-.17q-17.262-.172-34.523-.329C9.765,41.8-.063,41.184.018,50.385c.035,3.986,6.233,4,6.2,0-.02-2.267,1.938-2.286,3.85-2.36,3.937-.152,7.915.04,11.855.076q12.33.112,24.66.237l11.712.117c2.054.02,4.108.034,6.162.061,1.536.02,4.435-.312,5.523,1.054,1.5,1.883.389,7.135.331,9.285-.121,4.416-.212,8.834-.306,13.25-.171,8.027-.347,16.055-.711,24.076-.131,2.875.743,7.253-2.818,8.064-3.368.767-7.416.146-10.856.13q-12.149-.057-24.3-.165c-3.778-.038-7.558-.105-11.332-.281-3.136-.146-7.609.269-10.5-1.1-3.4-1.609-1.984-8.5-1.952-11.573.045-4.417.067-8.835.028-13.253-.081-9.223-.44-18.439-1.347-27.621-.389-3.932-6.59-3.972-6.2,0" transform="translate(0 -15.906)"/><path class="c" d="M24.378,52.492A141.9,141.9,0,0,1,40.713,80.837c1.349,3.127,6.621,2.957,8.027,0,3.705-7.789,6.326-16.063,10.47-23.645a95.611,95.611,0,0,1,13.226-18.32C82.793,27.456,95.067,18,107.3,8.711c2.015-1.529,3.016-3.99,1.668-6.36C107.843.37,104.606-.83,102.611.684,89.748,10.448,76.761,20.3,65.863,32.3a106.879,106.879,0,0,0-14.2,19.33c-4.4,7.835-7.1,16.425-10.954,24.516h8.027A141.9,141.9,0,0,0,32.405,47.8c-1.507-2.031-4.008-3.006-6.359-1.667-2,1.138-3.159,4.348-1.668,6.359" transform="translate(-9.013 0)"/></g></svg>