<?xml version="1.0" encoding="UTF-8"?><svg id="Layer_2" xmlns="http://www.w3.org/2000/svg" viewBox="0 0 165.52 173.67"><defs><style>.cls-1{fill:#bbe048;}.cls-2{fill:#0094a8;}</style></defs><g id="Layer_1-2"><path class="cls-2" d="M77.26,7.18c-3.41,36.49,2.62,73.03-1.38,109.5-.44,4.03,3.76,7.5,7.5,7.5,4.42,0,7.06-3.46,7.5-7.5,4-36.47-2.03-73,1.38-109.5.9-9.61-14.11-9.55-15,0h0Z"/><path class="cls-2" d="M33.99,77.37c8.39,8.89,16.78,17.77,25.17,26.66,4.31,4.56,8.62,9.13,12.93,13.69,3.82,4.05,7.93,9.27,14.22,7.43,4.61-1.35,8.58-6.36,11.78-9.72,3.7-3.88,7.16-7.98,10.57-12.12,6.96-8.44,13.91-16.75,22.19-23.94,7.3-6.34-3.34-16.91-10.61-10.61-7.65,6.64-14.2,14.22-20.62,22.03-3.01,3.66-6.02,7.32-9.19,10.84-1.56,1.73-3.16,3.44-4.81,5.09-1.07,1.08-2.16,2.14-3.28,3.17-1.19,1.11-3.74,2.14-.5.95h3.99c1.43,1,1.29.71-.43-.86l-2.72-2.88-5.44-5.76c-3.63-3.84-7.26-7.68-10.88-11.53-7.26-7.68-14.51-15.37-21.77-23.05-6.64-7.03-17.23,3.59-10.61,10.61h0Z"/><path class="cls-1" d="M.45,103.08c-.16,10.29-.29,20.59-.43,30.88-.09,6.57-.06,13.58,2.05,19.87,2.29,6.8,6.7,12.57,13.23,15.74,8.89,4.31,18.83,3.4,28.42,3.3,21.64-.23,43.28-.55,64.92-.17,10.18.18,20.47,1.15,30.64.94,9.44-.19,19.39-2.68,23.83-11.88,3.92-8.13,2.07-16.86,1.15-25.4-1.24-11.49-.46-23.17.42-34.65.41-5.39-4.89-10-10-10-5.76,0-9.59,4.59-10,10-.71,9.24-1.25,18.47-.86,27.74.27,6.34,1.54,12.59,1.75,18.93.03,1-.09,3.13-.07,3.66.02.44-.75,1.23.18.43-1.61,1.37-4.89,1.17-7.19,1.18-8.95.06-17.95-.7-26.9-.89-18.36-.38-36.73-.23-55.09-.03-9.11.1-19.04,1.36-28.07.17-2.25-.3-3.46-.68-4.95-1.6-.97-.59-.23-.07-.03.07-.44-.32-1.03-.92-1.38-1.37,1.22,1.57-1.22-2.41-.38-.55-2.17-4.81-1.76-9.5-1.68-15.49.14-10.29.27-20.59.43-30.88.2-12.87-19.8-12.88-20,0H.45Z"/></g></svg>