<svg xmlns="http://www.w3.org/2000/svg" xmlns:xlink="http://www.w3.org/1999/xlink" width="91.463" height="91.893" viewBox="0 0 91.463 91.893"><defs><style>.a{fill:none;}.b{clip-path:url(#a);}.c{fill:#84c12d;}.d{fill:#0094a8;}</style><clipPath id="a"><rect class="a" width="91.463" height="91.893"/></clipPath></defs><g class="b"><path class="c" d="M49.226,37.661a219.548,219.548,0,0,0,26.632.1c1.988-.114,2-3.221,0-3.107a219.547,219.547,0,0,1-26.632-.1c-2-.128-1.989,2.979,0,3.107" transform="translate(-27.96 -20.239)"/><path class="c" d="M30.993,59.849q20.862-.472,41.73-.506a1.554,1.554,0,0,0,0-3.107q-20.867.035-41.73.506c-2,.045-2,3.152,0,3.107" transform="translate(-17.276 -32.941)"/><path class="c" d="M96.886,122.292l7.271.929c1.523.194,4.217.159,4.964,1.711a25.56,25.56,0,0,1,1.73,6.187,37,37,0,0,1,.633,6.776,1.221,1.221,0,0,0,1.739,1.017,1.156,1.156,0,0,0,1.071-1.093,36.921,36.921,0,0,1,.857-6.445,28.511,28.511,0,0,1,2-6.291c.773-1.565,3.236-1.47,4.8-1.618l7.3-.691a1.218,1.218,0,0,0,1.2-1,1.138,1.138,0,0,0-.879-1.261l-7.5-1.2c-1.931-.308-4.465-.476-5.679-2.134-1.079-1.474-1.012-3.484-1.116-5.191q-.226-3.7-.451-7.4c-.086-1.4-2.311-1.473-2.444-.2a1.208,1.208,0,0,0-.063.278q-.37,3.608-.74,7.217c-.175,1.7-.189,3.7-1.268,5.169-1.174,1.6-3.516,1.764-5.391,2l-7.714.973a1.226,1.226,0,0,0-1.2,1,1.135,1.135,0,0,0,.879,1.261" transform="translate(-56.233 -60.62)"/><path class="d" d="M66.1,72.506c.223,4.461.978,11.411-4.378,13.131-2.852.915-5.981.53-8.932.725-3.018.2-6.035.411-9.053.6-7.063.444-14.142.812-21.221.762-5.173-.036-11.443.234-16.3-1.893-2.751-1.2-1.862-4.593-1.891-7.076-.062-5.292-.065-10.587-.09-15.881-.052-11.007-.117-22.015-.09-33.022.014-5.5.066-11.006.125-16.508C4.3,10.47,4.146,5.921,7.72,5.114c2.532-.572,5.465-.4,8.053-.516,2.691-.12,5.384-.2,8.077-.248,5.4-.1,10.791-.087,16.187-.062,5.7.026,11.41-.016,17.114,0,1.689.005,3.773-.034,5.231.96,1.948,1.328,1.8,5.013,2.022,7.106,1.222,11.672-.215,23.416.218,35.113.1,2.658,4.241,2.671,4.142,0-.432-11.7,1-23.441-.218-35.113-.448-4.279-.6-9.238-5.095-11.2C59.359-.625,54.066.183,49.747.181,37.885.175,26.014-.068,14.16.532,9.658.76,4.248.311,1.7,4.827-.4,8.554.125,13.373.082,17.472-.044,29.854,0,42.237.057,54.62Q.1,63.7.137,72.782c.008,2.537.078,5.078.018,7.612a13.423,13.423,0,0,0,.719,5.839c2.257,5.069,10.608,5.153,15.236,5.433a200.992,200.992,0,0,0,23.259-.3c4-.222,8-.5,12-.766,3.71-.25,7.663.139,11.26-.912,7.742-2.264,7.95-10.432,7.613-17.181-.133-2.653-4.276-2.669-4.142,0" transform="translate(0 0)"/><path class="c" d="M30.993,79.452q20.862-.472,41.73-.506a1.554,1.554,0,0,0,0-3.107q-20.867.035-41.73.506c-2,.045-2,3.152,0,3.107" transform="translate(-17.276 -44.424)"/><path class="c" d="M195.991,102.964l-3.636-.464c-.761-.1-2.108-.08-2.482-.855a12.781,12.781,0,0,1-.865-3.093,18.535,18.535,0,0,1-.316-3.388.61.61,0,0,0-.869-.509.578.578,0,0,0-.536.546,18.478,18.478,0,0,1-.428,3.223,14.258,14.258,0,0,1-1,3.146c-.386.782-1.618.735-2.4.809l-3.652.345a.609.609,0,0,0-.6.5.569.569,0,0,0,.439.63l3.749.6c.966.154,2.232.237,2.84,1.067a4.784,4.784,0,0,1,.558,2.6q.112,1.85.225,3.7c.043.7,1.155.737,1.222.1a.606.606,0,0,0,.031-.139l.37-3.608a5.142,5.142,0,0,1,.633-2.584c.587-.8,1.758-.882,2.7-1l3.857-.487a.613.613,0,0,0,.6-.5.568.568,0,0,0-.439-.631" transform="translate(-104.971 -55.419)"/></g></svg>