<?xml version="1.0" encoding="UTF-8"?><svg id="Layer_2" xmlns="http://www.w3.org/2000/svg" viewBox="0 0 432.97 327.96"><defs><style>.cls-1{fill:#bbe048;}.cls-2{fill:#0094a8;}.cls-3{fill:#fff;}</style></defs><g id="Layer_1-2"><path class="cls-1" d="M320.84,76.66c.08-16.77-2.13-35.07-12.39-48.95-10-13.52-25.03-20.92-41.29-24.13C244-.99,219.87-.23,196.42.71c-23.23.93-54.18.84-71.22,19.54-14.71,16.14-12.83,37.81-12.85,58.06,0,7.58,6.45,14.03,14.03,14.03s14.03-6.42,14.03-14.03-.41-15.09,0-22.62c.09-1.62.33-3.24.4-4.86.1-2.16-.73,3.38.03.06.16-.68.26-1.37.41-2.04.38-1.68.91-3.28,1.42-4.92.74-2.36-.03.15-.25.55.48-.89.9-1.81,1.42-2.68.39-.64,2.43-3.2.15-.51.45-.53.9-1.07,1.38-1.58.62-.66,1.29-1.25,1.95-1.87,1.52-1.43-2.8,1.62.29-.22,1.6-.95,3.14-1.92,4.82-2.73,2.17-1.05-3.11.9,1.05-.4,1.42-.45,2.83-.93,4.27-1.32,11.1-3.01,22.43-3.62,33.9-4.18,12.59-.61,25.22-.91,37.83-.74,4.63.06,9.25.2,13.87.49,1.96.12,3.92.27,5.87.44,1.04.1,2.09.2,3.13.31.43.05,4.26.55,2.35.27-2.19-.32,1.58.27,1.62.27.75.12,1.5.26,2.24.4,1.8.34,3.58.71,5.36,1.15,3.29.8,6.44,1.9,9.63,3.01-3.83-1.34.9.46,1.75.89,1.19.62,2.36,1.28,3.49,2,1.39.88,3.52,2.72,1.05.57,1.29,1.13,2.58,2.2,3.77,3.44,1.13,1.17,2.97,3.98,1.09,1.07.95,1.47,1.96,2.86,2.8,4.4.59,1.07,2.19,5.32.92,1.57.57,1.67,1.23,3.29,1.73,4.99.53,1.8.97,3.62,1.34,5.46.18.88.32,1.76.48,2.65.59,3.14.1-.43.11.72.05,4.77.68,9.52.66,14.32-.04,7.58,6.48,14.03,14.03,14.03s13.99-6.42,14.03-14.03h0Z"/><path class="cls-3" d="M92.94,79.63c70.54,4.25,141.16,5.8,211.81,3.17,14.01-.57,28.11-1.51,42.21-1.47,61.18-.91,68.89,29.82,72.61,78.37,2.15,37.93,2.86,78.81-4.75,115.83-2.82,12.01-8.79,24.39-20.08,31.32-7.35,4.67-16.59,6.85-26.21,7.59-6.72.54-13.61.49-20.43.34-91.48-3.93-184.28,5.59-276.6-1.46-19.83-1.51-47.13-6.62-54.39-28.25-2.53-7.53-2.71-15.62-2.87-23.57-.66-33.3-1.58-66.61-2.01-99.91-.04-12.33-.69-24.68.71-36.98,6.1-46.41,35.34-48.76,79.81-44.99h.2Z"/><path class="cls-2" d="M92.94,91.59c46.12,2.76,92.32,4.4,138.53,4.46,22.78.03,45.56-.33,68.33-1.11,20.43-.7,41.16-2.91,61.59-1.21,3.95.33,4.57.36,9.13,1.33,3.19.68,6.35,1.54,9.41,2.66.63.23,1.26.48,1.89.73-.45-.18-2.05-1.06-.15-.03,1.11.6,2.27,1.12,3.37,1.74s2.08,1.27,3.11,1.93c.5.32.97.69,1.46,1.03-2.39-1.67-.19-.15.33.33,1.8,1.68,3.47,3.41,5.09,5.27,1.08,1.25-1.21-1.75-.3-.37.32.48.66.94.98,1.42.81,1.21,1.56,2.45,2.26,3.73.64,1.17,1.18,2.39,1.79,3.58.27.52.85,2.1-.13-.36.23.57.46,1.14.67,1.71.97,2.7,1.85,5.42,2.58,8.2.69,2.62,1.26,5.26,1.77,7.92.3,1.57.56,3.14.81,4.71.11.72.21,1.43.33,2.15.21,1.38-.19-1.65.09.66.93,7.67,1.61,15.35,2.01,23.06,1.11,21.31,1.66,42.68.56,63.99-.53,10.28-1.37,20.57-2.94,30.74-1.29,8.36-2.75,17.5-6.47,24.62-3.48,6.65-8.05,11.66-15.18,14.6-8.88,3.67-18.87,3.84-28.32,3.82-22.8-.03-45.58-1.2-68.4-1.06-22.72.13-45.43.69-68.14,1.2-45.87,1.03-91.81,1.93-137.63-1.01-14.9-.95-29.62-1.68-41.89-8.58-1.41-.79-2.79-1.64-4.09-2.59,1.14.84-1.58-1.41-2.15-1.97s-1.11-1.14-1.63-1.74c-2.42-2.79.51.91-.67-.91-.44-.68-.85-1.37-1.26-2.08-.25-.44-1.22-2.49-.63-1.09-4.07-9.63-2.86-21.38-3.07-31.58-.48-22.98-1.06-45.96-1.48-68.94-.21-11.54-.38-23.08-.49-34.61-.09-9.44-.18-19.02,1.84-28.28.73-3.36,1.7-6.64,2.87-9.87.72-2-1.18,2.41.27-.69.3-.64.6-1.27.92-1.89.69-1.34,1.45-2.66,2.27-3.92.44-.68.9-1.34,1.38-1.99-.29.39-1.58,1.69-.11.21.87-.87,1.64-1.81,2.54-2.66.68-.64,3.19-2.5,1.04-1.01,1.23-.85,2.47-1.69,3.78-2.42,1.06-.59,2.15-1.11,3.25-1.63-2.69,1.27,1.18-.37,1.93-.61,2.82-.9,5.7-1.52,8.61-2.04s-1,.01,2.01-.25c1.64-.14,3.27-.29,4.91-.37,3.49-.19,6.99-.21,10.49-.15,7,.13,13.95.73,20.93,1.21,6.45.44,11.96-5.81,11.96-11.96,0-6.84-5.49-11.52-11.96-11.96-28.05-1.92-61.07-4.2-79.76,21.19C2.7,103.1.38,122.03.1,139.19c-.41,24.76.57,49.6,1.12,74.35.27,11.99.54,23.98.8,35.97s-.43,25.14,3,36.99c5.23,18.07,20.58,28.88,37.91,34.06,18.61,5.56,39.01,5.66,58.25,6.46,24.41,1.02,48.86,1.1,73.29.8,49.04-.59,98.07-2.73,147.12-1.86,22.25.39,47.29,4.27,68.64-3.79,20.68-7.8,32.77-25.74,36.82-46.99,4.35-22.83,5.88-46.13,5.93-69.34.04-20.1-.51-40.38-2.76-60.37-2.91-25.85-9.62-53.87-34.75-66.84-14.44-7.45-30.92-9.28-46.96-9.26-24.16.02-48.31,1.81-72.47,2.33-49.17,1.06-98.36.19-147.48-2.11-11.87-.55-23.74-1.2-35.61-1.91-6.46-.39-11.96,5.77-11.96,11.96,0,6.8,5.49,11.57,11.96,11.96Z"/><path class="cls-2" d="M19.38,181.82c50.88,3.54,101.89,4.2,152.88,3.95s102.02-.5,152.97-2.51c29.1-1.15,58.18-2.75,87.26-4.35,6.74-.37,12.5-5.48,12.5-12.5,0-6.48-5.73-12.87-12.5-12.5-101.8,5.6-203.81,8.3-305.78,6.54-29.13-.5-58.26-1.6-87.32-3.63-6.74-.47-12.5,6.08-12.5,12.5,0,7.16,5.74,12.03,12.5,12.5h0Z"/><path class="cls-1" d="M301.81,137.59v75.39c0,7.58,6.45,14.03,14.03,14.03s14.03-6.42,14.03-14.03v-75.39c0-7.58-6.45-14.03-14.03-14.03s-14.03,6.42-14.03,14.03h0Z"/><path class="cls-1" d="M101.06,137.59v75.39c0,7.58,6.45,14.03,14.03,14.03s14.03-6.42,14.03-14.03v-75.39c0-7.58-6.45-14.03-14.03-14.03s-14.03,6.42-14.03,14.03h0Z"/></g></svg>