<?xml version="1.0" encoding="UTF-8"?><svg id="Layer_2" xmlns="http://www.w3.org/2000/svg" viewBox="0 0 94.66 147.2"><defs><style>.cls-1{fill:#bbe048;}.cls-2{fill:#0094a8;}</style></defs><g id="Layer_1-2"><path class="cls-2" d="M6.21,31.54c22.1-.13,44.19-.27,66.29-.4,6.31-.04,12.63-.08,18.94-.11,3.22-.02,3.22-5.02,0-5-22.1.13-44.19.27-66.29.4-6.31.04-12.63.08-18.94.11-3.22.02-3.22,5.02,0,5h0Z"/><path class="cls-2" d="M2.54,121.65c22.09,1.44,44.22,2.21,66.36,2.27,6.26.01,12.53-.03,18.79-.12,3.21-.05,3.22-5.05,0-5-22.13.34-44.27-.01-66.39-1.08-6.26-.3-12.51-.66-18.76-1.07-1.35-.09-2.5,1.21-2.5,2.5,0,1.43,1.15,2.41,2.5,2.5h0Z"/><path class="cls-2" d="M37.65,134.28c5.11.37,10.24.45,15.37.25,1.31-.05,2.56-1.11,2.5-2.5-.06-1.31-1.1-2.55-2.5-2.5-5.12.2-10.25.12-15.37-.25-1.31-.09-2.56,1.22-2.5,2.5.06,1.44,1.1,2.4,2.5,2.5h0Z"/><path class="cls-2" d="M39.82,18.33c5.28,1.1,10.64,1.13,15.94.11,1.29-.25,2.14-1.86,1.75-3.08-.44-1.37-1.7-2.01-3.08-1.75-4.18.8-9.09.76-13.28-.11-1.28-.27-2.76.37-3.08,1.75-.28,1.25.38,2.79,1.75,3.08h0Z"/><path class="cls-2" d="M2.85,66.49c-.34,8.4-.81,16.78-1.32,25.17-.49,8.07-1.15,16.14-1.38,24.22-.17,6.13-.58,12.61,1.53,18.49,1.08,3.02,2.78,5.96,5.31,8s5.61,3.35,8.84,3.98c7.01,1.37,14.4.7,21.48.54,8.35-.18,16.7-.38,25.06-.58,4-.1,8.04-.04,12.02-.49,3.26-.37,6.72-1.02,9.46-2.96,4.93-3.5,6.51-9.49,6.92-15.23.57-8.06.66-16.19.99-24.26.33-8.37.67-16.73.99-25.1.65-16.74,1.28-33.47,1.85-50.21.21-6.25.2-13.46-3.15-19-2.48-4.11-6.64-6.6-11.23-7.7C74.52-.01,68.54.29,62.74.22,54.41.13,46.08-.02,37.75,0c-4.05.01-8.1.04-12.13.44-3.45.34-7,.81-10.25,2.08-5.02,1.97-8.72,5.52-10.7,10.54-1.97,4.99-1.88,10.55-1.66,15.81.35,8.46.38,16.93.21,25.4-.08,4.07-.21,8.14-.37,12.21-.13,3.22,4.87,3.21,5,0,.32-8.14.52-16.28.47-24.42-.02-3.98-.1-7.97-.26-11.95-.11-2.85-.27-5.7-.08-8.55.27-4.09,1.35-8.35,4.12-11.2,3.73-3.81,9.83-4.68,15.17-5.08,7.74-.58,15.56-.28,23.31-.21,7.15.07,14.34-.05,21.49.25,2.4.1,4.31.26,6.54.78s3.62,1,5.43,2.21c.54.36.34.19.77.57.37.33.74.67,1.07,1.03.7.76,1.12,1.38,1.69,2.48.98,1.9,1.54,4.43,1.76,6.77.74,7.7.01,15.58-.26,23.3s-.58,15.91-.89,23.86c-.61,15.91-1.25,31.81-1.88,47.71-.16,3.98-.32,7.95-.47,11.93-.1,2.53-.36,4.98-1.14,7.4-.66,2.03-1.78,4-3.51,5.25-2.41,1.74-5.68,2.13-8.56,2.35-7.85.57-15.79.47-23.66.65-7.68.18-15.37.46-23.05.48-5.4.01-12.09.02-16.25-4.02s-4.6-9.99-4.65-15.28c-.07-6.82.44-13.64.85-20.45.49-7.97.99-15.93,1.41-23.9.21-3.99.4-7.98.56-11.97.13-3.22-4.87-3.21-5,0Z"/><path class="cls-1" d="M14.3,76.24c1.96-1.2,3.2-2.98,4.7-4.67s3.11-3.05,4.8-4.43c3.88-3.16,7.8-6.28,11.7-9.42.26-.21,1.29-.79,1.36-1.09.42-.29.13-.38-.85-.25.22.14.44.29.66.45,1,.69,1.98,1.4,2.95,2.13,1.78,1.32,3.51,2.7,5.2,4.13,3.6,3.03,7.01,6.27,10.24,9.69.92.98,2.61.94,3.54,0,1.17-1.19,2.4-2.33,3.72-3.34.69-.53,1.4-1.02,2.13-1.5.17-.11,1.02-.52,1.1-.69-1.22-.44-1.58-.46-1.07-.07.18.15.35.31.53.46,2.81,2.46,5.52,5.02,8.13,7.68,2.26,2.3,5.79-1.24,3.54-3.54-1.63-1.66-3.3-3.29-5.01-4.88-.91-.85-1.83-1.68-2.77-2.5-.82-.72-1.65-1.62-2.72-1.96-2.21-.71-4.38,1.19-6.03,2.41-1.81,1.33-3.51,2.78-5.08,4.38h3.54c-5.46-5.79-11.47-11.02-17.93-15.67-1.56-1.12-3.11-2.49-5.16-1.87-1,.3-1.78,1.08-2.58,1.71-.84.68-1.68,1.36-2.53,2.03-3.33,2.68-6.66,5.35-9.98,8.04-1.63,1.33-3.25,2.69-4.68,4.24-1.29,1.4-2.33,3.2-3.98,4.21-2.74,1.68-.23,6.01,2.52,4.32h0Z"/><path class="cls-1" d="M60.55,42c-1.59-.09-3.27-.13-4.8.39-1.66.57-3.16,1.63-3.95,3.24-1.4,2.87-.89,6.25,1.1,8.7,1.76,2.16,4.83,3.04,7.48,2.17,1.49-.49,2.73-1.38,3.62-2.66s1.19-3.11,1.36-4.68c.22-1.98-.24-3.93-1.52-5.47s-3.27-1.97-5.23-1.8c-.67.06-1.28.24-1.77.73-.43.43-.76,1.15-.73,1.77.06,1.26,1.1,2.62,2.5,2.5.28-.02.57-.05.85-.05.14,0,.29.01.43,0,.35-.01-.61-.16-.08-.01-.02,0,.32.1.32.09l-.35-.15c.08.04.16.08.23.13.21.11.08.23-.18-.16.07.09.2.19.29.28.36.32-.3-.5-.06-.08.05.08.1.15.14.23.05.08.19.48.05.07-.15-.43,0,0,.02.08.03.09.05.17.07.26.02.08.17.53.05.15s0,.1,0,.19c0,.18,0,.35,0,.53,0,.15-.02.3-.03.44-.02.23-.17.47.01-.05-.09.27-.1.6-.16.88-.05.26-.11.51-.18.77-.04.14-.09.28-.13.42-.16.52.21-.35,0,0-.05.08-.11.17-.15.26-.12.21-.31.25.14-.16-.14.13-.28.29-.41.43s-.33.17.23-.16c-.09.05-.16.12-.25.17-.19.12-.4.2-.58.32.56-.34.42-.16.2-.1-.1.03-.19.06-.29.09-.26.07-.9.06-.06.05-.18,0-.37.03-.55.03-.1,0-.2,0-.31,0-.29-.02-.39-.16.18.03-.19-.06-.4-.08-.59-.15-.08-.02-.15-.06-.23-.08.6.14.42.19.2.07-.17-.1-.34-.2-.5-.31-.41-.26.44.41.1.07-.09-.09-.19-.18-.28-.27-.06-.06-.12-.13-.18-.19-.34-.35.33.51.07.09-.11-.17-.22-.33-.31-.5-.05-.1-.1-.2-.15-.29-.19-.35.09.22.09.23-.13-.2-.19-.53-.24-.75-.02-.09-.04-.17-.06-.26-.05-.28.05-.49.01.14.01-.19-.03-.4-.03-.59s.04-.4.03-.59c.02.69-.06.38,0,.12.03-.15.07-.31.12-.46,0,.01.11-.28.1-.3-.16.35-.18.41-.06.17.04-.07.07-.14.11-.2.12-.21.32-.3-.08.06.11-.1.2-.23.3-.33.03-.03.2-.15.22-.19-.31.24-.36.28-.15.13.06-.04.13-.08.19-.12.11-.06.22-.12.33-.17.45-.24-.54.16-.04.03.29-.08.57-.16.87-.23.26-.06.18-.15-.13.01.13-.07.39-.03.54-.04.73-.04,1.46,0,2.18.04,1.31.07,2.56-1.2,2.5-2.5-.06-1.41-1.1-2.42-2.5-2.5h0Z"/><path class="cls-1" d="M16.57,94.04c18.57,0,37.14,0,55.7,0,3.22,0,3.22-5,0-5-18.57,0-37.14,0-55.7,0-3.22,0-3.22,5,0,5h0Z"/><path class="cls-1" d="M18.36,107.06c18.54-1.16,37.13-1.43,55.69-.82,3.22.11,3.21-4.89,0-5-18.57-.61-37.15-.34-55.69.82-3.2.2-3.22,5.2,0,5h0Z"/></g></svg>