<svg xmlns="http://www.w3.org/2000/svg" xmlns:xlink="http://www.w3.org/1999/xlink" width="69.109" height="85.918" viewBox="0 0 69.109 85.918"><defs><style>.a{fill:none;}.b{clip-path:url(#a);}.c{fill:#0094a8;}.d{fill:#84c12d;}</style><clipPath id="a"><rect class="a" width="69.109" height="85.918"/></clipPath></defs><g class="b"><path class="c" d="M4.8,3.715c9.032-1.07,18.323-.162,27.395-.034,4.43.063,8.855-.054,13.282-.015a13.358,13.358,0,0,1,4.952.575,14.272,14.272,0,0,1,3.941,2.836,85.454,85.454,0,0,1,6.27,6.744A17.411,17.411,0,0,1,63.489,17.6c1.039,2.155,1,4.44,1.094,6.773q.568,14.109.867,28.228.3,14.331.32,28.667c0,1.586.178,1.395-1.4,1.3q-1.508-.1-3.016-.184-3.878-.225-7.759-.4-6.9-.306-13.8-.445-14.241-.286-28.484.13-1.726.05-3.452.11c-.445.016-3.154.4-3.45.131-.375-.345-.208-2.307-.229-2.814q-.08-1.958-.153-3.916Q3.754,68,3.574,60.812q-.4-16.108-.233-32.225.091-7.755.343-15.507C3.747,11.187,3.866,9.3,3.8,7.4c-.046-1.247-.542-3.481,1-3.688C6.862,3.438,6.89.149,4.8.429,3.462.608,2.252.719,1.405,1.891A7.016,7.016,0,0,0,.469,6C.461,10.2.345,14.377.24,18.572-.034,29.456-.062,40.346.1,51.232q.12,8.056.371,16.11.12,3.918.268,7.835c.09,2.39-.18,5.179.377,7.512a3.15,3.15,0,0,0,2.732,2.455c2.62.411,5.67-.144,8.323-.217q7.982-.221,15.968-.222,16.186,0,32.355.909c3.6.2,8.434,1.51,8.564-3.48.139-5.346-.035-10.721-.1-16.068q-.192-16.292-.75-32.577-.133-3.908-.287-7.814a35.269,35.269,0,0,0-.531-6.838c-.875-3.654-3.422-6.195-5.814-8.926-2.557-2.92-5.258-6.1-8.659-8.067-3.9-2.259-8.98-1.4-13.281-1.356C33.966.543,28.261.416,22.592.24,16.655.054,10.714-.272,4.8.429c-2.075.246-2.1,3.535,0,3.286" transform="translate(0 0)"/><path class="c" d="M124.99,19.57l-6.829-.056c-2.131-.017-4.8.393-6.869-.113l1.147,1.147c-.807-2.235-.592-5.272-.8-7.643l-.679-7.569c-.188-2.089-3.475-2.109-3.286,0q.4,4.415.792,8.83l.377,4.2c.091,1.019-.026,2.539.6,3.442,1.13,1.637,4.5.952,6.164.966l9.39.077a1.644,1.644,0,0,0,0-3.286" transform="translate(-60.492 -2.114)"/><path class="d" d="M25.683,52.385a232.215,232.215,0,0,0,28.168.1c2.1-.12,2.116-3.406,0-3.286a232.214,232.214,0,0,1-28.168-.1c-2.111-.136-2.1,3.151,0,3.286" transform="translate(-13.543 -27.585)"/><path class="d" d="M25.665,74.6q22.066-.5,44.138-.535a1.644,1.644,0,0,0,0-3.286q-22.071.037-44.138.535c-2.111.048-2.119,3.334,0,3.286" transform="translate(-13.529 -39.769)"/><path class="d" d="M44.775,135.371a11.489,11.489,0,0,0,2.322-2.484,23.925,23.925,0,0,1,2.649-2.538l3.029-2.618,1.555-1.344a7.085,7.085,0,0,1,1.49-1.219l-.553.149q-.227-.132.03.037l.315.236q.281.212.558.427.622.484,1.229.987,1.219,1.006,2.382,2.077a60.364,60.364,0,0,1,4.436,4.549,1.1,1.1,0,0,0,1.549,0,18.923,18.923,0,0,1,1.754-1.692,7.856,7.856,0,0,1,1.839-1.294l-.553.149q-.379-.211-.053.047l.3.28q.3.281.593.565.516.5,1.023,1.006,1.087,1.092,2.125,2.231c.954,1.042,2.5-.51,1.549-1.549q-1.11-1.213-2.27-2.376-.58-.579-1.174-1.145a5.238,5.238,0,0,0-1.367-1.129c-1.082-.467-2.124.533-2.922,1.152a19.184,19.184,0,0,0-2.392,2.205h1.549a59.732,59.732,0,0,0-8.279-7.793c-.8-.617-1.689-1.534-2.772-1.011a5.452,5.452,0,0,0-1.114.853l-1.228,1.062c-1.538,1.328-3.081,2.651-4.613,3.987a20.276,20.276,0,0,0-2.274,2.234,9.552,9.552,0,0,1-1.816,2.067c-1.176.767-.08,2.665,1.106,1.891" transform="translate(-24.253 -69.179)"/><path class="d" d="M91.3,111.959a5.658,5.658,0,0,0-2.271.2,3.082,3.082,0,0,0-1.8,1.559,4.074,4.074,0,0,0,.353,4.014,3.373,3.373,0,0,0,1.737,1.3,3.1,3.1,0,0,0,1.909-.049,3.223,3.223,0,0,0,1.656-1.3,5.314,5.314,0,0,0,.608-2.255,3.575,3.575,0,0,0-.547-2.466,2.558,2.558,0,0,0-1.172-.928,3.053,3.053,0,0,0-1.392-.129,1.119,1.119,0,0,0-1.1,1.1,1.108,1.108,0,0,0,1.1,1.1c.146-.014.292-.028.439-.028a1,1,0,0,1,.175,0l-.119-.02a1.033,1.033,0,0,1,.127.028c.244.066-.014.039-.015-.015,0,0,.125.071.115.068-.142-.035-.145-.134-.064-.046.007.007.137.151.141.149-.03.013-.146-.212-.029-.024.031.05.057.1.086.154.105.183-.039-.062-.025-.066a1.478,1.478,0,0,1,.057.17c.016.058.028.116.042.174.028.11.069.088,0-.025a1.222,1.222,0,0,1,.012.494,2.418,2.418,0,0,1-.035.4c.05-.231.01-.073,0-.021-.014.074-.025.148-.039.222-.024.132-.05.262-.081.393-.018.071-.037.142-.059.213-.013.042-.026.084-.042.125q.074-.162.031-.069c-.046.085-.093.167-.142.25-.091.152.036-.063.058-.071-.032.012-.078.089-.105.115s-.075.071-.113.107c-.127.121.055-.053.076-.057a1.368,1.368,0,0,0-.291.174c-.112.082.266-.09.064-.025-.039.013-.077.027-.117.039-.093.029-.212.033-.3.07.02-.009.284-.02.108-.018-.041,0-.082,0-.123,0s-.1,0-.153,0c-.24,0,.142.042.048.008s-.181-.046-.267-.069c-.2-.054.175.106.061.028-.042-.029-.1-.048-.141-.074s-.074-.046-.112-.069c-.156-.1.056.031.063.054-.021-.066-.236-.225-.286-.277s-.08-.147.045.065c-.022-.037-.053-.073-.078-.11a2.727,2.727,0,0,1-.171-.294c-.02-.04-.036-.087-.059-.124.135.218.053.126.021.037a3.143,3.143,0,0,1-.105-.368c-.01-.045-.018-.091-.027-.137-.039-.2.019.07.01.084a1.687,1.687,0,0,0-.018-.349c0-.047,0-.093,0-.14s.05-.241,0-.063c-.054.193.01-.045.015-.07.016-.078.035-.156.057-.232.015-.051.032-.1.049-.151.078-.237-.115.184.016-.026.033-.053.071-.112.1-.168.046-.067.027-.044-.056.066.024-.029.05-.057.077-.085s.109-.134.137-.13l-.1.077c.041-.029.082-.057.125-.084s.086-.052.13-.075.089-.045.135-.066l-.123.053c.021-.051.345-.1.394-.114s.249-.065.016-.01a1.5,1.5,0,0,1,.273-.022,9.745,9.745,0,0,1,1.006.023,1.1,1.1,0,0,0,1.1-1.1,1.121,1.121,0,0,0-1.1-1.1" transform="translate(-48.809 -62.861)"/><path class="d" d="M37.155,103.82q7.372.133,14.744.251,3.659.062,7.318.126c2.44.043,4.9.015,7.333.146a5.473,5.473,0,0,1,2.52.6,2.064,2.064,0,0,0,.349.218c.125.042-.163-.177.009.01.054.059.115.12.174.176.194.184-.063-.127.053.063.1.165.208.323.3.5.048.093.091.188.136.282.066.139-.072-.182-.014-.036.026.066.052.131.077.2a11.411,11.411,0,0,1,.442,1.533,22.154,22.154,0,0,1,.482,3.647c.1,1.4.122,2.8.107,4.2q-.022,1.993-.161,3.983-.06.868-.147,1.734-.036.359-.078.716c-.013.11-.027.22-.041.33-.025.2,0-.027.008-.057-.011.074-.021.149-.032.223a6.5,6.5,0,0,1-1.011,3.015,4.918,4.918,0,0,1-3.483,1.654c-2.377.252-4.8.3-7.184.375q-3.609.116-7.221.1t-7.221-.153q-1.829-.069-3.657-.167a8.153,8.153,0,0,1-2.808-.361,2.216,2.216,0,0,1-1.172-1.188,5.517,5.517,0,0,1-.392-1.82c-.14-2.288-.155-4.591-.235-6.882-.086-2.447-.17-4.894-.241-7.341-.03-1.055-.1-2.119-.053-3.174a4.157,4.157,0,0,1,.412-1.82,3.1,3.1,0,0,1,1.527-1.222,1.1,1.1,0,0,0,.393-1.5,1.122,1.122,0,0,0-1.5-.393,4.977,4.977,0,0,0-2.962,4.181,20.537,20.537,0,0,0-.033,3.063q.053,1.943.117,3.887c.084,2.555.177,5.11.264,7.665.04,1.177.047,2.36.118,3.536a7.878,7.878,0,0,0,.481,2.442,4.781,4.781,0,0,0,4.15,3.006c2.559.261,5.173.278,7.743.35,5.171.145,10.347.107,15.514-.148,2.089-.1,4.405-.007,6.388-.769a6.1,6.1,0,0,0,3.519-3.251,12.626,12.626,0,0,0,.8-3.581c.146-1.227.238-2.461.3-3.7a51.248,51.248,0,0,0-.193-8.785,17.785,17.785,0,0,0-.772-3.757,5.058,5.058,0,0,0-1.75-2.627c-1.807-1.225-4.02-1.161-6.114-1.2q-3.931-.076-7.863-.143-7.754-.135-15.508-.262l-3.932-.069a1.1,1.1,0,0,0,0,2.191" transform="translate(-19.021 -57.103)"/></g></svg>