<svg xmlns="http://www.w3.org/2000/svg" xmlns:xlink="http://www.w3.org/1999/xlink" width="271.211" height="302.432" viewBox="0 0 271.211 302.432"><defs><style>.a{fill:none;}.b{clip-path:url(#a);}.c{fill:#0094a8;}.d{fill:#bbe048;}</style><clipPath id="a"><rect class="a" width="271.211" height="302.432"/></clipPath></defs><g class="b"><path class="c" d="M3.924,66.4C1.939,99.551-5.211,137.6,6.8,169.643c10.948,29.2,37.651,38.674,66.255,43.632,7.285,1.263,15.245,1.47,22.31,3.645,6.17,1.9,6.622,7.028,6.883,12.826.436,9.629-1.312,22.338,5.8,30.114,8.651,9.451,21.937,3.56,30.356-2.808,10.823-8.186,15.853-18.6,23.14-29.628,8.031-12.156,24.224-11,37.22-11.276,13.139-.285,27.4-.652,39.014-7.61,26.333-15.778,33.094-52.9,33.419-81,.171-14.851-1.863-29.61-3.557-44.338-1.531-13.326-3.307-26.863-8.47-39.345-11.79-28.5-43.047-38.2-71.2-41.169C148.359-1.491,107.382-1.456,68.4,7.537,51.863,11.353,34.951,16.18,21.436,26.908,8.956,36.816,4.859,51.058,3.924,66.4c-.636,10.45,15.624,10.413,16.258,0,.8-13.226,4.864-23.257,16.485-30.392,11.727-7.2,25.323-10.361,38.6-13.375,30.2-6.859,62.059-7.358,92.849-5.38,25.173,1.618,60.932,3.339,74.415,29.093,5.308,10.142,7.079,22.32,8.465,33.548,1.525,12.336,3.2,24.808,3.769,37.224,1.109,24.351-1.288,61.815-24.235,76.77-10.215,6.656-23.782,5.783-35.445,6.077-11.624.291-24.148.707-34.624,6.362s-14.468,16.63-20.582,26.121a45.8,45.8,0,0,1-9.8,10.6c-1.317,1.065-8.36,6.742-10.046,5.684-2.146-1.348-1.369-10.063-1.4-12.182-.091-5.188-.072-10.394-1.036-15.515-1.975-10.488-8.677-17.54-19.049-20.111-26.471-6.558-61.026-3.881-74.792-32.684-6.671-13.959-6.893-30.873-6.8-46.019.109-18.649,2.118-37.224,3.232-55.826.626-10.45-15.633-10.415-16.258,0" transform="translate(0 0)"/><path class="d" d="M70.015,69.951c1-10.385,4.492-20.566,14.107-25.846,5.718-3.139,12.528-4.492,18.989-4.868,12.234-.712,30.929,1.416,36.79,14.237,7.077,15.482-13.162,27.726-23.081,35.635-16.963,13.525-24.541,29.8-25.05,51.594-.244,10.465,16.014,10.462,16.258,0,.255-10.948,1.975-21.511,9.308-30.09,5.076-5.939,11.668-10.493,17.755-15.3,12.343-9.756,24.491-22.731,22.161-39.8-4.274-31.319-46.541-37.2-71.083-29.693C65.458,32.147,55.75,49.18,53.757,69.951c-1,10.408,15.266,10.34,16.258,0" transform="translate(33.612 14.321)"/><path class="d" d="M78.3,108.906c-4.211,3.442-4.446,10.343-1.566,14.658a11.39,11.39,0,0,0,17.392,1.943,12.035,12.035,0,0,0,.67-16.924c-4.129-4.39-10.322-4.921-15.559-2.422-3.848,1.835-5.157,7.644-2.917,11.122,2.549,3.954,7.005,4.881,11.122,2.917q-2,.746-1.083.483.966-.249-1.252.14a2.759,2.759,0,0,0,.741.015q-2.214-.376-1.252-.114.922.276-1.08-.488c1.1.618-1.229-1.218-.6-.546s-1.063-1.774-.484-.658a3.613,3.613,0,0,1-.6-1.97c-.06-.767-.083-.938-.072-.512.016.974.455-2.115.075-.844q.888-1.895.4-1.073-.507.8.676-.883c-.784.9.964-.66,1.371-.826q1.129-.415.267-.164l1.411-.234a5.261,5.261,0,0,1,3.4,1.2q.954.8.346.234l.883,1.146c-.719-1.08.712,2.006.306.772-.382-1.164.145,1.974.164,1.058q.024-.624-.091.618a3.919,3.919,0,0,1-.7,2.146c.59-1.067-1.491,1.54-.471.707a8.155,8.155,0,0,0,2.382-5.747,8.27,8.27,0,0,0-2.382-5.749,8.174,8.174,0,0,0-5.747-2.38,9.282,9.282,0,0,0-5.749,2.38" transform="translate(46.814 65.498)"/><path class="d" d="M29.512,191.2a1376.691,1376.691,0,0,0,176.3-.956c10.379-.723,10.459-16.986,0-16.258a1376.7,1376.7,0,0,1-176.3.956c-10.452-.613-10.416,15.646,0,16.258" transform="translate(13.571 108.862)"/></g></svg>