<?xml version="1.0" encoding="UTF-8"?><svg id="Layer_2" xmlns="http://www.w3.org/2000/svg" viewBox="0 0 209.55 205.53"><defs><style>.cls-1{fill:#0094a8;}.cls-2{fill:#84c12d;}</style></defs><g id="Layer_1-2"><path class="cls-1" d="M6.58,62.77c-8.94,8.74-7.98,24.23-1.86,34.36,7.72,12.79,24.2,13.32,37.46,13.46,35.66.38,71.38-2.64,107.04-3.48,8.92-.21,17.84-.36,26.76-.42,7.35-.05,15.23,0,22-3.27,12.94-6.24,14.17-24.12,7.87-35.63-6.28-11.49-21-12.13-32.51-11.82-17.85.48-35.7.73-53.56.79-19.85.07-39.69-.02-59.54-.04-10.24,0-20.48,0-30.73.08-8.29.06-16.3.45-22.95,5.98-7.43,6.17,3.23,16.73,10.61,10.61-1.32,1.09,1-.42,1.35-.57,1.23-.5,2.75-.82,4.07-.96,3.22-.35,6.67-.06,9.9-.07,7.93-.05,15.86-.06,23.79-.06,14.55,0,29.1.06,43.65.07s29.11-.03,43.66-.21c13.07-.16,26.71-1.75,39.73-.47,2.95.29,6.93.8,8.98,3.24,2.43,2.89,3.38,11,1.03,14.1s-8.04,3.06-11.58,3.19c-7.53.26-15.09.14-22.63.27-29.75.54-59.45,2.08-89.19,3.19-7.93.3-15.86.53-23.8.52-6.71,0-13.82.35-20.38-1.31-5-1.26-8.11-3.48-9.69-8.41-1.25-3.9-2.12-9.37,1.1-12.52,6.91-6.76-3.7-17.36-10.61-10.61Z"/><path class="cls-2" d="M110.83,190.21c.9-39.1.02-78.23,1.21-117.32.28-9.28-.67-19.96,2.21-28.85,2.17-6.68,7.31-12.77,12.87-16.94,9.93-7.44,26.73-10.19,37.87-4.07,5.24,2.88,6.08,9.43,6.04,14.92-.03,4.46-1.21,8.81-5.97,11.01-7.98,3.67-18.56,2.98-27.08,3.4-10.54.52-21.08.9-31.62,1.09s-21.09.17-31.64-.09c-8.92-.22-18.87.44-27.54-1.96-5.42-1.5-9.03-4.34-11.42-8.9-.87-1.66-1.7-4.6-2.11-7.19-.33-2.07-.25-4.15.2-6.05.06-.27.62-1.84-.03-.31.3-.72.72-1.39,1.12-2.05.58-.95-.06-.02-.19.14.57-.71,1.29-1.43,2-2-1.16.95,1.59-.91,2.09-1.16.89-.44,1.91-.75,3.79-1.2,6.87-1.63,16.87-.95,23.69,2.49,14.55,7.32,21.23,26.49,27.15,40.48,2.1,4.98,9.45,6.06,13.68,3.59,5.15-3.01,5.7-8.69,3.59-13.68-7.36-17.42-15.84-36.67-32.82-46.82C62.52-.51,36.15-1.76,22.26,11.21c-12.31,11.5-10.72,32.42-1.3,45.22,13.78,18.73,38.92,16.71,59.7,17.05,24.56.4,49.75.43,74.2-2.21,10.92-1.18,22.14-3.51,29.33-12.55,5.85-7.35,7.53-16.78,6.55-25.97-1.13-10.63-5.23-20.44-14.58-26.36C168.05,1.25,157.5-.31,148.06.05c-20.58.79-39.5,11.65-49.44,30.02-6.81,12.58-6.08,27.06-6.52,40.94-.41,12.74-.59,25.48-.67,38.23-.17,26.99.02,53.98-.6,80.97-.3,12.87,19.7,12.87,20,0h0Z"/><path class="cls-1" d="M172.26,102.49c1.96,21.64,3.77,43.31,4.6,65.03.19,5.06.62,10.24.37,15.3-.16,3.14-.53,6.03-3.74,7.15-4.14,1.44-9.77.36-14.08.23-5.88-.18-11.76-.43-17.64-.7-21.53-1.02-43.07-2.44-64.64-2.18-10.2.12-20.31,1.14-30.48,1.58-2.77.12-6.93.6-9.1-1.59s-2.37-6.36-2.7-9.2c-2.83-24.42-3.46-49.27-3.89-73.83-.17-9.64-15.17-9.67-15,0,.43,24.6,1.28,49.35,3.89,73.83.98,9.17,3.11,18.9,12.13,23.41,9.4,4.7,21.53,1.71,31.51,1.21,24.79-1.25,49.61.36,74.37,1.58,5.88.29,11.76.56,17.64.77,6.3.22,12.93.95,19.17-.06,10.66-1.73,16.35-9.69,17.41-20.02.69-6.67-.06-13.7-.34-20.38s-.63-12.96-1.05-19.43c-.92-14.25-2.14-28.47-3.43-42.68-.86-9.54-15.87-9.63-15,0h0Z"/></g></svg>