<svg xmlns="http://www.w3.org/2000/svg" xmlns:xlink="http://www.w3.org/1999/xlink" width="81.295" height="96.841" viewBox="0 0 81.295 96.841"><defs><style>.a{fill:none;}.b{clip-path:url(#a);}.c{fill:#bbe048;}.d{fill:#0094a8;}</style><clipPath id="a"><rect class="a" width="81.295" height="96.841"/></clipPath></defs><g class="b"><path class="c" d="M52.447,75.66c6.249-13.617,27.586-12.7,20.227,5.292-3.063,7.3-6.6,14.608-12.378,20.12-3.351,3.557-5.669,7.2-10.752,4.438A32.441,32.441,0,0,1,41.9,99.475a41.272,41.272,0,0,1-8.924-12.061C31.215,83.177,29,78.428,29.724,73.7c1.268-6.891,10.266-9.483,15.9-6.167,3.186,1.7,5.366,5.017,6.95,8.294" transform="translate(-11.994 -26.799)"/><path class="c" d="M52.68,75.436A15.224,15.224,0,0,1,59.3,68.307a13.417,13.417,0,0,1,4.114-1.425,5.026,5.026,0,0,1,.749-.1c.353-.032.708-.049,1.062-.049s.69.015,1.033.047c.081.008.486.062.227.023.183.028.365.06.546.1q.427.089.844.218c.153.048.305.1.456.157.083.03.165.063.247.1-.163-.069-.063-.027.039.023a8.518,8.518,0,0,1,.78.423c.117.074.231.152.345.23.273.186,0-.026.237.186a5.42,5.42,0,0,1,1.075,1.2,7.94,7.94,0,0,1,.448.809c.032.067.063.136.092.2-.088-.208-.013-.025,0,.015.067.181.13.363.185.549a9.746,9.746,0,0,1,.139,4.448,29.737,29.737,0,0,1-2.307,6.652c-2.352,5.341-5.074,10.646-8.959,15.048-.939,1.065-1.975,2.036-2.93,3.086a35.844,35.844,0,0,1-2.545,2.651,5.416,5.416,0,0,1-2.567,1.428,4.96,4.96,0,0,1-3.045-.627,29.237,29.237,0,0,1-7.189-5.528A52.494,52.494,0,0,1,36.5,91.542a37.677,37.677,0,0,1-4.3-8.015c-1.172-2.879-2.287-5.924-2.22-9.077.092-4.277,3.432-7.105,7.455-7.813,4.6-.809,8.64,1.645,11.164,5.373A29.094,29.094,0,0,1,50.647,75.6c.705,1.446,2.862.18,2.159-1.262a21.334,21.334,0,0,0-5.334-7.332,13.067,13.067,0,0,0-6.9-2.942c-4.47-.493-9.467,1.46-11.779,5.453-1.537,2.654-1.513,5.8-.92,8.727A30.172,30.172,0,0,0,29.4,83.183c.615,1.58,1.24,3.18,1.981,4.705a37.865,37.865,0,0,0,5.463,8.07,56.547,56.547,0,0,0,7.018,6.928c2.278,1.858,5.269,4.13,8.378,3.983,2.64-.126,4.6-1.962,6.3-3.8a86.7,86.7,0,0,0,6.2-7.012A55.5,55.5,0,0,0,69.7,87.813,77.123,77.123,0,0,0,73.464,79.3,17.324,17.324,0,0,0,74.6,73.05a8.661,8.661,0,0,0-4.577-7.743c-6.438-3.187-14.285.9-18.044,6.313a17.118,17.118,0,0,0-1.455,2.554,1.285,1.285,0,0,0,.448,1.711,1.26,1.26,0,0,0,1.711-.448" transform="translate(-11.147 -25.944)"/><path class="c" d="M86.925,8.712A13.09,13.09,0,0,0,87,1.006a1.359,1.359,0,0,0-2.621.722,13.515,13.515,0,0,1,.371,1.695c-.042-.276.026.24.03.29q.018.194.03.389.026.419.021.84t-.038.83c-.011.127-.024.253-.038.379.031-.293-.023.144-.033.2A10.936,10.936,0,0,1,84.3,7.989a1.369,1.369,0,0,0,.949,1.671,1.391,1.391,0,0,0,1.672-.949" transform="translate(-34.157 0)"/><path class="c" d="M105.173,11.892a58.527,58.527,0,0,0,4.965-8.144,1.359,1.359,0,0,0-2.347-1.372,58.5,58.5,0,0,1-4.964,8.144,1.364,1.364,0,0,0,.488,1.859,1.4,1.4,0,0,0,1.859-.488" transform="translate(-41.611 -0.697)"/><path class="c" d="M117.793,26.284a48.4,48.4,0,0,0,6.429-2.887,1.212,1.212,0,0,0,.431-1.643,1.227,1.227,0,0,0-1.643-.431q-1.447.785-2.947,1.464-.365.165-.732.323l-.21.09q.166-.07-.031.012l-.319.131q-.8.327-1.617.624a1.2,1.2,0,0,0,.639,2.315" transform="translate(-47.138 -8.582)"/><path class="d" d="M76.668,61.572c.806,12.023-1.882,24.5-11.543,32.5-9.288,7.694-23.759,9.985-35.324,7.35-7.781-1.773-15.122-6.2-19.483-13C5.995,81.683,4.507,73.439,4.5,65.54c0-7.67,1.449-14.951,6.088-21.224A37.664,37.664,0,0,1,29.152,31.4a37.9,37.9,0,0,1,25.029.335c9.385,3.56,15.348,11.2,20.525,19.427,1.537,2.442,5.428.189,3.882-2.269-5.031-8-10.746-15.54-19.4-19.842A41.115,41.115,0,0,0,34.48,25.5C18.027,28.086,2.761,40.466.525,57.543-1.724,74.72,3.01,93.882,19.419,102.383c13.042,6.757,30.993,5.847,43.681-1.475C77.157,92.8,82.2,77.063,81.163,61.572c-.193-2.871-4.689-2.893-4.5,0" transform="translate(0 -10.122)"/><path class="d" d="M119.849,45.881a89,89,0,0,0-1.435,11.876l2.23-2.23a32.88,32.88,0,0,1-10.909-1.614c-2.737-.883-3.91,3.421-1.186,4.3a36.785,36.785,0,0,0,12.095,1.773,2.278,2.278,0,0,0,2.23-2.23,79.964,79.964,0,0,1,1.276-10.691c.53-2.8-3.767-4.007-4.3-1.186" transform="translate(-43.382 -17.949)"/></g></svg>