<svg xmlns="http://www.w3.org/2000/svg" xmlns:xlink="http://www.w3.org/1999/xlink" width="87.091" height="77.844" viewBox="0 0 87.091 77.844"><defs><style>.a{fill:none;}.b{clip-path:url(#a);}.c{fill:#0094a8;}.d{fill:#84c12d;}</style><clipPath id="a"><rect class="a" width="81.208" height="71.036"/></clipPath></defs><g transform="matrix(0.996, -0.087, 0.087, 0.996, 0, 7.078)"><g class="b"><path class="c" d="M.152,25.537C-.177,36.129.211,46.719.676,57.3c.107,2.432.114,4.892.31,7.318a6.226,6.226,0,0,0,1.7,3.994c2.634,2.623,7.453,1.878,10.807,1.986,9.75.315,20.106,1.354,29.542-1.588,4.547-1.418,8.826-3.5,13.495-4.532a108.493,108.493,0,0,1,14.716-1.82c3.1-.251,7.034.021,8.967-2.947a6.958,6.958,0,0,0,1-3.961c-.032-2.581-.195-5.176-.288-7.757q-.568-15.655-1.477-31.3-.234-4.021-.491-8.041c-.124-1.943-.031-4.123-.825-5.943C76.711-.531,72.979-.192,70.04.348c-3.913.719-7.886,1.472-11.758,2.384a59.933,59.933,0,0,0-6.594,1.925C49.26,5.532,47,6.816,44.572,7.667,39.412,9.479,33.792,9.6,28.383,9.706c-5.651.107-11.273.152-16.922-.11C7.346,9.4,2.811,9.253.953,13.658-.582,17.3.214,21.694.152,25.537c-.035,2.2,3.388,2.2,3.423,0,.049-3.069-.529-6.515.188-9.515a3.594,3.594,0,0,1,3.7-3.072,53.419,53.419,0,0,1,6.244.167c8.357.321,17.1.506,25.4-.7a37.265,37.265,0,0,0,5.98-1.328c2.091-.666,3.967-1.743,6-2.561A63.052,63.052,0,0,1,62.773,5.273c3.208-.618,6.613-1.653,9.868-1.849,2.03-.122,2.523.59,2.714,2.554.23,2.371.307,4.768.452,7.146q.827,13.627,1.393,27.268c.192,4.62.322,9.243.509,13.864.05,1.247.379,2.9-.609,3.9-1.159,1.167-3.537.9-5.03,1.018-8.339.684-16.383,1.439-24.239,4.5a54.555,54.555,0,0,1-11.956,3.526c-4.286.611-8.821.246-13.14.194-4.991-.062-9.977-.225-14.964-.427-2.08-.084-3.222-.764-3.377-2.945-.18-2.528-.225-5.075-.335-7.607-.448-10.284-.8-20.575-.484-30.868.068-2.2-3.354-2.2-3.423,0" transform="translate(0 0)"/><path class="d" d="M20.277,50.861c-1.069,1.5-.958,3.573-1.04,5.329-.1,2.224-.262,4.445-.395,6.668A69.571,69.571,0,0,0,18.994,76.1c.26,1.971.423,4.3,1.774,5.864a6.059,6.059,0,0,0,4.243,1.809A15.478,15.478,0,0,0,27.4,83.69c1.143-.091,2.287-.167,3.432-.235,2.26-.133,4.52-.232,6.78-.353s4.513-.261,6.763-.478q1.7-.164,3.383-.392a4.79,4.79,0,0,0,2.586-1.074,5.821,5.821,0,0,0,1.742-4.421c.025-2.22-.158-4.464-.271-6.681q-.348-6.9-.948-13.776c-.161-1.854-.135-3.86-.928-5.58a4.784,4.784,0,0,0-2.972-2.523,14.772,14.772,0,0,0-4.916-.226q-3.484.125-6.967.319-3.425.19-6.847.442-1.6.116-3.192.248a11.2,11.2,0,0,0-2.642.419,4.093,4.093,0,0,0-1.952,1.253,1.177,1.177,0,0,0,0,1.613,1.148,1.148,0,0,0,1.613,0c.827-1.047,2.5-.966,3.707-1.063q3.137-.251,6.279-.45c4.124-.262,8.27-.529,12.4-.583a5.619,5.619,0,0,1,1.735.18c.132.035.262.077.391.123.188.069-.032-.028.142.063.114.061.223.126.334.19.2.115.033-.009.2.147a2.776,2.776,0,0,1,.716,1.015,7.407,7.407,0,0,1,.4,2.046q.592,6.367.974,12.752.188,3.163.324,6.33c.047,1.092.091,2.185.126,3.278a5.888,5.888,0,0,1-.205,1.944,2.612,2.612,0,0,1-.8,1.281,4.41,4.41,0,0,1-2.326.618c-2.056.247-4.122.416-6.188.549-4.181.269-8.37.393-12.547.717a9.239,9.239,0,0,1-4.234-.223,2.825,2.825,0,0,1-1.157-.856,5.714,5.714,0,0,1-.76-2.376,51.731,51.731,0,0,1-.614-12.115c.087-2.044.225-4.086.353-6.127.119-1.91.147-3.834.316-5.74a3.791,3.791,0,0,1,.608-1.931,1.151,1.151,0,0,0-.409-1.562,1.166,1.166,0,0,0-1.561.409" transform="translate(-10.113 -26.016)"/><path class="d" d="M102.92,52.012,124.851,48.2c2.166-.376,1.248-3.675-.91-3.3L102.01,48.711c-2.166.377-1.248,3.676.91,3.3" transform="translate(-54.782 -24.392)"/><path class="d" d="M102.842,74.032q11.539-2.261,23.241-3.443c2.171-.218,2.193-3.643,0-3.423q-12.155,1.222-24.151,3.566c-2.16.423-1.245,3.723.91,3.3" transform="translate(-54.741 -36.507)"/><path class="d" d="M103.714,97.364l17.34-3.417c2.159-.425,1.245-3.725-.91-3.3L102.8,94.064c-2.159.425-1.245,3.725.91,3.3" transform="translate(-55.216 -49.256)"/><path class="d" d="M29.228,89.731a10.925,10.925,0,0,0,1.757-2.647,21.406,21.406,0,0,1,1.971-2.63l2.359-2.825,1.143-1.37.643-.77c.1-.114.19-.229.286-.342.039-.048.079-.1.12-.142q.144-.148-.116.044h-.607q-.3-.2,0,.04l.3.267q.222.2.441.406.515.48,1.017.973,1.017,1,1.978,2.054a55.742,55.742,0,0,1,3.663,4.456,1.16,1.16,0,0,0,1.971,0,15.707,15.707,0,0,1,1.244-1.662q.313-.361.648-.7.2-.2.4-.4l.136-.128q.289-.246-.028-.01h-.607c-.361-.116.106.237.2.343q.211.237.42.476.455.521.9,1.051.872,1.042,1.7,2.118a1.18,1.18,0,0,0,1.561.409,1.149,1.149,0,0,0,.409-1.561c-.714-.929-1.442-1.847-2.2-2.743q-.479-.569-.971-1.127a3.316,3.316,0,0,0-1.291-1.126c-1.053-.345-1.875.67-2.515,1.355a19.277,19.277,0,0,0-1.986,2.552H46.15a57.377,57.377,0,0,0-7.235-8.149c-.669-.616-1.394-1.422-2.39-1.014a2.612,2.612,0,0,0-.968.859l-1,1.2c-1.221,1.462-2.449,2.919-3.662,4.388a21.925,21.925,0,0,0-1.829,2.469,9.674,9.674,0,0,1-1.453,2.272c-1.087.992.53,2.6,1.614,1.614" transform="translate(-14.815 -41.761)"/><path class="d" d="M66.594,63.251a7.626,7.626,0,0,0-1.905.12,2.692,2.692,0,0,0-1.614,1.014,2.876,2.876,0,0,0-.465,1.264,3.519,3.519,0,0,0,1.7,3.578,2.541,2.541,0,0,0,3.4-1.274,4.658,4.658,0,0,0,.256-1.058,5.493,5.493,0,0,0,.008-2.1,2.108,2.108,0,0,0-1.228-1.544,2.827,2.827,0,0,0-1.282-.031" transform="translate(-34.018 -34.337)"/></g></g></svg>