<svg xmlns="http://www.w3.org/2000/svg" xmlns:xlink="http://www.w3.org/1999/xlink" width="65.844" height="65" viewBox="0 0 65.844 65"><defs><style>.a{fill:none;}.b{clip-path:url(#a);}.c{fill:#0094a8;}.d{fill:#84c12d;}</style><clipPath id="a"><rect class="a" width="65.844" height="65"/></clipPath></defs><g class="b"><path class="c" d="M34.981,2.8A29,29,0,0,1,54.055,9.986a27.621,27.621,0,0,1,8.621,16.073A32.944,32.944,0,0,1,51.27,56.087c-9.685,7.96-23.609,7.763-34.1,1.485C6.141,50.977.173,37.909,3.981,25.392c4.038-13.273,17.2-22.735,31-22.589a1.4,1.4,0,0,0,0-2.8A35.554,35.554,0,0,0,2.915,20.394,30.245,30.245,0,0,0,.772,40.045a31.459,31.459,0,0,0,10.939,17.12c10.534,8.439,25.98,10.722,37.8,3.57C60.11,54.327,66.351,41.669,65.811,29.4a31.166,31.166,0,0,0-6.418-17.772A30.663,30.663,0,0,0,40.551.511,34.475,34.475,0,0,0,34.981,0a1.4,1.4,0,0,0,0,2.8" transform="translate(0 0)"/><path class="d" d="M107.14,36.118c3.362.907,4.878,5.474,2.51,8.119-2.715,3.113-7.649.894-8.166-2.912a4.538,4.538,0,0,1,5.606-5.221Z" transform="translate(-72.993 -25.861)"/><path class="d" d="M66.648,77.294c4.133-.566,8.283-1.136,12.456-1.394a13.15,13.15,0,0,1,5.571.43c2.182.851,2.28,3.032.273,4.222-2.325,1.407-5.611,1.375-8.241,2.137-1.545.418-3.1.421-3.6,2.021-.653,1.918.224,5.574.611,7.795a102.386,102.386,0,0,1,1.564,11.68,9.319,9.319,0,0,1-.333,3.729c-.687,2-2.707,2.1-4.051.668-2.157-2.316-2.45-5.712-3.3-8.653a7.739,7.739,0,0,0-.978-2.3c-1.07-1.588-2.332-.483-2.931.947a28.135,28.135,0,0,0-1.36,5.748c-.379,1.848-.819,3.662-2.269,4.817a2,2,0,0,1-2.535.124c-1.455-1.28-1.027-3.811-.643-5.579,1.193-4.786,2.8-9.577,2.6-14.57a10.471,10.471,0,0,0-.553-3.4c-.81-2.258-2.765-3.431-5.149-3.957-2.215-.541-4.9-.707-6.789-1.931-1.246-.856-1.94-1.941-1.195-2.93,1.051-1.1,3.083-.9,4.544-.78,5.36.442,10.888,1.741,16.246,1.18Z" transform="translate(-32.746 -54.564)"/></g></svg>