<svg xmlns="http://www.w3.org/2000/svg" xmlns:xlink="http://www.w3.org/1999/xlink" width="56.659" height="65" viewBox="0 0 56.659 65"><defs><style>.a{fill:none;}.b{clip-path:url(#a);}.c{fill:#0094a8;}.d{fill:#84c12d;}</style><clipPath id="a"><rect class="a" width="56.659" height="65"/></clipPath></defs><g class="b"><path class="c" d="M24.611,88.944c-1.383,4.9-1.734,10.065-3.494,14.861a1.613,1.613,0,0,0,1.969,1.976,70.279,70.279,0,0,0,7.462-3.438q2.06-1.112,4.036-2.374a8.157,8.157,0,0,0,2.674-2.044c1.205-1.937-1.265-3.2-2.511-4.208-2.261-1.831-4.416-3.784-6.486-5.83A1.6,1.6,0,0,0,26,90.157c1.44,1.422,2.916,2.8,4.448,4.128q1.148.991,2.332,1.941c.187.15,1.66,1.091,1.679,1.153l.412-1.563c-1.336,1.619-4.107,2.766-5.937,3.754a63.212,63.212,0,0,1-6.7,3.114l1.97,1.976c1.76-4.8,2.111-9.959,3.494-14.861a1.6,1.6,0,0,0-3.088-.854" transform="translate(-12.057 -49.978)"/><path class="c" d="M32.4,40.764c5.027-5.063,9.13-11.021,13.43-16.694l6.793-8.963A99.861,99.861,0,0,1,59.28,6.593c2.116-2.237,5.809-4.668,8.914-2.768,2.576,1.576,2.7,5.316,1.7,7.853-1.18,3.006-3.723,5.3-5.992,7.488q-3.854,3.711-7.553,7.576A238.293,238.293,0,0,0,40.283,45.5c-1.246,1.615,1,3.9,2.264,2.271A237.9,237.9,0,0,1,59.165,28.436c2.837-2.958,5.823-5.758,8.71-8.664,2.329-2.344,4.623-5.056,5.454-8.337C74.852,5.419,70.939-.941,64.278.115c-3.492.554-6.221,2.875-8.42,5.52-2.633,3.168-5.025,6.559-7.513,9.842-5.862,7.735-11.363,16.116-18.213,23.016A1.6,1.6,0,0,0,32.4,40.764" transform="translate(-16.997 0)"/><path class="c" d="M104.263,23.166a27.49,27.49,0,0,1-9.958-6.714c-1.429-1.5-3.692.778-2.264,2.271a31.124,31.124,0,0,0,11.371,7.54c1.924.747,2.756-2.358.851-3.1" transform="translate(-52.479 -9.126)"/><path class="d" d="M1.539,146.342a336.679,336.679,0,0,1,45.617-.135c2.058.134,2.05-3.079,0-3.212a336.681,336.681,0,0,0-45.617.135c-2.044.145-2.06,3.358,0,3.212" transform="translate(0 -81.346)"/></g></svg>