<?xml version="1.0" encoding="UTF-8"?><svg id="Layer_1" xmlns="http://www.w3.org/2000/svg" viewBox="0 0 40 40"><defs><style>.cls-1{fill:#b8e650;}</style></defs><path id="Icon_awesome-linkedin-in" class="cls-1" d="M12.04,34.44h-5.99V15.16h5.99v19.28ZM9.04,12.53c-1.92,0-3.49-1.54-3.5-3.47,0-1.92,1.54-3.49,3.47-3.5,1.92,0,3.49,1.54,3.5,3.47,0,1.92-1.55,3.48-3.47,3.5ZM34.45,34.44h-5.97v-9.39c0-2.24-.05-5.11-3.11-5.11s-3.59,2.43-3.59,4.94v9.55h-5.98V15.16h5.74v2.63h.08c1.17-2,3.35-3.2,5.66-3.11,6.06,0,7.17,3.99,7.17,9.17v10.59h0Z"/></svg>