<?xml version="1.0" encoding="UTF-8"?><svg id="Layer_1" xmlns="http://www.w3.org/2000/svg" viewBox="0 0 300 210"><defs><style>.cls-1{fill:#bbe048;}.cls-2{fill:#0094a8;}.cls-3{fill:#fff;}.cls-4{fill:#84c12d;}.cls-5{fill:#44493a;}</style></defs><path class="cls-3" d="M248.42,140.1c-1.12,0-1.12,1.12-2.23,2.09-1.81,1.67-4.88,4.33-9.07,6.7-5.02,2.93-10.74,5.44-14.09,5.44-2.23,0-3.21-1.12-3.21-3.63,0-8.37,10.47-29.3,12.28-32.51.28-.56.42-1.12.42-1.81,0-2.51-2.37-4.74-3.77-4.74-.98,0-.84.14-1.95,2.23-1.41,2.67-3.66,6.9-5.86,11.63-4.29,6.65-14.39,20-21.06,25.06-1.67,1.26-2.93,1.95-4.05,1.95-.84,0-1.26-.56-1.26-1.67,0-5.02,7.95-22.05,12.28-31.26.28-.56.42-1.12.42-1.81,0-2.37-1.95-3.91-4.05-4.47-1.81-.42-3.91-.42-5.86-1.53.7-1.12,2.23-3.91,2.23-5.86s-2.23-3.63-3.63-3.63c-.42,0-.84.28-.98.7-1.12,3.91-3.49,8.23-6,10.74-2.23,2.23-5.02,3.35-8.37,3.49-1.26-1.39-2.79-2.09-3.91-2.09,0-2.51-3.35-4.05-5.44-4.05-4.05,0-11.58,6.42-17.72,17.3-.1.19-.18.36-.28.54-.99,1.15-1.97,2.14-2.92,2.95-3.35,3.21-7.95,6.7-14.09,9.91-1.81-4.6-4.32-8.79-4.32-13.12,0-1.53.42-3.49,1.67-5.58,2.23-3.49,5.3-6.42,8.23-8.79,2.09-1.67,4.32-2.93,6.14-3.21,1.26-.14,1.81-.84,1.81-1.81,0-1.81-2.37-4.61-5.3-4.61-1.81,0-4.05,1.4-6.28,3.07-4.47,3.35-8.37,8.37-10.47,13.12-.24.57-.45,1.14-.63,1.69-.61.75-1.31,1.99-2.43,3.75-3.49,5.44-10.88,14.51-17.86,20.79-5.44,5.02-11.58,8.65-16.32,8.65-3.35,0-4.61-3.77-4.61-8.37,6.56-3.77,21.35-15.35,26.09-23.86,1.39-2.37,1.53-4.61,1.53-5.44,0-4.88-4.05-7.12-7.95-7.12-7.12,0-15.77,6.14-22.61,20.65-.6,1.23-1.1,2.43-1.53,3.6-1.91,2.42-3.87,4.76-5.58,6.72-6.7,7.81-13.81,14.51-17.16,14.51-1.39,0-1.95-1.26-1.95-3.63,0-5.02,2.51-12.98,5.86-21.21,2.23-5.58,5.02-11.02,7.82-16.75,5.44-.28,11.44-.56,15.91-.56h2.65c1.67,0,2.23-.28,2.23-.84,0-.84-1.26-1.81-2.37-2.37-2.51-1.4-7.26-1.67-15.63-1.67,2.23-4.47,4.05-8.37,5.58-11.58,1.67-3.63,2.79-6.28,2.79-7.53,0-3.35-1.25-4.88-2.93-4.88-1.39,0-2.23,1.26-3.63,4.19-1.81,3.63-5.3,10.33-10.05,20.09-5.58.14-10.47.42-12.7.56-1.26.14-1.81.7-1.81,1.67,0,1.81,2.23,4.19,4.46,4.19.98,0,1.67-.14,7.4-.56-6.42,13.81-12,28.47-12,34.47,0,7.53,4.88,11.44,9.77,11.44,2.93,0,6.98-2.09,10.75-5.3,3.02-2.52,6.05-5.7,8.89-9.07.79,8.43,6.33,13.81,13.43,13.81,5.58,0,11.44-3.49,17.02-8.23,6.8-5.8,12.94-13.88,16.75-20.11,1.17,4.33,3.51,7.93,4.73,11.59-5.16,2.65-10.19,4.74-13.53,6.42-2.51,1.26-4.05,2.37-4.33,3.21-.14.56-.28,1.12-.28,1.67,0,3.49,2.23,5.72,4.19,6.7,1.25.56,3.21.7,4.74.7,7.26,0,15.21-3.77,15.21-13.54v-1.95c3.55-1.77,7.31-4.03,10.76-6.54-.48,1.93-.72,3.65-.72,5.14,0,6.28,5.72,10.74,9.77,10.74,1.81,0,9.21-3.35,17.3-15.35,5.86-8.65,7.68-14.09,7.68-18.98,4.46-.42,9.21-2.79,11.72-6.14,1.53.28,5.3-.14,5.3,2.09,0,3.21-6.98,13.95-9.63,23.86-.56,1.95-1.11,4.19-1.11,5.86,0,4.74,3.21,9.63,8.23,9.63,2.23,0,4.33-.84,6.98-2.79,3.48-2.62,7.11-6.55,10.45-10.74-.17,1.09-.27,2.11-.27,3.06,0,6.56,3.07,13.4,9.63,13.4,8.93,0,23.86-11.3,25.81-15.21.42-.84.7-1.95.7-2.51,0-1.67-.84-2.79-1.81-2.79ZM102.2,118.33c1.95-1.53,3.63-2.51,4.6-2.51.7,0,1.26.42,1.26,1.26,0,.98-.56,2.23-1.53,3.77-3.63,5.72-12.98,14.79-19.26,19.4.42-1.67,1.12-3.35,1.95-5.16,3.07-6.42,8.65-13.26,12.98-16.74ZM127.45,155.86c-2.65,1.53-5.86,2.23-8.09,2.23-.56,0-1.11-.14-1.53-.28.98-1.95,3.91-3.21,7.68-4.88l6.7-3.07c-.56,2.79-2.51,4.74-4.74,6ZM155.21,151.96c-1.25,0-1.81-1.81-1.81-3.77,0-3.77,1.95-9.91,6.28-17.3,3.35-5.86,7.95-11.3,12.28-13.53.28,1.81,2.23,3.77,4.61,4.47-1.81,10.74-16.61,30.14-21.35,30.14Z"/><path class="cls-1" d="M233.5,96.06c1.95-1.53,6.56.31,6.91,2.77.35,2.44-3.55,5.49-5.85,4.57-2.31-.93-3.02-5.82-1.06-7.33Z"/><path class="cls-1" d="M103.46,189.37v-1.65l1.72-.33v-11.64l-1.72-.34v-1.67h6.55c1.4,0,2.62.33,3.67.99,1.05.66,1.87,1.56,2.45,2.72.59,1.15.88,2.47.88,3.96v.31c0,1.47-.29,2.78-.86,3.94-.57,1.16-1.38,2.07-2.42,2.73-1.04.66-2.26.99-3.65.99h-6.63ZM107.89,187.29h2.06c.92,0,1.7-.25,2.35-.74.65-.49,1.14-1.16,1.49-2,.34-.84.52-1.79.52-2.84v-.32c0-1.08-.17-2.04-.52-2.87-.34-.83-.84-1.49-1.49-1.97-.65-.48-1.43-.72-2.35-.72h-2.06v11.46Z"/><path class="cls-1" d="M120.12,189.37v-1.65l1.71-.32v-11.68l-1.71-.32v-1.67h11.91v4.03h-2.11l-.18-1.94h-5.21v4.43h5.49v2.09h-5.49v4.97h5.5l.18-1.99h2.08v4.05h-12.18Z"/><path class="cls-1" d="M141.88,189.6c-1.07,0-2.06-.13-2.98-.4-.92-.26-1.81-.71-2.67-1.32v-3.6h2.09l.34,2.33c.38.27.85.49,1.4.66.55.17,1.16.25,1.81.25s1.17-.09,1.61-.27c.43-.18.76-.44.99-.77.23-.33.34-.72.34-1.17,0-.42-.1-.78-.3-1.11-.2-.32-.53-.61-1-.87-.47-.25-1.1-.49-1.89-.7-1.17-.32-2.14-.69-2.93-1.12s-1.38-.95-1.77-1.55-.6-1.31-.6-2.13.23-1.58.68-2.22c.45-.64,1.09-1.15,1.9-1.53.81-.37,1.74-.56,2.8-.57,1.16-.01,2.19.14,3.08.45s1.65.73,2.26,1.24v3.36h-2.05l-.39-2.19c-.29-.21-.68-.38-1.14-.53-.47-.15-1.02-.22-1.66-.22-.54,0-1.02.09-1.44.27-.42.18-.74.43-.98.76-.24.33-.35.71-.35,1.17,0,.39.1.74.31,1.03.21.29.55.56,1.04.8.49.24,1.15.48,1.98.73,1.7.45,2.98,1.07,3.86,1.87.87.79,1.31,1.81,1.31,3.04,0,.87-.23,1.62-.7,2.27-.47.65-1.13,1.15-1.98,1.51-.85.36-1.84.54-2.98.54Z"/><path class="cls-1" d="M150.67,189.37v-1.65l1.71-.32v-11.68l-1.71-.32v-1.67h6.11v1.67l-1.7.32v11.68l1.7.32v1.65h-6.11Z"/><path class="cls-1" d="M167.05,189.6c-1.5,0-2.8-.33-3.88-.98-1.08-.66-1.91-1.56-2.49-2.73-.58-1.16-.87-2.51-.87-4.04v-.42c0-1.57.29-2.95.86-4.13.58-1.18,1.38-2.11,2.42-2.78,1.04-.67,2.25-1,3.63-1,1.16,0,2.21.15,3.14.45.93.3,1.73.72,2.41,1.27v3.34h-2.07l-.34-2.17c-.32-.24-.72-.42-1.2-.56-.49-.14-1.05-.2-1.7-.2-.88,0-1.66.24-2.33.72s-1.19,1.16-1.56,2.02c-.37.86-.55,1.87-.55,3.02v.44c0,1.14.18,2.13.53,2.98s.87,1.5,1.56,1.97,1.52.7,2.5.7c.62,0,1.17-.06,1.65-.17s.88-.26,1.22-.43v-3.08l-2.56-.15v-1.92h5.26v6.21c-.59.47-1.35.86-2.27,1.18s-2.04.48-3.36.48Z"/><path class="cls-1" d="M176.15,189.37v-1.65l1.71-.32v-11.68l-1.71-.32v-1.67h4.45l7.18,11.42.06-.02v-9.41l-1.98-.32v-1.67h6.12v1.67l-1.71.32v13.65h-2.57l-7.35-11.38h-.06v9.4l1.98.32v1.65h-6.12Z"/><path class="cls-2" d="M183.06,65.34c-11.76,21.3-58.78,21.49-70.48.24-11.7-21.16,3.01-58.9,35.98-58.9,28.38,0,46.35,37.46,34.5,58.66Z"/><path class="cls-3" d="M175.58,26.82c-11.06-17.92-18.41.34-27.99,1.32-9.58-.97-16.93-19.24-27.99-1.32-6.67,12.11-7.94,29.19.42,40.75,5.1,6.99,13.49,9.08,21.63,10.21,1.99.32,3.96.44,5.94.42,1.97.01,3.95-.11,5.94-.42,8.14-1.13,16.53-3.22,21.63-10.21,8.36-11.57,7.09-28.65.42-40.75Z"/><path class="cls-4" d="M145.61,65.78c1.09,1.46,2.87,1.46,3.96,0l7.62-10.22c1.09-1.46.95-3.74-.3-5.06,0,0-3.44-3.64-9.3-3.64s-9.3,3.64-9.3,3.64c-1.25,1.32-1.38,3.6-.3,5.06l7.62,10.22Z"/><ellipse class="cls-5" cx="133.83" cy="38.73" rx="5.15" ry="4.21" transform="translate(66.01 160.43) rotate(-77.01)"/><ellipse class="cls-5" cx="161.36" cy="38.73" rx="4.21" ry="5.15" transform="translate(-4.58 37.26) rotate(-12.99)"/></svg>