<svg xmlns="http://www.w3.org/2000/svg" xmlns:xlink="http://www.w3.org/1999/xlink" width="485.933" height="461.379" viewBox="0 0 485.933 461.379"><defs><style>.a{fill:#0396aa;}.b,.c,.f,.g{fill:none;}.b{stroke:#707070;}.b,.f,.g{stroke-width:5px;}.d{clip-path:url(#a);}.e{clip-path:url(#b);}.f,.g{stroke:#bbe048;stroke-linecap:round;stroke-linejoin:round;}.g{stroke-dasharray:11.92 7.947;}.h{clip-path:url(#c);}.i{fill:#bbe048;}</style><clipPath id="a"><rect class="a" width="56.713" height="61.93"/></clipPath><clipPath id="b"><rect class="b" width="103.734" height="114.467"/></clipPath><clipPath id="c"><rect class="c" width="42.308" height="10.3"/></clipPath></defs><g transform="translate(-78.103 -221.621)"><g transform="translate(131.676 221.621)"><g class="d" transform="translate(0 0)"><path class="a" d="M51.224,9.306A244.381,244.381,0,0,1,1.569,45.711c-3.591,1.991-.378,7.5,3.218,5.507a251.191,251.191,0,0,0,50.947-37.4c2.984-2.83-1.532-7.336-4.51-4.51" transform="translate(0 2.317)"/><path class="a" d="M50.11,51.9A113.342,113.342,0,0,0,9.519,8.826c-3-1.833-5.748,2.881-2.753,4.709A107.863,107.863,0,0,1,45.4,54.657c1.661,3.093,6.37.343,4.709-2.753" transform="translate(1.508 2.317)"/><path class="a" d="M53.762,28.929A111.5,111.5,0,0,0,3.547,22.986,3.285,3.285,0,0,0,.358,26.175c0,1.575,1.467,3.384,3.189,3.189a107.153,107.153,0,0,1,48.52,5.715,3.218,3.218,0,0,0,3.922-2.227,3.255,3.255,0,0,0-2.227-3.922" transform="translate(0.099 6.144)"/><path class="a" d="M25.727,3.8q-2.991,27.16-5.982,54.321c-.56,5.092,7.416,5.053,7.972,0Q30.71,30.966,33.7,3.8c.561-5.092-7.416-5.053-7.972,0" transform="translate(5.433 0)"/></g></g><g transform="matrix(-0.999, 0.035, -0.035, -0.999, 564.035, 679.38)"><g class="e" transform="translate(0 0)"><path class="f" d="M46.6,39.694c-.472,2.289-1.033,4.663-1.421,7.006" transform="translate(8.634 7.586)"/><path class="g" d="M53.559,63.294a10.488,10.488,0,0,0,1.831,3.5c5.035,5.171,12.957.4,15.4-5.705C74.836,51.309,67.4,38.879,58,35.775c-11.183-3.9-21.969,6.512-22.8,17.635-.99,8.852,1.689,19.422,8.2,25.609,7.689,7.431,20.332,6.383,28.833.791,14.6-9.278,14.143-31.065,7.91-45.921C76.885,26.762,70.6,22.111,62.7,20.473c-12.266-2.336-27.412-.635-36.021,9.322-6.528,7.687-7.413,18.657-7.7,28.852-.162,10.255-.443,21.476,6.6,29.1,6.424,6.806,16.374,8.381,25.371,8.6C63.151,96.6,76.545,93.741,85.259,85,95.417,74.552,100.8,57.873,100.97,43.237,100.341,28.21,91.267,10,76.737,4.281,63.987-.83,33.8,3.16,22.491,11.19,7.281,22.026-.02,44,2.484,62.141A88.105,88.105,0,0,0,6.2,76.478c2.792,8.394,5.888,17,12.306,21.564,8.1,5.865,20.313,13.339,30.335,13.658,4.34.036,10.4-.291,16.2-.4" transform="translate(0.382 0.382)"/><path class="f" d="M58.9,93.748a61.65,61.65,0,0,1,7.132.419" transform="translate(11.256 17.915)"/></g></g><g transform="translate(78.103 247.436)"><g class="h" transform="translate(0 0)"><path class="i" d="M1.448.719c2.487-1.952,8.372.4,8.819,3.527S5.738,11.251,2.8,10.074-1.046,2.655,1.448.719" transform="translate(0 0.001)"/><path class="i" d="M12.579,4.4c.379-3.139,6.2-5.639,8.73-3.743s1.751,8.157-1.157,9.4S12.185,7.531,12.579,4.4" transform="translate(3.46 -0.001)"/><path class="i" d="M33.943,9.578c-2.487,1.952-8.372-.4-8.819-3.527S29.654-.955,32.588.223s3.85,7.419,1.356,9.355" transform="translate(6.915 0.002)"/></g></g></g></svg>