<svg xmlns="http://www.w3.org/2000/svg" xmlns:xlink="http://www.w3.org/1999/xlink" width="380.125" height="290.341" viewBox="0 0 380.125 290.341"><defs><style>.a{fill:none;}.b{fill:#0396aa;}.c{clip-path:url(#a);}.d{fill:#0094a8;}.e{fill:#bbe048;}.f{clip-path:url(#b);}</style><clipPath id="a"><rect class="a" width="314.052" height="259.674"/></clipPath><clipPath id="b"><rect class="b" width="28.083" height="30.667"/></clipPath></defs><g transform="translate(-145.421 -268.006)"><g class="c" transform="translate(180.41 298.673)"><path class="d" d="M13.052,25.292c1.032-8.56,5.352-12.106,13.538-13.427,8.079-1.3,16.676-.511,24.817-.464l54.334.319,110.138.645,52.865.31c8.457.05,19.212-1.8,24.628,6.167,5.121,7.531,5.822,18.477,6.362,27.25,2.207,35.8,2.319,71.885,2.557,107.746q.089,13.177.068,26.354c-.006,4.278.152,8.6-.059,12.872-.35,7.1-3.943,8.532-9.949,10.627-15.638,5.457-32.345,6.331-48.752,6.941q-54.709,2.035-109.482,1.141c-35.683-.552-71.988-.775-107.513-4.42-15.6-1.6-15.525-17.444-15.5-29.848q.029-13.265.061-26.529.144-38.045.58-76.088c.208-16.441-.291-33.21,1.306-49.6.691-7.087-10.385-7.038-11.071,0C.384,41.679.883,58.449.674,74.889q-.48,38.042-.58,76.088c-.038,10.05-.133,20.105-.077,30.155.068,11.976,1.779,26.78,13.1,33.613,6.464,3.9,14.37,3.764,21.662,4.222q16.051,1.007,32.116,1.767,30.669,1.453,61.372,2.013c40.592.741,81.309.611,121.869-1.309,17.286-.818,35.336-2.393,51.349-9.469,16.642-7.354,11.973-28.516,11.941-43.489-.09-40.724-.087-81.729-2.622-122.387-.9-14.406-2.948-35.23-18.038-42.064C285.468.723,276.519,1.65,268.743,1.6l-32.307-.189L99.867.616C77.6.484,55.153-.466,32.9.288c-7.17.242-14.815,1.2-20.938,5.239-7,4.613-9.022,11.85-9.977,19.766-.852,7.057,10.227,7,11.071,0" transform="translate(0 0)"/><path class="e" d="M141.617,40.608C124.43,47.2,109.62,58.5,99.451,73.951c-5.64,8.57-3.434,12.537,3.794,19.172L130.225,117.9c5.24,4.812,13.09-3,7.829-7.828L119.376,92.918l-9.34-8.575c-1.014-.931-2.663-2.5-2.687-2.867a42.746,42.746,0,0,0,2.951-3.831,75,75,0,0,1,34.26-26.362c6.584-2.526,3.726-13.234-2.943-10.675" transform="translate(45.835 19.149)"/><path class="e" d="M168.21,40.479a92.249,92.249,0,0,0-22.087,34.675c-4.077,11.533-3.237,27.48-13.11,35.969-5.412,4.653,2.449,12.454,7.828,7.829,9.407-8.089,10.65-20.2,13.276-31.585a80.307,80.307,0,0,1,21.921-39.06c5.056-5.034-2.771-12.863-7.828-7.828" transform="translate(62.466 18.501)"/><path class="e" d="M169.3,49.849c8.963,10.1,18.58,19.6,27.543,29.7q-.713-2.692-1.424-5.386c-.768,4.713-7.642,9.931-10.606,14a111.351,111.351,0,0,0-12,21.246c-2.814,6.468,6.721,12.112,9.559,5.589a109.832,109.832,0,0,1,12-21.248c3.6-4.916,10.377-9.661,11.6-15.866,1.225-6.243-5.589-10.977-9.438-15.076-6.491-6.91-13.108-13.7-19.4-20.788-4.737-5.341-12.544,2.512-7.828,7.828" transform="translate(79.915 19.159)"/><path class="d" d="M5.947,133.155q148.684,4.575,297.377-3.11c7.09-.366,7.133-11.44,0-11.071q-148.556,7.683-297.377,3.11c-7.127-.22-7.119,10.853,0,11.071" transform="translate(0.288 56.644)"/><path class="e" d="M32.021,42.709l79.6.424c7.125.038,7.134-11.033,0-11.071l-79.6-.424c-7.125-.038-7.134,11.033,0,11.071" transform="translate(12.7 15.064)"/><path class="e" d="M32.02,64.8q38.483.89,76.96-.427c7.106-.244,7.139-11.316,0-11.071q-38.47,1.315-76.96.427c-7.127-.165-7.124,10.906,0,11.071" transform="translate(12.701 25.377)"/><path class="e" d="M30.836,87.2h79.6c7.125,0,7.136-11.071,0-11.071h-79.6c-7.124,0-7.136,11.071,0,11.071" transform="translate(12.136 36.249)"/><path class="e" d="M31.422,106.215a512.076,512.076,0,0,0,62.1-.152c7.075-.447,7.127-11.521,0-11.071a512.072,512.072,0,0,1-62.1.152c-7.118-.415-7.093,10.658,0,11.071" transform="translate(12.424 45.223)"/><path class="d" d="M86.793,148.643c-5.381,9.889-11.614,19.348-17.95,28.645-4.022,5.9,5.565,11.447,9.559,5.589,6.336-9.3,12.571-18.756,17.95-28.646,3.405-6.26-6.15-11.855-9.559-5.587" transform="translate(32.319 69.469)"/><path class="d" d="M124.449,151.694a81.2,81.2,0,0,0,15.979,30.543c4.671,5.4,12.472-2.462,7.828-7.828-6.125-7.077-10.621-16.694-13.132-25.658-1.919-6.851-12.6-3.94-10.675,2.943" transform="translate(59.145 68.967)"/><path class="d" d="M48.029,178.23c29.787,1.453,59.536,2.659,89.358,1.665s59.626-3.087,89.466-1.393c7.119.4,7.1-10.668,0-11.071-29.84-1.693-59.642.4-89.466,1.393s-59.571-.213-89.358-1.665c-7.122-.347-7.1,10.724,0,11.071" transform="translate(20.328 79.416)"/></g><g class="f" transform="translate(497.462 520.68)"><path class="b" d="M25.365,8.853A121.015,121.015,0,0,1,.777,26.881C-1,27.867.59,30.6,2.371,29.608A124.387,124.387,0,0,0,27.6,11.087c1.477-1.4-.759-3.633-2.233-2.233" transform="translate(0 -3.098)"/><path class="b" d="M27.576,29.948A56.125,56.125,0,0,0,7.476,8.616c-1.488-.908-2.846,1.427-1.363,2.332A53.413,53.413,0,0,1,25.244,31.311c.822,1.532,3.154.17,2.332-1.363" transform="translate(-2.016 -3.098)"/><path class="b" d="M26.8,25.581A55.211,55.211,0,0,0,1.937,22.638,1.627,1.627,0,0,0,.358,24.217,1.589,1.589,0,0,0,1.937,25.8a53.061,53.061,0,0,1,24.026,2.83,1.593,1.593,0,0,0,1.942-1.1,1.612,1.612,0,0,0-1.1-1.942" transform="translate(-0.132 -8.213)"/><path class="b" d="M22.693,1.884q-1.481,13.449-2.962,26.9c-.277,2.522,3.672,2.5,3.948,0q1.482-13.449,2.962-26.9c.278-2.522-3.672-2.5-3.948,0" transform="translate(-7.263 0)"/></g><g class="f" transform="translate(145.421 268.006)"><path class="b" d="M25.365,8.853A121.015,121.015,0,0,1,.777,26.881C-1,27.867.59,30.6,2.371,29.608A124.387,124.387,0,0,0,27.6,11.087c1.477-1.4-.759-3.633-2.233-2.233" transform="translate(0 -3.098)"/><path class="b" d="M27.576,29.948A56.125,56.125,0,0,0,7.476,8.616c-1.488-.908-2.846,1.427-1.363,2.332A53.413,53.413,0,0,1,25.244,31.311c.822,1.532,3.154.17,2.332-1.363" transform="translate(-2.016 -3.098)"/><path class="b" d="M26.8,25.581A55.211,55.211,0,0,0,1.937,22.638,1.627,1.627,0,0,0,.358,24.217,1.589,1.589,0,0,0,1.937,25.8a53.061,53.061,0,0,1,24.026,2.83,1.593,1.593,0,0,0,1.942-1.1,1.612,1.612,0,0,0-1.1-1.942" transform="translate(-0.132 -8.213)"/><path class="b" d="M22.693,1.884q-1.481,13.449-2.962,26.9c-.277,2.522,3.672,2.5,3.948,0q1.482-13.449,2.962-26.9c.278-2.522-3.672-2.5-3.948,0" transform="translate(-7.263 0)"/></g></g></svg>