<svg xmlns="http://www.w3.org/2000/svg" xmlns:xlink="http://www.w3.org/1999/xlink" width="380.273" height="308.417" viewBox="0 0 380.273 308.417"><defs><style>.a{fill:none;}.b{fill:#bbe048;}.c{clip-path:url(#a);}.d{fill:#0094a8;}.e{clip-path:url(#b);}</style><clipPath id="a"><rect class="a" width="380.273" height="308.417"/></clipPath><clipPath id="b"><rect class="b" width="28.083" height="30.667"/></clipPath></defs><g transform="translate(-121.898 -247.677)"><g transform="translate(121.898 247.677)"><g class="c"><path class="d" d="M131.6,78.025c23.4-2.623,47.727-1.542,71.253-1.5q36.3.057,72.57,1.487,8.705.345,17.4.773c5.818.285,13.187-.439,18.641,1.791,9.539,3.9,10.133,21.928,10.836,30.527,1.9,23.193,3.291,46.538,4.3,69.787a337.106,337.106,0,0,1-.076,36.051c-.323,5.056-.121,11.23-4.69,14.447-3.668,2.581-8.77,2.943-13.094,3.326-24.161,2.137-48.525,2.907-72.772,3.092q-35.711.271-71.384-1.9-17.823-1.082-35.6-2.774c-5.67-.54-11.416-.928-17.051-1.765-8.031-1.193-8.072-6.5-8.218-13.494-.564-26.925.6-53.853,2.318-80.718.85-13.286,1.538-26.64,2.836-39.891.479-4.89,1.274-10.025,5.294-13.293,5.013-4.075,12.672-5.233,18.885-6.138,6.922-1.008,3.979-11.524-2.9-10.522-10,1.456-22.082,4.418-27.792,13.641-5.377,8.684-4.725,20.506-5.44,30.286-2.064,28.3-3.927,56.627-4.216,85.006q-.1,10.093.076,20.186c.1,5.648-.351,12.279,2.53,17.4,5.139,9.129,17.55,8.592,26.573,9.513q41.922,4.282,84.1,5.172,42.845.9,85.668-1.705c10.414-.636,22.67-.045,32.437-4.3,9.169-4,12.183-11.8,13.047-21.25,2.6-28.4-.53-57.27-2.321-85.634-.791-12.555-1.075-25.29-3.173-37.714-1.651-9.781-4.685-21.709-14.205-26.692-5.27-2.758-11.568-2.665-17.354-2.972q-12.323-.655-24.654-1.144-23.935-.949-47.89-1.29t-47.91-.1c-15.921.164-32.19-.371-48.023,1.4-6.9.774-6.979,11.694,0,10.911" transform="translate(42.149 29.841)"/><path class="d" d="M101.17,170.923a1002.187,1002.187,0,0,0,226.693,2.288c6.915-.716,6.989-11.634,0-10.911a1002.185,1002.185,0,0,1-226.693-2.288c-6.951-.863-6.889,10.056,0,10.911" transform="translate(43.657 72.76)"/><path class="d" d="M155.389,213.9A90.605,90.605,0,0,1,171.1,197.089c5.389-4.513-2.364-12.2-7.715-7.715a101.177,101.177,0,0,0-17.422,19.016c-4.084,5.728,5.376,11.183,9.422,5.507" transform="translate(65.939 85.521)"/><path class="d" d="M218.079,210.557a79.965,79.965,0,0,1-16.853-22.592c-3.158-6.273-12.574-.755-9.422,5.507a88.7,88.7,0,0,0,18.561,24.8c5.114,4.8,12.846-2.9,7.714-7.715" transform="translate(86.954 84.24)"/><path class="d" d="M134.918,214.286q63.38-1.907,126.724,1.9c7.014.422,6.989-10.491,0-10.911q-63.3-3.808-126.724-1.9c-7.005.211-7.036,11.124,0,10.911" transform="translate(58.974 92.217)"/><path class="b" d="M120.317,175.722c5.051-3.314,8.418-7.7,12.327-12.206a110.7,110.7,0,0,1,13.425-12.684c10.929-9.026,22.076-17.8,33.115-26.686q2.233-1.794,4.464-3.592,1.715-2.793,3.716.147c2.05.88,4.568,3.262,6.362,4.584q8.906,6.564,17.338,13.743a359.1,359.1,0,0,1,28.413,26.983,5.525,5.525,0,0,0,7.715,0A109,109,0,0,1,259.229,155.4c1.667-1.242,3.384-2.417,5.125-3.551q1.558-1.034,3.164-2a2.993,2.993,0,0,0,1.548,2.278c8.191,5.5,15.449,14.186,22.342,21.181,4.936,5.009,12.651-2.707,7.717-7.717-5.328-5.4-10.766-10.693-16.364-15.814-3.755-3.436-8.684-9.772-13.975-10.8-4.832-.935-9.378,2.961-13.04,5.536a122.16,122.16,0,0,0-16.27,13.779h7.715a358.815,358.815,0,0,0-32.424-30.334q-8.105-6.669-16.588-12.871c-4.308-3.153-9.329-8.326-15.152-6.785-5.86,1.552-11.456,8.042-16.019,11.717l-18.966,15.272c-5.968,4.805-12.11,9.475-17.653,14.777-5.364,5.131-9.333,12.131-15.579,16.229-5.849,3.836-.388,13.289,5.507,9.422" transform="translate(51.083 49.136)"/><path class="b" d="M217.711,89.312c-11.578-.588-23.665,2.553-25.467,15.8-1.436,10.568,5.457,21.778,16.47,23.157,11.876,1.485,19.176-7.175,20.816-18.021C231.352,98.2,225.182,88,212.159,88.985c-6.957.528-7.015,11.444,0,10.911,2.5-.189,4.578-.531,6.073,1.689,1.557,2.316.8,6.091.287,8.637-.962,4.788-4.312,8.662-9.675,6.988-4.529-1.413-6.7-7.107-5.686-11.463,1.523-6.534,9.349-5.789,14.553-5.524,7.018.356,7-10.556,0-10.911" transform="translate(87.358 40.445)"/><path class="b" d="M55.526,45.5l100.433-3.185c7.005-.221,7.036-11.134,0-10.911L55.526,34.59c-7,.223-7.036,11.134,0,10.911" transform="translate(22.862 14.283)"/><path class="b" d="M31.821,68.61q63.777-1.92,127.59-1.11c7.024.09,7.027-10.821,0-10.911q-63.8-.812-127.59,1.11c-7.005.211-7.036,11.124,0,10.911" transform="translate(12.079 25.63)"/><path class="b" d="M30.043,92.991l78.024.275c7.021.025,7.03-10.885,0-10.911L30.043,82.08c-7.023-.025-7.031,10.887,0,10.911" transform="translate(11.268 37.335)"/><path class="b" d="M27.867,113.042q1.322,26.744-.019,53.488a5.506,5.506,0,0,0,5.456,5.456l63.51-1.491c2.849-.067,5.591-2.446,5.456-5.456q-1.15-25.544-.212-51.095a5.536,5.536,0,0,0-5.456-5.456q-31.792-.847-63.595-.912c-7.023-.015-7.033,10.9,0,10.911q31.8.065,63.595.912l-5.456-5.456q-.938,25.552.212,51.095l5.456-5.456L33.3,161.074l5.456,5.456q1.34-26.744.019-53.488c-.345-6.989-11.259-7.03-10.911,0" transform="translate(12.616 48.932)"/><path class="d" d="M36.535,10.609c18.772,3.134,36.134,8.2,55.351,8.037,21.263-.179,42.491-1.488,63.717-2.63,10.378-.559,20.756-1.08,31.144-1.408,2.326-.073,4.773.095,7.085-.193q4.343.8,2.227-.527-1.772-1.735-.517,2.438c-.455,5.178.335,10.773.5,15.982q1.017,32.691,2.035,65.38c.218,7,11.131,7.034,10.911,0q-1.085-34.869-2.172-69.739c-.2-6.38,2.1-19.1-4.559-23.217C198.992,2.715,194.591,3.477,191,3.57c-6.139.161-12.278.4-18.413.678C149.937,5.275,127.312,6.886,104.644,7.5c-11.262.306-22.757.933-33.919-.9C60.206,4.875,49.953,1.843,39.436.087c-6.87-1.146-9.822,9.366-2.9,10.522" transform="translate(14.823 0)"/><path class="d" d="M138.3,230.511q-65.72-2.588-131.47.292l5.456,5.456c-5.659-64,8.469-128.03.445-191.947-.863-6.874-11.786-6.961-10.911,0,8.024,63.916-6.1,127.944-.445,191.947.252,2.837,2.3,5.594,5.456,5.456q65.706-2.881,131.47-.292c7.023.276,7.009-10.635,0-10.911" transform="translate(0 17.796)"/><path class="d" d="M46.765,6.927A302.211,302.211,0,0,1,48.7,49.28c-.137,5.07-1.568,6-6.855,6.417a107.2,107.2,0,0,1-10.769.131A165.344,165.344,0,0,1,8.142,53.7c-6.87-1.113-9.826,9.4-2.9,10.522A184.08,184.08,0,0,0,33.8,66.776c6.995.035,18.133.754,23.121-5.384,4.773-5.875,2.872-17.434,2.764-24.43-.154-10.044-.87-20.055-2.009-30.034-.787-6.9-11.707-6.976-10.911,0" transform="translate(0.587 0.785)"/><path class="d" d="M48.376,1.466A129.849,129.849,0,0,0,22.683,29.031c-5.975,8.691-9.491,20.077-18.775,25.924-5.927,3.733-.458,13.18,5.507,9.422,9.41-5.927,13.956-15.35,19.393-24.647,6.938-11.861,16.629-21.97,27.283-30.549,5.47-4.4-2.293-12.081-7.715-7.715" transform="translate(0.617 0.076)"/></g></g><g transform="translate(387.116 258.739)"><g class="e" transform="translate(0 0)"><path class="b" d="M25.365,8.853A121.015,121.015,0,0,1,.777,26.881C-1,27.867.59,30.6,2.371,29.608A124.387,124.387,0,0,0,27.6,11.087c1.477-1.4-.759-3.633-2.233-2.233" transform="translate(0 -3.098)"/><path class="b" d="M27.576,29.948A56.125,56.125,0,0,0,7.476,8.616c-1.488-.908-2.846,1.427-1.363,2.332A53.413,53.413,0,0,1,25.244,31.311c.822,1.532,3.154.17,2.332-1.363" transform="translate(-2.016 -3.098)"/><path class="b" d="M26.8,25.581A55.211,55.211,0,0,0,1.937,22.638,1.627,1.627,0,0,0,.358,24.217,1.589,1.589,0,0,0,1.937,25.8a53.061,53.061,0,0,1,24.026,2.83,1.593,1.593,0,0,0,1.942-1.1,1.612,1.612,0,0,0-1.1-1.942" transform="translate(-0.132 -8.213)"/><path class="b" d="M22.693,1.884q-1.481,13.449-2.962,26.9c-.277,2.522,3.672,2.5,3.948,0q1.482-13.449,2.962-26.9c.278-2.522-3.672-2.5-3.948,0" transform="translate(-7.263 0)"/></g></g><g transform="translate(184.462 525.427)"><g class="e" transform="translate(0 0)"><path class="b" d="M25.365,8.853A121.015,121.015,0,0,1,.777,26.881C-1,27.867.59,30.6,2.371,29.608A124.387,124.387,0,0,0,27.6,11.087c1.477-1.4-.759-3.633-2.233-2.233" transform="translate(0 -3.098)"/><path class="b" d="M27.576,29.948A56.125,56.125,0,0,0,7.476,8.616c-1.488-.908-2.846,1.427-1.363,2.332A53.413,53.413,0,0,1,25.244,31.311c.822,1.532,3.154.17,2.332-1.363" transform="translate(-2.016 -3.098)"/><path class="b" d="M26.8,25.581A55.211,55.211,0,0,0,1.937,22.638,1.627,1.627,0,0,0,.358,24.217,1.589,1.589,0,0,0,1.937,25.8a53.061,53.061,0,0,1,24.026,2.83,1.593,1.593,0,0,0,1.942-1.1,1.612,1.612,0,0,0-1.1-1.942" transform="translate(-0.132 -8.213)"/><path class="b" d="M22.693,1.884q-1.481,13.449-2.962,26.9c-.277,2.522,3.672,2.5,3.948,0q1.482-13.449,2.962-26.9c.278-2.522-3.672-2.5-3.948,0" transform="translate(-7.263 0)"/></g></g></g></svg>