<svg xmlns="http://www.w3.org/2000/svg" xmlns:xlink="http://www.w3.org/1999/xlink" width="415.306" height="373.985" viewBox="0 0 415.306 373.985"><defs><clipPath id="a"><rect width="28.083" height="30.667" fill="#bbe048"/></clipPath><clipPath id="c"><rect width="360.781" height="361.614" fill="none"/></clipPath></defs><g transform="translate(-81.254 -206.95)"><g transform="translate(468.477 221.406)"><g transform="translate(0 0)" clip-path="url(#a)"><path d="M25.365,8.853A121.015,121.015,0,0,1,.777,26.881C-1,27.867.59,30.6,2.371,29.608A124.387,124.387,0,0,0,27.6,11.087c1.477-1.4-.759-3.633-2.233-2.233" transform="translate(0 -3.098)" fill="#bbe048"/><path d="M27.576,29.948A56.125,56.125,0,0,0,7.476,8.616c-1.488-.908-2.846,1.427-1.363,2.332A53.413,53.413,0,0,1,25.244,31.311c.822,1.532,3.154.17,2.332-1.363" transform="translate(-2.016 -3.098)" fill="#bbe048"/><path d="M26.8,25.581A55.211,55.211,0,0,0,1.937,22.638,1.627,1.627,0,0,0,.358,24.217,1.589,1.589,0,0,0,1.937,25.8a53.061,53.061,0,0,1,24.026,2.83,1.593,1.593,0,0,0,1.942-1.1,1.612,1.612,0,0,0-1.1-1.942" transform="translate(-0.132 -8.213)" fill="#bbe048"/><path d="M22.693,1.884q-1.481,13.449-2.962,26.9c-.277,2.522,3.672,2.5,3.948,0q1.482-13.449,2.962-26.9c.278-2.522-3.672-2.5-3.948,0" transform="translate(-7.263 0)" fill="#bbe048"/></g></g><g transform="translate(81.254 537.347)"><g transform="translate(0 0)" clip-path="url(#a)"><path d="M25.365,8.853A121.015,121.015,0,0,1,.777,26.881C-1,27.867.59,30.6,2.371,29.608A124.387,124.387,0,0,0,27.6,11.087c1.477-1.4-.759-3.633-2.233-2.233" transform="translate(0 -3.098)" fill="#bbe048"/><path d="M27.576,29.948A56.125,56.125,0,0,0,7.476,8.616c-1.488-.908-2.846,1.427-1.363,2.332A53.413,53.413,0,0,1,25.244,31.311c.822,1.532,3.154.17,2.332-1.363" transform="translate(-2.016 -3.098)" fill="#bbe048"/><path d="M26.8,25.581A55.211,55.211,0,0,0,1.937,22.638,1.627,1.627,0,0,0,.358,24.217,1.589,1.589,0,0,0,1.937,25.8a53.061,53.061,0,0,1,24.026,2.83,1.593,1.593,0,0,0,1.942-1.1,1.612,1.612,0,0,0-1.1-1.942" transform="translate(-0.132 -8.213)" fill="#bbe048"/><path d="M22.693,1.884q-1.481,13.449-2.962,26.9c-.277,2.522,3.672,2.5,3.948,0q1.482-13.449,2.962-26.9c.278-2.522-3.672-2.5-3.948,0" transform="translate(-7.263 0)" fill="#bbe048"/></g></g><g transform="matrix(0.999, 0.035, -0.035, 0.999, 107.916, 206.95)"><g clip-path="url(#c)"><path d="M166.938,323.449c-.855,20.423-5.645,46.456-28.621,52.775-11.206,3.081-23.395-1.2-33.731-5.412a257.818,257.818,0,0,1-33.337-16.081A107.7,107.7,0,0,1,28.312,308.12c-8.444-17.681-13.617-40.216-6.676-59.2a37.078,37.078,0,0,1,23.1-22.819c11.66-4.14,22.77-6.3,32.365-14.737,4.263-3.749-1.984-9.956-6.226-6.226-9.616,8.455-22.158,9.492-33.493,14.463a44.035,44.035,0,0,0-22.4,22.491c-9.269,20.529-5.161,44.858,3.279,64.972a115.547,115.547,0,0,0,45.2,53.245c11.564,7.237,24.176,12.887,36.738,18.147,11.68,4.89,24.651,9.174,37.451,6.928,11.734-2.059,21.89-10.09,28.063-20.076,7.738-12.52,9.425-27.465,10.028-41.858.237-5.666-8.568-5.654-8.8,0" transform="translate(-1.159 -24.382)" fill="#bbe048"/><path d="M323.192,222.479c20.623,1.3,46.794,6.875,52.236,30.41,2.626,11.355-2.2,23.739-6.746,33.963a268,268,0,0,1-16.364,32.026,107.665,107.665,0,0,1-47.54,41.912c-17.811,8.025-40.566,12.772-59.338,5.359a37.121,37.121,0,0,1-22.263-23.633c-3.89-11.781-5.845-22.854-14.094-32.643-3.657-4.338-9.857,1.918-6.226,6.227,8.251,9.791,8.931,22.4,13.735,33.8a44.141,44.141,0,0,0,22.048,22.832c20.535,9.735,45.379,6.023,65.773-2.281a116.1,116.1,0,0,0,53.838-44.486c7.347-11.348,13.274-23.744,18.672-36.119,4.915-11.266,9.386-23.794,7.554-36.269-1.77-12.061-9.53-22.506-19.631-29.046-12.352-8-27.288-9.955-41.654-10.859-5.659-.357-5.637,8.45,0,8.8" transform="translate(-24.116 -25.539)" fill="#bbe048"/><path d="M230.68,61.982c1.156-20.614,6.529-46.86,30.024-52.463,11.348-2.706,23.739,2.023,34.012,6.491a265.88,265.88,0,0,1,32.138,16.144A107.784,107.784,0,0,1,369.1,79.4c8.172,17.756,13.043,40.466,5.787,59.3a37.094,37.094,0,0,1-23.459,22.445c-11.746,3.967-22.827,5.992-32.555,14.3-4.314,3.687,1.939,9.889,6.226,6.226,9.736-8.319,22.323-9.114,33.7-13.972A44.088,44.088,0,0,0,381.5,145.5c9.608-20.622,5.722-45.388-2.707-65.752A115.955,115.955,0,0,0,333.953,26.2c-11.4-7.271-23.837-13.093-36.245-18.424-11.3-4.854-23.85-9.217-36.317-7.33-12.039,1.823-22.466,9.683-28.926,19.811-7.914,12.406-9.783,27.347-10.589,41.722-.318,5.661,8.488,5.643,8.8,0" transform="translate(-26.519 0)" fill="#bbe048"/><path d="M61.853,169.568c-20.619-1.223-46.83-6.691-52.356-30.2-2.669-11.352,2.107-23.739,6.61-33.99A266.91,266.91,0,0,1,32.354,73.288,107.729,107.729,0,0,1,79.735,31.2c17.782-8.1,40.513-12.917,59.317-5.587a37.1,37.1,0,0,1,22.36,23.541c3.931,11.762,5.923,22.839,14.206,32.6,3.672,4.326,9.874-1.928,6.226-6.226-8.287-9.762-9.029-22.36-13.861-33.749a44.114,44.114,0,0,0-22.125-22.758c-20.583-9.667-45.384-5.864-65.762,2.508A116.028,116.028,0,0,0,26.411,66.194C19.1,77.571,13.233,89.987,7.871,102.38,2.988,113.663-1.425,126.2.436,138.675c1.8,12.049,9.611,22.485,19.727,28.982,12.381,7.953,27.319,9.863,41.69,10.715,5.66.335,5.64-8.47,0-8.8" transform="translate(0 -1.59)" fill="#bbe048"/><path d="M141.954,67.511c6.943,19.557,15.325,36.351,25.034,54.382,17.228-7.277,36.376-6.535,54.538-3.1,1.861.351,3.938.682,5.5-.506a8.166,8.166,0,0,0,2.2-3.487q11.275-27.082,20.93-54.957a228.83,228.83,0,0,0-69.01-8.106c-13.973.5-28.534,2.545-40.125,11.268Z" transform="translate(-16.856 -6.166)" fill="#bbe048"/><path d="M136.425,68.165c6.9,19.26,15.867,37.585,25.541,55.584.947,1.763,3.706,3.119,5.683,2.313a77.306,77.306,0,0,1,31.911-5.386,121.215,121.215,0,0,1,16.046,1.593c4.37.721,9.225,2.31,13.279-.323,4.02-2.611,5.373-8.534,7.071-12.695q3.171-7.77,6.206-15.6,6.386-16.468,12.167-33.16c.89-2.563-1.023-5.513-3.514-6.19a237.913,237.913,0,0,0-60.406-8.427c-18.068-.142-37.49,1.112-52.607,12.1a5.293,5.293,0,0,0-2.312,5.683q.468,2.253.936,4.508c1.315,6.337,11.018,3.655,9.7-2.675l-.935-4.509q-1.157,2.841-2.313,5.683c14.195-10.314,32.265-10.958,49.186-10.7a226.729,226.729,0,0,1,56.072,8.048q-1.757-3.1-3.514-6.19-5.106,14.7-10.658,29.241-2.7,7.057-5.514,14.071-1.405,3.5-2.837,7a18.885,18.885,0,0,1-1.634,3.925c-1.094,1.4-.026.933-1.8,1.2-1.919.291-5.143-.9-7.049-1.177-2.281-.329-4.569-.634-6.862-.872a112.387,112.387,0,0,0-14.256-.618,81.891,81.891,0,0,0-29.046,5.769l5.682,2.313c-9.263-17.236-17.918-34.735-24.526-53.18-2.168-6.053-11.9-3.444-9.7,2.675" transform="translate(-16.179 -5.483)" fill="#bbe048"/><path d="M344.087,147.521c-21.115,5.832-39.376,13.257-59.021,21.939,6.809,17.613,5.007,36.692.4,54.636-.472,1.838-.933,3.894.246,5.517a8.765,8.765,0,0,0,3.582,2.395q28.135,12.782,57.2,23.993a216.119,216.119,0,0,0,12.256-68.457c.205-13.982-1.189-28.637-9.829-40.7Z" transform="translate(-34.062 -17.552)" fill="#bbe048"/><path d="M342.013,141.828c-20.714,5.781-40.606,13.793-60.259,22.461a5.18,5.18,0,0,0-2.383,5.858,73.592,73.592,0,0,1,3.89,32.926,122.958,122.958,0,0,1-3.1,17.411c-1.053,4.35-1.943,8.929,1.546,12.482,3.4,3.462,9.086,5.01,13.427,6.933q8.036,3.561,16.133,6.985,16.471,6.973,33.151,13.425c2.734,1.057,5.537-1.192,6.38-3.622a224.868,224.868,0,0,0,12.063-59.9c1.119-18.224.586-37.7-10.159-53.257a5.5,5.5,0,0,0-5.857-2.383l-4.833.681c-6.582.927-3.782,10.923,2.758,10l4.832-.681-5.857-2.383c10.046,14.546,9.808,32.716,8.636,49.675A214.593,214.593,0,0,1,340.8,253.93l6.38-3.622q-14.882-5.754-29.6-11.926-7.869-3.311-15.679-6.763-3.442-1.519-6.874-3.061c-.987-.444-5.36-1.941-5.661-2.692-.281-.7,1.29-4.659,1.529-5.72.582-2.589,1.1-5.195,1.529-7.814a117.423,117.423,0,0,0,1.568-14.789,78.338,78.338,0,0,0-4.619-30.153l-2.383,5.857c18.836-8.307,37.932-15.876,57.782-21.416,6.42-1.792,3.693-11.8-2.758-10" transform="translate(-33.367 -16.86)" fill="#bbe048"/><path d="M249.222,337.642c-6.929-20.238-15.3-37.621-25-56.282-17.233,7.517-36.38,6.736-54.54,3.172-1.861-.365-3.938-.708-5.5.52a8.5,8.5,0,0,0-2.2,3.606q-11.293,28.013-20.968,56.847a221.616,221.616,0,0,0,69,8.434c13.974-.512,28.537-2.614,40.133-11.632Z" transform="translate(-16.856 -33.631)" fill="#bbe048"/><path d="M253.457,335.578c-6.868-19.882-15.839-38.854-25.512-57.505-.926-1.786-3.8-3.186-5.78-2.352a74.747,74.747,0,0,1-31.715,5.561,119.3,119.3,0,0,1-17.068-1.821c-4.414-.78-9.086-2.147-12.993.869-3.655,2.82-4.91,8.408-6.529,12.5q-3.245,8.206-6.346,16.468-6.368,16.962-12.131,34.143c-.887,2.633,1.027,5.578,3.575,6.3a230.466,230.466,0,0,0,61.251,8.76c17.89.09,37.03-1.35,51.83-12.473a5.415,5.415,0,0,0,2.352-5.78l-.932-4.665c-1.29-6.455-11.159-3.723-9.871,2.722l.933,4.665q1.175-2.89,2.352-5.78c-13.889,10.439-31.575,11.271-48.321,11.06a219.647,219.647,0,0,1-56.872-8.379l3.575,6.3q5.107-15.179,10.661-30.2,2.923-7.885,5.976-15.719c.956-2.453,3.076-11.028,5.271-11.55,1.667-.4,4.877.888,6.551,1.151q3.735.584,7.5,1.008a108.556,108.556,0,0,0,14.628.685,79.5,79.5,0,0,0,29.051-5.944l-5.78-2.352c9.27,17.874,17.9,36.005,24.48,55.06,2.139,6.189,12.03,3.529,9.871-2.722" transform="translate(-16.156 -32.927)" fill="#bbe048"/><path d="M65.26,255c21.7-7.232,40.3-15.862,60.259-25.837-8.337-17.118-7.765-36.275-4.182-54.487.367-1.866.708-3.948-.637-5.488a9.293,9.293,0,0,0-3.914-2.15q-30.325-10.872-61.51-20.113a206.665,206.665,0,0,0-8.115,69.124c.748,13.965,3.215,28.495,13.088,39.955Z" transform="translate(-5.602 -17.562)" fill="#bbe048"/><path d="M65.951,259.4c21.208-7.127,41.528-16.394,61.527-26.373,2.724-1.359,3.061-4.814,1.905-7.267-4.813-10.216-6.321-21.413-5.851-32.619a117.282,117.282,0,0,1,1.913-16.256c.864-4.711,1.5-9.381-2.506-12.882-3.687-3.22-9.746-4.346-14.26-5.923q-8.426-2.943-16.9-5.755-17.816-5.911-35.816-11.245a5.394,5.394,0,0,0-6.534,3.709,215.387,215.387,0,0,0-8.578,62.254c.236,18.58,2.647,37.258,14.918,51.993,1.242,1.492,3.409,1.718,5.167,1.367l5.011-1c6.7-1.34,3.863-11.581-2.824-10.243l-5.011,1,5.167,1.366c-10.973-13.175-11.88-31.409-11.821-47.8a204.97,204.97,0,0,1,8.214-56.115l-6.533,3.709Q69.5,156.185,85.726,161.5q8.079,2.656,16.119,5.43,4.012,1.385,8.014,2.8c1.072.379,5.267,1.194,5.767,1.928.64.94-1.019,5.765-1.207,6.984-.387,2.511-.726,5.033-.993,7.56a100.96,100.96,0,0,0-.532,14.637,77.69,77.69,0,0,0,7.317,30.282q.952-3.633,1.905-7.267c-19.19,9.573-38.639,18.463-58.989,25.3-6.447,2.166-3.682,12.43,2.824,10.243" transform="translate(-4.881 -16.839)" fill="#bbe048"/><path d="M210.58,137.755c23.939,5.027,40.836,25.1,45.856,48.523,5.395,25.169-5.688,52.076-28.305,64.912-22.411,12.719-51.839,8.364-70.684-8.82A57.335,57.335,0,0,1,144.292,175.6c11.45-24.7,38.318-43.622,66.288-37.849,8.295,1.713,11.842-11.015,3.511-12.734-30.406-6.277-60.215,9.765-76.473,35.313C121.08,186.32,121.5,219.9,141.04,244.174c19.044,23.656,52.755,33.526,81.525,23.849,30.306-10.192,50.234-40.848,48.333-72.606-1.941-32.464-24.058-63.519-56.807-70.4-8.292-1.742-11.838,10.987-3.511,12.734" transform="translate(-15.032 -14.781)" fill="#0094a8"/><path d="M214.789,46.064c56.27,10.971,98.526,56.861,110.43,111.93,5.742,26.56,3.348,53.218-6.507,78.9-11.377,29.646-34.484,54.331-62.3,69.266-53.972,28.982-124.58,19.416-170.461-20.6a131.083,131.083,0,0,1-42.768-72.882c-5.616-26.783-.688-55.449,11.342-80.239,25.539-52.629,80.69-90.949,140.189-88.7a128.766,128.766,0,0,1,20.072,2.334c4.661.918,9.506-1.325,10.831-6.149,1.189-4.327-1.461-9.908-6.149-10.832C153.107,16.011,86.706,49.269,50.07,104.708c-17.2,26.025-27.6,57.338-26.712,88.7.912,32.335,13.343,63.5,34.044,88.2,43.271,51.633,118.629,71.478,182.218,50.72C304.982,311,350.358,246.506,345.625,177.513c-4.282-62.412-44.589-120.289-103.758-142.2a143.57,143.57,0,0,0-22.4-6.228c-4.663-.909-9.5,1.319-10.831,6.15-1.187,4.319,1.459,9.916,6.149,10.831" transform="translate(-2.786 -3.137)" fill="#0094a8"/></g></g></g></svg>