<?xml version="1.0" encoding="UTF-8"?><svg id="Layer_1" xmlns="http://www.w3.org/2000/svg" viewBox="0 0 24.09 23.63"><defs><style>.cls-1{fill:#84c12d;}</style></defs><path class="cls-1" d="M20.47,13.27h0c-1.75-.63-3.53-1.12-5.34-1.5,2.07-1.64,4.08-3.38,6-5.2,1.06-1-.54-2.59-1.59-1.6-1.63,1.55-3.33,3.02-5.07,4.43.26-2.4.53-4.8.79-7.2.2-1.8-2.62-1.79-2.82,0-.27,2.46-.54,4.93-.81,7.39-1.93-1.8-4.04-3.4-6.31-4.79-1.06-.65-2.03,1.02-.97,1.66,2.17,1.34,4.19,2.88,6.04,4.61-2.55-.21-5.12-.2-7.67.09-.61.02-1.11.51-1.13,1.13,0,.62.5,1.13,1.13,1.13,2.21-.25,4.42-.3,6.63-.16-2.37,1.65-4.83,3.18-7.36,4.59-1.27.7-.13,2.65,1.14,1.95,2.74-1.52,5.38-3.19,7.94-4.99-.24,2.2-.49,4.41-.73,6.61-.2,1.8,2.62,1.79,2.82,0,.24-2.2.49-4.41.73-6.61,1.57,1.92,2.96,4,4.14,6.2.59,1.09,2.25.12,1.66-.97-1.1-2.05-2.38-3.97-3.8-5.79,1.35.33,2.68.72,4,1.2.6.16,1.22-.19,1.39-.79.15-.6-.2-1.21-.79-1.39Z"/></svg>