<?xml version="1.0" encoding="UTF-8"?><svg id="Layer_1" xmlns="http://www.w3.org/2000/svg" xmlns:xlink="http://www.w3.org/1999/xlink" viewBox="0 0 24.09 23.63"><defs><style>.cls-1{fill:none;}.cls-2{fill:#bbe048;}.cls-3{clip-path:url(#clippath);}</style><clipPath id="clippath"><rect class="cls-1" x="1.43" y=".86" width="20.05" height="21.9"/></clipPath></defs><g id="Group_24"><g class="cls-3"><g id="Group_18"><path id="Path_21" class="cls-2" d="M19.54,4.97C14.25,9.99,8.36,14.31,1.98,17.85c-1.27.7-.13,2.65,1.14,1.95,6.54-3.63,12.59-8.08,18.02-13.23,1.06-1-.54-2.59-1.59-1.6"/><path id="Path_22" class="cls-2" d="M19.68,20.04c-3.35-6.26-8.31-11.52-14.36-15.23-1.06-.65-2.03,1.02-.97,1.66,5.76,3.55,10.48,8.57,13.66,14.54.59,1.09,2.25.12,1.67-.97"/><path id="Path_23" class="cls-2" d="M20.47,13.27c-5.68-2.05-11.75-2.77-17.76-2.1-.61.02-1.11.51-1.13,1.13,0,.62.5,1.13,1.13,1.13,5.8-.66,11.67.04,17.16,2.02.6.16,1.22-.19,1.39-.79.15-.6-.2-1.21-.79-1.39"/><path id="Path_24" class="cls-2" d="M12.45,2.21c-.7,6.4-1.41,12.8-2.11,19.21-.2,1.8,2.62,1.79,2.82,0,.71-6.4,1.41-12.8,2.11-19.21.2-1.8-2.62-1.79-2.82,0"/></g></g></g></svg>