<?xml version="1.0" encoding="UTF-8"?><svg id="Layer_1" xmlns="http://www.w3.org/2000/svg" xmlns:xlink="http://www.w3.org/1999/xlink" viewBox="0 0 487.02 110.68"><defs><style>.cls-1,.cls-2{fill:none;}.cls-3{fill:#bbe048;}.cls-4{fill:#0094a8;}.cls-5{clip-path:url(#clippath-1);}.cls-6{fill:#fff;}.cls-2{stroke:#fff;stroke-miterlimit:10;stroke-width:.45px;}.cls-7{fill:#84c12d;}.cls-8{clip-path:url(#clippath);}.cls-9{fill:#44493a;}</style><clipPath id="clippath"><rect class="cls-1" x="13.47" y="15.13" width="87.33" height="83.5"/></clipPath><clipPath id="clippath-1"><rect class="cls-1" x="137.44" y="30.69" width="334.87" height="73.94"/></clipPath></defs><g id="Group_107"><g id="Group_21"><g class="cls-8"><g id="Group_20"><path id="Path_25" class="cls-4" d="M96.67,80.67c-13.14,23.8-65.67,24.01-78.75.26C4.84,57.3,21.28,15.13,58.12,15.13c31.71,0,51.79,41.85,38.55,65.54"/><path id="Path_26" class="cls-6" d="M88.31,37.64c-12.35-20.02-20.57.38-31.27,1.47-10.7-1.09-18.92-21.49-31.27-1.47-7.45,13.53-8.87,32.61.47,45.53,5.69,7.81,15.07,10.14,24.17,11.41,2.19.34,4.41.5,6.63.47,2.22.03,4.44-.13,6.63-.47,9.09-1.26,18.47-3.59,24.17-11.41,9.34-12.92,7.92-32,.47-45.53"/><path id="Path_27" class="cls-7" d="M54.82,81.17c.77,1.22,2.37,1.59,3.6.82.33-.21.61-.49.82-.82l8.51-11.42c1.21-1.73,1.07-4.07-.33-5.65-5.86-5.42-14.91-5.42-20.78,0-1.4,1.58-1.54,3.92-.33,5.65l8.51,11.42Z"/><path id="Path_28" class="cls-9" d="M46.19,52.2c-.8,3.08-3.48,5.01-5.99,4.32s-3.89-3.74-3.08-6.82,3.48-5.01,5.99-4.32,3.89,3.74,3.08,6.82"/><path id="Path_29" class="cls-9" d="M67.88,52.2c.8,3.08,3.48,5.01,5.99,4.32s3.89-3.74,3.08-6.82-3.48-5.01-5.99-4.32-3.89,3.74-3.08,6.82"/></g></g></g><g id="Group_26"><g class="cls-5"><g id="Group_25"><path id="Path_30" class="cls-6" d="M288.79,69.77c-.56,0-.79.32-1.06.69-.2.3-.43.56-.71.79-2.14,1.81-4.47,3.38-6.95,4.67-4.48,2.38-8.51,3.79-10.79,3.79-1.67,0-2.38-.73-2.38-2.45,0-5.92,8.3-20.87,9.43-22.67.22-.4.34-.85.33-1.31-.1-1.68-1.33-3.08-2.98-3.4-.66,0-.72.11-1.19.94-.1.18-.22.4-.38.66-1.41,2.41-4.04,6.93-6.22,11.63-3.85,4.86-9.46,11.14-13.44,13.89-.85.72-1.89,1.19-3,1.33-.36,0-.77-.11-.77-.97,0-3.53,6.36-15.83,9.41-21.74.23-.41.35-.88.35-1.36,0-1.86-1.75-2.94-3.26-3.31-.41-.08-.83-.15-1.27-.21-1.03-.1-2.04-.35-2.99-.75.86-1.19,1.41-2.57,1.62-4.02,0-1.48-1.83-2.73-2.98-2.73-.41,0-.78.24-.94.62-.9,2.8-2.46,5.35-4.56,7.42-1.72,1.52-3.93,2.37-6.22,2.38-.77-.8-1.79-1.31-2.9-1.45-.17-1.74-2.64-2.83-4.36-2.83-3.02,0-8.87,4.27-13.78,12.18-.07.12-.14.24-.21.36-.69.74-1.43,1.42-2.22,2.04-3.21,2.73-6.78,5.02-10.6,6.81-.34-.76-.7-1.51-1.06-2.24-1.12-2.3-2.18-4.46-2.18-6.67.03-1.36.47-2.68,1.25-3.79,1.75-2.36,3.87-4.41,6.28-6.09,1.35-1.08,2.93-1.83,4.62-2.2,1.36-.14,1.57-.97,1.57-1.46,0-1.35-1.91-3.41-4.27-3.41-1.53,0-3.35,1.1-4.93,2.18-3.42,2.37-6.21,5.54-8.11,9.24-.18.4-.34.79-.47,1.17-.41.49-.78,1-1.13,1.54-.22.32-.46.68-.74,1.07-3.99,5.34-8.58,10.2-13.69,14.48-4.54,3.81-9.07,6-12.42,6-2.86,0-3.33-3.42-3.34-5.54,5.11-2.7,16.36-10.71,20.02-16.68.76-1.16,1.18-2.52,1.21-3.91,0-3.55-3.27-5.16-6.31-5.16-6.27,0-12.82,5.43-17.54,14.53-.43.81-.82,1.64-1.16,2.48-1.39,1.6-2.86,3.22-4.28,4.69-5.95,6.31-10.83,10.07-13.05,10.07-.61,0-1.31-.27-1.31-2.34,0-3.08,1.55-8.18,4.49-14.74,1.4-3.19,3.07-6.28,4.84-9.55.37-.67.73-1.35,1.1-2.04,4.31-.2,8.74-.39,12.1-.39h2.04c.99,0,1.91-.09,1.91-.78s-1.04-1.43-1.93-1.83c-1.95-.98-5.65-1.18-11.77-1.19,1.22-2.22,2.27-4.23,3.2-6.02.33-.63.64-1.22.94-1.79,1.34-2.63,2.16-4.45,2.16-5.35,0-2.26-.91-3.6-2.45-3.6-1.17,0-1.85.93-2.95,3.02-.38.69-.85,1.54-1.42,2.54-1.53,2.74-3.62,6.48-6.25,11.4-4.16.1-7.82.28-9.66.39-1.04.1-1.57.56-1.57,1.35,0,1.36,1.76,3.12,3.63,3.12.39,0,.73-.03,1.56-.09.74-.06,1.87-.15,3.8-.28-4.42,8.69-9.09,19.43-9.09,23.86,0,5.37,3.87,8.19,7.7,8.19,2.22,0,5.35-1.4,8.37-3.74,2.35-1.83,4.55-3.86,6.58-6.06.75,5.62,4.83,9.41,10.46,9.41,3.84,0,8.16-1.9,13.2-5.79,4.88-3.95,9.15-8.58,12.69-13.76.53,1.52,1.19,3,1.97,4.41.55,1.02,1.05,2.07,1.48,3.15-2.27,1.06-4.5,1.98-6.48,2.8-1.39.58-2.7,1.12-3.76,1.6-2.04.93-3.19,1.72-3.43,2.37-.13.4-.2.81-.22,1.22.06,2.14,1.36,4.04,3.33,4.86,1.2.38,2.46.54,3.72.5,5.48,0,11.88-2.53,11.88-9.65v-1.24c2.69-1.24,5.28-2.66,7.77-4.26-.27,1.03-.42,2.1-.44,3.17,0,4.63,4.64,7.7,7.7,7.7,1.7,0,7.46-2.72,13.45-10.8,4.1-5.5,5.88-9.46,5.93-13.19,3.38-.3,6.54-1.81,8.89-4.26.26.04.58.05.91.07,1.58.08,2.89.24,2.89,1.18s-1.18,3.21-2.54,5.79c-1.96,3.45-3.58,7.07-4.85,10.82-.48,1.34-.77,2.73-.87,4.15,0,3.33,2.49,6.92,6.52,6.92,1.98-.08,3.9-.77,5.47-1.99,2.4-1.73,4.61-3.71,6.58-5.9,0,.12-.02.26-.02.38,0,4.54,2.34,9.44,7.48,9.44,6.9,0,18.4-7.92,19.91-10.67.3-.55.49-1.16.55-1.79,0-1.16-.63-2.03-1.47-2.03M221.84,63.52c2.72-4.33,6.12-7.78,9.14-9.28.62,1.48,1.9,2.58,3.45,2.98-.81,3.95-4.27,9.33-7.29,13.08-3.67,4.57-7.24,7.64-8.9,7.64-.89,0-1.2-1.31-1.2-2.44,0-2.88,1.75-7.25,4.8-11.98M200.27,77c-.61,1.64-1.85,2.97-3.45,3.69-1.9.96-4,1.49-6.13,1.54-.3,0-.59-.04-.88-.12.81-1.15,2.86-1.98,5.42-3.01l5.03-2.1ZM177.63,54.8c.98-.85,2.16-1.43,3.42-1.72.38-.05.72.22.77.6,0,.03,0,.06,0,.08-.14.93-.54,1.8-1.15,2.52-2.73,3.91-9.58,9.96-14.29,13.19.36-1.05.81-2.07,1.33-3.05,2.49-4.5,5.86-8.45,9.91-11.63"/><path id="Path_31" class="cls-3" d="M279.56,39.26c-.97-.49-2.13-.45-3.07.09-.76.76-1.07,1.86-.82,2.91.07,1.09.68,2.08,1.63,2.62.23.09.47.13.72.13.83-.05,1.62-.37,2.26-.91.9-.59,1.45-1.6,1.43-2.67-.31-1.04-1.11-1.86-2.14-2.18"/><path id="Path_32" class="cls-6" d="M470.7,72.8c-.72,0-.81.6-1.53,1.28-1.48,1.25-3.16,2.26-4.96,2.98-2.01.97-4.18,1.54-6.4,1.7-2.43,0-3.42-1.53-3.42-3.83,0-4,2.79-9.7,4.15-13.87.27-.83.42-1.68.45-2.55,0-2.55-1.44-5.53-3.52-5.53-.99,0-2.43.77-4.05,1.96-5.95,4.42-14.6,14.89-16.58,17.69,1.44-3.74,4.59-10.21,6.4-13.61.27-.6.81-1.45.99-1.79.09-.08.09-.17.09-.34,0-1.02-1.8-2.38-2.88-2.38-.09,0-.54,0-.9.68-.71,1.18-1.92,3.46-3.26,6.11-2.51,3.62-5.31,7.04-8.36,10.22-2.44,2.55-5.09,4.88-7.93,6.97,3.7-8,6.85-16.42,8.74-19.99.11-.27.17-.56.18-.85,0-1.53-1.8-3.74-3.06-3.74-.81,0-1.08,1.11-2.07,2.47-1.22-2.46-3.74-4.01-6.49-4-1.38.03-2.71.5-3.79,1.36-2.04,1.47-3.87,3.22-5.42,5.2-.18.18-.35.38-.49.59-1.43,1.8-2.75,3.68-3.96,5.64-2.66,3.46-5.6,6.69-8.79,9.66-1.53,1.28-2.79,2.04-3.69,2.04-.81,0-1.08-.68-1.08-1.79,0-4.68,5.77-16.5,6.85-18.46.2-.34.32-.72.36-1.11-.13-1.42-1.28-2.54-2.71-2.64-.99,0-.99.94-2.07,2.89-.7,1.28-1.55,2.95-2.42,4.84-.06.09-.12.18-.19.26-1.02,1.45-2.24,2.77-3.6,3.91-2.74,2.42-5.8,4.46-9.1,6.04-1.17-2.81-2.79-5.36-2.79-8,.03-1.21.41-2.39,1.08-3.4,1.48-2.06,3.27-3.87,5.32-5.36,1.15-.95,2.51-1.62,3.97-1.96.81-.08,1.17-.51,1.17-1.11,0-1.11-1.53-2.81-3.43-2.81-1.17,0-2.61.85-4.06,1.87-2.88,2.07-5.2,4.82-6.76,8-.16.36-.3.72-.42,1.07-.39.46-.84,1.18-1.56,2.25-3.34,4.66-7.22,8.92-11.54,12.68-3.51,3.06-7.48,5.28-10.54,5.28-2.16,0-2.98-2.3-2.98-5.1,4.24-2.3,13.79-9.36,16.85-14.55.63-.99.97-2.14.99-3.32,0-2.98-2.61-4.34-5.14-4.34-4.6,0-10.18,3.74-14.6,12.59-.41.8-.77,1.63-1.08,2.47-2.06,2.58-4.26,5.05-6.58,7.39-1.89,1.87-3.52,3.06-4.51,3.06s-1.35-1.11-1.35-2.38c0-4.17,3.51-12.59,5.32-16.84,0-.09,10.18-19.06,11.45-22.12.18-.52.27-1.07.27-1.62,0-1.87-1.26-3.57-2.43-3.57-.81,0-.99.43-1.53,1.62-3.51,8.13-7.48,16.06-11.9,23.73-.72-1.95-4.15-4.17-6.4-4.17-1.98,0-4.24,1.45-6.4,3.66-4.51,4.51-8.83,12.08-10.82,17.27-.62,1.4-.98,2.9-1.08,4.42.11,3.28,2.67,5.96,5.95,6.21,1.17,0,1.98-.6,3.42-1.7,5.32-4.17,9.74-11.06,11.45-13.78-.58,1.58-.88,3.25-.9,4.93,0,2.81,1.62,6.89,5.59,6.89,2.04-.13,3.97-.94,5.5-2.3,1.41-1.16,2.72-2.43,3.93-3.8.49,5.17,4.08,8.47,8.68,8.47,3.61,0,7.39-2.12,11-5.02,4.2-3.53,7.84-7.66,10.83-12.26.76,2.64,2.26,4.84,3.05,7.07-3.34,1.62-6.58,2.89-8.74,3.91-1.62.77-2.61,1.45-2.79,1.96-.1.33-.16.67-.18,1.02.03,1.77,1.08,3.36,2.7,4.08.99.32,2.03.46,3.06.42,4.69,0,9.82-2.3,9.82-8.25v-1.19c3.1-1.47,6.04-3.25,8.77-5.33-.17.56-.34,1.12-.48,1.67-.15.67-.21,1.36-.18,2.04,0,3.83,2.25,7.32,5.95,7.32,1.59-.08,3.11-.67,4.33-1.7,1.12-.89,2.18-1.85,3.16-2.88.08,2.98,2.02,5.51,4.31,5.51,1.5-.23,2.9-.88,4.06-1.87,5.5-4,12.35-12.42,13.25-13.53-.81,2.13-5.14,12.25-7.21,16.67-6.13,3.49-14.33,6.97-19.02,11.06-1.89,1.61-2.88,2.72-2.88,4.59,0,3.23,3.7,6.47,7.66,6.47,1.56.02,3.09-.49,4.32-1.44,3.7-2.81,7.93-9.19,13.07-18.55,4.83-2.92,9.26-6.44,13.18-10.49-.18.44-.35.85-.48,1.21-.25.63-.43,1.29-.54,1.96,0,1.62,2.7,4.25,3.69,4.25.45,0,.27-.17,1.44-1.7,4.42-5.62,14.6-17.18,19.38-21.01.63-.6,1.41-1.04,2.25-1.27.18,0,.27.08.27.25-.07.56-.23,1.1-.45,1.62-1.17,3.15-4.24,9.53-4.24,14.72,0,4.42,3.07,7.83,9.01,7.83,1.82.03,3.62-.29,5.32-.94,4.06-1.53,6.94-4,6.94-6.3,0-1.11-.63-1.62-1.26-1.62M322.82,65.49c0,.17.09.34.27.34-2.96,4.35-6.37,8.37-10.18,12-1.8,1.62-3.15,2.55-4.06,2.55-.45,0-.63-.42-.63-.94.16-1.53.56-3.02,1.17-4.42,2.79-7.4,10-19.74,14.78-19.74,1-.1,1.88.63,1.98,1.62.01.11.01.22,0,.33,0,3.4-3.33,7.4-3.33,8.25M354.18,56.56c.84-.76,1.87-1.28,2.98-1.53.4-.04.77.25.81.66,0,.04,0,.07,0,.11-.11.84-.46,1.64-.99,2.3-2.35,3.49-8.38,9.02-12.44,11.83.32-1.09.74-2.14,1.26-3.15,2.08-3.93,4.93-7.4,8.38-10.22M370.49,79.44c-1.61.85-3.4,1.32-5.23,1.36-.34,0-.67-.07-.99-.17.63-1.19,2.52-1.96,4.96-2.98l4.32-1.87c-.42,1.62-1.55,2.96-3.06,3.66M405.72,75.36c-2.25,1.87-2.79,1.87-3.06,1.87-.26-.01-.46-.23-.45-.49,0,0,0-.01,0-.02.09-.95.37-1.88.81-2.72,2.72-5.75,6.38-11.01,10.82-15.57,1.44-1.36,2.8-2.21,3.79-2.21,1.08,0,2.16,1.87,2.79,3.32-4.24,5.36-10.37,12.25-14.69,15.82M402.3,98.41c-2.52,2.55-3.61,2.64-4.42,2.64-1.58.11-2.95-1.09-3.06-2.67,0-.02,0-.03,0-.05,0-1.28,1.26-2.47,3.06-3.66,2.98-2.04,7.57-4.08,11.9-6.55-2.08,3.71-4.6,7.17-7.48,10.29"/><path id="Path_33" class="cls-2" d="M470.7,72.8c-.72,0-.81.6-1.53,1.28-1.48,1.25-3.16,2.26-4.96,2.98-2.01.97-4.18,1.54-6.4,1.7-2.43,0-3.42-1.53-3.42-3.83,0-4,2.79-9.7,4.15-13.87.27-.83.42-1.68.45-2.55,0-2.55-1.44-5.53-3.52-5.53-.99,0-2.43.77-4.05,1.96-5.95,4.42-14.6,14.89-16.58,17.69,1.44-3.74,4.59-10.21,6.4-13.61.27-.6.81-1.45.99-1.79.09-.08.09-.17.09-.34,0-1.02-1.8-2.38-2.88-2.38-.09,0-.54,0-.9.68-.71,1.18-1.92,3.46-3.26,6.11-2.51,3.62-5.31,7.04-8.36,10.22-2.44,2.55-5.09,4.88-7.93,6.97,3.7-8,6.85-16.42,8.74-19.99.11-.27.17-.56.18-.85,0-1.53-1.8-3.74-3.06-3.74-.81,0-1.08,1.11-2.07,2.47-1.22-2.46-3.74-4.01-6.49-4-1.38.03-2.71.5-3.79,1.36-2.04,1.47-3.87,3.22-5.42,5.2-.18.18-.35.38-.49.59-1.43,1.8-2.75,3.68-3.96,5.64-2.66,3.46-5.6,6.69-8.79,9.66-1.53,1.28-2.79,2.04-3.69,2.04-.81,0-1.08-.68-1.08-1.79,0-4.68,5.77-16.5,6.85-18.46.2-.34.32-.72.36-1.11-.13-1.42-1.28-2.54-2.71-2.64-.99,0-.99.94-2.07,2.89-.7,1.28-1.55,2.95-2.42,4.84-.06.09-.12.18-.19.26-1.02,1.45-2.24,2.77-3.6,3.91-2.74,2.42-5.8,4.46-9.1,6.04-1.17-2.81-2.79-5.36-2.79-8,.03-1.21.41-2.39,1.08-3.4,1.48-2.06,3.27-3.87,5.32-5.36,1.15-.95,2.51-1.62,3.97-1.96.81-.08,1.17-.51,1.17-1.11,0-1.11-1.53-2.81-3.43-2.81-1.17,0-2.61.85-4.06,1.87-2.88,2.07-5.2,4.82-6.76,8-.16.36-.3.72-.42,1.07-.39.46-.84,1.18-1.56,2.25-3.34,4.66-7.22,8.92-11.54,12.68-3.51,3.06-7.48,5.28-10.54,5.28-2.16,0-2.98-2.3-2.98-5.1,4.24-2.3,13.79-9.36,16.85-14.55.63-.99.97-2.14.99-3.32,0-2.98-2.61-4.34-5.14-4.34-4.6,0-10.18,3.74-14.6,12.59-.41.8-.77,1.63-1.08,2.47-2.06,2.58-4.26,5.05-6.58,7.39-1.89,1.87-3.52,3.06-4.51,3.06s-1.35-1.11-1.35-2.38c0-4.17,3.51-12.59,5.32-16.84,0-.09,10.18-19.06,11.45-22.12.18-.52.27-1.07.27-1.62,0-1.87-1.26-3.57-2.43-3.57-.81,0-.99.43-1.53,1.62-3.51,8.13-7.48,16.06-11.9,23.73-.72-1.95-4.15-4.17-6.4-4.17-1.98,0-4.24,1.45-6.4,3.66-4.51,4.51-8.83,12.08-10.82,17.27-.62,1.4-.98,2.9-1.08,4.42.11,3.28,2.67,5.96,5.95,6.21,1.17,0,1.98-.6,3.42-1.7,5.32-4.17,9.74-11.06,11.45-13.78-.58,1.58-.88,3.25-.9,4.93,0,2.81,1.62,6.89,5.59,6.89,2.04-.13,3.97-.94,5.5-2.3,1.41-1.16,2.72-2.43,3.93-3.8.49,5.17,4.08,8.47,8.68,8.47,3.61,0,7.39-2.12,11-5.02,4.2-3.53,7.84-7.66,10.83-12.26.76,2.64,2.26,4.84,3.05,7.07-3.34,1.62-6.58,2.89-8.74,3.91-1.62.77-2.61,1.45-2.79,1.96-.1.33-.16.67-.18,1.02.03,1.77,1.08,3.36,2.7,4.08.99.32,2.03.46,3.06.42,4.69,0,9.82-2.3,9.82-8.25v-1.19c3.1-1.47,6.04-3.25,8.77-5.33-.17.56-.34,1.12-.48,1.67-.15.67-.21,1.36-.18,2.04,0,3.83,2.25,7.32,5.95,7.32,1.59-.08,3.11-.67,4.33-1.7,1.12-.89,2.18-1.85,3.16-2.88.08,2.98,2.02,5.51,4.31,5.51,1.5-.23,2.9-.88,4.06-1.87,5.5-4,12.35-12.42,13.25-13.53-.81,2.13-5.14,12.25-7.21,16.67-6.13,3.49-14.33,6.97-19.02,11.06-1.89,1.61-2.88,2.72-2.88,4.59,0,3.23,3.7,6.47,7.66,6.47,1.56.02,3.09-.49,4.32-1.44,3.7-2.81,7.93-9.19,13.07-18.55,4.83-2.92,9.26-6.44,13.18-10.49-.18.44-.35.85-.48,1.21-.25.63-.43,1.29-.54,1.96,0,1.62,2.7,4.25,3.69,4.25.45,0,.27-.17,1.44-1.7,4.42-5.62,14.6-17.18,19.38-21.01.63-.6,1.41-1.04,2.25-1.27.18,0,.27.08.27.25-.07.56-.23,1.1-.45,1.62-1.17,3.15-4.24,9.53-4.24,14.72,0,4.42,3.07,7.83,9.01,7.83,1.82.03,3.62-.29,5.32-.94,4.06-1.53,6.94-4,6.94-6.3,0-1.11-.63-1.62-1.26-1.62ZM322.82,65.49c0,.17.09.34.27.34-2.96,4.35-6.37,8.37-10.18,12-1.8,1.62-3.15,2.55-4.06,2.55-.45,0-.63-.42-.63-.94.16-1.53.56-3.02,1.17-4.42,2.79-7.4,10-19.74,14.78-19.74,1-.1,1.88.63,1.98,1.62.01.11.01.22,0,.33,0,3.4-3.34,7.4-3.34,8.25ZM354.18,56.56c.84-.76,1.87-1.28,2.98-1.53.4-.04.77.25.81.66,0,.04,0,.07,0,.11-.11.84-.46,1.64-.99,2.3-2.35,3.49-8.38,9.02-12.44,11.83.32-1.09.74-2.14,1.26-3.15,2.08-3.93,4.93-7.4,8.38-10.21h0ZM370.49,79.44c-1.61.85-3.4,1.32-5.23,1.36-.34,0-.67-.07-.99-.17.63-1.19,2.52-1.96,4.96-2.98l4.32-1.87c-.42,1.62-1.55,2.96-3.06,3.66ZM405.72,75.36c-2.25,1.87-2.79,1.87-3.06,1.87-.26-.01-.46-.23-.45-.49,0,0,0-.01,0-.02.09-.95.37-1.88.81-2.72,2.72-5.75,6.38-11.01,10.82-15.57,1.44-1.36,2.8-2.21,3.79-2.21,1.08,0,2.16,1.87,2.79,3.32-4.23,5.36-10.37,12.25-14.69,15.82h0ZM402.3,98.41c-2.52,2.55-3.61,2.64-4.42,2.64-1.58.11-2.95-1.09-3.06-2.67,0-.02,0-.03,0-.05,0-1.28,1.26-2.47,3.06-3.66,2.98-2.04,7.57-4.08,11.9-6.55-2.08,3.71-4.6,7.17-7.48,10.29Z"/><path id="Path_34" class="cls-3" d="M397.39,47.81c.2.07.42.11.64.1.83-.06,1.61-.38,2.24-.93.86-.57,1.35-1.54,1.31-2.57-.34-.98-1.15-1.73-2.15-1.99-.96-.43-2.07-.36-2.98.18-.71.74-.98,1.79-.71,2.77.1,1.04.73,1.95,1.66,2.43"/></g></g></g></g></svg>